<svg width="361" height="56" viewBox="0 0 361 56" fill="none" xmlns="http://www.w3.org/2000/svg">
<mask id="path-1-outside-1_649_2919" maskUnits="userSpaceOnUse" x="-0.784424" y="-0.708252" width="362" height="56" fill="black">
<rect fill="white" x="-0.784424" y="-0.708252" width="362" height="56"/>
<path d="M4.40337 8.40204C3.38783 8.40204 2.49923 8.05295 1.73757 7.35477C1.03939 6.59311 0.690299 5.67278 0.690299 4.59377C0.690299 3.57823 1.03939 2.72136 1.73757 2.02318C2.49923 1.26153 3.38783 0.880697 4.40337 0.880697H12.0199V48.3889C12.0199 49.4679 11.6708 50.3883 10.9726 51.1499C10.2745 51.8481 9.38586 52.1972 8.30685 52.1972C7.29131 52.1972 6.40271 51.8481 5.64106 51.1499C4.94287 50.3883 4.59378 49.4679 4.59378 48.3889V8.40204H4.40337ZM26.0155 27.4569C26.0606 28.944 26.6239 30.2057 27.7054 31.2422C28.7869 32.2786 30.0712 32.7968 31.5582 32.7968H54.8782V43.6119C54.8782 45.099 54.5853 46.4959 53.9994 47.8027C53.4587 49.1095 52.6926 50.2586 51.7012 51.25C50.7099 52.1963 49.5608 52.9624 48.254 53.5482C46.9471 54.089 45.5502 54.3593 44.0631 54.3593H23.8525C23.1315 54.3593 22.5006 54.1115 21.9599 53.6158C21.4642 53.0751 21.2163 52.4442 21.2163 51.7232C21.2163 50.9571 21.4642 50.3262 21.9599 49.8305C22.5006 49.2898 23.1315 49.0194 23.8525 49.0194H44.0631C45.5953 49.0194 46.8795 48.5012 47.916 47.4648C48.9975 46.3832 49.5382 45.099 49.5382 43.6119V38.1368H31.5582C30.0712 38.1368 28.6517 37.8664 27.2998 37.3256C25.993 36.7398 24.8439 35.9738 23.8525 35.0274C22.8611 34.0361 22.0725 32.887 21.4867 31.5802C20.9009 30.2733 20.608 28.8764 20.608 27.3893C20.608 25.9023 20.8784 24.5053 21.4191 23.1985C21.9599 21.8917 22.7259 20.7426 23.7173 19.7512C24.7087 18.7598 25.8578 17.9938 27.1646 17.453C28.4714 16.8672 29.8684 16.5743 31.3554 16.5743H52.242C53.0081 16.5743 53.6389 16.8447 54.1346 17.3854C54.6303 17.8811 54.8782 18.512 54.8782 19.278C54.8782 19.999 54.6303 20.6299 54.1346 21.1707C53.6389 21.6664 53.0081 21.9142 52.242 21.9142H31.3554C30.5894 21.9142 29.8684 22.0719 29.1924 22.3874C28.5616 22.6577 27.9983 23.0408 27.5026 23.5365C27.0069 24.0322 26.6239 24.618 26.3535 25.2939C26.0831 25.9698 25.9479 26.6683 25.9479 27.3893L26.0155 27.4569ZM91.0901 16.5743C91.8561 16.5743 92.487 16.8221 92.9827 17.3178C93.4784 17.8135 93.7262 18.4444 93.7262 19.2104C93.7262 19.9315 93.4784 20.5623 92.9827 21.1031C92.487 21.5988 91.8561 21.8466 91.0901 21.8466H79.2611V51.588C79.2611 52.3541 78.9908 52.9849 78.45 53.4806C77.9543 53.9763 77.346 54.2242 76.625 54.2242C75.8589 54.2242 75.228 53.9763 74.7323 53.4806C74.2366 52.9849 73.9888 52.3541 73.9888 51.588V21.8466H61.6867C60.9206 21.8466 60.2897 21.5988 59.794 21.1031C59.2984 20.5623 59.0505 19.9315 59.0505 19.2104C59.0505 18.4444 59.2984 17.8135 59.794 17.3178C60.2897 16.8221 60.9206 16.5743 61.6867 16.5743H91.0901ZM159.245 0.785492C161.34 0.785492 163.275 1.19806 165.053 2.02318C166.893 2.78484 168.48 3.83211 169.813 5.16501C171.146 6.4979 172.193 8.08468 172.955 9.92535C173.716 11.7025 174.097 13.6067 174.097 15.6378C174.097 17.7323 173.685 19.6999 172.86 21.5406C172.034 23.3178 170.924 24.8728 169.527 26.2057C168.194 27.5386 166.608 28.5859 164.767 29.3475C162.99 30.1092 161.086 30.49 159.055 30.49H136.3V50.4835C136.3 51.5625 135.919 52.4511 135.158 53.1493C134.459 53.8474 133.571 54.1965 132.492 54.1965C131.476 54.1965 130.588 53.8474 129.826 53.1493C129.128 52.4511 128.779 51.5625 128.779 50.4835V0.785492H129.064H159.15H159.245ZM159.245 23.6351C161.466 23.6351 163.339 22.8735 164.862 21.3502C166.386 19.7634 167.147 17.8593 167.147 15.6378C167.147 13.4797 166.386 11.6391 164.862 10.1158C163.339 8.52898 161.466 7.73559 159.245 7.73559H136.3V23.5399H159.245V23.6351ZM226.119 48.4841C226.563 49.1188 226.785 49.7853 226.785 50.4835C226.849 51.1817 226.722 51.8481 226.404 52.4828C226.151 53.0541 225.738 53.5301 225.167 53.9109C224.596 54.2917 223.929 54.4822 223.167 54.4822C221.962 54.4822 221.009 53.9744 220.311 52.9589L203.174 30.7757H190.131V50.6739C190.131 51.626 189.782 52.4511 189.083 53.1493C188.385 53.8474 187.528 54.1965 186.513 54.1965C185.497 54.1965 184.64 53.8474 183.942 53.1493C183.308 52.4511 182.99 51.626 182.99 50.6739V30.7757H182.895V0.690286H213.266C215.36 0.690286 217.296 1.10285 219.074 1.92798C220.914 2.68963 222.501 3.76864 223.834 5.16501C225.23 6.4979 226.309 8.08468 227.071 9.92535C227.896 11.7025 228.309 13.6384 228.309 15.733C228.309 17.8275 227.896 19.7951 227.071 21.6358C226.246 23.413 225.135 24.968 223.739 26.3009C222.342 27.6338 220.724 28.7128 218.883 29.538C217.106 30.2996 215.17 30.6804 213.076 30.6804H212.409L226.119 48.4841ZM213.171 23.4447C215.329 23.4447 217.138 22.7148 218.598 21.255C220.121 19.7317 220.882 17.891 220.882 15.733C220.882 13.5749 220.121 11.766 218.598 10.3062C217.138 8.78287 215.329 8.02121 213.171 8.02121H190.226V23.4447H213.171ZM241.645 1.16632C242.724 1.16632 243.613 1.51541 244.311 2.21359C245.072 2.91178 245.453 3.80038 245.453 4.87938V50.4835C245.453 51.5625 245.072 52.4511 244.311 53.1493C243.613 53.8474 242.724 54.1965 241.645 54.1965C240.629 54.1965 239.741 53.8474 238.979 53.1493C238.281 52.4511 237.932 51.5625 237.932 50.4835V4.87938C237.932 3.80038 238.281 2.91178 238.979 2.21359C239.741 1.51541 240.629 1.16632 241.645 1.16632ZM304.394 9.54452L264.788 46.3896H299.824C300.903 46.3896 301.791 46.7387 302.49 47.4369C303.188 48.135 303.537 49.0236 303.537 50.1026C303.537 51.1817 303.188 52.0703 302.49 52.7684C301.791 53.4666 300.903 53.8157 299.824 53.8157H254.315V45.9135L294.683 8.30684H258.123C257.044 8.30684 256.124 7.95774 255.362 7.25956C254.664 6.4979 254.315 5.60931 254.315 4.59377C254.315 3.51476 254.664 2.62616 255.362 1.92798C256.124 1.16632 257.044 0.785492 258.123 0.785492H304.394V9.54452ZM318.972 31.4421V38.1066C318.972 39.3125 319.194 40.455 319.639 41.534C320.147 42.613 320.813 43.5651 321.638 44.3902C322.463 45.1519 323.415 45.7549 324.494 46.1992C325.573 46.6435 326.748 46.8656 328.017 46.8656H356.484C357.499 46.8656 358.356 47.2147 359.054 47.9129C359.816 48.6111 360.197 49.4997 360.197 50.5787C360.197 51.5942 359.816 52.4828 359.054 53.2445C358.356 53.9427 357.499 54.2917 356.484 54.2917H328.017C325.732 54.2917 323.574 53.8792 321.543 53.0541C319.575 52.1655 317.862 50.9912 316.402 49.5314C314.942 48.0716 313.768 46.3578 312.879 44.3902C312.054 42.4226 311.641 40.3281 311.641 38.1066V17.2563C311.641 15.0348 312.054 12.972 312.879 11.0678C313.768 9.10023 314.942 7.3865 316.402 5.92666C317.862 4.46683 319.575 3.32434 321.543 2.49922C323.574 1.61062 325.732 1.16632 328.017 1.16632H356.484C357.499 1.16632 358.356 1.51541 359.054 2.21359C359.816 2.91178 360.197 3.80038 360.197 4.87938C360.197 5.89493 359.816 6.78352 359.054 7.54518C358.356 8.24336 357.499 8.59246 356.484 8.59246H328.017C326.748 8.59246 325.573 8.8146 324.494 9.2589C323.415 9.7032 322.463 10.3379 321.638 11.163C320.813 11.9247 320.147 12.845 319.639 13.924C319.194 14.9396 318.972 16.0503 318.972 17.2563V24.016H356.484C357.499 24.016 358.356 24.3651 359.054 25.0632C359.816 25.7614 360.197 26.65 360.197 27.729C360.197 28.7446 359.816 29.6332 359.054 30.3948C358.356 31.093 357.499 31.4421 356.484 31.4421H318.972Z"/>
</mask>
<path d="M4.40337 8.40204C3.38783 8.40204 2.49923 8.05295 1.73757 7.35477C1.03939 6.59311 0.690299 5.67278 0.690299 4.59377C0.690299 3.57823 1.03939 2.72136 1.73757 2.02318C2.49923 1.26153 3.38783 0.880697 4.40337 0.880697H12.0199V48.3889C12.0199 49.4679 11.6708 50.3883 10.9726 51.1499C10.2745 51.8481 9.38586 52.1972 8.30685 52.1972C7.29131 52.1972 6.40271 51.8481 5.64106 51.1499C4.94287 50.3883 4.59378 49.4679 4.59378 48.3889V8.40204H4.40337ZM26.0155 27.4569C26.0606 28.944 26.6239 30.2057 27.7054 31.2422C28.7869 32.2786 30.0712 32.7968 31.5582 32.7968H54.8782V43.6119C54.8782 45.099 54.5853 46.4959 53.9994 47.8027C53.4587 49.1095 52.6926 50.2586 51.7012 51.25C50.7099 52.1963 49.5608 52.9624 48.254 53.5482C46.9471 54.089 45.5502 54.3593 44.0631 54.3593H23.8525C23.1315 54.3593 22.5006 54.1115 21.9599 53.6158C21.4642 53.0751 21.2163 52.4442 21.2163 51.7232C21.2163 50.9571 21.4642 50.3262 21.9599 49.8305C22.5006 49.2898 23.1315 49.0194 23.8525 49.0194H44.0631C45.5953 49.0194 46.8795 48.5012 47.916 47.4648C48.9975 46.3832 49.5382 45.099 49.5382 43.6119V38.1368H31.5582C30.0712 38.1368 28.6517 37.8664 27.2998 37.3256C25.993 36.7398 24.8439 35.9738 23.8525 35.0274C22.8611 34.0361 22.0725 32.887 21.4867 31.5802C20.9009 30.2733 20.608 28.8764 20.608 27.3893C20.608 25.9023 20.8784 24.5053 21.4191 23.1985C21.9599 21.8917 22.7259 20.7426 23.7173 19.7512C24.7087 18.7598 25.8578 17.9938 27.1646 17.453C28.4714 16.8672 29.8684 16.5743 31.3554 16.5743H52.242C53.0081 16.5743 53.6389 16.8447 54.1346 17.3854C54.6303 17.8811 54.8782 18.512 54.8782 19.278C54.8782 19.999 54.6303 20.6299 54.1346 21.1707C53.6389 21.6664 53.0081 21.9142 52.242 21.9142H31.3554C30.5894 21.9142 29.8684 22.0719 29.1924 22.3874C28.5616 22.6577 27.9983 23.0408 27.5026 23.5365C27.0069 24.0322 26.6239 24.618 26.3535 25.2939C26.0831 25.9698 25.9479 26.6683 25.9479 27.3893L26.0155 27.4569ZM91.0901 16.5743C91.8561 16.5743 92.487 16.8221 92.9827 17.3178C93.4784 17.8135 93.7262 18.4444 93.7262 19.2104C93.7262 19.9315 93.4784 20.5623 92.9827 21.1031C92.487 21.5988 91.8561 21.8466 91.0901 21.8466H79.2611V51.588C79.2611 52.3541 78.9908 52.9849 78.45 53.4806C77.9543 53.9763 77.346 54.2242 76.625 54.2242C75.8589 54.2242 75.228 53.9763 74.7323 53.4806C74.2366 52.9849 73.9888 52.3541 73.9888 51.588V21.8466H61.6867C60.9206 21.8466 60.2897 21.5988 59.794 21.1031C59.2984 20.5623 59.0505 19.9315 59.0505 19.2104C59.0505 18.4444 59.2984 17.8135 59.794 17.3178C60.2897 16.8221 60.9206 16.5743 61.6867 16.5743H91.0901ZM159.245 0.785492C161.34 0.785492 163.275 1.19806 165.053 2.02318C166.893 2.78484 168.48 3.83211 169.813 5.16501C171.146 6.4979 172.193 8.08468 172.955 9.92535C173.716 11.7025 174.097 13.6067 174.097 15.6378C174.097 17.7323 173.685 19.6999 172.86 21.5406C172.034 23.3178 170.924 24.8728 169.527 26.2057C168.194 27.5386 166.608 28.5859 164.767 29.3475C162.99 30.1092 161.086 30.49 159.055 30.49H136.3V50.4835C136.3 51.5625 135.919 52.4511 135.158 53.1493C134.459 53.8474 133.571 54.1965 132.492 54.1965C131.476 54.1965 130.588 53.8474 129.826 53.1493C129.128 52.4511 128.779 51.5625 128.779 50.4835V0.785492H129.064H159.15H159.245ZM159.245 23.6351C161.466 23.6351 163.339 22.8735 164.862 21.3502C166.386 19.7634 167.147 17.8593 167.147 15.6378C167.147 13.4797 166.386 11.6391 164.862 10.1158C163.339 8.52898 161.466 7.73559 159.245 7.73559H136.3V23.5399H159.245V23.6351ZM226.119 48.4841C226.563 49.1188 226.785 49.7853 226.785 50.4835C226.849 51.1817 226.722 51.8481 226.404 52.4828C226.151 53.0541 225.738 53.5301 225.167 53.9109C224.596 54.2917 223.929 54.4822 223.167 54.4822C221.962 54.4822 221.009 53.9744 220.311 52.9589L203.174 30.7757H190.131V50.6739C190.131 51.626 189.782 52.4511 189.083 53.1493C188.385 53.8474 187.528 54.1965 186.513 54.1965C185.497 54.1965 184.64 53.8474 183.942 53.1493C183.308 52.4511 182.99 51.626 182.99 50.6739V30.7757H182.895V0.690286H213.266C215.36 0.690286 217.296 1.10285 219.074 1.92798C220.914 2.68963 222.501 3.76864 223.834 5.16501C225.23 6.4979 226.309 8.08468 227.071 9.92535C227.896 11.7025 228.309 13.6384 228.309 15.733C228.309 17.8275 227.896 19.7951 227.071 21.6358C226.246 23.413 225.135 24.968 223.739 26.3009C222.342 27.6338 220.724 28.7128 218.883 29.538C217.106 30.2996 215.17 30.6804 213.076 30.6804H212.409L226.119 48.4841ZM213.171 23.4447C215.329 23.4447 217.138 22.7148 218.598 21.255C220.121 19.7317 220.882 17.891 220.882 15.733C220.882 13.5749 220.121 11.766 218.598 10.3062C217.138 8.78287 215.329 8.02121 213.171 8.02121H190.226V23.4447H213.171ZM241.645 1.16632C242.724 1.16632 243.613 1.51541 244.311 2.21359C245.072 2.91178 245.453 3.80038 245.453 4.87938V50.4835C245.453 51.5625 245.072 52.4511 244.311 53.1493C243.613 53.8474 242.724 54.1965 241.645 54.1965C240.629 54.1965 239.741 53.8474 238.979 53.1493C238.281 52.4511 237.932 51.5625 237.932 50.4835V4.87938C237.932 3.80038 238.281 2.91178 238.979 2.21359C239.741 1.51541 240.629 1.16632 241.645 1.16632ZM304.394 9.54452L264.788 46.3896H299.824C300.903 46.3896 301.791 46.7387 302.49 47.4369C303.188 48.135 303.537 49.0236 303.537 50.1026C303.537 51.1817 303.188 52.0703 302.49 52.7684C301.791 53.4666 300.903 53.8157 299.824 53.8157H254.315V45.9135L294.683 8.30684H258.123C257.044 8.30684 256.124 7.95774 255.362 7.25956C254.664 6.4979 254.315 5.60931 254.315 4.59377C254.315 3.51476 254.664 2.62616 255.362 1.92798C256.124 1.16632 257.044 0.785492 258.123 0.785492H304.394V9.54452ZM318.972 31.4421V38.1066C318.972 39.3125 319.194 40.455 319.639 41.534C320.147 42.613 320.813 43.5651 321.638 44.3902C322.463 45.1519 323.415 45.7549 324.494 46.1992C325.573 46.6435 326.748 46.8656 328.017 46.8656H356.484C357.499 46.8656 358.356 47.2147 359.054 47.9129C359.816 48.6111 360.197 49.4997 360.197 50.5787C360.197 51.5942 359.816 52.4828 359.054 53.2445C358.356 53.9427 357.499 54.2917 356.484 54.2917H328.017C325.732 54.2917 323.574 53.8792 321.543 53.0541C319.575 52.1655 317.862 50.9912 316.402 49.5314C314.942 48.0716 313.768 46.3578 312.879 44.3902C312.054 42.4226 311.641 40.3281 311.641 38.1066V17.2563C311.641 15.0348 312.054 12.972 312.879 11.0678C313.768 9.10023 314.942 7.3865 316.402 5.92666C317.862 4.46683 319.575 3.32434 321.543 2.49922C323.574 1.61062 325.732 1.16632 328.017 1.16632H356.484C357.499 1.16632 358.356 1.51541 359.054 2.21359C359.816 2.91178 360.197 3.80038 360.197 4.87938C360.197 5.89493 359.816 6.78352 359.054 7.54518C358.356 8.24336 357.499 8.59246 356.484 8.59246H328.017C326.748 8.59246 325.573 8.8146 324.494 9.2589C323.415 9.7032 322.463 10.3379 321.638 11.163C320.813 11.9247 320.147 12.845 319.639 13.924C319.194 14.9396 318.972 16.0503 318.972 17.2563V24.016H356.484C357.499 24.016 358.356 24.3651 359.054 25.0632C359.816 25.7614 360.197 26.65 360.197 27.729C360.197 28.7446 359.816 29.6332 359.054 30.3948C358.356 31.093 357.499 31.4421 356.484 31.4421H318.972Z" fill="white"/>
<path d="M1.73757 7.35477L1.22872 7.82122L1.249 7.84334L1.27112 7.86362L1.73757 7.35477ZM1.73757 2.02318L2.22569 2.5113H2.22569L1.73757 2.02318ZM12.0199 0.880699H12.7102V0.190399H12.0199V0.880699ZM10.9726 51.1499L11.4608 51.638L11.4714 51.6274L11.4815 51.6164L10.9726 51.1499ZM5.64106 51.1499L5.1322 51.6164L5.15248 51.6385L5.1746 51.6588L5.64106 51.1499ZM4.59378 8.40204H5.28408V7.71174H4.59378V8.40204ZM4.40337 8.40204V7.71174C3.56384 7.71174 2.84083 7.42964 2.20403 6.84591L1.73757 7.35477L1.27112 7.86362C2.15763 8.67625 3.21182 9.09234 4.40337 9.09234V8.40204ZM1.73757 7.35477L2.24643 6.88831C1.67051 6.26004 1.3806 5.50849 1.3806 4.59377H0.690299H0C0 5.83707 0.408267 6.92618 1.22872 7.82122L1.73757 7.35477ZM0.690299 4.59377H1.3806C1.3806 3.75546 1.66104 3.07595 2.22569 2.5113L1.73757 2.02318L1.24946 1.53507C0.417746 2.36678 0 3.40099 0 4.59377H0.690299ZM1.73757 2.02318L2.22569 2.5113C2.8666 1.87038 3.58287 1.571 4.40337 1.571V0.880699V0.190399C3.19278 0.190399 2.13185 0.652672 1.24946 1.53507L1.73757 2.02318ZM4.40337 0.880699V1.571H12.0199V0.880699V0.190399H4.40337V0.880699ZM12.0199 0.880699H11.3296V48.3889H12.0199H12.7102V0.880699H12.0199ZM12.0199 48.3889H11.3296C11.3296 49.3036 11.0397 50.0552 10.4638 50.6835L10.9726 51.1499L11.4815 51.6164C12.3019 50.7213 12.7102 49.6322 12.7102 48.3889H12.0199ZM10.9726 51.1499L10.4845 50.6618C9.92845 51.2179 9.22148 51.5069 8.30685 51.5069V52.1972V52.8875C9.55024 52.8875 10.6205 52.4783 11.4608 51.638L10.9726 51.1499ZM8.30685 52.1972V51.5069C7.46732 51.5069 6.74431 51.2248 6.10751 50.6411L5.64106 51.1499L5.1746 51.6588C6.06111 52.4714 7.1153 52.8875 8.30685 52.8875V52.1972ZM5.64106 51.1499L6.14991 50.6835C5.57399 50.0552 5.28408 49.3036 5.28408 48.3889H4.59378H3.90348C3.90348 49.6322 4.31175 50.7213 5.1322 51.6164L5.64106 51.1499ZM4.59378 48.3889H5.28408V8.40204H4.59378H3.90348V48.3889H4.59378ZM4.59378 8.40204V7.71174H4.40337V8.40204V9.09234H4.59378V8.40204ZM26.0155 27.4569L26.7055 27.436L26.6972 27.1624L26.5036 26.9688L26.0155 27.4569ZM54.8782 32.7968H55.5685V32.1065H54.8782V32.7968ZM53.9995 47.8027L53.3695 47.5204L53.3654 47.5295L53.3616 47.5388L53.9995 47.8027ZM51.7012 51.25L52.1779 51.7494L52.1837 51.7438L52.1894 51.7381L51.7012 51.25ZM48.254 53.5482L48.5179 54.1861L48.5272 54.1822L48.5363 54.1781L48.254 53.5482ZM21.9599 53.6158L21.451 54.0823L21.4713 54.1044L21.4934 54.1247L21.9599 53.6158ZM21.9599 49.8305L22.448 50.3187V50.3187L21.9599 49.8305ZM47.916 47.4648L48.4041 47.9529V47.9529L47.916 47.4648ZM49.5382 38.1368H50.2285V37.4465H49.5382V38.1368ZM27.2998 37.3256L27.0174 37.9556L27.0303 37.9613L27.0434 37.9666L27.2998 37.3256ZM23.8525 35.0275L23.3644 35.5156L23.3701 35.5212L23.3759 35.5268L23.8525 35.0275ZM21.4867 31.5802L22.1166 31.2978V31.2978L21.4867 31.5802ZM21.4191 23.1985L22.057 23.4624V23.4624L21.4191 23.1985ZM23.7173 19.7512L23.2292 19.2631V19.2631L23.7173 19.7512ZM27.1646 17.453L27.4286 18.0909L27.4378 18.087L27.447 18.0829L27.1646 17.453ZM54.1346 17.3854L53.6258 17.8519L53.6359 17.8629L53.6465 17.8735L54.1346 17.3854ZM54.1346 21.1707L54.6227 21.6588L54.6334 21.6482L54.6435 21.6371L54.1346 21.1707ZM29.1924 22.3874L29.4644 23.0219L29.4744 23.0175L29.4844 23.0129L29.1924 22.3874ZM27.5026 23.5365L27.9907 24.0246V24.0246L27.5026 23.5365ZM26.3535 25.2939L26.9944 25.5503V25.5503L26.3535 25.2939ZM25.9479 27.3893H25.2576V27.6753L25.4598 27.8774L25.9479 27.3893ZM26.0155 27.4569L25.3255 27.4778C25.3761 29.1471 26.0166 30.5799 27.2277 31.7406L27.7054 31.2422L28.183 30.7438C27.2311 29.8316 26.745 28.7409 26.7055 27.436L26.0155 27.4569ZM27.7054 31.2422L27.2277 31.7406C28.4367 32.8992 29.8917 33.4871 31.5582 33.4871V32.7968V32.1065C30.2506 32.1065 29.137 31.6581 28.183 30.7438L27.7054 31.2422ZM31.5582 32.7968V33.4871H54.8782V32.7968V32.1065H31.5582V32.7968ZM54.8782 32.7968H54.1879V43.6119H54.8782H55.5685V32.7968H54.8782ZM54.8782 43.6119H54.1879C54.1879 45.0055 53.914 46.3058 53.3695 47.5204L53.9995 47.8027L54.6294 48.0851C55.2565 46.686 55.5685 45.1925 55.5685 43.6119H54.8782ZM53.9995 47.8027L53.3616 47.5388C52.8552 48.7625 52.1398 49.8353 51.2131 50.7619L51.7012 51.25L52.1894 51.7381C53.2455 50.682 54.0622 49.4566 54.6373 48.0667L53.9995 47.8027ZM51.7012 51.25L51.2246 50.7507C50.2926 51.6403 49.2099 52.3632 47.9716 52.9183L48.254 53.5482L48.5363 54.1781C49.9116 53.5616 51.1271 52.7523 52.1779 51.7494L51.7012 51.25ZM48.254 53.5482L47.99 52.9104C46.7712 53.4147 45.4644 53.669 44.0631 53.669V54.3593V55.0496C45.636 55.0496 47.1231 54.7632 48.5179 54.1861L48.254 53.5482ZM44.0631 54.3593V53.669H23.8525V54.3593V55.0496H44.0631V54.3593ZM23.8525 54.3593V53.669C23.3075 53.669 22.8422 53.4882 22.4263 53.1069L21.9599 53.6158L21.4934 54.1247C22.159 54.7348 22.9555 55.0496 23.8525 55.0496V54.3593ZM21.9599 53.6158L22.4687 53.1494C22.0875 52.7335 21.9066 52.2682 21.9066 51.7232H21.2163H20.526C20.526 52.6202 20.8409 53.4166 21.451 54.0823L21.9599 53.6158ZM21.2163 51.7232H21.9066C21.9066 51.1215 22.0944 50.6722 22.448 50.3187L21.9599 49.8305L21.4718 49.3424C20.834 49.9802 20.526 50.7927 20.526 51.7232H21.2163ZM21.9599 49.8305L22.448 50.3187C22.868 49.8986 23.3266 49.7097 23.8525 49.7097V49.0194V48.3291C22.9365 48.3291 22.1333 48.6809 21.4718 49.3424L21.9599 49.8305ZM23.8525 49.0194V49.7097H44.0631V49.0194V48.3291H23.8525V49.0194ZM44.0631 49.0194V49.7097C45.7691 49.7097 47.2318 49.1252 48.4041 47.9529L47.916 47.4648L47.4279 46.9766C46.5273 47.8772 45.4214 48.3291 44.0631 48.3291V49.0194ZM47.916 47.4648L48.4041 47.9529C49.6109 46.746 50.2285 45.2878 50.2285 43.6119H49.5382H48.8479C48.8479 44.9101 48.384 46.0205 47.4279 46.9766L47.916 47.4648ZM49.5382 43.6119H50.2285V38.1368H49.5382H48.8479V43.6119H49.5382ZM49.5382 38.1368V37.4465H31.5582V38.1368V38.8271H49.5382V38.1368ZM31.5582 38.1368V37.4465C30.1571 37.4465 28.8248 37.1922 27.5562 36.6847L27.2998 37.3256L27.0434 37.9666C28.4786 38.5406 29.9853 38.8271 31.5582 38.8271V38.1368ZM27.2998 37.3256L27.5822 36.6957C26.3438 36.1406 25.2612 35.4178 24.3291 34.5281L23.8525 35.0275L23.3759 35.5268C24.4266 36.5298 25.6422 37.3391 27.0174 37.9556L27.2998 37.3256ZM23.8525 35.0275L24.3406 34.5393C23.4099 33.6086 22.6688 32.5296 22.1166 31.2978L21.4867 31.5802L20.8568 31.8625C21.4762 33.2443 22.3123 34.4635 23.3644 35.5156L23.8525 35.0275ZM21.4867 31.5802L22.1166 31.2978C21.5722 30.0832 21.2983 28.7829 21.2983 27.3893H20.608H19.9177C19.9177 28.9699 20.2297 30.4635 20.8568 31.8625L21.4867 31.5802ZM20.608 27.3893H21.2983C21.2983 25.9881 21.5526 24.6813 22.057 23.4624L21.4191 23.1985L20.7813 22.9346C20.2041 24.3293 19.9177 25.8164 19.9177 27.3893H20.608ZM21.4191 23.1985L22.057 23.4624C22.5633 22.2387 23.2788 21.166 24.2054 20.2393L23.7173 19.7512L23.2292 19.2631C22.1731 20.3192 21.3564 21.5447 20.7813 22.9346L21.4191 23.1985ZM23.7173 19.7512L24.2054 20.2393C25.1321 19.3127 26.2048 18.5972 27.4286 18.0909L27.1646 17.453L26.9007 16.8152C25.5108 17.3903 24.2853 18.207 23.2292 19.2631L23.7173 19.7512ZM27.1646 17.453L27.447 18.0829C28.6616 17.5384 29.9619 17.2646 31.3554 17.2646V16.5743V15.884C29.7749 15.884 28.2813 16.1959 26.8822 16.8231L27.1646 17.453ZM31.3554 16.5743V17.2646H52.242V16.5743V15.884H31.3554V16.5743ZM52.242 16.5743V17.2646C52.8243 17.2646 53.2672 17.4607 53.6258 17.8519L54.1346 17.3854L54.6435 16.919C54.0107 16.2286 53.1919 15.884 52.242 15.884V16.5743ZM54.1346 17.3854L53.6465 17.8735C54.0001 18.2271 54.1879 18.6764 54.1879 19.278H54.8782H55.5685C55.5685 18.3476 55.2605 17.5351 54.6227 16.8973L54.1346 17.3854ZM54.8782 19.278H54.1879C54.1879 19.823 54.007 20.2883 53.6258 20.7042L54.1346 21.1707L54.6435 21.6371C55.2536 20.9715 55.5685 20.1751 55.5685 19.278H54.8782ZM54.1346 21.1707L53.6465 20.6826C53.2929 21.0361 52.8437 21.2239 52.242 21.2239V21.9142V22.6045C53.1724 22.6045 53.985 22.2966 54.6227 21.6588L54.1346 21.1707ZM52.242 21.9142V21.2239H31.3554V21.9142V22.6045H52.242V21.9142ZM31.3554 21.9142V21.2239C30.4913 21.2239 29.6704 21.4026 28.9005 21.7618L29.1924 22.3874L29.4844 23.0129C30.0664 22.7413 30.6874 22.6045 31.3554 22.6045V21.9142ZM29.1924 22.3874L28.9205 21.7529C28.2072 22.0586 27.5709 22.4919 27.0145 23.0484L27.5026 23.5365L27.9907 24.0246C28.4256 23.5896 28.9159 23.2569 29.4644 23.0219L29.1924 22.3874ZM27.5026 23.5365L27.0145 23.0484C26.4501 23.6127 26.0163 24.2782 25.7126 25.0375L26.3535 25.2939L26.9944 25.5503C27.2314 24.9577 27.5637 24.4516 27.9907 24.0246L27.5026 23.5365ZM26.3535 25.2939L25.7126 25.0375C25.4099 25.7942 25.2576 26.5796 25.2576 27.3893H25.9479H26.6382C26.6382 26.757 26.7563 26.1455 26.9944 25.5503L26.3535 25.2939ZM25.9479 27.3893L25.4598 27.8774L25.5274 27.945L26.0155 27.4569L26.5036 26.9688L26.436 26.9012L25.9479 27.3893ZM92.9827 17.3178L93.4708 16.8297L93.4708 16.8297L92.9827 17.3178ZM92.9827 21.1031L93.4708 21.5912L93.4814 21.5806L93.4916 21.5695L92.9827 21.1031ZM79.2611 21.8466V21.1563H78.5708V21.8466H79.2611ZM78.45 53.4806L77.9836 52.9718L77.9725 52.9819L77.9619 52.9925L78.45 53.4806ZM74.7323 53.4806L74.2442 53.9687V53.9687L74.7323 53.4806ZM73.9888 21.8466H74.6791V21.1563H73.9888V21.8466ZM59.794 21.1031L59.2852 21.5695L59.2953 21.5806L59.3059 21.5912L59.794 21.1031ZM59.794 17.3178L59.3059 16.8297L59.3059 16.8297L59.794 17.3178ZM91.0901 16.5743V17.2646C91.6918 17.2646 92.141 17.4523 92.4946 17.8059L92.9827 17.3178L93.4708 16.8297C92.833 16.1919 92.0205 15.884 91.0901 15.884V16.5743ZM92.9827 17.3178L92.4946 17.8059C92.8482 18.1595 93.0359 18.6088 93.0359 19.2104H93.7262H94.4165C94.4165 18.28 94.1086 17.4675 93.4708 16.8297L92.9827 17.3178ZM93.7262 19.2104H93.0359C93.0359 19.7554 92.8551 20.2207 92.4739 20.6366L92.9827 21.1031L93.4916 21.5695C94.1017 20.9039 94.4165 20.1075 94.4165 19.2104H93.7262ZM92.9827 21.1031L92.4946 20.615C92.141 20.9685 91.6918 21.1563 91.0901 21.1563V21.8466V22.5369C92.0205 22.5369 92.833 22.229 93.4708 21.5912L92.9827 21.1031ZM91.0901 21.8466V21.1563H79.2611V21.8466V22.5369H91.0901V21.8466ZM79.2611 21.8466H78.5708V51.588H79.2611H79.9514V21.8466H79.2611ZM79.2611 51.588H78.5708C78.5708 52.1702 78.3747 52.6132 77.9836 52.9718L78.45 53.4806L78.9165 53.9895C79.6068 53.3566 79.9514 52.5379 79.9514 51.588H79.2611ZM78.45 53.4806L77.9619 52.9925C77.5997 53.3547 77.1687 53.5339 76.625 53.5339V54.2242V54.9145C77.5232 54.9145 78.3089 54.598 78.9381 53.9687L78.45 53.4806ZM76.625 54.2242V53.5339C76.0233 53.5339 75.574 53.3461 75.2204 52.9925L74.7323 53.4806L74.2442 53.9687C74.882 54.6065 75.6945 54.9145 76.625 54.9145V54.2242ZM74.7323 53.4806L75.2204 52.9925C74.8669 52.6389 74.6791 52.1897 74.6791 51.588H73.9888H73.2985C73.2985 52.5184 73.6064 53.3309 74.2442 53.9687L74.7323 53.4806ZM73.9888 51.588H74.6791V21.8466H73.9888H73.2985V51.588H73.9888ZM73.9888 21.8466V21.1563H61.6867V21.8466V22.5369H73.9888V21.8466ZM61.6867 21.8466V21.1563C61.085 21.1563 60.6357 20.9685 60.2822 20.615L59.794 21.1031L59.3059 21.5912C59.9437 22.229 60.7562 22.5369 61.6867 22.5369V21.8466ZM59.794 21.1031L60.3029 20.6366C59.9217 20.2207 59.7408 19.7554 59.7408 19.2104H59.0505H58.3602C58.3602 20.1075 58.6751 20.9039 59.2852 21.5695L59.794 21.1031ZM59.0505 19.2104H59.7408C59.7408 18.6088 59.9286 18.1595 60.2822 17.8059L59.794 17.3178L59.3059 16.8297C58.6681 17.4675 58.3602 18.28 58.3602 19.2104H59.0505ZM59.794 17.3178L60.2822 17.8059C60.6357 17.4523 61.085 17.2646 61.6867 17.2646V16.5743V15.884C60.7562 15.884 59.9437 16.1919 59.3059 16.8297L59.794 17.3178ZM61.6867 16.5743V17.2646H91.0901V16.5743V15.884H61.6867V16.5743ZM165.053 2.02318L164.762 2.64929L164.775 2.65544L164.789 2.66103L165.053 2.02318ZM169.813 5.16501L170.301 4.67689L169.813 5.16501ZM172.955 9.92535L172.317 10.1893L172.32 10.1973L172.955 9.92535ZM172.86 21.5406L173.486 21.8313L173.489 21.823L172.86 21.5406ZM169.527 26.2057L169.051 25.7064L169.045 25.7119L169.039 25.7176L169.527 26.2057ZM164.767 29.3475L164.503 28.7097L164.495 28.7131L164.767 29.3475ZM136.3 30.49V29.7997H135.61V30.49H136.3ZM135.158 53.1493L134.691 52.6404L134.68 52.6505L134.67 52.6611L135.158 53.1493ZM129.826 53.1493L129.338 53.6374L129.349 53.648L129.36 53.6581L129.826 53.1493ZM128.779 0.785492V0.095192H128.089V0.785492H128.779ZM159.245 23.6351H158.555V24.3254H159.245V23.6351ZM164.862 21.3502L165.35 21.8384L165.36 21.8282L164.862 21.3502ZM164.862 10.1158L164.364 10.5939L164.374 10.6039L164.862 10.1158ZM136.3 7.73559V7.0453H135.61V7.73559H136.3ZM136.3 23.5399H135.61V24.2302H136.3V23.5399ZM159.245 23.5399H159.935V22.8496H159.245V23.5399ZM159.245 0.785492V1.47579C161.246 1.47579 163.082 1.86932 164.762 2.64929L165.053 2.02318L165.343 1.39708C163.469 0.526791 161.433 0.095192 159.245 0.095192V0.785492ZM165.053 2.02318L164.789 2.66103C166.55 3.38999 168.06 4.38799 169.325 5.65312L169.813 5.16501L170.301 4.67689C168.9 3.27624 167.236 2.17968 165.317 1.38533L165.053 2.02318ZM169.813 5.16501L169.325 5.65312C170.59 6.91826 171.588 8.42763 172.317 10.1893L172.955 9.92535L173.593 9.66142C172.798 7.74174 171.702 6.07755 170.301 4.67689L169.813 5.16501ZM172.955 9.92535L172.32 10.1973C173.043 11.8842 173.407 13.6954 173.407 15.6378H174.097H174.788C174.788 13.518 174.39 11.5209 173.589 9.65343L172.955 9.92535ZM174.097 15.6378H173.407C173.407 17.6388 173.013 19.5098 172.23 21.2582L172.86 21.5406L173.489 21.823C174.356 19.8901 174.788 17.8258 174.788 15.6378H174.097ZM172.86 21.5406L172.233 21.2499C171.444 22.95 170.384 24.434 169.051 25.7064L169.527 26.2057L170.004 26.7051C171.464 25.3117 172.625 23.6856 173.486 21.8313L172.86 21.5406ZM169.527 26.2057L169.039 25.7176C167.774 26.9827 166.265 27.9807 164.503 28.7097L164.767 29.3475L165.031 29.9854C166.951 29.191 168.615 28.0945 170.015 26.6938L169.527 26.2057ZM164.767 29.3475L164.495 28.7131C162.808 29.4361 160.997 29.7997 159.055 29.7997V30.49V31.1803C161.174 31.1803 163.171 30.7824 165.039 29.982L164.767 29.3475ZM159.055 30.49V29.7997H136.3V30.49V31.1803H159.055V30.49ZM136.3 30.49H135.61V50.4835H136.3H136.99V30.49H136.3ZM136.3 50.4835H135.61C135.61 51.3787 135.303 52.0794 134.691 52.6404L135.158 53.1493L135.624 53.6581C136.535 52.8228 136.99 51.7463 136.99 50.4835H136.3ZM135.158 53.1493L134.67 52.6611C134.113 53.2172 133.406 53.5062 132.492 53.5062V54.1965V54.8868C133.735 54.8868 134.805 54.4777 135.646 53.6374L135.158 53.1493ZM132.492 54.1965V53.5062C131.652 53.5062 130.929 53.2241 130.293 52.6404L129.826 53.1493L129.36 53.6581C130.246 54.4708 131.3 54.8868 132.492 54.8868V54.1965ZM129.826 53.1493L130.314 52.6611C129.758 52.1051 129.469 51.3981 129.469 50.4835H128.779H128.089C128.089 51.7269 128.498 52.7971 129.338 53.6374L129.826 53.1493ZM128.779 50.4835H129.469V0.785492H128.779H128.089V50.4835H128.779ZM128.779 0.785492V1.47579H129.064V0.785492V0.095192H128.779V0.785492ZM129.064 0.785492V1.47579H159.15V0.785492V0.095192H129.064V0.785492ZM159.15 0.785492V1.47579H159.245V0.785492V0.095192H159.15V0.785492ZM159.245 23.6351V24.3254C161.643 24.3254 163.693 23.4955 165.35 21.8383L164.862 21.3502L164.374 20.8621C162.985 22.2515 161.29 22.9448 159.245 22.9448V23.6351ZM164.862 21.3502L165.36 21.8282C167.008 20.1115 167.837 18.0355 167.837 15.6378H167.147H166.457C166.457 17.683 165.763 19.4153 164.364 20.8721L164.862 21.3502ZM167.147 15.6378H167.837C167.837 13.297 167.003 11.2807 165.35 9.62765L164.862 10.1158L164.374 10.6039C165.768 11.9975 166.457 13.6625 166.457 15.6378H167.147ZM164.862 10.1158L165.36 9.63771C163.705 7.91382 161.652 7.0453 159.245 7.0453V7.73559V8.42589C161.281 8.42589 162.973 9.14415 164.364 10.5938L164.862 10.1158ZM159.245 7.73559V7.0453H136.3V7.73559V8.42589H159.245V7.73559ZM136.3 7.73559H135.61V23.5399H136.3H136.99V7.73559H136.3ZM136.3 23.5399V24.2302H159.245V23.5399V22.8496H136.3V23.5399ZM159.245 23.5399H158.555V23.6351H159.245H159.935V23.5399H159.245ZM226.119 48.4841L226.684 48.0883L226.675 48.0754L226.666 48.063L226.119 48.4841ZM226.785 50.4835H226.095V50.5148L226.098 50.546L226.785 50.4835ZM226.404 52.4828L225.787 52.1741L225.78 52.1881L225.774 52.2025L226.404 52.4828ZM225.167 53.9109L225.55 54.4853V54.4853L225.167 53.9109ZM220.311 52.9589L220.88 52.5678L220.869 52.552L220.858 52.5368L220.311 52.9589ZM203.174 30.7757L203.72 30.3536L203.513 30.0854H203.174V30.7757ZM190.131 30.7757V30.0854H189.44V30.7757H190.131ZM189.083 53.1493L189.572 53.6374V53.6374L189.083 53.1493ZM183.942 53.1493L183.431 53.6136L183.443 53.6258L183.454 53.6374L183.942 53.1493ZM182.99 30.7757H183.68V30.0854H182.99V30.7757ZM182.895 30.7757H182.205V31.466H182.895V30.7757ZM182.895 0.690285V-1.14441e-05H182.205V0.690285H182.895ZM219.074 1.92797L218.783 2.55408L218.796 2.56024L218.81 2.56582L219.074 1.92797ZM223.834 5.16501L223.335 5.64164L223.346 5.65326L223.357 5.66434L223.834 5.16501ZM227.071 9.92535L226.433 10.1893L226.439 10.2028L226.445 10.216L227.071 9.92535ZM227.071 21.6358L227.697 21.9265L227.701 21.9182L227.071 21.6358ZM223.739 26.3009L224.215 26.8003V26.8003L223.739 26.3009ZM218.883 29.538L219.155 30.1725L219.166 30.1679L218.883 29.538ZM212.409 30.6804V29.9902H211.006L211.862 31.1016L212.409 30.6804ZM218.598 21.255L219.086 21.7431V21.7431L218.598 21.255ZM218.598 10.3062L218.099 10.7838L218.109 10.7944L218.12 10.8046L218.598 10.3062ZM190.226 8.02121V7.33091H189.536V8.02121H190.226ZM190.226 23.4447H189.536V24.135H190.226V23.4447ZM226.119 48.4841L225.553 48.88C225.926 49.412 226.095 49.9423 226.095 50.4835H226.785H227.476C227.476 49.6283 227.201 48.8257 226.684 48.0883L226.119 48.4841ZM226.785 50.4835L226.098 50.546C226.15 51.1147 226.048 51.6527 225.787 52.1741L226.404 52.4828L227.022 52.7915C227.396 52.0435 227.548 51.2486 227.473 50.421L226.785 50.4835ZM226.404 52.4828L225.774 52.2025C225.578 52.6426 225.257 53.0209 224.784 53.3366L225.167 53.9109L225.55 54.4853C226.219 54.0393 226.723 53.4655 227.035 52.7632L226.404 52.4828ZM225.167 53.9109L224.784 53.3366C224.338 53.6336 223.808 53.7919 223.167 53.7919V54.4822V55.1725C224.05 55.1725 224.853 54.9499 225.55 54.4853L225.167 53.9109ZM223.167 54.4822V53.7919C222.195 53.7919 221.453 53.4009 220.88 52.5678L220.311 52.9589L219.742 53.3499C220.566 54.5479 221.728 55.1725 223.167 55.1725V54.4822ZM220.311 52.9589L220.858 52.5368L203.72 30.3536L203.174 30.7757L202.628 31.1977L219.765 53.3809L220.311 52.9589ZM203.174 30.7757V30.0854H190.131V30.7757V31.466H203.174V30.7757ZM190.131 30.7757H189.44V50.6739H190.131H190.821V30.7757H190.131ZM190.131 50.6739H189.44C189.44 51.4354 189.169 52.0871 188.595 52.6611L189.083 53.1493L189.572 53.6374C190.394 52.8151 190.821 51.8165 190.821 50.6739H190.131ZM189.083 53.1493L188.595 52.6611C188.031 53.2258 187.351 53.5062 186.513 53.5062V54.1965V54.8868C187.706 54.8868 188.74 54.4691 189.572 53.6374L189.083 53.1493ZM186.513 54.1965V53.5062C185.675 53.5062 184.995 53.2258 184.43 52.6611L183.942 53.1493L183.454 53.6374C184.286 54.4691 185.32 54.8868 186.513 54.8868V54.1965ZM183.942 53.1493L184.453 52.6849C183.935 52.1151 183.68 51.4559 183.68 50.6739H182.99H182.3C182.3 51.796 182.68 52.7871 183.431 53.6136L183.942 53.1493ZM182.99 50.6739H183.68V30.7757H182.99H182.3V50.6739H182.99ZM182.99 30.7757V30.0854H182.895V30.7757V31.466H182.99V30.7757ZM182.895 30.7757H183.585V0.690285H182.895H182.205V30.7757H182.895ZM182.895 0.690285V1.38058H213.266V0.690285V-1.14441e-05H182.895V0.690285ZM213.266 0.690285V1.38058C215.267 1.38058 217.103 1.77412 218.783 2.55408L219.074 1.92797L219.364 1.30187C217.49 0.431583 215.454 -1.14441e-05 213.266 -1.14441e-05V0.690285ZM219.074 1.92797L218.81 2.56582C220.564 3.29192 222.07 4.31706 223.335 5.64164L223.834 5.16501L224.333 4.68837C222.932 3.22022 221.264 2.08734 219.337 1.29013L219.074 1.92797ZM223.834 5.16501L223.357 5.66434C224.682 6.92871 225.707 8.43455 226.433 10.1893L227.071 9.92535L227.709 9.66142C226.912 7.73482 225.779 6.06709 224.311 4.66568L223.834 5.16501ZM227.071 9.92535L226.445 10.216C227.225 11.896 227.618 13.7318 227.618 15.733H228.309H228.999C228.999 13.5451 228.567 11.5091 227.697 9.63466L227.071 9.92535ZM228.309 15.733H227.618C227.618 17.734 227.225 19.605 226.441 21.3534L227.071 21.6358L227.701 21.9182C228.567 19.9853 228.999 17.921 228.999 15.733H228.309ZM227.071 21.6358L226.445 21.3451C225.655 23.0452 224.595 24.5292 223.262 25.8016L223.739 26.3009L224.215 26.8003C225.675 25.4069 226.836 23.7808 227.697 21.9265L227.071 21.6358ZM223.739 26.3009L223.262 25.8016C221.925 27.0778 220.373 28.1136 218.601 28.9081L218.883 29.538L219.166 30.1679C221.075 29.3121 222.76 28.1898 224.215 26.8003L223.739 26.3009ZM218.883 29.538L218.611 28.9035C216.927 29.6253 215.084 29.9902 213.076 29.9902V30.6804V31.3707C215.256 31.3707 217.285 30.9739 219.155 30.1724L218.883 29.538ZM213.076 30.6804V29.9902H212.409V30.6804V31.3707H213.076V30.6804ZM212.409 30.6804L211.862 31.1016L225.572 48.9053L226.119 48.4841L226.666 48.063L212.956 30.2593L212.409 30.6804ZM213.171 23.4447V24.135C215.503 24.135 217.49 23.3388 219.086 21.7431L218.598 21.255L218.109 20.7669C216.785 22.0908 215.155 22.7544 213.171 22.7544V23.4447ZM218.598 21.255L219.086 21.7431C220.739 20.0901 221.573 18.0737 221.573 15.733H220.882H220.192C220.192 17.7083 219.503 19.3733 218.109 20.7669L218.598 21.255ZM220.882 15.733H221.573C221.573 13.3916 220.738 11.4011 219.075 9.80779L218.598 10.3062L218.12 10.8046C219.504 12.1309 220.192 13.7583 220.192 15.733H220.882ZM218.598 10.3062L219.096 9.82856C217.503 8.16593 215.512 7.33091 213.171 7.33091V8.02121V8.71151C215.145 8.71151 216.773 9.39981 218.099 10.7838L218.598 10.3062ZM213.171 8.02121V7.33091H190.226V8.02121V8.71151H213.171V8.02121ZM190.226 8.02121H189.536V23.4447H190.226H190.916V8.02121H190.226ZM190.226 23.4447V24.135H213.171V23.4447V22.7544H190.226V23.4447ZM244.311 2.21359L243.823 2.70171L243.833 2.71231L243.844 2.72245L244.311 2.21359ZM244.311 53.1493L243.844 52.6404L243.833 52.6505L243.823 52.6611L244.311 53.1493ZM238.979 53.1493L238.491 53.6374L238.502 53.648L238.513 53.6581L238.979 53.1493ZM238.979 2.21359L238.513 1.70473L238.502 1.71487L238.491 1.72548L238.979 2.21359ZM241.645 1.16632V1.85662C242.56 1.85662 243.267 2.14563 243.823 2.70171L244.311 2.21359L244.799 1.72548C243.959 0.885189 242.888 0.476021 241.645 0.476021V1.16632ZM244.311 2.21359L243.844 2.72245C244.456 3.28348 244.763 3.98418 244.763 4.87938H245.453H246.144C246.144 3.61657 245.689 2.54008 244.777 1.70474L244.311 2.21359ZM245.453 4.87938H244.763V50.4835H245.453H246.144V4.87938H245.453ZM245.453 50.4835H244.763C244.763 51.3787 244.456 52.0794 243.844 52.6404L244.311 53.1493L244.777 53.6581C245.689 52.8228 246.144 51.7463 246.144 50.4835H245.453ZM244.311 53.1493L243.823 52.6611C243.267 53.2172 242.56 53.5062 241.645 53.5062V54.1965V54.8868C242.888 54.8868 243.959 54.4777 244.799 53.6374L244.311 53.1493ZM241.645 54.1965V53.5062C240.805 53.5062 240.082 53.2241 239.446 52.6404L238.979 53.1493L238.513 53.6581C239.399 54.4708 240.453 54.8868 241.645 54.8868V54.1965ZM238.979 53.1493L239.467 52.6611C238.911 52.1051 238.622 51.3981 238.622 50.4835H237.932H237.242C237.242 51.7269 237.651 52.7971 238.491 53.6374L238.979 53.1493ZM237.932 50.4835H238.622V4.87938H237.932H237.242V50.4835H237.932ZM237.932 4.87938H238.622C238.622 3.96476 238.911 3.25779 239.467 2.70171L238.979 2.21359L238.491 1.72548C237.651 2.56577 237.242 3.636 237.242 4.87938H237.932ZM238.979 2.21359L239.446 2.72245C240.082 2.13872 240.805 1.85662 241.645 1.85662V1.16632V0.476021C240.453 0.476021 239.399 0.892105 238.513 1.70473L238.979 2.21359ZM304.394 9.54452L304.864 10.0499L305.084 9.84516V9.54452H304.394ZM264.788 46.3896L264.318 45.8842L263.032 47.0799H264.788V46.3896ZM302.49 47.4369L302.002 47.925V47.925L302.49 47.4369ZM302.49 52.7684L302.002 52.2803V52.2803L302.49 52.7684ZM254.315 53.8157H253.625V54.506H254.315V53.8157ZM254.315 45.9135L253.844 45.4085L253.625 45.6132V45.9135H254.315ZM294.683 8.30684L295.153 8.81192L296.436 7.61654H294.683V8.30684ZM255.362 7.25956L254.853 7.72601L254.874 7.74813L254.896 7.76842L255.362 7.25956ZM255.362 1.92797L255.85 2.41609V2.41609L255.362 1.92797ZM304.394 0.785492H305.084V0.095192H304.394V0.785492ZM304.394 9.54452L303.924 9.03911L264.318 45.8842L264.788 46.3896L265.258 46.895L304.864 10.0499L304.394 9.54452ZM264.788 46.3896V47.0799H299.824V46.3896V45.6993H264.788V46.3896ZM299.824 46.3896V47.0799C300.738 47.0799 301.445 47.3689 302.002 47.925L302.49 47.4369L302.978 46.9487C302.137 46.1085 301.067 45.6993 299.824 45.6993V46.3896ZM302.49 47.4369L302.002 47.925C302.558 48.481 302.847 49.188 302.847 50.1026H303.537H304.227C304.227 48.8593 303.818 47.789 302.978 46.9487L302.49 47.4369ZM303.537 50.1026H302.847C302.847 51.0173 302.558 51.7242 302.002 52.2803L302.49 52.7684L302.978 53.2566C303.818 52.4163 304.227 51.346 304.227 50.1026H303.537ZM302.49 52.7684L302.002 52.2803C301.445 52.8364 300.738 53.1254 299.824 53.1254V53.8157V54.506C301.067 54.506 302.137 54.0968 302.978 53.2566L302.49 52.7684ZM299.824 53.8157V53.1254H254.315V53.8157V54.506H299.824V53.8157ZM254.315 53.8157H255.005V45.9135H254.315H253.625V53.8157H254.315ZM254.315 45.9135L254.786 46.4186L295.153 8.81192L294.683 8.30684L294.212 7.80175L253.844 45.4085L254.315 45.9135ZM294.683 8.30684V7.61654H258.123V8.30684V8.99714H294.683V8.30684ZM258.123 8.30684V7.61654C257.209 7.61654 256.457 7.32662 255.829 6.7507L255.362 7.25956L254.896 7.76842C255.791 8.58887 256.88 8.99714 258.123 8.99714V8.30684ZM255.362 7.25956L255.871 6.79311C255.287 6.15631 255.005 5.4333 255.005 4.59377H254.315H253.625C253.625 5.78532 254.041 6.8395 254.853 7.72601L255.362 7.25956ZM254.315 4.59377H255.005C255.005 3.67913 255.294 2.97217 255.85 2.41609L255.362 1.92797L254.874 1.43986C254.034 2.28015 253.625 3.35038 253.625 4.59377H254.315ZM255.362 1.92797L255.85 2.41609C256.482 1.78414 257.227 1.47579 258.123 1.47579V0.785492V0.095192C256.862 0.095192 255.766 0.548496 254.874 1.43986L255.362 1.92797ZM258.123 0.785492V1.47579H304.394V0.785492V0.095192H258.123V0.785492ZM304.394 0.785492H303.703V9.54452H304.394H305.084V0.785492H304.394ZM318.972 31.4421V30.7518H318.282V31.4421H318.972ZM319.639 41.534L319 41.7969L319.007 41.8126L319.014 41.828L319.639 41.534ZM321.638 44.3902L321.15 44.8783L321.16 44.8881L321.17 44.8975L321.638 44.3902ZM324.494 46.1992L324.232 46.8375V46.8375L324.494 46.1992ZM359.054 47.9129L358.566 48.401L358.577 48.4116L358.588 48.4217L359.054 47.9129ZM359.054 53.2445L359.543 53.7326V53.7326L359.054 53.2445ZM321.543 53.0541L321.259 53.6832L321.271 53.6886L321.283 53.6936L321.543 53.0541ZM316.402 49.5314L315.914 50.0195V50.0195L316.402 49.5314ZM312.879 44.3902L312.243 44.6572L312.246 44.6658L312.25 44.6744L312.879 44.3902ZM312.879 11.0678L312.25 10.7837L312.246 10.7934L312.879 11.0678ZM321.543 2.49921L321.81 3.13588L321.82 3.13164L321.543 2.49921ZM359.054 2.21359L358.566 2.70171L358.577 2.71231L358.588 2.72245L359.054 2.21359ZM359.054 7.54518L359.543 8.03329V8.03329L359.054 7.54518ZM321.638 11.163L322.106 11.6703L322.116 11.6609L322.126 11.6512L321.638 11.163ZM319.639 13.924L319.014 13.6301L319.01 13.6387L319.006 13.6474L319.639 13.924ZM318.972 24.016H318.282V24.7063H318.972V24.016ZM359.054 25.0632L358.566 25.5514L358.577 25.562L358.588 25.5721L359.054 25.0632ZM359.054 30.3948L359.543 30.8829V30.8829L359.054 30.3948ZM318.972 31.4421H318.282V38.1066H318.972H319.663V31.4421H318.972ZM318.972 38.1066H318.282C318.282 39.3996 318.521 40.6317 319 41.7969L319.639 41.534L320.277 41.2712C319.868 40.2784 319.663 39.2254 319.663 38.1066H318.972ZM319.639 41.534L319.014 41.828C319.555 42.9775 320.267 43.9956 321.15 44.8783L321.638 44.3902L322.126 43.9021C321.359 43.1346 320.738 42.2486 320.263 41.2401L319.639 41.534ZM321.638 44.3902L321.17 44.8975C322.058 45.7168 323.08 46.3632 324.232 46.8375L324.494 46.1992L324.757 45.5609C323.751 45.1465 322.869 44.587 322.106 43.883L321.638 44.3902ZM324.494 46.1992L324.232 46.8375C325.401 47.319 326.665 47.5559 328.017 47.5559V46.8656V46.1753C326.83 46.1753 325.746 45.9679 324.757 45.5609L324.494 46.1992ZM328.017 46.8656V47.5559H356.484V46.8656V46.1753H328.017V46.8656ZM356.484 46.8656V47.5559C357.322 47.5559 358.002 47.8363 358.566 48.401L359.054 47.9129L359.543 47.4248C358.711 46.5931 357.677 46.1753 356.484 46.1753V46.8656ZM359.054 47.9129L358.588 48.4217C359.2 48.9828 359.507 49.6835 359.507 50.5787H360.197H360.887C360.887 49.3159 360.432 48.2394 359.521 47.404L359.054 47.9129ZM360.197 50.5787H359.507C359.507 51.3992 359.207 52.1154 358.566 52.7564L359.054 53.2445L359.543 53.7326C360.425 52.8502 360.887 51.7893 360.887 50.5787H360.197ZM359.054 53.2445L358.566 52.7564C358.002 53.321 357.322 53.6014 356.484 53.6014V54.2917V54.982C357.677 54.982 358.711 54.5643 359.543 53.7326L359.054 53.2445ZM356.484 54.2917V53.6014H328.017V54.2917V54.982H356.484V54.2917ZM328.017 54.2917V53.6014C325.817 53.6014 323.748 53.2047 321.803 52.4145L321.543 53.0541L321.283 53.6936C323.4 54.5537 325.647 54.982 328.017 54.982V54.2917ZM321.543 53.0541L321.827 52.4249C319.932 51.5691 318.288 50.4415 316.89 49.0433L316.402 49.5314L315.914 50.0195C317.435 51.541 319.219 52.7619 321.259 53.6832L321.543 53.0541ZM316.402 49.5314L316.89 49.0433C315.492 47.6451 314.364 46.0013 313.508 44.1061L312.879 44.3902L312.25 44.6744C313.171 46.7144 314.392 48.4981 315.914 50.0195L316.402 49.5314ZM312.879 44.3902L313.516 44.1233C312.727 42.2437 312.332 40.2403 312.332 38.1066H311.641H310.951C310.951 40.4159 311.38 42.6016 312.243 44.6572L312.879 44.3902ZM311.641 38.1066H312.332V17.2563H311.641H310.951V38.1066H311.641ZM311.641 17.2563H312.332C312.332 15.1225 312.728 13.1538 313.512 11.3423L312.879 11.0678L312.246 10.7934C311.38 12.7901 310.951 14.9471 310.951 17.2563H311.641ZM312.879 11.0678L313.508 11.352C314.364 9.45678 315.492 7.81301 316.89 6.41478L316.402 5.92666L315.914 5.43855C314.392 6.95999 313.171 8.74368 312.25 10.7837L312.879 11.0678ZM316.402 5.92666L316.89 6.41478C318.284 5.02045 319.922 3.92745 321.81 3.1358L321.543 2.49921L321.276 1.86263C319.229 2.72123 317.439 3.9132 315.914 5.43855L316.402 5.92666ZM321.543 2.49921L321.82 3.13164C323.761 2.28239 325.824 1.85662 328.017 1.85662V1.16632V0.476021C325.64 0.476021 323.387 0.938843 321.266 1.86679L321.543 2.49921ZM328.017 1.16632V1.85662H356.484V1.16632V0.476021H328.017V1.16632ZM356.484 1.16632V1.85662C357.322 1.85662 358.002 2.13705 358.566 2.70171L359.054 2.21359L359.543 1.72548C358.711 0.893768 357.677 0.476021 356.484 0.476021V1.16632ZM359.054 2.21359L358.588 2.72245C359.2 3.28348 359.507 3.98418 359.507 4.87938H360.197H360.887C360.887 3.61657 360.432 2.54008 359.521 1.70474L359.054 2.21359ZM360.197 4.87938H359.507C359.507 5.69988 359.207 6.41615 358.566 7.05706L359.054 7.54518L359.543 8.03329C360.425 7.1509 360.887 6.08997 360.887 4.87938H360.197ZM359.054 7.54518L358.566 7.05706C358.002 7.62172 357.322 7.90216 356.484 7.90216V8.59246V9.28275C357.677 9.28275 358.711 8.86501 359.543 8.03329L359.054 7.54518ZM356.484 8.59246V7.90216H328.017V8.59246V9.28275H356.484V8.59246ZM328.017 8.59246V7.90216C326.665 7.90216 325.401 8.13906 324.232 8.6206L324.494 9.2589L324.757 9.89721C325.746 9.49015 326.83 9.28275 328.017 9.28275V8.59246ZM324.494 9.2589L324.232 8.6206C323.068 9.0996 322.04 9.78535 321.15 10.6749L321.638 11.163L322.126 11.6512C322.887 10.8905 323.762 10.3068 324.757 9.89721L324.494 9.2589ZM321.638 11.163L321.17 10.6558C320.275 11.4815 319.557 12.4756 319.014 13.6301L319.639 13.924L320.263 14.218C320.736 13.2144 321.351 12.3679 322.106 11.6703L321.638 11.163ZM319.639 13.924L319.006 13.6474C318.521 14.7576 318.282 15.9636 318.282 17.2563H318.972H319.663C319.663 16.1371 319.868 15.1216 320.271 14.2007L319.639 13.924ZM318.972 17.2563H318.282V24.016H318.972H319.663V17.2563H318.972ZM318.972 24.016V24.7063H356.484V24.016V23.3257H318.972V24.016ZM356.484 24.016V24.7063C357.322 24.7063 358.002 24.9867 358.566 25.5514L359.054 25.0632L359.543 24.5751C358.711 23.7434 357.677 23.3257 356.484 23.3257V24.016ZM359.054 25.0632L358.588 25.5721C359.2 26.1331 359.507 26.8338 359.507 27.729H360.197H360.887C360.887 26.4662 360.432 25.3897 359.521 24.5544L359.054 25.0632ZM360.197 27.729H359.507C359.507 28.5495 359.207 29.2658 358.566 29.9067L359.054 30.3948L359.543 30.8829C360.425 30.0005 360.887 28.9396 360.887 27.729H360.197ZM359.054 30.3948L358.566 29.9067C358.002 30.4714 357.322 30.7518 356.484 30.7518V31.4421V32.1324C357.677 32.1324 358.711 31.7147 359.543 30.8829L359.054 30.3948ZM356.484 31.4421V30.7518H318.972V31.4421V32.1324H356.484V31.4421Z" fill="white" mask="url(#path-1-outside-1_649_2919)"/>
</svg>
