<svg width="599" height="691" viewBox="0 0 599 691" fill="none" xmlns="http://www.w3.org/2000/svg">
<g opacity="0.65" filter="url(#filter0_f_2018_2)">
<rect x="143.04" y="20.1123" width="311" height="421" fill="url(#paint0_linear_2018_2)"/>
</g>
<g opacity="0.65" filter="url(#filter1_f_2018_2)">
<circle cx="299.5" cy="390.612" r="175.5" fill="#4175EB"/>
<circle cx="299.5" cy="390.612" r="178" stroke="url(#paint1_linear_2018_2)" stroke-width="5"/>
</g>
<g filter="url(#filter2_i_2018_2)">
<circle cx="298.738" cy="389.811" r="169.698" fill="#0129A1"/>
</g>
<circle cx="298.738" cy="389.811" r="171.793" stroke="url(#paint2_linear_2018_2)" stroke-width="4.19008"/>
<g clip-path="url(#clip0_2018_2)">
<path d="M299.053 217.112C202.753 217.112 124.732 295.176 124.732 391.469C124.732 487.762 202.78 565.826 299.053 565.826C395.326 565.826 473.374 487.762 473.374 391.469C473.374 295.176 395.326 217.112 299.053 217.112ZM299.053 556.068C255.097 556.068 213.768 538.938 182.705 507.868C151.614 476.771 134.514 435.434 134.514 391.469C134.514 347.505 151.641 306.167 182.705 275.097C213.795 244 255.097 226.897 299.053 226.897C343.008 226.897 384.337 244.027 415.401 275.097C446.492 306.194 463.591 347.505 463.591 391.469C463.591 435.434 446.492 476.771 415.401 507.868C384.311 538.938 343.008 556.068 299.053 556.068Z" fill="url(#paint3_linear_2018_2)"/>
<path opacity="0.5" d="M299.053 561.054C220.335 561.054 153.705 509.744 131.298 439.026C151.989 512.211 219.263 565.826 299.053 565.826C378.843 565.826 446.116 512.211 466.808 439.026C444.401 509.744 377.771 561.054 299.053 561.054Z" fill="url(#paint4_linear_2018_2)" style="mix-blend-mode:multiply"/>
<path d="M418.698 271.8C386.723 239.818 344.241 222.233 299.026 222.233C253.811 222.233 211.329 239.845 179.354 271.8C147.406 303.755 129.797 346.272 129.797 391.469C129.797 436.667 147.406 479.184 179.354 511.165C211.329 543.12 253.811 560.733 299.026 560.733C344.241 560.733 386.723 543.12 418.698 511.165C450.646 479.211 468.255 436.694 468.255 391.469C468.255 346.245 450.646 303.755 418.698 271.8ZM415.401 507.868C384.311 538.938 343.008 556.068 299.053 556.068C255.097 556.068 213.768 538.938 182.705 507.868C151.614 476.771 134.514 435.434 134.514 391.469C134.514 347.505 151.641 306.167 182.705 275.097C213.795 244 255.097 226.897 299.053 226.897C343.008 226.897 384.337 244.027 415.401 275.097C446.492 306.194 463.591 347.505 463.591 391.469C463.591 435.434 446.492 476.771 415.401 507.868Z" fill="url(#paint5_linear_2018_2)"/>
<path opacity="0.5" d="M466.808 343.912C446.116 270.728 378.843 217.112 299.053 217.112C219.263 217.112 151.989 270.728 131.298 343.912C153.705 273.194 220.335 222.393 299.053 222.393C377.771 222.393 444.401 273.194 466.808 343.912Z" fill="url(#paint6_linear_2018_2)" style="mix-blend-mode:color-dodge"/>
<path opacity="0.5" d="M158.342 478.755L162.898 492.051C162.898 492.051 164.024 495.671 162.148 499.45L172.52 511.433L171.153 495.108L158.315 478.782L158.342 478.755Z" fill="url(#paint7_linear_2018_2)" style="mix-blend-mode:multiply"/>
<path d="M173.833 264.803C166.141 290.672 154.777 311.1 154.777 311.1C152.177 316.837 148.612 324.531 148.612 324.531C147.111 327.801 144.485 334.691 144.485 334.691C151.963 326.434 156.814 319.223 162.496 311.77C173.512 297.348 181.043 271.934 184.715 257.136C186.457 250.193 187.315 245.582 187.315 245.582C193.694 242.472 197.097 240.569 197.5 240.328C198.089 240.033 198.679 239.765 199.268 239.497C196.642 236.038 193.452 233.492 193.452 233.492C183.562 231.991 179.515 237.406 179.515 237.406C178.926 242.392 178.095 247.19 177.103 251.801C176.138 256.332 175.013 260.675 173.78 264.803H173.833Z" fill="url(#paint8_linear_2018_2)"/>
<path d="M148.612 324.53C148.612 324.53 154.187 312.199 154.563 311.582C154.563 311.582 166.168 290.699 173.833 264.803C175.066 260.701 176.192 256.359 177.157 251.801C177.157 251.801 179.14 286.356 148.612 324.53Z" fill="url(#paint9_linear_2018_2)"/>
<path d="M185.519 259.147C185.519 259.147 184.34 260.353 180.775 271.505C180.775 271.505 182.008 255.93 186.028 243.464C186.028 243.464 190.263 235.556 193.56 233.545C194.069 233.974 198.089 236.709 204.039 245.207C203.45 245.475 201.627 246.922 201.037 247.191C200.635 247.432 194.632 251.775 185.492 259.093L185.519 259.147Z" fill="url(#paint10_linear_2018_2)"/>
<path opacity="0.5" d="M179.569 237.433C179.569 237.433 183.08 232.768 191.523 233.304C187.931 238.237 181.07 239.389 179.569 237.433Z" fill="url(#paint11_linear_2018_2)" style="mix-blend-mode:color-dodge"/>
<path d="M185.519 259.147L188.092 251.828C191.496 247.244 195.409 244.885 195.409 244.885C195.409 244.885 198.867 245.368 202.19 246.52L201.064 247.244C192.997 252.552 185.519 259.147 185.519 259.147Z" fill="url(#paint12_linear_2018_2)"/>
<path opacity="0.5" d="M150.515 327.613C150.515 327.613 152.713 322.145 154.295 317.078L156.546 307.829C156.224 308.231 155.179 310.644 154.777 311.127C150.515 319.652 148.05 325.04 144.512 334.717C144.512 334.717 148.854 329.544 150.542 327.64L150.515 327.613Z" fill="url(#paint13_linear_2018_2)" style="mix-blend-mode:multiply"/>
<path d="M129.824 349.435C129.824 349.435 117.763 362.168 110.553 391.469H102.54C102.54 391.469 104.443 359.193 135.265 331.635L129.824 349.435Z" fill="url(#paint14_linear_2018_2)"/>
<path d="M173.833 518.135C166.141 492.266 154.777 471.839 154.777 471.839C152.177 466.102 148.612 458.408 148.612 458.408C147.111 455.137 144.485 448.248 144.485 448.248C151.963 456.505 156.814 463.716 162.496 471.168C173.512 485.591 181.043 511.004 184.715 525.802C186.457 532.745 187.315 537.356 187.315 537.356C193.694 540.466 197.097 542.369 197.5 542.611C198.089 542.906 198.679 543.174 199.268 543.442C196.642 546.9 193.452 549.447 193.452 549.447C183.562 550.921 179.515 545.533 179.515 545.533C178.926 540.547 178.095 535.748 177.103 531.137C176.138 526.607 175.013 522.264 173.78 518.135H173.833Z" fill="url(#paint15_linear_2018_2)"/>
<path d="M148.612 458.408C148.612 458.408 154.187 470.739 154.563 471.356C154.563 471.356 166.168 492.239 173.833 518.135C175.066 522.237 176.192 526.58 177.157 531.137C177.157 531.137 179.14 496.582 148.612 458.408Z" fill="url(#paint16_linear_2018_2)"/>
<path d="M184.635 522.88C184.635 522.88 184.34 522.585 180.775 511.433C180.775 511.433 182.008 527.009 186.028 539.474C186.028 539.474 190.263 547.382 193.56 549.393C194.069 548.964 202.565 541.404 204.924 538.295C204.334 538.027 200.448 535.212 199.858 534.917C199.456 534.676 192.193 530.011 184.608 522.907L184.635 522.88Z" fill="url(#paint17_linear_2018_2)"/>
<path d="M179.569 545.533C179.569 545.533 183.08 550.197 191.523 549.661C187.931 544.728 181.07 543.576 179.569 545.533Z" fill="url(#paint18_linear_2018_2)"/>
<path d="M184.635 522.88L186.805 528.939C188.414 534.461 192.407 538.643 192.407 538.643C192.407 538.643 195.221 539.233 197.714 537.892L200.903 535.533C199.295 534.675 189.995 527.491 184.635 522.88Z" fill="url(#paint19_linear_2018_2)"/>
<path opacity="0.5" d="M150.515 455.352C150.515 455.352 152.713 460.821 154.295 465.887L156.546 475.136C156.224 474.734 155.179 472.321 154.777 471.839C150.515 463.314 148.05 457.925 144.512 448.248C144.512 448.248 148.854 453.422 150.542 455.325L150.515 455.352Z" fill="url(#paint20_linear_2018_2)" style="mix-blend-mode:multiply"/>
<path d="M129.824 433.53C129.824 433.53 117.763 420.797 110.553 391.496H102.54C102.54 391.496 104.443 423.772 135.265 451.331L129.824 433.53Z" fill="url(#paint21_linear_2018_2)"/>
<path d="M110.553 391.469C117.388 362.892 129.824 349.435 129.824 349.435L132.933 339.275C110.098 360.882 106.399 391.469 106.399 391.469C106.399 391.469 110.098 422.057 132.933 443.69L129.824 433.53C129.824 433.53 117.388 420.073 110.553 391.496V391.469Z" fill="url(#paint22_linear_2018_2)"/>
<path opacity="0.5" d="M127.063 429.992C127.063 429.992 128.002 435.782 127.868 438.409L129.824 446.13L135.265 451.331L132.933 443.717L129.824 433.557L127.063 430.019V429.992Z" fill="url(#paint23_linear_2018_2)" style="mix-blend-mode:multiply"/>
<path opacity="0.5" d="M135.265 331.635L132.933 339.248L129.824 349.435L127.063 352.973V345.467L132.933 333.779L135.265 331.635Z" fill="url(#paint24_linear_2018_2)" style="mix-blend-mode:multiply"/>
<path opacity="0.5" d="M439.711 478.755L435.154 492.051C435.154 492.051 434.028 495.671 435.905 499.45L425.532 511.433L426.899 495.108L439.737 478.782L439.711 478.755Z" fill="url(#paint25_linear_2018_2)" style="mix-blend-mode:multiply"/>
<path d="M424.246 264.803C431.938 290.672 443.302 311.1 443.302 311.1C445.902 316.837 449.467 324.531 449.467 324.531C450.968 327.801 453.594 334.691 453.594 334.691C446.116 326.434 441.265 319.223 435.583 311.77C424.567 297.348 417.036 271.934 413.364 257.136C411.622 250.193 410.764 245.582 410.764 245.582C404.385 242.472 400.982 240.569 400.579 240.328C399.99 240.033 399.4 239.765 398.811 239.497C401.437 236.038 404.627 233.492 404.627 233.492C414.517 231.991 418.564 237.406 418.564 237.406C419.153 242.392 419.984 247.19 420.976 251.801C421.941 256.332 423.067 260.675 424.299 264.803H424.246Z" fill="url(#paint26_linear_2018_2)"/>
<path d="M449.467 324.53C449.467 324.53 443.892 312.199 443.517 311.582C443.517 311.582 431.911 290.699 424.246 264.803C423.013 260.701 421.887 256.359 420.922 251.801C420.922 251.801 418.939 286.356 449.467 324.53Z" fill="url(#paint27_linear_2018_2)"/>
<path d="M412.533 259.147C412.533 259.147 413.713 260.353 417.277 271.505C417.277 271.505 416.044 255.93 412.024 243.464C412.024 243.464 407.789 235.556 404.493 233.545C403.983 233.974 399.963 236.709 394.013 245.207C394.603 245.475 396.425 246.922 397.015 247.191C397.417 247.432 403.42 251.775 412.56 259.093L412.533 259.147Z" fill="url(#paint28_linear_2018_2)"/>
<path opacity="0.5" d="M418.51 237.433C418.51 237.433 414.999 232.768 406.556 233.304C410.148 238.237 417.009 239.389 418.51 237.433Z" fill="url(#paint29_linear_2018_2)" style="mix-blend-mode:color-dodge"/>
<path d="M412.533 259.147L409.96 251.828C406.556 247.244 402.643 244.885 402.643 244.885C402.643 244.885 399.186 245.368 395.862 246.52L396.988 247.244C405.055 252.552 412.533 259.147 412.533 259.147Z" fill="url(#paint30_linear_2018_2)"/>
<path opacity="0.5" d="M447.537 327.613C447.537 327.613 445.339 322.145 443.758 317.078L441.506 307.829C441.828 308.231 442.873 310.644 443.275 311.127C447.537 319.652 450.003 325.04 453.541 334.717C453.541 334.717 449.199 329.544 447.51 327.64L447.537 327.613Z" fill="url(#paint31_linear_2018_2)" style="mix-blend-mode:multiply"/>
<path d="M468.255 349.435C468.255 349.435 480.316 362.168 487.526 391.469H495.54C495.54 391.469 493.637 359.193 462.814 331.635L468.255 349.435Z" fill="url(#paint32_linear_2018_2)"/>
<path d="M424.246 518.135C431.938 492.266 443.302 471.839 443.302 471.839C445.902 466.102 449.467 458.408 449.467 458.408C450.968 455.137 453.594 448.248 453.594 448.248C446.116 456.505 441.265 463.716 435.583 471.168C424.567 485.591 417.036 511.004 413.364 525.802C411.622 532.745 410.764 537.356 410.764 537.356C404.385 540.466 400.982 542.369 400.579 542.611C399.99 542.906 399.4 543.174 398.811 543.442C401.437 546.9 404.627 549.447 404.627 549.447C414.517 550.921 418.564 545.533 418.564 545.533C419.153 540.547 419.984 535.748 420.976 531.137C421.941 526.607 423.067 522.264 424.299 518.135H424.246Z" fill="url(#paint33_linear_2018_2)"/>
<path d="M449.467 458.408C449.467 458.408 443.892 470.739 443.517 471.356C443.517 471.356 431.911 492.239 424.246 518.135C423.013 522.237 421.887 526.58 420.922 531.137C420.922 531.137 418.939 496.582 449.467 458.408Z" fill="url(#paint34_linear_2018_2)"/>
<path d="M413.445 522.88C413.445 522.88 413.739 522.585 417.304 511.433C417.304 511.433 416.071 527.009 412.051 539.474C412.051 539.474 407.816 547.382 404.519 549.393C404.01 548.964 395.514 541.404 393.155 538.295C393.745 538.027 397.631 535.212 398.221 534.917C398.623 534.676 405.886 530.011 413.471 522.907L413.445 522.88Z" fill="url(#paint35_linear_2018_2)"/>
<path d="M418.51 545.533C418.51 545.533 414.999 550.197 406.556 549.661C410.148 544.728 417.009 543.576 418.51 545.533Z" fill="url(#paint36_linear_2018_2)"/>
<path d="M413.444 522.88L411.273 528.939C409.665 534.461 405.672 538.643 405.672 538.643C405.672 538.643 402.858 539.233 400.365 537.892L397.176 535.533C398.784 534.675 408.084 527.491 413.444 522.88Z" fill="url(#paint37_linear_2018_2)"/>
<path opacity="0.5" d="M447.537 455.352C447.537 455.352 445.339 460.821 443.758 465.887L441.506 475.136C441.828 474.734 442.873 472.321 443.275 471.839C447.537 463.314 450.003 457.925 453.541 448.248C453.541 448.248 449.199 453.422 447.51 455.325L447.537 455.352Z" fill="url(#paint38_linear_2018_2)" style="mix-blend-mode:multiply"/>
<path d="M468.255 433.53C468.255 433.53 480.316 420.797 487.526 391.496H495.54C495.54 391.496 493.637 423.772 462.814 451.331L468.255 433.53Z" fill="url(#paint39_linear_2018_2)"/>
<path d="M487.526 391.469C480.691 362.892 468.255 349.435 468.255 349.435L465.146 339.275C487.955 360.908 491.68 391.496 491.68 391.496C491.68 391.496 487.981 422.083 465.146 443.717L468.255 433.557C468.255 433.557 480.691 420.1 487.526 391.523V391.469Z" fill="url(#paint40_linear_2018_2)"/>
<path opacity="0.5" d="M471.016 429.992C471.016 429.992 470.077 435.782 470.211 438.409L468.255 446.13L462.814 451.331L465.146 443.717L468.255 433.557L471.016 430.019V429.992Z" fill="url(#paint41_linear_2018_2)" style="mix-blend-mode:multiply"/>
<path opacity="0.5" d="M462.814 331.635L465.146 339.248L468.255 349.435L471.016 352.973V345.467L465.146 333.779L462.814 331.635Z" fill="url(#paint42_linear_2018_2)" style="mix-blend-mode:multiply"/>
</g>
<circle opacity="0.65" cx="298.5" cy="389.612" r="145.081" stroke="#E9EDF6" stroke-width="0.838017"/>
<rect x="211.162" y="145.238" width="177.676" height="50.281" rx="12.838" fill="#425171"/>
<rect x="211.162" y="145.238" width="177.676" height="50.281" rx="12.838" stroke="url(#paint43_linear_2018_2)" stroke-width="1.67603"/>
<mask id="path-48-outside-1_2018_2" maskUnits="userSpaceOnUse" x="237" y="161.378" width="125" height="18" fill="black">
<rect fill="white" x="237" y="161.378" width="125" height="18"/>
<path d="M251.448 168.814L241.652 176.009H251.043C251.351 176.009 251.611 176.125 251.823 176.356C252.054 176.568 252.17 176.837 252.17 177.165C252.17 177.473 252.054 177.743 251.823 177.974C251.611 178.186 251.351 178.292 251.043 178.292H238.185V175.778L250.118 166.994C250.292 166.859 250.417 166.695 250.494 166.503C250.59 166.291 250.638 166.079 250.638 165.867C250.638 165.462 250.484 165.116 250.176 164.827C249.887 164.538 249.521 164.393 249.078 164.393H239.774C239.446 164.393 239.177 164.287 238.965 164.075C238.753 163.844 238.647 163.575 238.647 163.266C238.647 162.939 238.753 162.669 238.965 162.457C239.177 162.245 239.446 162.139 239.774 162.139H249.078C249.598 162.139 250.089 162.236 250.552 162.428C251.014 162.621 251.419 162.891 251.765 163.237C252.112 163.565 252.382 163.96 252.574 164.422C252.786 164.865 252.892 165.347 252.892 165.867C252.892 166.425 252.767 166.965 252.517 167.485C252.285 167.986 251.948 168.419 251.505 168.785L251.448 168.814ZM265.373 166.633C265.61 166.633 265.805 166.716 265.959 166.883C266.126 167.037 266.209 167.232 266.209 167.469V177.396C266.209 177.661 266.119 177.891 265.938 178.086C265.757 178.281 265.527 178.392 265.248 178.42C265.095 178.42 264.942 178.392 264.788 178.337C264.649 178.267 264.531 178.169 264.433 178.044L257.181 169.036V177.584C257.181 177.821 257.097 178.023 256.93 178.19C256.777 178.344 256.582 178.42 256.345 178.42C256.122 178.406 255.934 178.323 255.78 178.169C255.627 178.002 255.55 177.807 255.55 177.584V167.887C255.55 167.552 255.669 167.26 255.906 167.009C256.157 166.758 256.456 166.633 256.804 166.633C257.209 166.633 257.536 166.793 257.787 167.113L264.558 175.557V167.448C264.558 167.211 264.635 167.016 264.788 166.863C264.955 166.709 265.151 166.633 265.373 166.633ZM275.717 166.716C276.218 166.716 276.685 166.807 277.117 166.988C277.549 167.155 277.925 167.392 278.245 167.699C278.58 168.005 278.838 168.36 279.019 168.764C279.214 169.168 279.311 169.6 279.311 170.06V175.034C279.311 175.494 279.214 175.926 279.019 176.33C278.838 176.734 278.58 177.09 278.245 177.396C277.925 177.689 277.549 177.926 277.117 178.107C276.685 178.274 276.218 178.358 275.717 178.358H268.715V166.716H275.717ZM277.681 170.06C277.681 169.837 277.625 169.621 277.514 169.412C277.416 169.203 277.277 169.022 277.096 168.869C276.915 168.716 276.699 168.597 276.448 168.514C276.211 168.416 275.96 168.367 275.696 168.367H270.345V176.748H275.696C275.96 176.748 276.211 176.706 276.448 176.623C276.699 176.525 276.915 176.4 277.096 176.247C277.277 176.093 277.416 175.912 277.514 175.703C277.625 175.494 277.681 175.271 277.681 175.034V170.06ZM300.057 162.139C300.692 162.139 301.28 162.265 301.819 162.515C302.378 162.746 302.86 163.064 303.264 163.469C303.669 163.873 303.986 164.355 304.218 164.913C304.449 165.453 304.564 166.031 304.564 166.647C304.564 167.283 304.439 167.88 304.189 168.439C303.938 168.978 303.601 169.45 303.177 169.854C302.773 170.259 302.291 170.577 301.733 170.808C301.193 171.039 300.615 171.155 299.999 171.155H293.093V177.223C293.093 177.55 292.977 177.82 292.746 178.032C292.534 178.244 292.265 178.35 291.937 178.35C291.629 178.35 291.359 178.244 291.128 178.032C290.916 177.82 290.81 177.55 290.81 177.223V162.139H290.897H300.028H300.057ZM300.057 169.074C300.731 169.074 301.299 168.843 301.762 168.381C302.224 167.899 302.455 167.321 302.455 166.647C302.455 165.992 302.224 165.433 301.762 164.971C301.299 164.49 300.731 164.249 300.057 164.249H293.093V169.045H300.057V169.074ZM320.353 176.616C320.488 176.808 320.555 177.011 320.555 177.223C320.574 177.435 320.536 177.637 320.44 177.829C320.362 178.003 320.237 178.147 320.064 178.263C319.891 178.378 319.688 178.436 319.457 178.436C319.091 178.436 318.802 178.282 318.59 177.974L313.389 171.241H309.431V177.28C309.431 177.569 309.325 177.82 309.113 178.032C308.901 178.244 308.641 178.35 308.332 178.35C308.024 178.35 307.764 178.244 307.552 178.032C307.36 177.82 307.263 177.569 307.263 177.28V171.241H307.234V162.11H316.452C317.088 162.11 317.675 162.236 318.215 162.486C318.773 162.717 319.255 163.045 319.659 163.469C320.083 163.873 320.411 164.355 320.642 164.913C320.892 165.453 321.017 166.04 321.017 166.676C321.017 167.312 320.892 167.909 320.642 168.467C320.391 169.007 320.054 169.479 319.63 169.883C319.207 170.288 318.715 170.615 318.157 170.866C317.617 171.097 317.03 171.212 316.394 171.212H316.192L320.353 176.616ZM316.423 169.016C317.078 169.016 317.627 168.795 318.07 168.352C318.532 167.89 318.764 167.331 318.764 166.676C318.764 166.021 318.532 165.472 318.07 165.029C317.627 164.567 317.078 164.335 316.423 164.335H309.459V169.016H316.423ZM325.065 162.255C325.392 162.255 325.662 162.361 325.874 162.573C326.105 162.785 326.221 163.054 326.221 163.382V177.223C326.221 177.55 326.105 177.82 325.874 178.032C325.662 178.244 325.392 178.35 325.065 178.35C324.757 178.35 324.487 178.244 324.256 178.032C324.044 177.82 323.938 177.55 323.938 177.223V163.382C323.938 163.054 324.044 162.785 324.256 162.573C324.487 162.361 324.757 162.255 325.065 162.255ZM344.109 164.798L332.089 175.98H342.722C343.05 175.98 343.319 176.086 343.531 176.298C343.743 176.51 343.849 176.78 343.849 177.107C343.849 177.435 343.743 177.704 343.531 177.916C343.319 178.128 343.05 178.234 342.722 178.234H328.91V175.836L341.162 164.422H330.066C329.739 164.422 329.459 164.316 329.228 164.104C329.016 163.873 328.91 163.603 328.91 163.295C328.91 162.968 329.016 162.698 329.228 162.486C329.459 162.255 329.739 162.139 330.066 162.139H344.109V164.798ZM348.534 171.444V173.466C348.534 173.832 348.601 174.179 348.736 174.506C348.89 174.834 349.092 175.123 349.343 175.373C349.593 175.604 349.882 175.787 350.21 175.922C350.537 176.057 350.893 176.125 351.279 176.125H359.918C360.227 176.125 360.487 176.231 360.698 176.442C360.93 176.654 361.045 176.924 361.045 177.252C361.045 177.56 360.93 177.829 360.698 178.061C360.487 178.272 360.227 178.378 359.918 178.378H351.279C350.585 178.378 349.93 178.253 349.314 178.003C348.717 177.733 348.197 177.377 347.754 176.934C347.31 176.491 346.954 175.97 346.684 175.373C346.434 174.776 346.309 174.14 346.309 173.466V167.138C346.309 166.464 346.434 165.838 346.684 165.26C346.954 164.663 347.31 164.143 347.754 163.7C348.197 163.257 348.717 162.91 349.314 162.659C349.93 162.39 350.585 162.255 351.279 162.255H359.918C360.227 162.255 360.487 162.361 360.698 162.573C360.93 162.785 361.045 163.054 361.045 163.382C361.045 163.69 360.93 163.96 360.698 164.191C360.487 164.403 360.227 164.509 359.918 164.509H351.279C350.893 164.509 350.537 164.576 350.21 164.711C349.882 164.846 349.593 165.039 349.343 165.289C349.092 165.52 348.89 165.799 348.736 166.127C348.601 166.435 348.534 166.772 348.534 167.138V169.19H359.918C360.227 169.19 360.487 169.296 360.698 169.508C360.93 169.72 361.045 169.989 361.045 170.317C361.045 170.625 360.93 170.895 360.698 171.126C360.487 171.338 360.227 171.444 359.918 171.444H348.534Z"/>
</mask>
<path d="M251.448 168.814L241.652 176.009H251.043C251.351 176.009 251.611 176.125 251.823 176.356C252.054 176.568 252.17 176.837 252.17 177.165C252.17 177.473 252.054 177.743 251.823 177.974C251.611 178.186 251.351 178.292 251.043 178.292H238.185V175.778L250.118 166.994C250.292 166.859 250.417 166.695 250.494 166.503C250.59 166.291 250.638 166.079 250.638 165.867C250.638 165.462 250.484 165.116 250.176 164.827C249.887 164.538 249.521 164.393 249.078 164.393H239.774C239.446 164.393 239.177 164.287 238.965 164.075C238.753 163.844 238.647 163.575 238.647 163.266C238.647 162.939 238.753 162.669 238.965 162.457C239.177 162.245 239.446 162.139 239.774 162.139H249.078C249.598 162.139 250.089 162.236 250.552 162.428C251.014 162.621 251.419 162.891 251.765 163.237C252.112 163.565 252.382 163.96 252.574 164.422C252.786 164.865 252.892 165.347 252.892 165.867C252.892 166.425 252.767 166.965 252.517 167.485C252.285 167.986 251.948 168.419 251.505 168.785L251.448 168.814ZM265.373 166.633C265.61 166.633 265.805 166.716 265.959 166.883C266.126 167.037 266.209 167.232 266.209 167.469V177.396C266.209 177.661 266.119 177.891 265.938 178.086C265.757 178.281 265.527 178.392 265.248 178.42C265.095 178.42 264.942 178.392 264.788 178.337C264.649 178.267 264.531 178.169 264.433 178.044L257.181 169.036V177.584C257.181 177.821 257.097 178.023 256.93 178.19C256.777 178.344 256.582 178.42 256.345 178.42C256.122 178.406 255.934 178.323 255.78 178.169C255.627 178.002 255.55 177.807 255.55 177.584V167.887C255.55 167.552 255.669 167.26 255.906 167.009C256.157 166.758 256.456 166.633 256.804 166.633C257.209 166.633 257.536 166.793 257.787 167.113L264.558 175.557V167.448C264.558 167.211 264.635 167.016 264.788 166.863C264.955 166.709 265.151 166.633 265.373 166.633ZM275.717 166.716C276.218 166.716 276.685 166.807 277.117 166.988C277.549 167.155 277.925 167.392 278.245 167.699C278.58 168.005 278.838 168.36 279.019 168.764C279.214 169.168 279.311 169.6 279.311 170.06V175.034C279.311 175.494 279.214 175.926 279.019 176.33C278.838 176.734 278.58 177.09 278.245 177.396C277.925 177.689 277.549 177.926 277.117 178.107C276.685 178.274 276.218 178.358 275.717 178.358H268.715V166.716H275.717ZM277.681 170.06C277.681 169.837 277.625 169.621 277.514 169.412C277.416 169.203 277.277 169.022 277.096 168.869C276.915 168.716 276.699 168.597 276.448 168.514C276.211 168.416 275.96 168.367 275.696 168.367H270.345V176.748H275.696C275.96 176.748 276.211 176.706 276.448 176.623C276.699 176.525 276.915 176.4 277.096 176.247C277.277 176.093 277.416 175.912 277.514 175.703C277.625 175.494 277.681 175.271 277.681 175.034V170.06ZM300.057 162.139C300.692 162.139 301.28 162.265 301.819 162.515C302.378 162.746 302.86 163.064 303.264 163.469C303.669 163.873 303.986 164.355 304.218 164.913C304.449 165.453 304.564 166.031 304.564 166.647C304.564 167.283 304.439 167.88 304.189 168.439C303.938 168.978 303.601 169.45 303.177 169.854C302.773 170.259 302.291 170.577 301.733 170.808C301.193 171.039 300.615 171.155 299.999 171.155H293.093V177.223C293.093 177.55 292.977 177.82 292.746 178.032C292.534 178.244 292.265 178.35 291.937 178.35C291.629 178.35 291.359 178.244 291.128 178.032C290.916 177.82 290.81 177.55 290.81 177.223V162.139H290.897H300.028H300.057ZM300.057 169.074C300.731 169.074 301.299 168.843 301.762 168.381C302.224 167.899 302.455 167.321 302.455 166.647C302.455 165.992 302.224 165.433 301.762 164.971C301.299 164.49 300.731 164.249 300.057 164.249H293.093V169.045H300.057V169.074ZM320.353 176.616C320.488 176.808 320.555 177.011 320.555 177.223C320.574 177.435 320.536 177.637 320.44 177.829C320.362 178.003 320.237 178.147 320.064 178.263C319.891 178.378 319.688 178.436 319.457 178.436C319.091 178.436 318.802 178.282 318.59 177.974L313.389 171.241H309.431V177.28C309.431 177.569 309.325 177.82 309.113 178.032C308.901 178.244 308.641 178.35 308.332 178.35C308.024 178.35 307.764 178.244 307.552 178.032C307.36 177.82 307.263 177.569 307.263 177.28V171.241H307.234V162.11H316.452C317.088 162.11 317.675 162.236 318.215 162.486C318.773 162.717 319.255 163.045 319.659 163.469C320.083 163.873 320.411 164.355 320.642 164.913C320.892 165.453 321.017 166.04 321.017 166.676C321.017 167.312 320.892 167.909 320.642 168.467C320.391 169.007 320.054 169.479 319.63 169.883C319.207 170.288 318.715 170.615 318.157 170.866C317.617 171.097 317.03 171.212 316.394 171.212H316.192L320.353 176.616ZM316.423 169.016C317.078 169.016 317.627 168.795 318.07 168.352C318.532 167.89 318.764 167.331 318.764 166.676C318.764 166.021 318.532 165.472 318.07 165.029C317.627 164.567 317.078 164.335 316.423 164.335H309.459V169.016H316.423ZM325.065 162.255C325.392 162.255 325.662 162.361 325.874 162.573C326.105 162.785 326.221 163.054 326.221 163.382V177.223C326.221 177.55 326.105 177.82 325.874 178.032C325.662 178.244 325.392 178.35 325.065 178.35C324.757 178.35 324.487 178.244 324.256 178.032C324.044 177.82 323.938 177.55 323.938 177.223V163.382C323.938 163.054 324.044 162.785 324.256 162.573C324.487 162.361 324.757 162.255 325.065 162.255ZM344.109 164.798L332.089 175.98H342.722C343.05 175.98 343.319 176.086 343.531 176.298C343.743 176.51 343.849 176.78 343.849 177.107C343.849 177.435 343.743 177.704 343.531 177.916C343.319 178.128 343.05 178.234 342.722 178.234H328.91V175.836L341.162 164.422H330.066C329.739 164.422 329.459 164.316 329.228 164.104C329.016 163.873 328.91 163.603 328.91 163.295C328.91 162.968 329.016 162.698 329.228 162.486C329.459 162.255 329.739 162.139 330.066 162.139H344.109V164.798ZM348.534 171.444V173.466C348.534 173.832 348.601 174.179 348.736 174.506C348.89 174.834 349.092 175.123 349.343 175.373C349.593 175.604 349.882 175.787 350.21 175.922C350.537 176.057 350.893 176.125 351.279 176.125H359.918C360.227 176.125 360.487 176.231 360.698 176.442C360.93 176.654 361.045 176.924 361.045 177.252C361.045 177.56 360.93 177.829 360.698 178.061C360.487 178.272 360.227 178.378 359.918 178.378H351.279C350.585 178.378 349.93 178.253 349.314 178.003C348.717 177.733 348.197 177.377 347.754 176.934C347.31 176.491 346.954 175.97 346.684 175.373C346.434 174.776 346.309 174.14 346.309 173.466V167.138C346.309 166.464 346.434 165.838 346.684 165.26C346.954 164.663 347.31 164.143 347.754 163.7C348.197 163.257 348.717 162.91 349.314 162.659C349.93 162.39 350.585 162.255 351.279 162.255H359.918C360.227 162.255 360.487 162.361 360.698 162.573C360.93 162.785 361.045 163.054 361.045 163.382C361.045 163.69 360.93 163.96 360.698 164.191C360.487 164.403 360.227 164.509 359.918 164.509H351.279C350.893 164.509 350.537 164.576 350.21 164.711C349.882 164.846 349.593 165.039 349.343 165.289C349.092 165.52 348.89 165.799 348.736 166.127C348.601 166.435 348.534 166.772 348.534 167.138V169.19H359.918C360.227 169.19 360.487 169.296 360.698 169.508C360.93 169.72 361.045 169.989 361.045 170.317C361.045 170.625 360.93 170.895 360.698 171.126C360.487 171.338 360.227 171.444 359.918 171.444H348.534Z" fill="white"/>
<path d="M251.448 168.814L251.336 168.591L251.317 168.6L251.3 168.613L251.448 168.814ZM241.652 176.009L241.504 175.808L240.889 176.259H241.652V176.009ZM251.823 176.356L251.639 176.525L251.646 176.533L251.654 176.54L251.823 176.356ZM251.823 177.974L251.646 177.797H251.646L251.823 177.974ZM238.185 178.292H237.935V178.542H238.185V178.292ZM238.185 175.778L238.036 175.577L237.935 175.651V175.778H238.185ZM250.118 166.994L250.267 167.195L250.272 167.191L250.118 166.994ZM250.494 166.503L250.266 166.399L250.262 166.41L250.494 166.503ZM250.176 164.827L249.999 165.003L250.005 165.009L250.176 164.827ZM238.965 164.075L238.78 164.244L238.788 164.252L238.965 164.075ZM238.965 162.457L239.142 162.634H239.142L238.965 162.457ZM250.552 162.428L250.456 162.659V162.659L250.552 162.428ZM251.765 163.237L251.589 163.414L251.594 163.419L251.765 163.237ZM252.574 164.422L252.343 164.518L252.349 164.53L252.574 164.422ZM252.517 167.485L252.291 167.377L252.29 167.38L252.517 167.485ZM251.505 168.785L251.617 169.009L251.643 168.996L251.665 168.978L251.505 168.785ZM251.448 168.814L251.3 168.613L241.504 175.808L241.652 176.009L241.8 176.211L251.596 169.016L251.448 168.814ZM241.652 176.009V176.259H251.043V176.009V175.759H241.652V176.009ZM251.043 176.009V176.259C251.28 176.259 251.473 176.344 251.639 176.525L251.823 176.356L252.007 176.187C251.749 175.905 251.423 175.759 251.043 175.759V176.009ZM251.823 176.356L251.654 176.54C251.831 176.702 251.92 176.904 251.92 177.165H252.17H252.42C252.42 176.771 252.277 176.433 251.992 176.171L251.823 176.356ZM252.17 177.165H251.92C251.92 177.402 251.834 177.61 251.646 177.797L251.823 177.974L252 178.151C252.275 177.876 252.42 177.544 252.42 177.165H252.17ZM251.823 177.974L251.646 177.797C251.483 177.961 251.287 178.042 251.043 178.042V178.292V178.542C251.415 178.542 251.74 178.411 252 178.151L251.823 177.974ZM251.043 178.292V178.042H238.185V178.292V178.542H251.043V178.292ZM238.185 178.292H238.435V175.778H238.185H237.935V178.292H238.185ZM238.185 175.778L238.333 175.979L250.267 167.195L250.118 166.994L249.97 166.792L238.036 175.577L238.185 175.778ZM250.118 166.994L250.272 167.191C250.478 167.031 250.632 166.832 250.726 166.595L250.494 166.503L250.262 166.41C250.202 166.559 250.105 166.687 249.965 166.796L250.118 166.994ZM250.494 166.503L250.722 166.606C250.831 166.365 250.888 166.118 250.888 165.867H250.638H250.388C250.388 166.04 250.349 166.216 250.266 166.399L250.494 166.503ZM250.638 165.867H250.888C250.888 165.39 250.703 164.978 250.347 164.644L250.176 164.827L250.005 165.009C250.265 165.253 250.388 165.535 250.388 165.867H250.638ZM250.176 164.827L250.353 164.65C250.013 164.31 249.581 164.143 249.078 164.143V164.393V164.643C249.461 164.643 249.761 164.766 249.999 165.003L250.176 164.827ZM249.078 164.393V164.143H239.774V164.393V164.643H249.078V164.393ZM239.774 164.393V164.143C239.506 164.143 239.302 164.059 239.142 163.899L238.965 164.075L238.788 164.252C239.051 164.515 239.387 164.643 239.774 164.643V164.393ZM238.965 164.075L239.149 163.906C238.979 163.72 238.897 163.511 238.897 163.266H238.647H238.397C238.397 163.638 238.527 163.968 238.781 164.244L238.965 164.075ZM238.647 163.266H238.897C238.897 162.998 238.981 162.794 239.142 162.634L238.965 162.457L238.788 162.28C238.525 162.544 238.397 162.879 238.397 163.266H238.647ZM238.965 162.457L239.142 162.634C239.302 162.474 239.506 162.389 239.774 162.389V162.139V161.889C239.387 161.889 239.051 162.017 238.788 162.28L238.965 162.457ZM239.774 162.139V162.389H249.078V162.139V161.889H239.774V162.139ZM249.078 162.139V162.389C249.567 162.389 250.025 162.48 250.456 162.659L250.552 162.428L250.648 162.198C250.154 161.992 249.63 161.889 249.078 161.889V162.139ZM250.552 162.428L250.456 162.659C250.888 162.839 251.265 163.091 251.589 163.414L251.765 163.237L251.942 163.061C251.572 162.69 251.14 162.402 250.648 162.198L250.552 162.428ZM251.765 163.237L251.594 163.419C251.914 163.721 252.164 164.087 252.344 164.518L252.574 164.422L252.805 164.326C252.6 163.833 252.311 163.408 251.937 163.056L251.765 163.237ZM252.574 164.422L252.349 164.53C252.544 164.937 252.642 165.382 252.642 165.867H252.892H253.142C253.142 165.312 253.029 164.793 252.8 164.314L252.574 164.422ZM252.892 165.867H252.642C252.642 166.387 252.526 166.889 252.291 167.377L252.517 167.485L252.742 167.593C253.008 167.041 253.142 166.464 253.142 165.867H252.892ZM252.517 167.485L252.29 167.38C252.075 167.846 251.762 168.249 251.346 168.593L251.505 168.785L251.665 168.978C252.135 168.589 252.496 168.126 252.744 167.59L252.517 167.485ZM251.505 168.785L251.394 168.562L251.336 168.591L251.448 168.814L251.559 169.038L251.617 169.009L251.505 168.785ZM265.959 166.883L265.774 167.052L265.782 167.06L265.79 167.068L265.959 166.883ZM265.938 178.086L266.121 178.256V178.256L265.938 178.086ZM265.248 178.42V178.67H265.261L265.273 178.669L265.248 178.42ZM264.788 178.337L264.676 178.56L264.689 178.567L264.703 178.572L264.788 178.337ZM264.433 178.044L264.63 177.891L264.628 177.887L264.433 178.044ZM257.181 169.036L257.375 168.879L256.931 168.327V169.036H257.181ZM256.93 178.19L257.107 178.367V178.367L256.93 178.19ZM256.345 178.42L256.329 178.67L256.337 178.67H256.345V178.42ZM255.78 178.169L255.596 178.339L255.604 178.346L255.78 178.169ZM255.906 167.009L255.729 166.832L255.724 166.837L255.906 167.009ZM257.787 167.113L257.59 167.267L257.592 167.27L257.787 167.113ZM264.558 175.557L264.363 175.713L264.808 176.268V175.557H264.558ZM264.788 166.863L264.619 166.678L264.612 166.686L264.788 166.863ZM265.373 166.633V166.883C265.544 166.883 265.671 166.939 265.774 167.052L265.959 166.883L266.143 166.714C265.94 166.493 265.677 166.383 265.373 166.383V166.633ZM265.959 166.883L265.79 167.068C265.903 167.171 265.959 167.298 265.959 167.469H266.209H266.459C266.459 167.165 266.349 166.902 266.128 166.699L265.959 166.883ZM266.209 167.469H265.959V177.396H266.209H266.459V167.469H266.209ZM266.209 177.396H265.959C265.959 177.597 265.893 177.767 265.755 177.916L265.938 178.086L266.121 178.256C266.345 178.015 266.459 177.724 266.459 177.396H266.209ZM265.938 178.086L265.755 177.916C265.617 178.064 265.445 178.149 265.223 178.171L265.248 178.42L265.273 178.669C265.609 178.635 265.896 178.498 266.121 178.256L265.938 178.086ZM265.248 178.42V178.17C265.126 178.17 265.001 178.148 264.874 178.102L264.788 178.337L264.703 178.572C264.882 178.637 265.064 178.67 265.248 178.67V178.42ZM264.788 178.337L264.9 178.113C264.795 178.06 264.705 177.987 264.63 177.891L264.433 178.044L264.236 178.198C264.356 178.352 264.503 178.474 264.676 178.56L264.788 178.337ZM264.433 178.044L264.628 177.887L257.375 168.879L257.181 169.036L256.986 169.193L264.238 178.201L264.433 178.044ZM257.181 169.036H256.931V177.584H257.181H257.431V169.036H257.181ZM257.181 177.584H256.931C256.931 177.755 256.873 177.893 256.753 178.014L256.93 178.19L257.107 178.367C257.321 178.153 257.431 177.887 257.431 177.584H257.181ZM256.93 178.19L256.753 178.014C256.651 178.115 256.522 178.17 256.345 178.17V178.42V178.67C256.641 178.67 256.902 178.572 257.107 178.367L256.93 178.19ZM256.345 178.42L256.36 178.171C256.196 178.16 256.066 178.101 255.957 177.993L255.78 178.169L255.604 178.346C255.801 178.544 256.047 178.652 256.329 178.67L256.345 178.42ZM255.78 178.169L255.965 178C255.853 177.879 255.8 177.743 255.8 177.584H255.55H255.3C255.3 177.871 255.401 178.126 255.596 178.338L255.78 178.169ZM255.55 177.584H255.8V167.887H255.55H255.3V177.584H255.55ZM255.55 167.887H255.8C255.8 167.618 255.893 167.386 256.088 167.18L255.906 167.009L255.724 166.837C255.445 167.133 255.3 167.486 255.3 167.887H255.55ZM255.906 167.009L256.083 167.186C256.287 166.981 256.524 166.883 256.804 166.883V166.633V166.383C256.389 166.383 256.026 166.535 255.729 166.832L255.906 167.009ZM256.804 166.633V166.883C257.131 166.883 257.386 167.007 257.59 167.267L257.787 167.113L257.984 166.959C257.686 166.579 257.286 166.383 256.804 166.383V166.633ZM257.787 167.113L257.592 167.27L264.363 175.713L264.558 175.557L264.753 175.401L257.982 166.957L257.787 167.113ZM264.558 175.557H264.808V167.448H264.558H264.308V175.557H264.558ZM264.558 167.448H264.808C264.808 167.27 264.863 167.141 264.965 167.039L264.788 166.863L264.612 166.686C264.407 166.89 264.308 167.151 264.308 167.448H264.558ZM264.788 166.863L264.957 167.047C265.079 166.935 265.214 166.883 265.373 166.883V166.633V166.383C265.087 166.383 264.832 166.484 264.619 166.678L264.788 166.863ZM277.117 166.988L277.02 167.219L277.027 167.221L277.117 166.988ZM278.245 167.699L278.073 167.879L278.077 167.883L278.245 167.699ZM279.019 168.764L278.791 168.867L278.794 168.873L279.019 168.764ZM279.019 176.33L278.794 176.221L278.791 176.228L279.019 176.33ZM278.245 177.396L278.414 177.581L278.414 177.58L278.245 177.396ZM277.117 178.107L277.207 178.34L277.214 178.337L277.117 178.107ZM268.715 178.358H268.465V178.608H268.715V178.358ZM268.715 166.716V166.466H268.465V166.716H268.715ZM277.514 169.412L277.287 169.518L277.293 169.53L277.514 169.412ZM277.096 168.869L276.934 169.06V169.06L277.096 168.869ZM276.448 168.514L276.353 168.745L276.361 168.748L276.369 168.751L276.448 168.514ZM270.345 168.367V168.117H270.095V168.367H270.345ZM270.345 176.748H270.095V176.998H270.345V176.748ZM276.448 176.623L276.531 176.859L276.539 176.856L276.448 176.623ZM277.096 176.247L277.257 176.437V176.437L277.096 176.247ZM277.514 175.703L277.293 175.585L277.287 175.597L277.514 175.703ZM275.717 166.716V166.966C276.187 166.966 276.621 167.051 277.02 167.218L277.117 166.988L277.214 166.757C276.749 166.563 276.249 166.466 275.717 166.466V166.716ZM277.117 166.988L277.027 167.221C277.429 167.377 277.777 167.596 278.073 167.879L278.245 167.699L278.418 167.518C278.073 167.188 277.668 166.933 277.207 166.755L277.117 166.988ZM278.245 167.699L278.077 167.883C278.386 168.167 278.624 168.494 278.791 168.867L279.019 168.764L279.247 168.662C279.051 168.226 278.773 167.843 278.414 167.514L278.245 167.699ZM279.019 168.764L278.794 168.873C278.972 169.242 279.061 169.637 279.061 170.06H279.311H279.561C279.561 169.564 279.456 169.095 279.244 168.656L279.019 168.764ZM279.311 170.06H279.061V175.034H279.311H279.561V170.06H279.311ZM279.311 175.034H279.061C279.061 175.458 278.972 175.852 278.794 176.222L279.019 176.33L279.244 176.439C279.456 176 279.561 175.531 279.561 175.034H279.311ZM279.019 176.33L278.791 176.228C278.624 176.6 278.386 176.928 278.077 177.212L278.245 177.396L278.414 177.58C278.773 177.251 279.051 176.868 279.247 176.432L279.019 176.33ZM278.245 177.396L278.077 177.211C277.779 177.483 277.428 177.705 277.02 177.876L277.117 178.107L277.214 178.337C277.67 178.146 278.071 177.894 278.414 177.581L278.245 177.396ZM277.117 178.107L277.027 177.874C276.626 178.029 276.19 178.108 275.717 178.108V178.358V178.608C276.246 178.608 276.744 178.519 277.207 178.34L277.117 178.107ZM275.717 178.358V178.108H268.715V178.358V178.608H275.717V178.358ZM268.715 178.358H268.965V166.716H268.715H268.465V178.358H268.715ZM268.715 166.716V166.966H275.717V166.716V166.466H268.715V166.716ZM277.681 170.06H277.931C277.931 169.794 277.864 169.538 277.735 169.295L277.514 169.412L277.293 169.53C277.387 169.705 277.431 169.881 277.431 170.06H277.681ZM277.514 169.412L277.74 169.307C277.627 169.064 277.465 168.854 277.257 168.678L277.096 168.869L276.934 169.06C277.089 169.19 277.206 169.343 277.287 169.518L277.514 169.412ZM277.096 168.869L277.257 168.678C277.049 168.502 276.805 168.369 276.527 168.276L276.448 168.514L276.369 168.751C276.593 168.825 276.78 168.929 276.934 169.06L277.096 168.869ZM276.448 168.514L276.543 168.282C276.275 168.172 275.992 168.117 275.696 168.117V168.367V168.617C275.929 168.617 276.147 168.66 276.353 168.745L276.448 168.514ZM275.696 168.367V168.117H270.345V168.367V168.617H275.696V168.367ZM270.345 168.367H270.095V176.748H270.345H270.595V168.367H270.345ZM270.345 176.748V176.998H275.696V176.748V176.498H270.345V176.748ZM275.696 176.748V176.998C275.987 176.998 276.266 176.952 276.531 176.859L276.448 176.623L276.365 176.387C276.156 176.461 275.934 176.498 275.696 176.498V176.748ZM276.448 176.623L276.539 176.856C276.812 176.75 277.053 176.611 277.257 176.437L277.096 176.247L276.934 176.056C276.777 176.189 276.586 176.301 276.357 176.39L276.448 176.623ZM277.096 176.247L277.257 176.437C277.465 176.262 277.627 176.052 277.74 175.809L277.514 175.703L277.287 175.597C277.206 175.773 277.089 175.925 276.934 176.056L277.096 176.247ZM277.514 175.703L277.735 175.821C277.865 175.576 277.931 175.312 277.931 175.034H277.681H277.431C277.431 175.23 277.386 175.413 277.293 175.586L277.514 175.703ZM277.681 175.034H277.931V170.06H277.681H277.431V175.034H277.681ZM301.819 162.515L301.714 162.742L301.724 162.746L301.819 162.515ZM303.264 163.469L303.441 163.292L303.264 163.469ZM304.218 164.913L303.987 165.009L303.988 165.012L304.218 164.913ZM304.189 168.439L304.416 168.544L304.417 168.541L304.189 168.439ZM303.177 169.854L303.005 169.673L303.001 169.678L303.177 169.854ZM301.733 170.808L301.637 170.577L301.634 170.578L301.733 170.808ZM293.093 171.155V170.905H292.843V171.155H293.093ZM292.746 178.032L292.577 177.847L292.57 177.855L292.746 178.032ZM291.128 178.032L290.951 178.209L290.959 178.216L291.128 178.032ZM290.81 162.139V161.889H290.56V162.139H290.81ZM300.057 169.074H299.807V169.324H300.057V169.074ZM301.762 168.381L301.938 168.558L301.942 168.554L301.762 168.381ZM301.762 164.971L301.581 165.144L301.585 165.148L301.762 164.971ZM293.093 164.249V163.999H292.843V164.249H293.093ZM293.093 169.045H292.843V169.295H293.093V169.045ZM300.057 169.045H300.307V168.795H300.057V169.045ZM300.057 162.139V162.389C300.659 162.389 301.21 162.508 301.714 162.742L301.819 162.515L301.925 162.288C301.35 162.021 300.726 161.889 300.057 161.889V162.139ZM301.819 162.515L301.724 162.746C302.254 162.965 302.707 163.265 303.087 163.645L303.264 163.469L303.441 163.292C303.012 162.863 302.502 162.527 301.915 162.284L301.819 162.515ZM303.264 163.469L303.087 163.645C303.467 164.025 303.767 164.479 303.987 165.009L304.218 164.913L304.449 164.818C304.206 164.23 303.87 163.721 303.441 163.292L303.264 163.469ZM304.218 164.913L303.988 165.012C304.205 165.518 304.314 166.063 304.314 166.647H304.564H304.814C304.814 165.998 304.693 165.387 304.447 164.815L304.218 164.913ZM304.564 166.647H304.314C304.314 167.249 304.196 167.811 303.961 168.336L304.189 168.439L304.417 168.541C304.682 167.949 304.814 167.317 304.814 166.647H304.564ZM304.189 168.439L303.962 168.333C303.725 168.845 303.406 169.291 303.005 169.674L303.177 169.854L303.35 170.035C303.797 169.609 304.152 169.111 304.416 168.544L304.189 168.439ZM303.177 169.854L303.001 169.678C302.621 170.058 302.167 170.358 301.637 170.577L301.733 170.808L301.828 171.039C302.416 170.796 302.925 170.46 303.354 170.031L303.177 169.854ZM301.733 170.808L301.634 170.578C301.128 170.795 300.583 170.905 299.999 170.905V171.155V171.405C300.648 171.405 301.259 171.283 301.831 171.038L301.733 170.808ZM299.999 171.155V170.905H293.093V171.155V171.405H299.999V171.155ZM293.093 171.155H292.843V177.223H293.093H293.343V171.155H293.093ZM293.093 177.223H292.843C292.843 177.484 292.754 177.685 292.577 177.847L292.746 178.032L292.915 178.216C293.201 177.954 293.343 177.617 293.343 177.223H293.093ZM292.746 178.032L292.57 177.855C292.409 178.015 292.205 178.1 291.937 178.1V178.35V178.6C292.324 178.6 292.66 178.472 292.923 178.208L292.746 178.032ZM291.937 178.35V178.1C291.693 178.1 291.483 178.018 291.297 177.847L291.128 178.032L290.959 178.216C291.236 178.469 291.565 178.6 291.937 178.6V178.35ZM291.128 178.032L291.305 177.855C291.145 177.694 291.06 177.491 291.06 177.223H290.81H290.56C290.56 177.61 290.688 177.945 290.951 178.208L291.128 178.032ZM290.81 177.223H291.06V162.139H290.81H290.56V177.223H290.81ZM290.81 162.139V162.389H290.897V162.139V161.889H290.81V162.139ZM290.897 162.139V162.389H300.028V162.139V161.889H290.897V162.139ZM300.028 162.139V162.389H300.057V162.139V161.889H300.028V162.139ZM300.057 169.074V169.324C300.795 169.324 301.428 169.068 301.938 168.557L301.762 168.381L301.585 168.204C301.171 168.618 300.667 168.824 300.057 168.824V169.074ZM301.762 168.381L301.942 168.554C302.449 168.025 302.705 167.385 302.705 166.647H302.455H302.205C302.205 167.257 301.998 167.773 301.581 168.208L301.762 168.381ZM302.455 166.647H302.705C302.705 165.926 302.448 165.304 301.938 164.794L301.762 164.971L301.585 165.148C302 165.563 302.205 166.058 302.205 166.647H302.455ZM301.762 164.971L301.942 164.798C301.432 164.267 300.798 163.999 300.057 163.999V164.249V164.499C300.664 164.499 301.167 164.712 301.581 165.144L301.762 164.971ZM300.057 164.249V163.999H293.093V164.249V164.499H300.057V164.249ZM293.093 164.249H292.843V169.045H293.093H293.343V164.249H293.093ZM293.093 169.045V169.295H300.057V169.045V168.795H293.093V169.045ZM300.057 169.045H299.807V169.074H300.057H300.307V169.045H300.057ZM320.353 176.616L320.558 176.472L320.551 176.463L320.353 176.616ZM320.555 177.223H320.305V177.234L320.306 177.245L320.555 177.223ZM320.44 177.829L320.216 177.717L320.211 177.728L320.44 177.829ZM320.064 178.263L320.203 178.471V178.471L320.064 178.263ZM318.59 177.974L318.797 177.832L318.788 177.821L318.59 177.974ZM313.389 171.241L313.587 171.088L313.512 170.991H313.389V171.241ZM309.431 171.241V170.991H309.181V171.241H309.431ZM309.113 178.032L309.289 178.208V178.208L309.113 178.032ZM307.552 178.032L307.367 178.2L307.376 178.208L307.552 178.032ZM307.263 171.241H307.513V170.991H307.263V171.241ZM307.234 171.241H306.984V171.491H307.234V171.241ZM307.234 162.11V161.86H306.984V162.11H307.234ZM318.215 162.486L318.109 162.713L318.119 162.717L318.215 162.486ZM319.659 163.469L319.478 163.641L319.487 163.649L319.659 163.469ZM320.642 164.913L320.411 165.009L320.415 165.019L320.642 164.913ZM320.642 168.467L320.869 168.573L320.87 168.57L320.642 168.467ZM319.63 169.883L319.803 170.064V170.064L319.63 169.883ZM318.157 170.866L318.255 171.096L318.259 171.094L318.157 170.866ZM316.192 171.212V170.962H315.684L315.994 171.365L316.192 171.212ZM318.07 168.352L318.247 168.529V168.529L318.07 168.352ZM318.07 165.029L317.889 165.202L317.897 165.209L318.07 165.029ZM309.459 164.335V164.085H309.209V164.335H309.459ZM309.459 169.016H309.209V169.266H309.459V169.016ZM320.353 176.616L320.148 176.759C320.257 176.915 320.305 177.068 320.305 177.223H320.555H320.805C320.805 176.954 320.719 176.702 320.558 176.472L320.353 176.616ZM320.555 177.223L320.306 177.245C320.321 177.41 320.292 177.566 320.216 177.718L320.44 177.829L320.663 177.941C320.78 177.708 320.828 177.459 320.804 177.2L320.555 177.223ZM320.44 177.829L320.211 177.728C320.155 177.854 320.063 177.963 319.925 178.055L320.064 178.263L320.203 178.471C320.411 178.332 320.57 178.152 320.668 177.931L320.44 177.829ZM320.064 178.263L319.925 178.055C319.797 178.14 319.645 178.186 319.457 178.186V178.436V178.686C319.732 178.686 319.984 178.617 320.203 178.471L320.064 178.263ZM319.457 178.436V178.186C319.176 178.186 318.963 178.074 318.796 177.832L318.59 177.974L318.384 178.116C318.642 178.49 319.007 178.686 319.457 178.686V178.436ZM318.59 177.974L318.788 177.821L313.587 171.088L313.389 171.241L313.191 171.394L318.392 178.127L318.59 177.974ZM313.389 171.241V170.991H309.431V171.241V171.491H313.389V171.241ZM309.431 171.241H309.181V177.28H309.431H309.681V171.241H309.431ZM309.431 177.28H309.181C309.181 177.5 309.103 177.688 308.936 177.855L309.113 178.032L309.289 178.208C309.546 177.952 309.681 177.638 309.681 177.28H309.431ZM309.113 178.032L308.936 177.855C308.772 178.018 308.577 178.1 308.332 178.1V178.35V178.6C308.705 178.6 309.029 178.469 309.289 178.208L309.113 178.032ZM308.332 178.35V178.1C308.088 178.1 307.893 178.018 307.729 177.855L307.552 178.032L307.376 178.208C307.636 178.469 307.96 178.6 308.332 178.6V178.35ZM307.552 178.032L307.737 177.864C307.587 177.698 307.513 177.508 307.513 177.28H307.263H307.013C307.013 177.631 307.132 177.941 307.367 178.2L307.552 178.032ZM307.263 177.28H307.513V171.241H307.263H307.013V177.28H307.263ZM307.263 171.241V170.991H307.234V171.241V171.491H307.263V171.241ZM307.234 171.241H307.484V162.11H307.234H306.984V171.241H307.234ZM307.234 162.11V162.36H316.452V162.11V161.86H307.234V162.11ZM316.452 162.11V162.36C317.054 162.36 317.605 162.479 318.109 162.713L318.215 162.486L318.32 162.259C317.745 161.993 317.122 161.86 316.452 161.86V162.11ZM318.215 162.486L318.119 162.717C318.647 162.935 319.099 163.243 319.479 163.641L319.659 163.469L319.84 163.296C319.411 162.846 318.9 162.499 318.31 162.255L318.215 162.486ZM319.659 163.469L319.487 163.649C319.885 164.029 320.193 164.481 320.411 165.009L320.642 164.913L320.873 164.818C320.629 164.228 320.282 163.717 319.832 163.288L319.659 163.469ZM320.642 164.913L320.415 165.019C320.649 165.523 320.767 166.074 320.767 166.676H321.017H321.267C321.267 166.006 321.135 165.383 320.869 164.808L320.642 164.913ZM321.017 166.676H320.767C320.767 167.278 320.649 167.84 320.414 168.365L320.642 168.467L320.87 168.57C321.135 167.978 321.267 167.345 321.267 166.676H321.017ZM320.642 168.467L320.415 168.362C320.178 168.874 319.859 169.32 319.458 169.702L319.63 169.883L319.803 170.064C320.25 169.638 320.605 169.14 320.869 168.573L320.642 168.467ZM319.63 169.883L319.458 169.702C319.056 170.086 318.588 170.398 318.055 170.638L318.157 170.866L318.259 171.094C318.843 170.832 319.358 170.489 319.803 170.064L319.63 169.883ZM318.157 170.866L318.058 170.636C317.553 170.853 316.999 170.962 316.394 170.962V171.212V171.462C317.061 171.462 317.682 171.341 318.255 171.095L318.157 170.866ZM316.394 171.212V170.962H316.192V171.212V171.462H316.394V171.212ZM316.192 171.212L315.994 171.365L320.155 176.768L320.353 176.616L320.551 176.463L316.39 171.06L316.192 171.212ZM316.423 169.016V169.266C317.141 169.266 317.755 169.021 318.247 168.529L318.07 168.352L317.893 168.175C317.499 168.569 317.015 168.766 316.423 168.766V169.016ZM318.07 168.352L318.247 168.529C318.756 168.019 319.014 167.397 319.014 166.676H318.764H318.514C318.514 167.265 318.309 167.76 317.893 168.175L318.07 168.352ZM318.764 166.676H319.014C319.014 165.955 318.756 165.34 318.243 164.848L318.07 165.029L317.897 165.209C318.309 165.604 318.514 166.087 318.514 166.676H318.764ZM318.07 165.029L318.251 164.856C317.759 164.343 317.144 164.085 316.423 164.085V164.335V164.585C317.012 164.585 317.495 164.79 317.89 165.202L318.07 165.029ZM316.423 164.335V164.085H309.459V164.335V164.585H316.423V164.335ZM309.459 164.335H309.209V169.016H309.459H309.709V164.335H309.459ZM309.459 169.016V169.266H316.423V169.016V168.766H309.459V169.016ZM325.874 162.573L325.697 162.75L325.705 162.757L325.874 162.573ZM325.874 178.032L325.705 177.847L325.697 177.855L325.874 178.032ZM324.256 178.032L324.079 178.209L324.087 178.216L324.256 178.032ZM324.256 162.573L324.087 162.388L324.079 162.396L324.256 162.573ZM325.065 162.255V162.505C325.333 162.505 325.537 162.589 325.697 162.75L325.874 162.573L326.051 162.396C325.787 162.133 325.452 162.005 325.065 162.005V162.255ZM325.874 162.573L325.705 162.757C325.882 162.919 325.971 163.121 325.971 163.382H326.221H326.471C326.471 162.988 326.328 162.65 326.043 162.389L325.874 162.573ZM326.221 163.382H325.971V177.223H326.221H326.471V163.382H326.221ZM326.221 177.223H325.971C325.971 177.484 325.882 177.685 325.705 177.847L325.874 178.032L326.043 178.216C326.328 177.954 326.471 177.617 326.471 177.223H326.221ZM325.874 178.032L325.697 177.855C325.537 178.015 325.333 178.1 325.065 178.1V178.35V178.6C325.452 178.6 325.787 178.472 326.051 178.208L325.874 178.032ZM325.065 178.35V178.1C324.821 178.1 324.611 178.018 324.425 177.847L324.256 178.032L324.087 178.216C324.363 178.469 324.693 178.6 325.065 178.6V178.35ZM324.256 178.032L324.433 177.855C324.272 177.694 324.188 177.491 324.188 177.223H323.938H323.688C323.688 177.61 323.816 177.945 324.079 178.208L324.256 178.032ZM323.938 177.223H324.188V163.382H323.938H323.688V177.223H323.938ZM323.938 163.382H324.188C324.188 163.114 324.272 162.91 324.433 162.75L324.256 162.573L324.079 162.396C323.816 162.659 323.688 162.995 323.688 163.382H323.938ZM324.256 162.573L324.425 162.757C324.611 162.587 324.821 162.505 325.065 162.505V162.255V162.005C324.693 162.005 324.363 162.135 324.087 162.389L324.256 162.573ZM344.109 164.798L344.279 164.981L344.359 164.907V164.798H344.109ZM332.089 175.98L331.918 175.797L331.453 176.23H332.089V175.98ZM343.531 176.298L343.354 176.475V176.475L343.531 176.298ZM343.531 177.916L343.354 177.739V177.739L343.531 177.916ZM328.91 178.234H328.66V178.484H328.91V178.234ZM328.91 175.836L328.74 175.653L328.66 175.727V175.836H328.91ZM341.162 164.422L341.332 164.605L341.797 164.172H341.162V164.422ZM329.228 164.104L329.044 164.273L329.051 164.281L329.059 164.289L329.228 164.104ZM329.228 162.486L329.405 162.663V162.663L329.228 162.486ZM344.109 162.139H344.359V161.889H344.109V162.139ZM344.109 164.798L343.939 164.615L331.918 175.797L332.089 175.98L332.259 176.163L344.279 164.981L344.109 164.798ZM332.089 175.98V176.23H342.722V175.98V175.73H332.089V175.98ZM342.722 175.98V176.23C342.99 176.23 343.194 176.314 343.354 176.475L343.531 176.298L343.708 176.121C343.445 175.858 343.109 175.73 342.722 175.73V175.98ZM343.531 176.298L343.354 176.475C343.515 176.635 343.599 176.839 343.599 177.107H343.849H344.099C344.099 176.72 343.971 176.385 343.708 176.121L343.531 176.298ZM343.849 177.107H343.599C343.599 177.375 343.515 177.579 343.354 177.739L343.531 177.916L343.708 178.093C343.971 177.83 344.099 177.494 344.099 177.107H343.849ZM343.531 177.916L343.354 177.739C343.194 177.9 342.99 177.984 342.722 177.984V178.234V178.484C343.109 178.484 343.445 178.356 343.708 178.093L343.531 177.916ZM342.722 178.234V177.984H328.91V178.234V178.484H342.722V178.234ZM328.91 178.234H329.16V175.836H328.91H328.66V178.234H328.91ZM328.91 175.836L329.081 176.019L341.332 164.605L341.162 164.422L340.991 164.239L328.74 175.653L328.91 175.836ZM341.162 164.422V164.172H330.066V164.422V164.672H341.162V164.422ZM330.066 164.422V164.172C329.798 164.172 329.58 164.088 329.397 163.92L329.228 164.104L329.059 164.289C329.339 164.545 329.679 164.672 330.066 164.672V164.422ZM329.228 164.104L329.412 163.935C329.242 163.749 329.16 163.54 329.16 163.295H328.91H328.66C328.66 163.667 328.791 163.997 329.044 164.273L329.228 164.104ZM328.91 163.295H329.16C329.16 163.027 329.244 162.823 329.405 162.663L329.228 162.486L329.051 162.309C328.788 162.573 328.66 162.908 328.66 163.295H328.91ZM329.228 162.486L329.405 162.663C329.589 162.479 329.805 162.389 330.066 162.389V162.139V161.889C329.672 161.889 329.33 162.031 329.051 162.309L329.228 162.486ZM330.066 162.139V162.389H344.109V162.139V161.889H330.066V162.139ZM344.109 162.139H343.859V164.798H344.109H344.359V162.139H344.109ZM348.534 171.444V171.194H348.284V171.444H348.534ZM348.736 174.506L348.504 174.602L348.51 174.613L348.736 174.506ZM349.343 175.373L349.166 175.55L349.173 175.557L349.343 175.373ZM350.21 175.922L350.114 176.154V176.154L350.21 175.922ZM360.698 176.442L360.522 176.619L360.53 176.627L360.698 176.442ZM360.698 178.061L360.875 178.237V178.237L360.698 178.061ZM349.314 178.003L349.211 178.231L349.22 178.234L349.314 178.003ZM347.754 176.934L347.577 177.11V177.11L347.754 176.934ZM346.684 175.373L346.454 175.47L346.457 175.476L346.684 175.373ZM346.684 165.26L346.457 165.157L346.455 165.161L346.684 165.26ZM347.754 163.7L347.577 163.523L347.754 163.7ZM349.314 162.659L349.411 162.89L349.414 162.889L349.314 162.659ZM360.698 162.573L360.522 162.75L360.53 162.757L360.698 162.573ZM360.698 164.191L360.875 164.368V164.368L360.698 164.191ZM349.343 165.289L349.512 165.473L349.52 165.466L349.343 165.289ZM348.736 166.127L348.51 166.02L348.507 166.027L348.736 166.127ZM348.534 169.19H348.284V169.44H348.534V169.19ZM360.698 169.508L360.522 169.685L360.53 169.692L360.698 169.508ZM360.698 171.126L360.875 171.303V171.303L360.698 171.126ZM348.534 171.444H348.284V173.466H348.534H348.784V171.444H348.534ZM348.534 173.466H348.284C348.284 173.864 348.357 174.243 348.505 174.602L348.736 174.506L348.967 174.411C348.845 174.115 348.784 173.801 348.784 173.466H348.534ZM348.736 174.506L348.51 174.613C348.676 174.966 348.895 175.279 349.166 175.55L349.343 175.373L349.52 175.197C349.29 174.967 349.104 174.702 348.962 174.4L348.736 174.506ZM349.343 175.373L349.173 175.557C349.446 175.809 349.761 176.008 350.114 176.154L350.21 175.922L350.305 175.691C350.004 175.567 349.74 175.4 349.512 175.19L349.343 175.373ZM350.21 175.922L350.114 176.154C350.475 176.302 350.864 176.375 351.279 176.375V176.125V175.875C350.923 175.875 350.599 175.813 350.305 175.691L350.21 175.922ZM351.279 176.125V176.375H359.918V176.125V175.875H351.279V176.125ZM359.918 176.125V176.375C360.162 176.375 360.358 176.456 360.522 176.619L360.698 176.442L360.875 176.266C360.615 176.005 360.291 175.875 359.918 175.875V176.125ZM360.698 176.442L360.53 176.627C360.707 176.789 360.795 176.991 360.795 177.252H361.045H361.295C361.295 176.857 361.153 176.52 360.867 176.258L360.698 176.442ZM361.045 177.252H360.795C360.795 177.489 360.709 177.696 360.522 177.884L360.698 178.061L360.875 178.237C361.15 177.962 361.295 177.63 361.295 177.252H361.045ZM360.698 178.061L360.522 177.884C360.358 178.047 360.162 178.128 359.918 178.128V178.378V178.628C360.291 178.628 360.615 178.498 360.875 178.237L360.698 178.061ZM359.918 178.378V178.128H351.279V178.378V178.628H359.918V178.378ZM351.279 178.378V178.128C350.616 178.128 349.993 178.009 349.408 177.771L349.314 178.003L349.22 178.234C349.867 178.497 350.554 178.628 351.279 178.628V178.378ZM349.314 178.003L349.417 177.775C348.846 177.517 348.351 177.178 347.93 176.757L347.754 176.934L347.577 177.11C348.042 177.576 348.588 177.949 349.211 178.231L349.314 178.003ZM347.754 176.934L347.93 176.757C347.51 176.336 347.17 175.841 346.912 175.27L346.684 175.373L346.457 175.476C346.738 176.1 347.111 176.645 347.577 177.11L347.754 176.934ZM346.684 175.373L346.915 175.277C346.678 174.711 346.559 174.109 346.559 173.466H346.309H346.059C346.059 174.172 346.19 174.841 346.454 175.47L346.684 175.373ZM346.309 173.466H346.559V167.138H346.309H346.059V173.466H346.309ZM346.309 167.138H346.559C346.559 166.496 346.678 165.904 346.914 165.359L346.684 165.26L346.455 165.161C346.19 165.772 346.059 166.432 346.059 167.138H346.309ZM346.684 165.26L346.912 165.363C347.17 164.792 347.51 164.297 347.93 163.876L347.754 163.7L347.577 163.523C347.111 163.988 346.738 164.534 346.457 165.157L346.684 165.26ZM347.754 163.7L347.93 163.876C348.35 163.457 348.842 163.128 349.411 162.89L349.314 162.659L349.217 162.429C348.591 162.691 348.044 163.056 347.577 163.523L347.754 163.7ZM349.314 162.659L349.414 162.889C349.998 162.633 350.619 162.505 351.279 162.505V162.255V162.005C350.552 162.005 349.863 162.147 349.214 162.43L349.314 162.659ZM351.279 162.255V162.505H359.918V162.255V162.005H351.279V162.255ZM359.918 162.255V162.505C360.162 162.505 360.358 162.586 360.522 162.75L360.698 162.573L360.875 162.396C360.615 162.136 360.291 162.005 359.918 162.005V162.255ZM360.698 162.573L360.53 162.757C360.707 162.919 360.795 163.121 360.795 163.382H361.045H361.295C361.295 162.988 361.153 162.65 360.867 162.389L360.698 162.573ZM361.045 163.382H360.795C360.795 163.619 360.709 163.827 360.522 164.014L360.698 164.191L360.875 164.368C361.15 164.093 361.295 163.761 361.295 163.382H361.045ZM360.698 164.191L360.522 164.014C360.358 164.178 360.162 164.259 359.918 164.259V164.509V164.759C360.291 164.759 360.615 164.628 360.875 164.368L360.698 164.191ZM359.918 164.509V164.259H351.279V164.509V164.759H359.918V164.509ZM351.279 164.509V164.259C350.864 164.259 350.475 164.332 350.114 164.48L350.21 164.711L350.305 164.942C350.599 164.821 350.923 164.759 351.279 164.759V164.509ZM350.21 164.711L350.114 164.48C349.756 164.627 349.44 164.838 349.166 165.112L349.343 165.289L349.52 165.466C349.747 165.239 350.008 165.064 350.305 164.942L350.21 164.711ZM349.343 165.289L349.173 165.105C348.898 165.36 348.677 165.666 348.51 166.02L348.736 166.127L348.962 166.233C349.103 165.933 349.287 165.681 349.512 165.473L349.343 165.289ZM348.736 166.127L348.507 166.027C348.357 166.369 348.284 166.741 348.284 167.138H348.534H348.784C348.784 166.804 348.845 166.501 348.965 166.227L348.736 166.127ZM348.534 167.138H348.284V169.19H348.534H348.784V167.138H348.534ZM348.534 169.19V169.44H359.918V169.19V168.94H348.534V169.19ZM359.918 169.19V169.44C360.162 169.44 360.358 169.521 360.522 169.684L360.698 169.508L360.875 169.331C360.615 169.071 360.291 168.94 359.918 168.94V169.19ZM360.698 169.508L360.53 169.692C360.707 169.854 360.795 170.056 360.795 170.317H361.045H361.295C361.295 169.923 361.153 169.585 360.867 169.323L360.698 169.508ZM361.045 170.317H360.795C360.795 170.554 360.709 170.762 360.522 170.949L360.698 171.126L360.875 171.303C361.15 171.028 361.295 170.696 361.295 170.317H361.045ZM360.698 171.126L360.522 170.949C360.358 171.113 360.162 171.194 359.918 171.194V171.444V171.694C360.291 171.694 360.615 171.563 360.875 171.303L360.698 171.126ZM359.918 171.444V171.194H348.534V171.444V171.694H359.918V171.444Z" fill="white" mask="url(#path-48-outside-1_2018_2)"/>
<foreignObject x="48" y="604.612" width="504" height="69"><div xmlns="http://www.w3.org/1999/xhtml" style="backdrop-filter:blur(2px);clip-path:url(#bgblur_1_2018_2_clip_path);height:100%;width:100%"></div></foreignObject><g data-figma-bg-blur-radius="4">
<mask id="path-50-outside-2_2018_2" maskUnits="userSpaceOnUse" x="52" y="608.112" width="496" height="62" fill="black">
<rect fill="white" x="52" y="608.112" width="496" height="62"/>
<path d="M52 610.112H548V668.112H52V610.112Z"/>
</mask>
<path d="M52 610.112H548V668.112H52V610.112Z" fill="url(#paint44_linear_2018_2)"/>
<path d="M52 610.112V611.612H548V610.112V608.612H52V610.112ZM548 668.112V666.612H52V668.112V669.612H548V668.112Z" fill="url(#paint45_linear_2018_2)" mask="url(#path-50-outside-2_2018_2)"/>
<path d="M116.955 634.771C116.978 635.509 117.257 636.145 117.793 636.682C118.33 637.196 118.967 637.453 119.704 637.453H131.269V642.783C131.269 643.52 131.124 644.213 130.833 644.861C130.565 645.509 130.185 646.079 129.693 646.57C129.224 647.04 128.665 647.42 128.017 647.71C127.369 647.978 126.676 648.112 125.939 648.112H115.883C115.525 648.112 115.212 647.989 114.944 647.744C114.698 647.475 114.575 647.163 114.575 646.805C114.575 646.425 114.698 646.112 114.944 645.866C115.212 645.621 115.525 645.498 115.883 645.498H125.939C126.676 645.498 127.302 645.241 127.816 644.727C128.352 644.19 128.621 643.542 128.621 642.783V640.067H119.704C118.967 640.067 118.263 639.933 117.592 639.665C116.944 639.375 116.374 638.995 115.883 638.525C115.391 638.056 115 637.497 114.71 636.849C114.419 636.201 114.274 635.509 114.274 634.771C114.274 634.034 114.408 633.341 114.676 632.693C114.967 632.045 115.346 631.475 115.816 630.983C116.307 630.492 116.877 630.112 117.525 629.844C118.173 629.553 118.866 629.408 119.604 629.408H129.961C130.341 629.408 130.654 629.531 130.9 629.777C131.168 630.022 131.302 630.335 131.302 630.715C131.302 631.073 131.168 631.385 130.9 631.654C130.654 631.899 130.341 632.022 129.961 632.022H119.604C118.844 632.022 118.196 632.291 117.659 632.827C117.145 633.363 116.9 634.011 116.922 634.771H116.955ZM153.585 629.24C154.077 629.24 154.49 629.408 154.825 629.743C155.161 630.078 155.328 630.492 155.328 630.983V646.805C155.328 647.163 155.194 647.475 154.926 647.744C154.68 647.989 154.378 648.112 154.021 648.112C153.641 648.112 153.317 647.989 153.049 647.744C152.803 647.475 152.68 647.163 152.68 646.805V634L146.579 643.319C146.222 643.878 145.697 644.157 145.004 644.157C144.669 644.157 144.345 644.079 144.032 643.922C143.741 643.766 143.507 643.531 143.328 643.218L137.73 633.665V646.805C137.73 647.163 137.596 647.475 137.328 647.744C137.082 647.989 136.78 648.112 136.423 648.112C136.043 648.112 135.73 647.989 135.484 647.744C135.238 647.475 135.115 647.163 135.115 646.805V631.251C135.115 630.693 135.305 630.223 135.685 629.844C136.065 629.464 136.534 629.274 137.093 629.274C137.853 629.274 138.411 629.598 138.769 630.246L144.97 640.872L152.077 630.078C152.434 629.542 152.915 629.274 153.518 629.274L153.585 629.24ZM177.298 646.704C177.477 647.151 177.421 647.565 177.131 647.945C176.863 648.325 176.505 648.515 176.058 648.515C175.477 648.515 175.075 648.235 174.851 647.677L169.186 633.028C169.008 632.581 168.695 632.358 168.248 632.358C167.779 632.358 167.454 632.57 167.276 632.994L160.505 647.744C160.281 648.235 159.89 648.481 159.331 648.481C158.84 648.481 158.46 648.291 158.192 647.911C157.946 647.509 157.923 647.084 158.125 646.637L164.896 631.888C165.209 631.196 165.667 630.659 166.27 630.279C166.873 629.877 167.555 629.687 168.315 629.709C169.075 629.732 169.745 629.944 170.326 630.346C170.929 630.749 171.376 631.307 171.667 632.022V632.056L177.365 646.704H177.298ZM167.779 643.352C167.265 643.352 166.829 643.174 166.471 642.816C166.136 642.458 165.968 642.023 165.968 641.509C165.968 640.995 166.136 640.57 166.471 640.235C166.829 639.877 167.265 639.699 167.779 639.699C168.293 639.699 168.717 639.877 169.052 640.235C169.41 640.57 169.589 640.995 169.589 641.509C169.589 642.023 169.41 642.458 169.052 642.816C168.717 643.174 168.293 643.352 167.779 643.352ZM195.507 646.068C195.664 646.291 195.742 646.526 195.742 646.771C195.764 647.017 195.719 647.252 195.608 647.475C195.518 647.677 195.373 647.844 195.172 647.978C194.971 648.112 194.736 648.179 194.468 648.179C194.043 648.179 193.708 648.001 193.462 647.643L187.429 639.833H182.836V646.839C182.836 647.174 182.713 647.464 182.468 647.71C182.222 647.956 181.92 648.079 181.563 648.079C181.205 648.079 180.903 647.956 180.658 647.71C180.434 647.464 180.322 647.174 180.322 646.839V639.833H180.289V629.24H190.982C191.719 629.24 192.401 629.385 193.027 629.676C193.675 629.944 194.233 630.324 194.703 630.816C195.194 631.285 195.574 631.844 195.842 632.492C196.133 633.117 196.278 633.799 196.278 634.536C196.278 635.274 196.133 635.967 195.842 636.615C195.552 637.24 195.161 637.788 194.669 638.257C194.178 638.727 193.608 639.106 192.96 639.397C192.334 639.665 191.652 639.799 190.915 639.799H190.68L195.507 646.068ZM190.948 637.252C191.708 637.252 192.345 636.995 192.859 636.481C193.395 635.944 193.664 635.296 193.664 634.536C193.664 633.777 193.395 633.14 192.859 632.626C192.345 632.089 191.708 631.821 190.948 631.821H182.87V637.252H190.948ZM213.879 629.408C214.259 629.408 214.572 629.531 214.818 629.777C215.064 630.022 215.186 630.335 215.186 630.715C215.186 631.073 215.064 631.385 214.818 631.654C214.572 631.899 214.259 632.022 213.879 632.022H208.013V646.771C208.013 647.151 207.879 647.464 207.611 647.71C207.365 647.956 207.063 648.079 206.706 648.079C206.326 648.079 206.013 647.956 205.767 647.71C205.521 647.464 205.398 647.151 205.398 646.771V632.022H199.298C198.918 632.022 198.605 631.899 198.359 631.654C198.113 631.385 197.99 631.073 197.99 630.715C197.99 630.335 198.113 630.022 198.359 629.777C198.605 629.531 198.918 629.408 199.298 629.408H213.879ZM255.812 629.274C256.304 629.274 256.673 629.475 256.918 629.877C257.187 630.279 257.209 630.704 256.985 631.151L249.41 646.839C249.231 647.241 248.952 647.565 248.572 647.811C248.192 648.034 247.778 648.146 247.331 648.146C246.907 648.146 246.516 648.034 246.158 647.811C245.801 647.565 245.521 647.252 245.32 646.872L241.7 639.598L238.18 646.839C238.002 647.241 237.722 647.565 237.342 647.811C236.962 648.034 236.549 648.146 236.102 648.146C235.677 648.146 235.275 648.034 234.895 647.811C234.538 647.565 234.27 647.252 234.091 646.872L226.247 631.184C226.023 630.737 226.035 630.313 226.28 629.911C226.549 629.486 226.929 629.274 227.42 629.274C227.666 629.274 227.889 629.341 228.091 629.475C228.314 629.587 228.482 629.765 228.593 630.011L236.136 645.095L243.41 630.045C243.633 629.531 244.024 629.274 244.583 629.274C245.074 629.274 245.443 629.486 245.689 629.911C245.957 630.313 245.979 630.737 245.756 631.184L243.141 636.648L247.365 645.095L254.639 630.045C254.862 629.531 255.253 629.274 255.812 629.274ZM274.652 646.704C274.831 647.151 274.775 647.565 274.485 647.945C274.217 648.325 273.859 648.515 273.412 648.515C272.831 648.515 272.429 648.235 272.205 647.677L266.54 633.028C266.362 632.581 266.049 632.358 265.602 632.358C265.132 632.358 264.808 632.57 264.63 632.994L257.858 647.744C257.635 648.235 257.244 648.481 256.685 648.481C256.194 648.481 255.814 648.291 255.546 647.911C255.3 647.509 255.277 647.084 255.479 646.637L262.25 631.888C262.563 631.196 263.021 630.659 263.624 630.279C264.227 629.877 264.909 629.687 265.669 629.709C266.429 629.732 267.099 629.944 267.68 630.346C268.283 630.749 268.73 631.307 269.021 632.022V632.056L274.719 646.704H274.652ZM265.132 643.352C264.618 643.352 264.183 643.174 263.825 642.816C263.49 642.458 263.322 642.023 263.322 641.509C263.322 640.995 263.49 640.57 263.825 640.235C264.183 639.877 264.618 639.699 265.132 639.699C265.646 639.699 266.071 639.877 266.406 640.235C266.764 640.57 266.943 640.995 266.943 641.509C266.943 642.023 266.764 642.458 266.406 642.816C266.071 643.174 265.646 643.352 265.132 643.352ZM288.417 629.408C288.797 629.408 289.11 629.531 289.355 629.777C289.601 630.022 289.724 630.335 289.724 630.715C289.724 631.073 289.601 631.385 289.355 631.654C289.11 631.899 288.797 632.022 288.417 632.022H282.551V646.771C282.551 647.151 282.417 647.464 282.148 647.71C281.903 647.956 281.601 648.079 281.243 648.079C280.863 648.079 280.551 647.956 280.305 647.71C280.059 647.464 279.936 647.151 279.936 646.771V632.022H273.835C273.455 632.022 273.143 631.899 272.897 631.654C272.651 631.385 272.528 631.073 272.528 630.715C272.528 630.335 272.651 630.022 272.897 629.777C273.143 629.531 273.455 629.408 273.835 629.408H288.417ZM306.941 645.498C307.321 645.498 307.634 645.621 307.88 645.866C308.126 646.112 308.248 646.425 308.248 646.805C308.248 647.163 308.126 647.475 307.88 647.744C307.634 647.989 307.321 648.112 306.941 648.112H296.918C296.114 648.112 295.365 647.967 294.673 647.677C293.98 647.364 293.365 646.95 292.829 646.436C292.315 645.922 291.902 645.319 291.589 644.626C291.298 643.933 291.153 643.196 291.153 642.414V635.073C291.153 634.291 291.298 633.564 291.589 632.894C291.902 632.201 292.315 631.598 292.829 631.084C293.365 630.57 293.98 630.168 294.673 629.877C295.365 629.564 296.114 629.408 296.918 629.408H306.941C307.321 629.408 307.634 629.531 307.88 629.777C308.126 630.022 308.248 630.335 308.248 630.715C308.248 631.073 308.126 631.385 307.88 631.654C307.634 631.899 307.321 632.022 306.941 632.022H296.918C296.471 632.022 296.058 632.112 295.678 632.291C295.298 632.447 294.963 632.67 294.673 632.961C294.382 633.229 294.147 633.553 293.969 633.933C293.812 634.291 293.734 634.682 293.734 635.106V642.447C293.734 642.872 293.812 643.274 293.969 643.654C294.147 644.034 294.382 644.369 294.673 644.66C294.963 644.928 295.298 645.14 295.678 645.297C296.058 645.453 296.471 645.531 296.918 645.531H306.941V645.498ZM327.182 629.408C327.562 629.408 327.875 629.531 328.121 629.777C328.389 630.022 328.523 630.335 328.523 630.715V646.771C328.523 647.151 328.389 647.464 328.121 647.71C327.875 647.956 327.562 648.079 327.182 648.079C326.825 648.079 326.512 647.956 326.244 647.71C325.998 647.464 325.875 647.151 325.875 646.771V640.067H313.908V646.771C313.908 647.151 313.774 647.464 313.506 647.71C313.26 647.956 312.947 648.079 312.567 648.079C312.21 648.079 311.897 647.956 311.629 647.71C311.383 647.464 311.26 647.151 311.26 646.771V630.715C311.26 630.335 311.383 630.022 311.629 629.777C311.897 629.531 312.21 629.408 312.567 629.408C312.947 629.408 313.26 629.531 313.506 629.777C313.774 630.022 313.908 630.335 313.908 630.715V637.453H325.875V630.715C325.875 630.335 325.998 630.022 326.244 629.777C326.512 629.531 326.825 629.408 327.182 629.408ZM361.19 629.24C361.681 629.24 362.095 629.408 362.43 629.743C362.765 630.078 362.933 630.492 362.933 630.983V646.805C362.933 647.163 362.799 647.475 362.531 647.744C362.285 647.989 361.983 648.112 361.626 648.112C361.246 648.112 360.933 647.989 360.687 647.744C360.441 647.475 360.318 647.163 360.318 646.805V634L354.184 643.319C353.826 643.878 353.301 644.157 352.609 644.157C352.273 644.157 351.949 644.079 351.636 643.922C351.346 643.766 351.111 643.531 350.933 643.218L345.335 633.665V646.805C345.335 647.163 345.212 647.475 344.966 647.744C344.72 647.989 344.407 648.112 344.027 648.112C343.647 648.112 343.335 647.989 343.089 647.744C342.843 647.475 342.72 647.163 342.72 646.805V631.251C342.72 630.693 342.91 630.223 343.29 629.844C343.67 629.464 344.139 629.274 344.698 629.274C345.457 629.274 346.016 629.598 346.374 630.246L352.575 640.872L359.681 630.078C360.039 629.542 360.519 629.274 361.123 629.274L361.19 629.24ZM368.446 629.408C368.826 629.408 369.139 629.531 369.385 629.777C369.653 630.022 369.787 630.335 369.787 630.715V646.771C369.787 647.151 369.653 647.464 369.385 647.71C369.139 647.956 368.826 648.079 368.446 648.079C368.088 648.079 367.776 647.956 367.507 647.71C367.262 647.464 367.139 647.151 367.139 646.771V630.715C367.139 630.335 367.262 630.022 367.507 629.777C367.776 629.531 368.088 629.408 368.446 629.408ZM390.076 639.43C390.791 640.414 391.148 641.632 391.148 643.084C391.148 644.514 390.735 645.744 389.908 646.771C388.97 647.889 387.852 648.448 386.556 648.448H373.718V629.743H385.115C385.852 629.743 386.545 629.888 387.193 630.179C387.841 630.447 388.4 630.827 388.869 631.318C389.361 631.788 389.741 632.346 390.009 632.994C390.299 633.643 390.444 634.335 390.444 635.073C390.444 636.347 390.042 637.486 389.238 638.492C389.394 638.626 389.539 638.771 389.674 638.928C389.83 639.084 389.975 639.252 390.109 639.43H390.076ZM376.366 632.358V637.553C377.17 637.553 378.075 637.564 379.081 637.587C380.087 637.587 381.059 637.587 381.997 637.587C382.936 637.587 383.785 637.587 384.545 637.587C385.305 637.587 385.852 637.587 386.187 637.587C386.679 637.363 387.07 637.028 387.361 636.581C387.651 636.134 387.796 635.643 387.796 635.106C387.796 634.346 387.528 633.698 386.992 633.162C386.478 632.626 385.852 632.358 385.115 632.358H376.366ZM386.556 645.766C387.048 645.766 387.484 645.542 387.863 645.095C388.31 644.537 388.534 643.855 388.534 643.051C388.534 642.671 388.489 642.302 388.4 641.945C388.31 641.565 388.187 641.229 388.031 640.939C387.897 640.648 387.718 640.414 387.495 640.235C387.294 640.056 387.07 639.967 386.824 639.967H386.489C386.31 639.989 385.942 640 385.383 640C384.824 640 384.076 640 383.137 640C382.534 640 381.908 640 381.26 640C380.612 640 379.975 640 379.349 640C378.746 639.978 378.176 639.967 377.64 639.967C377.126 639.967 376.701 639.967 376.366 639.967V641.341V645.799H386.556V645.766ZM412.467 646.704C412.646 647.151 412.59 647.565 412.299 647.945C412.031 648.325 411.673 648.515 411.226 648.515C410.645 648.515 410.243 648.235 410.02 647.677L404.355 633.028C404.176 632.581 403.863 632.358 403.416 632.358C402.947 632.358 402.623 632.57 402.444 632.994L395.673 647.744C395.449 648.235 395.058 648.481 394.5 648.481C394.008 648.481 393.628 648.291 393.36 647.911C393.114 647.509 393.092 647.084 393.293 646.637L400.064 631.888C400.377 631.196 400.835 630.659 401.438 630.279C402.042 629.877 402.723 629.687 403.483 629.709C404.243 629.732 404.913 629.944 405.494 630.346C406.098 630.749 406.545 631.307 406.835 632.022V632.056L412.534 646.704H412.467ZM402.947 643.352C402.433 643.352 401.997 643.174 401.64 642.816C401.304 642.458 401.137 642.023 401.137 641.509C401.137 640.995 401.304 640.57 401.64 640.235C401.997 639.877 402.433 639.699 402.947 639.699C403.461 639.699 403.885 639.877 404.221 640.235C404.578 640.57 404.757 640.995 404.757 641.509C404.757 642.023 404.578 642.458 404.221 642.816C403.885 643.174 403.461 643.352 402.947 643.352ZM431.178 629.274C431.558 629.274 431.871 629.408 432.117 629.676C432.385 629.922 432.519 630.235 432.519 630.615V646.537C432.519 646.961 432.374 647.33 432.083 647.643C431.793 647.956 431.424 648.135 430.977 648.179C430.731 648.179 430.486 648.135 430.24 648.045C430.016 647.934 429.826 647.777 429.67 647.576L418.038 633.129V646.839C418.038 647.218 417.904 647.542 417.636 647.811C417.39 648.056 417.077 648.179 416.697 648.179C416.34 648.157 416.038 648.023 415.792 647.777C415.547 647.509 415.424 647.196 415.424 646.839V631.285C415.424 630.749 415.614 630.279 415.994 629.877C416.396 629.475 416.876 629.274 417.435 629.274C418.083 629.274 418.608 629.531 419.01 630.045L429.871 643.587V630.581C429.871 630.201 429.994 629.888 430.24 629.642C430.508 629.397 430.821 629.274 431.178 629.274ZM447.767 629.408C448.572 629.408 449.32 629.553 450.013 629.844C450.706 630.112 451.309 630.492 451.823 630.983C452.36 631.475 452.773 632.045 453.063 632.693C453.376 633.341 453.533 634.034 453.533 634.771V642.749C453.533 643.486 453.376 644.179 453.063 644.827C452.773 645.475 452.36 646.045 451.823 646.537C451.309 647.006 450.706 647.386 450.013 647.677C449.32 647.945 448.572 648.079 447.767 648.079H436.538V629.408H447.767ZM450.918 634.771C450.918 634.414 450.829 634.067 450.65 633.732C450.494 633.397 450.27 633.106 449.98 632.86C449.689 632.615 449.343 632.425 448.94 632.291C448.56 632.134 448.158 632.056 447.734 632.056H439.152V645.498H447.734C448.158 645.498 448.56 645.431 448.94 645.297C449.343 645.14 449.689 644.939 449.98 644.693C450.27 644.447 450.494 644.157 450.65 643.822C450.829 643.486 450.918 643.129 450.918 642.749V634.771ZM468.144 631.955C467.787 631.955 467.474 631.832 467.206 631.587C466.96 631.318 466.837 630.994 466.837 630.615C466.837 630.257 466.96 629.955 467.206 629.709C467.474 629.441 467.787 629.307 468.144 629.307H470.826V646.034C470.826 646.414 470.703 646.738 470.457 647.006C470.211 647.252 469.899 647.375 469.519 647.375C469.161 647.375 468.848 647.252 468.58 647.006C468.334 646.738 468.211 646.414 468.211 646.034V631.955H468.144ZM482.983 628.972C484.168 628.972 485.285 629.229 486.335 629.743C487.386 630.235 488.324 630.961 489.151 631.922C489.933 632.86 490.537 633.922 490.961 635.106C491.408 636.268 491.632 637.497 491.632 638.794C491.632 640.067 491.408 641.296 490.961 642.481C490.537 643.643 489.933 644.693 489.151 645.632C488.324 646.593 487.386 647.33 486.335 647.844C485.285 648.336 484.168 648.582 482.983 648.582C481.821 648.582 480.704 648.336 479.631 647.844C478.581 647.33 477.642 646.593 476.815 645.632C476.033 644.693 475.43 643.643 475.005 642.481C474.581 641.296 474.368 640.067 474.368 638.794C474.368 637.497 474.581 636.268 475.005 635.106C475.43 633.922 476.033 632.86 476.815 631.922C477.642 630.961 478.581 630.235 479.631 629.743C480.704 629.229 481.821 628.972 482.983 628.972ZM488.983 638.76C488.983 637.777 488.827 636.849 488.514 635.978C488.201 635.106 487.766 634.346 487.207 633.698C486.67 633.05 486.034 632.536 485.296 632.156C484.559 631.777 483.777 631.587 482.95 631.587C482.123 631.587 481.341 631.777 480.603 632.156C479.866 632.536 479.218 633.05 478.659 633.698C478.123 634.346 477.698 635.106 477.385 635.978C477.072 636.849 476.916 637.777 476.916 638.76C476.916 639.743 477.072 640.671 477.385 641.542C477.698 642.391 478.123 643.14 478.659 643.788C479.218 644.436 479.866 644.95 480.603 645.33C481.341 645.71 482.123 645.9 482.95 645.9C483.777 645.9 484.559 645.71 485.296 645.33C486.034 644.95 486.67 644.436 487.207 643.788C487.766 643.14 488.201 642.391 488.514 641.542C488.827 640.671 488.983 639.743 488.983 638.76Z" fill="white"/>
</g>
<defs>
<filter id="filter0_f_2018_2" x="122.927" y="-9.15527e-05" width="351.225" height="461.225" filterUnits="userSpaceOnUse" color-interpolation-filters="sRGB">
<feFlood flood-opacity="0" result="BackgroundImageFix"/>
<feBlend mode="normal" in="SourceGraphic" in2="BackgroundImageFix" result="shape"/>
<feGaussianBlur stdDeviation="10.0562" result="effect1_foregroundBlur_2018_2"/>
</filter>
<filter id="filter1_f_2018_2" x="0" y="91.1123" width="599" height="599" filterUnits="userSpaceOnUse" color-interpolation-filters="sRGB">
<feFlood flood-opacity="0" result="BackgroundImageFix"/>
<feBlend mode="normal" in="SourceGraphic" in2="BackgroundImageFix" result="shape"/>
<feGaussianBlur stdDeviation="59.5" result="effect1_foregroundBlur_2018_2"/>
</filter>
<filter id="filter2_i_2018_2" x="124.849" y="215.922" width="347.777" height="347.777" filterUnits="userSpaceOnUse" color-interpolation-filters="sRGB">
<feFlood flood-opacity="0" result="BackgroundImageFix"/>
<feBlend mode="normal" in="SourceGraphic" in2="BackgroundImageFix" result="shape"/>
<feColorMatrix in="SourceAlpha" type="matrix" values="0 0 0 0 0 0 0 0 0 0 0 0 0 0 0 0 0 0 127 0" result="hardAlpha"/>
<feOffset/>
<feGaussianBlur stdDeviation="12.1512"/>
<feComposite in2="hardAlpha" operator="arithmetic" k2="-1" k3="1"/>
<feColorMatrix type="matrix" values="0 0 0 0 0.231276 0 0 0 0 0.686104 0 0 0 0 1 0 0 0 1 0"/>
<feBlend mode="normal" in2="shape" result="effect1_innerShadow_2018_2"/>
</filter>
<clipPath id="bgblur_1_2018_2_clip_path" transform="translate(-48 -604.612)"><path d="M52 610.112H548V668.112H52V610.112Z"/>
</clipPath><linearGradient id="paint0_linear_2018_2" x1="298.54" y1="20.1123" x2="298.54" y2="441.112" gradientUnits="userSpaceOnUse">
<stop stop-color="#35A3EF" stop-opacity="0"/>
<stop offset="1" stop-color="#C4E7FF"/>
</linearGradient>
<linearGradient id="paint1_linear_2018_2" x1="299.5" y1="215.112" x2="299.5" y2="566.112" gradientUnits="userSpaceOnUse">
<stop stop-color="#70C5FF"/>
<stop offset="1" stop-color="#004CFA"/>
</linearGradient>
<linearGradient id="paint2_linear_2018_2" x1="298.738" y1="220.112" x2="298.738" y2="559.509" gradientUnits="userSpaceOnUse">
<stop stop-color="#35A3EF"/>
<stop offset="1" stop-color="#0039BB"/>
</linearGradient>
<linearGradient id="paint3_linear_2018_2" x1="299.053" y1="217.112" x2="299.053" y2="565.826" gradientUnits="userSpaceOnUse">
<stop stop-color="#DAE1EF"/>
<stop offset="0.29" stop-color="#98ABD2"/>
<stop offset="0.69" stop-color="#7571A5"/>
<stop offset="1" stop-color="#6F578C"/>
</linearGradient>
<linearGradient id="paint4_linear_2018_2" x1="299.053" y1="439.053" x2="299.053" y2="565.826" gradientUnits="userSpaceOnUse">
<stop stop-color="#8980EB"/>
<stop offset="1" stop-color="#705AB8"/>
</linearGradient>
<linearGradient id="paint5_linear_2018_2" x1="102.539" y1="560.733" x2="105.221" y2="222.233" gradientUnits="userSpaceOnUse">
<stop stop-color="#DAE1EF"/>
<stop offset="0.29" stop-color="#98ABD2"/>
<stop offset="0.69" stop-color="#7571A5"/>
<stop offset="1" stop-color="#6F578C"/>
</linearGradient>
<linearGradient id="paint6_linear_2018_2" x1="299.053" y1="343.912" x2="299.053" y2="217.112" gradientUnits="userSpaceOnUse">
<stop stop-color="#8980EB"/>
<stop offset="1" stop-color="#ADBEDF"/>
</linearGradient>
<linearGradient id="paint7_linear_2018_2" x1="165.444" y1="388.494" x2="165.444" y2="445.353" gradientUnits="userSpaceOnUse">
<stop stop-color="#8980EB"/>
<stop offset="1" stop-color="#705AB8"/>
</linearGradient>
<linearGradient id="paint8_linear_2018_2" x1="137.018" y1="267.856" x2="183.62" y2="292.797" gradientUnits="userSpaceOnUse">
<stop stop-color="#86759D"/>
<stop offset="0.39" stop-color="#98ABD2"/>
<stop offset="1" stop-color="#DAE1EF"/>
</linearGradient>
<linearGradient id="paint9_linear_2018_2" x1="184.856" y1="300.827" x2="143.523" y2="278.707" gradientUnits="userSpaceOnUse">
<stop stop-color="#DAE1EF"/>
<stop offset="0.29" stop-color="#98ABD2"/>
<stop offset="0.69" stop-color="#7571A5"/>
<stop offset="1" stop-color="#6F578C"/>
</linearGradient>
<linearGradient id="paint10_linear_2018_2" x1="194.531" y1="257.357" x2="179.761" y2="249.452" gradientUnits="userSpaceOnUse">
<stop stop-color="#DAE1EF"/>
<stop offset="0.29" stop-color="#98ABD2"/>
<stop offset="0.69" stop-color="#7571A5"/>
<stop offset="1" stop-color="#6F578C"/>
</linearGradient>
<linearGradient id="paint11_linear_2018_2" x1="181.401" y1="234.12" x2="193.666" y2="240.684" gradientUnits="userSpaceOnUse">
<stop stop-color="#8980EB"/>
<stop offset="1" stop-color="#ADBEDF"/>
</linearGradient>
<linearGradient id="paint12_linear_2018_2" x1="222.457" y1="269.025" x2="207.238" y2="260.88" gradientUnits="userSpaceOnUse">
<stop stop-color="#705AB8"/>
<stop offset="1" stop-color="#181D3B"/>
</linearGradient>
<linearGradient id="paint13_linear_2018_2" x1="150.154" y1="321.929" x2="153.746" y2="323.851" gradientUnits="userSpaceOnUse">
<stop stop-color="#8980EB"/>
<stop offset="1" stop-color="#705AB8"/>
</linearGradient>
<linearGradient id="paint14_linear_2018_2" x1="115.324" y1="368.468" x2="103.715" y2="391.414" gradientUnits="userSpaceOnUse">
<stop stop-color="#DAE1EF"/>
<stop offset="0.29" stop-color="#98ABD2"/>
<stop offset="0.69" stop-color="#7571A5"/>
<stop offset="1" stop-color="#6F578C"/>
</linearGradient>
<linearGradient id="paint15_linear_2018_2" x1="138.006" y1="514.435" x2="184.608" y2="489.494" gradientUnits="userSpaceOnUse">
<stop stop-color="#86759D"/>
<stop offset="0.39" stop-color="#98ABD2"/>
<stop offset="1" stop-color="#DAE1EF"/>
</linearGradient>
<linearGradient id="paint16_linear_2018_2" x1="185.82" y1="481.476" x2="144.488" y2="503.597" gradientUnits="userSpaceOnUse">
<stop stop-color="#DAE1EF"/>
<stop offset="0.29" stop-color="#98ABD2"/>
<stop offset="0.69" stop-color="#7571A5"/>
<stop offset="1" stop-color="#6F578C"/>
</linearGradient>
<linearGradient id="paint17_linear_2018_2" x1="195.85" y1="524.757" x2="180.631" y2="532.902" gradientUnits="userSpaceOnUse">
<stop stop-color="#DAE1EF"/>
<stop offset="0.29" stop-color="#98ABD2"/>
<stop offset="0.69" stop-color="#7571A5"/>
<stop offset="1" stop-color="#6F578C"/>
</linearGradient>
<linearGradient id="paint18_linear_2018_2" x1="182.365" y1="548.184" x2="194.63" y2="541.62" gradientUnits="userSpaceOnUse">
<stop stop-color="#DAE1EF"/>
<stop offset="0.29" stop-color="#98ABD2"/>
<stop offset="0.69" stop-color="#7571A5"/>
<stop offset="1" stop-color="#6F578C"/>
</linearGradient>
<linearGradient id="paint19_linear_2018_2" x1="221.878" y1="512.95" x2="206.919" y2="520.956" gradientUnits="userSpaceOnUse">
<stop stop-color="#705AB8"/>
<stop offset="1" stop-color="#181D3B"/>
</linearGradient>
<linearGradient id="paint20_linear_2018_2" x1="151.142" y1="460.362" x2="154.71" y2="458.453" gradientUnits="userSpaceOnUse">
<stop stop-color="#8980EB"/>
<stop offset="1" stop-color="#705AB8"/>
</linearGradient>
<linearGradient id="paint21_linear_2018_2" x1="102.057" y1="433.637" x2="118.355" y2="421.792" gradientUnits="userSpaceOnUse">
<stop stop-color="#DAE1EF"/>
<stop offset="0.29" stop-color="#98ABD2"/>
<stop offset="0.69" stop-color="#7571A5"/>
<stop offset="1" stop-color="#6F578C"/>
</linearGradient>
<linearGradient id="paint22_linear_2018_2" x1="154" y1="406.321" x2="110.574" y2="375.741" gradientUnits="userSpaceOnUse">
<stop stop-color="#86759D"/>
<stop offset="0.39" stop-color="#98ABD2"/>
<stop offset="1" stop-color="#DAE1EF"/>
</linearGradient>
<linearGradient id="paint23_linear_2018_2" x1="131.164" y1="371.095" x2="131.164" y2="408.197" gradientUnits="userSpaceOnUse">
<stop stop-color="#8980EB"/>
<stop offset="1" stop-color="#705AB8"/>
</linearGradient>
<linearGradient id="paint24_linear_2018_2" x1="131.164" y1="272.738" x2="131.164" y2="309.84" gradientUnits="userSpaceOnUse">
<stop stop-color="#8980EB"/>
<stop offset="1" stop-color="#705AB8"/>
</linearGradient>
<linearGradient id="paint25_linear_2018_2" x1="432.635" y1="388.494" x2="432.635" y2="445.353" gradientUnits="userSpaceOnUse">
<stop stop-color="#8980EB"/>
<stop offset="1" stop-color="#705AB8"/>
</linearGradient>
<linearGradient id="paint26_linear_2018_2" x1="460.387" y1="266.885" x2="413.785" y2="291.826" gradientUnits="userSpaceOnUse">
<stop stop-color="#86759D"/>
<stop offset="0.39" stop-color="#98ABD2"/>
<stop offset="1" stop-color="#DAE1EF"/>
</linearGradient>
<linearGradient id="paint27_linear_2018_2" x1="412.573" y1="299.843" x2="453.905" y2="277.723" gradientUnits="userSpaceOnUse">
<stop stop-color="#DAE1EF"/>
<stop offset="0.29" stop-color="#98ABD2"/>
<stop offset="0.69" stop-color="#7571A5"/>
<stop offset="1" stop-color="#6F578C"/>
</linearGradient>
<linearGradient id="paint28_linear_2018_2" x1="402.874" y1="256.385" x2="417.667" y2="248.468" gradientUnits="userSpaceOnUse">
<stop stop-color="#DAE1EF"/>
<stop offset="0.29" stop-color="#98ABD2"/>
<stop offset="0.69" stop-color="#7571A5"/>
<stop offset="1" stop-color="#6F578C"/>
</linearGradient>
<linearGradient id="paint29_linear_2018_2" x1="416.004" y1="233.148" x2="403.763" y2="239.7" gradientUnits="userSpaceOnUse">
<stop stop-color="#8980EB"/>
<stop offset="1" stop-color="#ADBEDF"/>
</linearGradient>
<linearGradient id="paint30_linear_2018_2" x1="354.292" y1="266.465" x2="416.475" y2="249.449" gradientUnits="userSpaceOnUse">
<stop stop-color="#705AB8"/>
<stop offset="1" stop-color="#181D3B"/>
</linearGradient>
<linearGradient id="paint31_linear_2018_2" x1="447.251" y1="320.957" x2="443.683" y2="322.867" gradientUnits="userSpaceOnUse">
<stop stop-color="#8980EB"/>
<stop offset="1" stop-color="#705AB8"/>
</linearGradient>
<linearGradient id="paint32_linear_2018_2" x1="482.755" y1="368.468" x2="494.364" y2="391.414" gradientUnits="userSpaceOnUse">
<stop stop-color="#DAE1EF"/>
<stop offset="0.29" stop-color="#98ABD2"/>
<stop offset="0.69" stop-color="#7571A5"/>
<stop offset="1" stop-color="#6F578C"/>
</linearGradient>
<linearGradient id="paint33_linear_2018_2" x1="459.422" y1="515.419" x2="412.82" y2="490.478" gradientUnits="userSpaceOnUse">
<stop stop-color="#86759D"/>
<stop offset="0.39" stop-color="#98ABD2"/>
<stop offset="1" stop-color="#DAE1EF"/>
</linearGradient>
<linearGradient id="paint34_linear_2018_2" x1="411.585" y1="482.448" x2="452.917" y2="504.568" gradientUnits="userSpaceOnUse">
<stop stop-color="#DAE1EF"/>
<stop offset="0.29" stop-color="#98ABD2"/>
<stop offset="0.69" stop-color="#7571A5"/>
<stop offset="1" stop-color="#6F578C"/>
</linearGradient>
<linearGradient id="paint35_linear_2018_2" x1="401.555" y1="525.728" x2="416.797" y2="533.886" gradientUnits="userSpaceOnUse">
<stop stop-color="#DAE1EF"/>
<stop offset="0.29" stop-color="#98ABD2"/>
<stop offset="0.69" stop-color="#7571A5"/>
<stop offset="1" stop-color="#6F578C"/>
</linearGradient>
<linearGradient id="paint36_linear_2018_2" x1="415.04" y1="549.155" x2="402.775" y2="542.591" gradientUnits="userSpaceOnUse">
<stop stop-color="#DAE1EF"/>
<stop offset="0.29" stop-color="#98ABD2"/>
<stop offset="0.69" stop-color="#7571A5"/>
<stop offset="1" stop-color="#6F578C"/>
</linearGradient>
<linearGradient id="paint37_linear_2018_2" x1="375.551" y1="513.934" x2="390.486" y2="521.927" gradientUnits="userSpaceOnUse">
<stop stop-color="#705AB8"/>
<stop offset="1" stop-color="#181D3B"/>
</linearGradient>
<linearGradient id="paint38_linear_2018_2" x1="446.287" y1="461.346" x2="442.695" y2="459.424" gradientUnits="userSpaceOnUse">
<stop stop-color="#8980EB"/>
<stop offset="1" stop-color="#705AB8"/>
</linearGradient>
<linearGradient id="paint39_linear_2018_2" x1="495.995" y1="433.637" x2="479.724" y2="421.792" gradientUnits="userSpaceOnUse">
<stop stop-color="#DAE1EF"/>
<stop offset="0.29" stop-color="#98ABD2"/>
<stop offset="0.69" stop-color="#7571A5"/>
<stop offset="1" stop-color="#6F578C"/>
</linearGradient>
<linearGradient id="paint40_linear_2018_2" x1="444.079" y1="406.321" x2="487.505" y2="375.741" gradientUnits="userSpaceOnUse">
<stop stop-color="#86759D"/>
<stop offset="0.39" stop-color="#98ABD2"/>
<stop offset="1" stop-color="#DAE1EF"/>
</linearGradient>
<linearGradient id="paint41_linear_2018_2" x1="466.915" y1="371.095" x2="466.915" y2="408.197" gradientUnits="userSpaceOnUse">
<stop stop-color="#8980EB"/>
<stop offset="1" stop-color="#705AB8"/>
</linearGradient>
<linearGradient id="paint42_linear_2018_2" x1="466.915" y1="272.738" x2="466.915" y2="309.84" gradientUnits="userSpaceOnUse">
<stop stop-color="#8980EB"/>
<stop offset="1" stop-color="#705AB8"/>
</linearGradient>
<linearGradient id="paint43_linear_2018_2" x1="300" y1="146.076" x2="300" y2="194.681" gradientUnits="userSpaceOnUse">
<stop stop-color="#EBEFF6"/>
<stop offset="1" stop-color="#A7B8D9"/>
</linearGradient>
<linearGradient id="paint44_linear_2018_2" x1="548" y1="639.112" x2="52" y2="639.112" gradientUnits="userSpaceOnUse">
<stop stop-color="#055D9A" stop-opacity="0"/>
<stop offset="0.49808" stop-color="#055D9A" stop-opacity="0.7"/>
<stop offset="1" stop-color="#055D9A" stop-opacity="0"/>
</linearGradient>
<linearGradient id="paint45_linear_2018_2" x1="548" y1="639.112" x2="52" y2="639.112" gradientUnits="userSpaceOnUse">
<stop stop-color="#35A3EF" stop-opacity="0"/>
<stop offset="0.504066" stop-color="#35A3EF"/>
<stop offset="1" stop-color="#35A3EF" stop-opacity="0"/>
</linearGradient>
<clipPath id="clip0_2018_2">
<rect width="393" height="393" fill="white" transform="translate(102.54 195.112)"/>
</clipPath>
</defs>
</svg>
