<svg width="405" height="56" viewBox="0 0 405 56" fill="none" xmlns="http://www.w3.org/2000/svg">
<mask id="path-1-outside-1_649_2927" maskUnits="userSpaceOnUse" x="-0.213135" y="-0.708252" width="405" height="56" fill="black">
<rect fill="white" x="-0.213135" y="-0.708252" width="405" height="56"/>
<path d="M44.3903 22.7783L12.1152 46.4848H43.0574C44.0729 46.4848 44.9298 46.8656 45.628 47.6273C46.3896 48.3255 46.7705 49.214 46.7705 50.2931C46.7705 51.3086 46.3896 52.1972 45.628 52.9589C44.9298 53.657 44.0729 54.0061 43.0574 54.0061H0.690346V45.7231L40.0108 16.7802C40.582 16.3359 40.9946 15.7964 41.2485 15.1617C41.5658 14.4635 41.7245 13.7654 41.7245 13.0672C41.7245 11.7343 41.2167 10.5918 40.2012 9.63973C39.2491 8.68766 38.0432 8.21163 36.5833 8.21163H5.92672C4.84771 8.21163 3.95912 7.86254 3.26093 7.16435C2.56275 6.4027 2.21366 5.5141 2.21366 4.49856C2.21366 3.41955 2.56275 2.53095 3.26093 1.83277C3.95912 1.13458 4.84771 0.785492 5.92672 0.785492H36.5833C38.2971 0.785492 39.9156 1.10285 41.4389 1.73756C42.9622 2.37227 44.2951 3.26087 45.4376 4.40335C46.5801 5.48236 47.4687 6.78352 48.1034 8.30684C48.8015 9.76667 49.1506 11.3535 49.1506 13.0672C49.1506 14.9078 48.7381 16.685 47.9129 18.3988C47.1513 20.049 46.0405 21.4771 44.5807 22.6831L44.3903 22.7783ZM89.5971 16.3039C90.3632 16.3039 90.994 16.5743 91.4897 17.115C92.0305 17.6107 92.3009 18.2416 92.3009 19.0077V51.1148C92.3009 51.971 92.008 52.7146 91.4221 53.3454C90.8363 53.9763 90.0928 54.3368 89.1915 54.4269C88.6958 54.4269 88.2002 54.3368 87.7045 54.1566C87.2538 53.9312 86.8708 53.6158 86.5554 53.2102L63.1002 24.0772V51.7232C63.1002 52.4892 62.8299 53.1426 62.2891 53.6834C61.7934 54.1791 61.1625 54.4269 60.3965 54.4269C59.6755 54.3819 59.0671 54.1115 58.5714 53.6158C58.0758 53.0751 57.8279 52.4442 57.8279 51.7232V20.3595C57.8279 19.278 58.2109 18.3317 58.977 17.5206C59.7881 16.7095 60.757 16.3039 61.8835 16.3039C63.1904 16.3039 64.2493 16.8221 65.0605 17.8586L86.9609 45.1666V18.9401C86.9609 18.174 87.2088 17.5431 87.7045 17.0474C88.2452 16.5517 88.8761 16.3039 89.5971 16.3039ZM123.048 16.5743C124.67 16.5743 126.18 16.8672 127.577 17.453C128.974 17.9938 130.191 18.7598 131.227 19.7512C132.309 20.7426 133.142 21.8917 133.728 23.1985C134.359 24.5053 134.674 25.9023 134.674 27.3893V43.4767C134.674 44.9638 134.359 46.3607 133.728 47.6675C133.142 48.9744 132.309 50.1234 131.227 51.1148C130.191 52.0611 128.974 52.8272 127.577 53.413C126.18 53.9538 124.67 54.2242 123.048 54.2242H100.404V16.5743H123.048ZM129.402 27.3893C129.402 26.6683 129.222 25.9698 128.861 25.2939C128.546 24.618 128.095 24.0322 127.509 23.5365C126.924 23.0408 126.225 22.6577 125.414 22.3874C124.648 22.0719 123.837 21.9142 122.981 21.9142H105.677V49.0194H122.981C123.837 49.0194 124.648 48.8842 125.414 48.6138C126.225 48.2984 126.924 47.8928 127.509 47.3972C128.095 46.9015 128.546 46.3157 128.861 45.6397C129.222 44.9638 129.402 44.2428 129.402 43.4767V27.3893ZM202.96 0.785492C205.055 0.785492 206.991 1.19806 208.768 2.02318C210.609 2.78484 212.195 3.83211 213.528 5.16501C214.861 6.4979 215.908 8.08468 216.67 9.92535C217.432 11.7025 217.813 13.6067 217.813 15.6378C217.813 17.7323 217.4 19.6999 216.575 21.5406C215.75 23.3178 214.639 24.8728 213.243 26.2057C211.91 27.5386 210.323 28.5859 208.482 29.3475C206.705 30.1092 204.801 30.49 202.77 30.49H180.015V50.4835C180.015 51.5625 179.635 52.4511 178.873 53.1493C178.175 53.8474 177.286 54.1965 176.207 54.1965C175.192 54.1965 174.303 53.8474 173.541 53.1493C172.843 52.4511 172.494 51.5625 172.494 50.4835V0.785492H172.78H202.865H202.96ZM202.96 23.6351C205.182 23.6351 207.054 22.8735 208.577 21.3502C210.101 19.7634 210.862 17.8593 210.862 15.6378C210.862 13.4797 210.101 11.6391 208.577 10.1158C207.054 8.52898 205.182 7.73559 202.96 7.73559H180.015V23.5399H202.96V23.6351ZM269.834 48.4841C270.278 49.1188 270.501 49.7853 270.501 50.4835C270.564 51.1817 270.437 51.8481 270.12 52.4828C269.866 53.0541 269.453 53.5301 268.882 53.9109C268.311 54.2917 267.644 54.4822 266.883 54.4822C265.677 54.4822 264.725 53.9744 264.027 52.9589L246.889 30.7757H233.846V50.6739C233.846 51.626 233.497 52.4511 232.799 53.1493C232.1 53.8474 231.244 54.1965 230.228 54.1965C229.213 54.1965 228.356 53.8474 227.658 53.1493C227.023 52.4511 226.705 51.626 226.705 50.6739V30.7757H226.61V0.690286H256.981C259.076 0.690286 261.012 1.10285 262.789 1.92798C264.63 2.68963 266.216 3.76864 267.549 5.16501C268.946 6.4979 270.025 8.08468 270.786 9.92535C271.611 11.7025 272.024 13.6384 272.024 15.733C272.024 17.8275 271.611 19.7951 270.786 21.6358C269.961 23.413 268.85 24.968 267.454 26.3009C266.058 27.6338 264.439 28.7128 262.598 29.538C260.821 30.2996 258.885 30.6804 256.791 30.6804H256.124L269.834 48.4841ZM256.886 23.4447C259.044 23.4447 260.853 22.7148 262.313 21.255C263.836 19.7317 264.598 17.891 264.598 15.733C264.598 13.5749 263.836 11.766 262.313 10.3062C260.853 8.78287 259.044 8.02121 256.886 8.02121H233.941V23.4447H256.886ZM285.36 1.16632C286.439 1.16632 287.328 1.51541 288.026 2.21359C288.788 2.91178 289.169 3.80038 289.169 4.87938V50.4835C289.169 51.5625 288.788 52.4511 288.026 53.1493C287.328 53.8474 286.439 54.1965 285.36 54.1965C284.345 54.1965 283.456 53.8474 282.695 53.1493C281.996 52.4511 281.647 51.5625 281.647 50.4835V4.87938C281.647 3.80038 281.996 2.91178 282.695 2.21359C283.456 1.51541 284.345 1.16632 285.36 1.16632ZM348.109 9.54452L308.503 46.3896H343.539C344.618 46.3896 345.507 46.7387 346.205 47.4369C346.903 48.135 347.252 49.0236 347.252 50.1026C347.252 51.1817 346.903 52.0703 346.205 52.7684C345.507 53.4666 344.618 53.8157 343.539 53.8157H298.03V45.9135L338.398 8.30684H301.839C300.76 8.30684 299.839 7.95774 299.078 7.25956C298.379 6.4979 298.03 5.60931 298.03 4.59377C298.03 3.51476 298.379 2.62616 299.078 1.92798C299.839 1.16632 300.76 0.785492 301.839 0.785492H348.109V9.54452ZM362.688 31.4421V38.1066C362.688 39.3125 362.91 40.455 363.354 41.534C363.862 42.613 364.528 43.5651 365.353 44.3902C366.179 45.1519 367.131 45.7549 368.21 46.1992C369.289 46.6435 370.463 46.8656 371.732 46.8656H400.199C401.215 46.8656 402.072 47.2147 402.77 47.9129C403.531 48.6111 403.912 49.4997 403.912 50.5787C403.912 51.5942 403.531 52.4828 402.77 53.2445C402.072 53.9427 401.215 54.2917 400.199 54.2917H371.732C369.447 54.2917 367.289 53.8792 365.258 53.0541C363.291 52.1655 361.577 50.9912 360.117 49.5314C358.657 48.0716 357.483 46.3578 356.594 44.3902C355.769 42.4226 355.357 40.3281 355.357 38.1066V17.2563C355.357 15.0348 355.769 12.972 356.594 11.0678C357.483 9.10023 358.657 7.3865 360.117 5.92666C361.577 4.46683 363.291 3.32434 365.258 2.49922C367.289 1.61062 369.447 1.16632 371.732 1.16632H400.199C401.215 1.16632 402.072 1.51541 402.77 2.21359C403.531 2.91178 403.912 3.80038 403.912 4.87938C403.912 5.89493 403.531 6.78352 402.77 7.54518C402.072 8.24336 401.215 8.59246 400.199 8.59246H371.732C370.463 8.59246 369.289 8.8146 368.21 9.2589C367.131 9.7032 366.179 10.3379 365.353 11.163C364.528 11.9247 363.862 12.845 363.354 13.924C362.91 14.9396 362.688 16.0503 362.688 17.2563V24.016H400.199C401.215 24.016 402.072 24.3651 402.77 25.0632C403.531 25.7614 403.912 26.65 403.912 27.729C403.912 28.7446 403.531 29.6332 402.77 30.3948C402.072 31.093 401.215 31.4421 400.199 31.4421H362.688Z"/>
</mask>
<path d="M44.3903 22.7783L12.1152 46.4848H43.0574C44.0729 46.4848 44.9298 46.8656 45.628 47.6273C46.3896 48.3255 46.7705 49.214 46.7705 50.2931C46.7705 51.3086 46.3896 52.1972 45.628 52.9589C44.9298 53.657 44.0729 54.0061 43.0574 54.0061H0.690346V45.7231L40.0108 16.7802C40.582 16.3359 40.9946 15.7964 41.2485 15.1617C41.5658 14.4635 41.7245 13.7654 41.7245 13.0672C41.7245 11.7343 41.2167 10.5918 40.2012 9.63973C39.2491 8.68766 38.0432 8.21163 36.5833 8.21163H5.92672C4.84771 8.21163 3.95912 7.86254 3.26093 7.16435C2.56275 6.4027 2.21366 5.5141 2.21366 4.49856C2.21366 3.41955 2.56275 2.53095 3.26093 1.83277C3.95912 1.13458 4.84771 0.785492 5.92672 0.785492H36.5833C38.2971 0.785492 39.9156 1.10285 41.4389 1.73756C42.9622 2.37227 44.2951 3.26087 45.4376 4.40335C46.5801 5.48236 47.4687 6.78352 48.1034 8.30684C48.8015 9.76667 49.1506 11.3535 49.1506 13.0672C49.1506 14.9078 48.7381 16.685 47.9129 18.3988C47.1513 20.049 46.0405 21.4771 44.5807 22.6831L44.3903 22.7783ZM89.5971 16.3039C90.3632 16.3039 90.994 16.5743 91.4897 17.115C92.0305 17.6107 92.3009 18.2416 92.3009 19.0077V51.1148C92.3009 51.971 92.008 52.7146 91.4221 53.3454C90.8363 53.9763 90.0928 54.3368 89.1915 54.4269C88.6958 54.4269 88.2002 54.3368 87.7045 54.1566C87.2538 53.9312 86.8708 53.6158 86.5554 53.2102L63.1002 24.0772V51.7232C63.1002 52.4892 62.8299 53.1426 62.2891 53.6834C61.7934 54.1791 61.1625 54.4269 60.3965 54.4269C59.6755 54.3819 59.0671 54.1115 58.5714 53.6158C58.0758 53.0751 57.8279 52.4442 57.8279 51.7232V20.3595C57.8279 19.278 58.2109 18.3317 58.977 17.5206C59.7881 16.7095 60.757 16.3039 61.8835 16.3039C63.1904 16.3039 64.2493 16.8221 65.0605 17.8586L86.9609 45.1666V18.9401C86.9609 18.174 87.2088 17.5431 87.7045 17.0474C88.2452 16.5517 88.8761 16.3039 89.5971 16.3039ZM123.048 16.5743C124.67 16.5743 126.18 16.8672 127.577 17.453C128.974 17.9938 130.191 18.7598 131.227 19.7512C132.309 20.7426 133.142 21.8917 133.728 23.1985C134.359 24.5053 134.674 25.9023 134.674 27.3893V43.4767C134.674 44.9638 134.359 46.3607 133.728 47.6675C133.142 48.9744 132.309 50.1234 131.227 51.1148C130.191 52.0611 128.974 52.8272 127.577 53.413C126.18 53.9538 124.67 54.2242 123.048 54.2242H100.404V16.5743H123.048ZM129.402 27.3893C129.402 26.6683 129.222 25.9698 128.861 25.2939C128.546 24.618 128.095 24.0322 127.509 23.5365C126.924 23.0408 126.225 22.6577 125.414 22.3874C124.648 22.0719 123.837 21.9142 122.981 21.9142H105.677V49.0194H122.981C123.837 49.0194 124.648 48.8842 125.414 48.6138C126.225 48.2984 126.924 47.8928 127.509 47.3972C128.095 46.9015 128.546 46.3157 128.861 45.6397C129.222 44.9638 129.402 44.2428 129.402 43.4767V27.3893ZM202.96 0.785492C205.055 0.785492 206.991 1.19806 208.768 2.02318C210.609 2.78484 212.195 3.83211 213.528 5.16501C214.861 6.4979 215.908 8.08468 216.67 9.92535C217.432 11.7025 217.813 13.6067 217.813 15.6378C217.813 17.7323 217.4 19.6999 216.575 21.5406C215.75 23.3178 214.639 24.8728 213.243 26.2057C211.91 27.5386 210.323 28.5859 208.482 29.3475C206.705 30.1092 204.801 30.49 202.77 30.49H180.015V50.4835C180.015 51.5625 179.635 52.4511 178.873 53.1493C178.175 53.8474 177.286 54.1965 176.207 54.1965C175.192 54.1965 174.303 53.8474 173.541 53.1493C172.843 52.4511 172.494 51.5625 172.494 50.4835V0.785492H172.78H202.865H202.96ZM202.96 23.6351C205.182 23.6351 207.054 22.8735 208.577 21.3502C210.101 19.7634 210.862 17.8593 210.862 15.6378C210.862 13.4797 210.101 11.6391 208.577 10.1158C207.054 8.52898 205.182 7.73559 202.96 7.73559H180.015V23.5399H202.96V23.6351ZM269.834 48.4841C270.278 49.1188 270.501 49.7853 270.501 50.4835C270.564 51.1817 270.437 51.8481 270.12 52.4828C269.866 53.0541 269.453 53.5301 268.882 53.9109C268.311 54.2917 267.644 54.4822 266.883 54.4822C265.677 54.4822 264.725 53.9744 264.027 52.9589L246.889 30.7757H233.846V50.6739C233.846 51.626 233.497 52.4511 232.799 53.1493C232.1 53.8474 231.244 54.1965 230.228 54.1965C229.213 54.1965 228.356 53.8474 227.658 53.1493C227.023 52.4511 226.705 51.626 226.705 50.6739V30.7757H226.61V0.690286H256.981C259.076 0.690286 261.012 1.10285 262.789 1.92798C264.63 2.68963 266.216 3.76864 267.549 5.16501C268.946 6.4979 270.025 8.08468 270.786 9.92535C271.611 11.7025 272.024 13.6384 272.024 15.733C272.024 17.8275 271.611 19.7951 270.786 21.6358C269.961 23.413 268.85 24.968 267.454 26.3009C266.058 27.6338 264.439 28.7128 262.598 29.538C260.821 30.2996 258.885 30.6804 256.791 30.6804H256.124L269.834 48.4841ZM256.886 23.4447C259.044 23.4447 260.853 22.7148 262.313 21.255C263.836 19.7317 264.598 17.891 264.598 15.733C264.598 13.5749 263.836 11.766 262.313 10.3062C260.853 8.78287 259.044 8.02121 256.886 8.02121H233.941V23.4447H256.886ZM285.36 1.16632C286.439 1.16632 287.328 1.51541 288.026 2.21359C288.788 2.91178 289.169 3.80038 289.169 4.87938V50.4835C289.169 51.5625 288.788 52.4511 288.026 53.1493C287.328 53.8474 286.439 54.1965 285.36 54.1965C284.345 54.1965 283.456 53.8474 282.695 53.1493C281.996 52.4511 281.647 51.5625 281.647 50.4835V4.87938C281.647 3.80038 281.996 2.91178 282.695 2.21359C283.456 1.51541 284.345 1.16632 285.36 1.16632ZM348.109 9.54452L308.503 46.3896H343.539C344.618 46.3896 345.507 46.7387 346.205 47.4369C346.903 48.135 347.252 49.0236 347.252 50.1026C347.252 51.1817 346.903 52.0703 346.205 52.7684C345.507 53.4666 344.618 53.8157 343.539 53.8157H298.03V45.9135L338.398 8.30684H301.839C300.76 8.30684 299.839 7.95774 299.078 7.25956C298.379 6.4979 298.03 5.60931 298.03 4.59377C298.03 3.51476 298.379 2.62616 299.078 1.92798C299.839 1.16632 300.76 0.785492 301.839 0.785492H348.109V9.54452ZM362.688 31.4421V38.1066C362.688 39.3125 362.91 40.455 363.354 41.534C363.862 42.613 364.528 43.5651 365.353 44.3902C366.179 45.1519 367.131 45.7549 368.21 46.1992C369.289 46.6435 370.463 46.8656 371.732 46.8656H400.199C401.215 46.8656 402.072 47.2147 402.77 47.9129C403.531 48.6111 403.912 49.4997 403.912 50.5787C403.912 51.5942 403.531 52.4828 402.77 53.2445C402.072 53.9427 401.215 54.2917 400.199 54.2917H371.732C369.447 54.2917 367.289 53.8792 365.258 53.0541C363.291 52.1655 361.577 50.9912 360.117 49.5314C358.657 48.0716 357.483 46.3578 356.594 44.3902C355.769 42.4226 355.357 40.3281 355.357 38.1066V17.2563C355.357 15.0348 355.769 12.972 356.594 11.0678C357.483 9.10023 358.657 7.3865 360.117 5.92666C361.577 4.46683 363.291 3.32434 365.258 2.49922C367.289 1.61062 369.447 1.16632 371.732 1.16632H400.199C401.215 1.16632 402.072 1.51541 402.77 2.21359C403.531 2.91178 403.912 3.80038 403.912 4.87938C403.912 5.89493 403.531 6.78352 402.77 7.54518C402.072 8.24336 401.215 8.59246 400.199 8.59246H371.732C370.463 8.59246 369.289 8.8146 368.21 9.2589C367.131 9.7032 366.179 10.3379 365.353 11.163C364.528 11.9247 363.862 12.845 363.354 13.924C362.91 14.9396 362.688 16.0503 362.688 17.2563V24.016H400.199C401.215 24.016 402.072 24.3651 402.77 25.0632C403.531 25.7614 403.912 26.65 403.912 27.729C403.912 28.7446 403.531 29.6332 402.77 30.3948C402.072 31.093 401.215 31.4421 400.199 31.4421H362.688Z" fill="white"/>
<path d="M44.3903 22.7783L44.0816 22.1609L44.029 22.1871L43.9816 22.2219L44.3903 22.7783ZM12.1152 46.4848L11.7065 45.9284L10.0093 47.1751H12.1152V46.4848ZM45.628 47.6273L45.1191 48.0937L45.1394 48.1158L45.1615 48.1361L45.628 47.6273ZM45.628 52.9589L45.1399 52.4707V52.4707L45.628 52.9589ZM0.690346 54.0061H4.79221e-05V54.6964H0.690346V54.0061ZM0.690346 45.7231L0.281137 45.1672L4.79221e-05 45.3741V45.7231H0.690346ZM40.0108 16.7802L40.42 17.3362L40.4274 17.3308L40.4346 17.3251L40.0108 16.7802ZM41.2485 15.1617L40.62 14.8761L40.6135 14.8906L40.6075 14.9054L41.2485 15.1617ZM40.2012 9.63973L39.7131 10.1278L39.721 10.1357L39.7291 10.1433L40.2012 9.63973ZM3.26093 7.16435L2.75208 7.6308L2.76221 7.64186L2.77282 7.65247L3.26093 7.16435ZM3.26093 1.83277L3.74905 2.32088H3.74905L3.26093 1.83277ZM41.4389 1.73756L41.1734 2.37476V2.37476L41.4389 1.73756ZM45.4376 4.40335L44.9495 4.89146L44.9564 4.89844L44.9636 4.90521L45.4376 4.40335ZM48.1034 8.30684L47.4662 8.57233L47.473 8.58869L47.4806 8.60467L48.1034 8.30684ZM47.9129 18.3988L47.2909 18.0993L47.2862 18.1095L47.9129 18.3988ZM44.5807 22.6831L44.8894 23.3005L44.9597 23.2653L45.0203 23.2153L44.5807 22.6831ZM44.3903 22.7783L43.9816 22.2219L11.7065 45.9284L12.1152 46.4848L12.5238 47.0411L44.7989 23.3346L44.3903 22.7783ZM12.1152 46.4848V47.1751H43.0574V46.4848V45.7945H12.1152V46.4848ZM43.0574 46.4848V47.1751C43.8756 47.1751 44.5491 47.4719 45.1191 48.0937L45.628 47.6273L46.1368 47.1608C45.3105 46.2594 44.2702 45.7945 43.0574 45.7945V46.4848ZM45.628 47.6273L45.1615 48.1361C45.7736 48.6972 46.0802 49.3979 46.0802 50.2931H46.7705H47.4608C47.4608 49.0302 47.0057 47.9538 46.0944 47.1184L45.628 47.6273ZM46.7705 50.2931H46.0802C46.0802 51.1136 45.7808 51.8298 45.1399 52.4707L45.628 52.9589L46.1161 53.447C46.9985 52.5646 47.4608 51.5036 47.4608 50.2931H46.7705ZM45.628 52.9589L45.1399 52.4707C44.5752 53.0354 43.8957 53.3158 43.0574 53.3158V54.0061V54.6964C44.2502 54.6964 45.2844 54.2787 46.1161 53.447L45.628 52.9589ZM43.0574 54.0061V53.3158H0.690346V54.0061V54.6964H43.0574V54.0061ZM0.690346 54.0061H1.38064V45.7231H0.690346H4.79221e-05V54.0061H0.690346ZM0.690346 45.7231L1.09956 46.2791L40.42 17.3362L40.0108 16.7802L39.6016 16.2243L0.281137 45.1672L0.690346 45.7231ZM40.0108 16.7802L40.4346 17.3251C41.0966 16.8102 41.5873 16.1733 41.8894 15.4181L41.2485 15.1617L40.6075 14.9054C40.4018 15.4196 40.0674 15.8617 39.587 16.2354L40.0108 16.7802ZM41.2485 15.1617L41.8769 15.4474C42.231 14.6684 42.4148 13.8732 42.4148 13.0672H41.7245H41.0342C41.0342 13.6575 40.9007 14.2587 40.62 14.8761L41.2485 15.1617ZM41.7245 13.0672H42.4148C42.4148 11.5341 41.8211 10.2122 40.6733 9.13613L40.2012 9.63973L39.7291 10.1433C40.6124 10.9714 41.0342 11.9344 41.0342 13.0672H41.7245ZM40.2012 9.63973L40.6893 9.15162C39.5962 8.05854 38.2092 7.52133 36.5833 7.52133V8.21163V8.90192C37.8771 8.90192 38.902 9.31678 39.7131 10.1278L40.2012 9.63973ZM36.5833 8.21163V7.52133H5.92672V8.21163V8.90192H36.5833V8.21163ZM5.92672 8.21163V7.52133C5.01209 7.52133 4.30512 7.23232 3.74905 6.67624L3.26093 7.16435L2.77282 7.65247C3.61311 8.49276 4.68333 8.90192 5.92672 8.90192V8.21163ZM3.26093 7.16435L3.76979 6.6979C3.18605 6.0611 2.90395 5.33809 2.90395 4.49856H2.21366H1.52336C1.52336 5.69011 1.93944 6.74429 2.75208 7.6308L3.26093 7.16435ZM2.21366 4.49856H2.90395C2.90395 3.58393 3.19297 2.87696 3.74905 2.32088L3.26093 1.83277L2.77282 1.34465C1.93253 2.18494 1.52336 3.25517 1.52336 4.49856H2.21366ZM3.26093 1.83277L3.74905 2.32088C4.30513 1.7648 5.01209 1.47579 5.92672 1.47579V0.785492V0.095192C4.68333 0.095192 3.61311 0.504364 2.77282 1.34466L3.26093 1.83277ZM5.92672 0.785492V1.47579H36.5833V0.785492V0.095192H5.92672V0.785492ZM36.5833 0.785492V1.47579C38.2095 1.47579 39.7374 1.77645 41.1734 2.37476L41.4389 1.73756L41.7044 1.10036C40.0937 0.429245 38.3846 0.095192 36.5833 0.095192V0.785492ZM41.4389 1.73756L41.1734 2.37476C42.6153 2.97555 43.8721 3.81412 44.9495 4.89146L45.4376 4.40335L45.9257 3.91524C44.7181 2.70761 43.3091 1.76899 41.7044 1.10036L41.4389 1.73756ZM45.4376 4.40335L44.9636 4.90521C46.0322 5.91443 46.8668 7.13381 47.4662 8.57233L48.1034 8.30684L48.7406 8.04134C48.0705 6.43324 47.1279 5.0503 45.9115 3.9015L45.4376 4.40335ZM48.1034 8.30684L47.4806 8.60467C48.1317 9.96606 48.4603 11.4503 48.4603 13.0672H49.1506H49.8409C49.8409 11.2566 49.4714 9.56729 48.7261 8.009L48.1034 8.30684ZM49.1506 13.0672H48.4603C48.4603 14.8007 48.0727 16.4758 47.291 18.0993L47.9129 18.3988L48.5349 18.6982C49.4035 16.8943 49.8409 15.015 49.8409 13.0672H49.1506ZM47.9129 18.3988L47.2862 18.1095C46.5697 19.6618 45.5245 21.008 44.1411 22.1509L44.5807 22.6831L45.0203 23.2153C46.5566 21.9462 47.7329 20.4362 48.5397 18.688L47.9129 18.3988ZM44.5807 22.6831L44.272 22.0656L44.0816 22.1609L44.3903 22.7783L44.699 23.3957L44.8894 23.3005L44.5807 22.6831ZM91.4897 17.115L90.9809 17.5815L91.0012 17.6036L91.0233 17.6239L91.4897 17.115ZM91.4221 53.3454L91.928 53.8151V53.8151L91.4221 53.3454ZM89.1915 54.4269V55.1172H89.226L89.2602 55.1138L89.1915 54.4269ZM87.7045 54.1566L87.3958 54.774L87.4313 54.7917L87.4686 54.8053L87.7045 54.1566ZM86.5554 53.2102L87.1003 52.7864L87.0931 52.7773L86.5554 53.2102ZM63.1002 24.0772L63.6379 23.6443L62.4099 22.1191V24.0772H63.1002ZM62.2891 53.6834L62.7772 54.1715V54.1715L62.2891 53.6834ZM60.3965 54.4269L60.3534 55.1159L60.3749 55.1172H60.3965V54.4269ZM58.5714 53.6158L58.0626 54.0823L58.0727 54.0933L58.0833 54.1039L58.5714 53.6158ZM58.977 17.5206L58.4889 17.0325L58.4819 17.0395L58.4751 17.0466L58.977 17.5206ZM65.0605 17.8586L64.5168 18.284L64.522 18.2904L65.0605 17.8586ZM86.9609 45.1666L86.4224 45.5984L87.6512 47.1307V45.1666H86.9609ZM87.7045 17.0474L87.238 16.5386L87.227 16.5487L87.2164 16.5593L87.7045 17.0474ZM89.5971 16.3039V16.9942C90.1794 16.9942 90.6223 17.1904 90.9809 17.5815L91.4897 17.115L91.9986 16.6486C91.3657 15.9582 90.547 15.6136 89.5971 15.6136V16.3039ZM91.4897 17.115L91.0233 17.6239C91.4144 17.9824 91.6106 18.4254 91.6106 19.0077H92.3009H92.9912C92.9912 18.0578 92.6466 17.239 91.9562 16.6062L91.4897 17.115ZM92.3009 19.0077H91.6106V51.1148H92.3009H92.9912V19.0077H92.3009ZM92.3009 51.1148H91.6106C91.6106 51.7957 91.3843 52.3717 90.9163 52.8757L91.4221 53.3454L91.928 53.8151C92.6316 53.0574 92.9912 52.1463 92.9912 51.1148H92.3009ZM91.4221 53.3454L90.9163 52.8757C90.4512 53.3766 89.8663 53.6657 89.1228 53.7401L89.1915 54.4269L89.2602 55.1138C90.3193 55.0079 91.2214 54.5761 91.928 53.8151L91.4221 53.3454ZM89.1915 54.4269V53.7366C88.7813 53.7366 88.3653 53.6624 87.9404 53.5078L87.7045 54.1566L87.4686 54.8053C88.035 55.0113 88.6104 55.1172 89.1915 55.1172V54.4269ZM87.7045 54.1566L88.0132 53.5391C87.6566 53.3609 87.3537 53.1123 87.1003 52.7864L86.5554 53.2102L86.0105 53.634C86.3879 54.1193 86.8511 54.5016 87.3958 54.774L87.7045 54.1566ZM86.5554 53.2102L87.0931 52.7773L63.6379 23.6443L63.1002 24.0772L62.5625 24.5101L86.0177 53.6431L86.5554 53.2102ZM63.1002 24.0772H62.4099V51.7232H63.1002H63.7905V24.0772H63.1002ZM63.1002 51.7232H62.4099C62.4099 52.3065 62.212 52.7842 61.801 53.1953L62.2891 53.6834L62.7772 54.1715C63.4477 53.5011 63.7905 52.672 63.7905 51.7232H63.1002ZM62.2891 53.6834L61.801 53.1953C61.4474 53.5489 60.9982 53.7366 60.3965 53.7366V54.4269V55.1172C61.3269 55.1172 62.1394 54.8093 62.7772 54.1715L62.2891 53.6834ZM60.3965 54.4269L60.4395 53.738C59.8808 53.7031 59.4324 53.5005 59.0596 53.1277L58.5714 53.6158L58.0833 54.1039C58.7019 54.7225 59.4702 55.0607 60.3534 55.1159L60.3965 54.4269ZM58.5714 53.6158L59.0803 53.1494C58.6991 52.7335 58.5182 52.2682 58.5182 51.7232H57.8279H57.1376C57.1376 52.6202 57.4524 53.4166 58.0626 54.0823L58.5714 53.6158ZM57.8279 51.7232H58.5182V20.3595H57.8279H57.1376V51.7232H57.8279ZM57.8279 20.3595H58.5182C58.5182 19.4604 58.8296 18.682 59.4789 17.9946L58.977 17.5206L58.4751 17.0466C57.5923 17.9814 57.1376 19.0957 57.1376 20.3595H57.8279ZM58.977 17.5206L59.4651 18.0087C60.1494 17.3244 60.9438 16.9942 61.8835 16.9942V16.3039V15.6136C60.5702 15.6136 59.4268 16.0945 58.4889 17.0325L58.977 17.5206ZM61.8835 16.3039V16.9942C62.9763 16.9942 63.8355 17.4133 64.5169 18.284L65.0605 17.8586L65.6041 17.4331C64.6632 16.2309 63.4044 15.6136 61.8835 15.6136V16.3039ZM65.0605 17.8586L64.522 18.2904L86.4224 45.5984L86.9609 45.1666L87.4994 44.7347L65.599 17.4267L65.0605 17.8586ZM86.9609 45.1666H87.6512V18.9401H86.9609H86.2706V45.1666H86.9609ZM86.9609 18.9401H87.6512C87.6512 18.3384 87.839 17.8891 88.1926 17.5356L87.7045 17.0474L87.2164 16.5593C86.5786 17.1971 86.2706 18.0096 86.2706 18.9401H86.9609ZM87.7045 17.0474L88.1709 17.5563C88.5868 17.1751 89.0521 16.9942 89.5971 16.9942V16.3039V15.6136C88.7001 15.6136 87.9036 15.9284 87.238 16.5386L87.7045 17.0474ZM127.577 17.453L127.31 18.0896L127.319 18.0933L127.328 18.0968L127.577 17.453ZM131.227 19.7512L130.75 20.25L130.755 20.2551L130.761 20.2601L131.227 19.7512ZM133.728 23.1985L133.098 23.4809L133.102 23.4898L133.106 23.4986L133.728 23.1985ZM133.728 47.6675L133.106 47.3674L133.102 47.3762L133.098 47.3852L133.728 47.6675ZM131.227 51.1148L131.693 51.6246L131.694 51.6237L131.227 51.1148ZM127.577 53.413L127.826 54.0568L127.835 54.0533L127.844 54.0496L127.577 53.413ZM100.404 54.2242H99.7139V54.9145H100.404V54.2242ZM100.404 16.5743V15.884H99.7139V16.5743H100.404ZM128.861 25.2939L128.236 25.5858L128.244 25.6025L128.252 25.6188L128.861 25.2939ZM127.509 23.5365L127.064 24.0634V24.0634L127.509 23.5365ZM125.414 22.3874L125.151 23.0257L125.173 23.0347L125.196 23.0422L125.414 22.3874ZM105.677 21.9142V21.2239H104.986V21.9142H105.677ZM105.677 49.0194H104.986V49.7097H105.677V49.0194ZM125.414 48.6138L125.644 49.2648L125.654 49.2612L125.664 49.2572L125.414 48.6138ZM127.509 47.3972L127.955 47.9241V47.9241L127.509 47.3972ZM128.861 45.6397L128.252 45.3149L128.244 45.3311L128.236 45.3478L128.861 45.6397ZM123.048 16.5743V17.2646C124.585 17.2646 126.004 17.5417 127.31 18.0896L127.577 17.453L127.844 16.8164C126.357 16.1927 124.756 15.884 123.048 15.884V16.5743ZM127.577 17.453L127.328 18.0968C128.644 18.6062 129.782 19.3243 130.75 20.25L131.227 19.7512L131.704 19.2524C130.599 18.1954 129.304 17.3813 127.826 16.8093L127.577 17.453ZM131.227 19.7512L130.761 20.2601C131.775 21.1895 132.552 22.262 133.098 23.4809L133.728 23.1985L134.358 22.9161C133.733 21.5213 132.843 20.2957 131.694 19.2423L131.227 19.7512ZM133.728 23.1985L133.106 23.4986C133.691 24.7095 133.984 26.0035 133.984 27.3893H134.674H135.365C135.365 25.801 135.027 24.3012 134.35 22.8984L133.728 23.1985ZM134.674 27.3893H133.984V43.4767H134.674H135.365V27.3893H134.674ZM134.674 43.4767H133.984C133.984 44.8625 133.691 46.1566 133.106 47.3674L133.728 47.6675L134.35 47.9676C135.027 46.5649 135.365 45.065 135.365 43.4767H134.674ZM133.728 47.6675L133.098 47.3852C132.552 48.604 131.775 49.6766 130.761 50.606L131.227 51.1148L131.694 51.6237C132.843 50.5703 133.733 49.3447 134.358 47.9499L133.728 47.6675ZM131.227 51.1148L130.762 50.6051C129.788 51.494 128.64 52.2188 127.31 52.7764L127.577 53.413L127.844 54.0496C129.308 53.4356 130.593 52.6283 131.693 51.6246L131.227 51.1148ZM127.577 53.413L127.328 52.7693C126.017 53.2768 124.592 53.5339 123.048 53.5339V54.2242V54.9145C124.749 54.9145 126.343 54.6308 127.826 54.0568L127.577 53.413ZM123.048 54.2242V53.5339H100.404V54.2242V54.9145H123.048V54.2242ZM100.404 54.2242H101.095V16.5743H100.404H99.7139V54.2242H100.404ZM100.404 16.5743V17.2646H123.048V16.5743V15.884H100.404V16.5743ZM129.402 27.3893H130.092C130.092 26.5479 129.881 25.7385 129.47 24.9691L128.861 25.2939L128.252 25.6188C128.563 26.2012 128.712 26.7887 128.712 27.3893H129.402ZM128.861 25.2939L129.487 25.002C129.128 24.233 128.615 23.5677 127.955 23.0095L127.509 23.5365L127.064 24.0634C127.575 24.4966 127.964 25.0029 128.236 25.5858L128.861 25.2939ZM127.509 23.5365L127.955 23.0095C127.295 22.451 126.517 22.0275 125.632 21.7325L125.414 22.3874L125.196 23.0422C125.933 23.288 126.552 23.6306 127.064 24.0634L127.509 23.5365ZM125.414 22.3874L125.677 21.7491C124.825 21.3981 123.924 21.2239 122.981 21.2239V21.9142V22.6045C123.75 22.6045 124.471 22.7457 125.151 23.0257L125.414 22.3874ZM122.981 21.9142V21.2239H105.677V21.9142V22.6045H122.981V21.9142ZM105.677 21.9142H104.986V49.0194H105.677H106.367V21.9142H105.677ZM105.677 49.0194V49.7097H122.981V49.0194V48.3291H105.677V49.0194ZM122.981 49.0194V49.7097C123.911 49.7097 124.8 49.5626 125.644 49.2648L125.414 48.6138L125.184 47.9629C124.496 48.2059 123.763 48.3291 122.981 48.3291V49.0194ZM125.414 48.6138L125.664 49.2572C126.537 48.9177 127.304 48.4753 127.955 47.9241L127.509 47.3972L127.064 46.8702C126.543 47.3104 125.913 47.6791 125.164 47.9705L125.414 48.6138ZM127.509 47.3972L127.955 47.9241C128.615 47.3659 129.128 46.7006 129.487 45.9316L128.861 45.6397L128.236 45.3478C127.964 45.9307 127.575 46.437 127.064 46.8702L127.509 47.3972ZM128.861 45.6397L129.47 45.9646C129.884 45.1886 130.092 44.3561 130.092 43.4767H129.402H128.712C128.712 44.1295 128.559 44.7389 128.252 45.3149L128.861 45.6397ZM129.402 43.4767H130.092V27.3893H129.402H128.712V43.4767H129.402ZM208.768 2.02318L208.477 2.64929L208.49 2.65544L208.504 2.66103L208.768 2.02318ZM213.528 5.16501L214.016 4.67689L213.528 5.16501ZM216.67 9.92535L216.032 10.1893L216.036 10.1973L216.67 9.92535ZM216.575 21.5406L217.201 21.8313L217.205 21.823L216.575 21.5406ZM213.243 26.2057L212.766 25.7064L212.76 25.7119L212.754 25.7176L213.243 26.2057ZM208.482 29.3475L208.218 28.7097L208.21 28.7131L208.482 29.3475ZM180.015 30.49V29.7997H179.325V30.49H180.015ZM178.873 53.1493L178.406 52.6404L178.395 52.6505L178.385 52.6611L178.873 53.1493ZM173.541 53.1493L173.053 53.6374L173.064 53.648L173.075 53.6581L173.541 53.1493ZM172.494 0.785492V0.095192H171.804V0.785492H172.494ZM202.96 23.6351H202.27V24.3254H202.96V23.6351ZM208.577 21.3502L209.066 21.8384L209.075 21.8282L208.577 21.3502ZM208.577 10.1158L208.079 10.5939L208.089 10.6039L208.577 10.1158ZM180.015 7.73559V7.0453H179.325V7.73559H180.015ZM180.015 23.5399H179.325V24.2302H180.015V23.5399ZM202.96 23.5399H203.651V22.8496H202.96V23.5399ZM202.96 0.785492V1.47579C204.961 1.47579 206.797 1.86932 208.477 2.64929L208.768 2.02318L209.059 1.39708C207.184 0.526791 205.148 0.095192 202.96 0.095192V0.785492ZM208.768 2.02318L208.504 2.66103C210.266 3.38999 211.775 4.38799 213.04 5.65312L213.528 5.16501L214.016 4.67689C212.616 3.27624 210.951 2.17968 209.032 1.38533L208.768 2.02318ZM213.528 5.16501L213.04 5.65312C214.305 6.91826 215.303 8.42763 216.032 10.1893L216.67 9.92535L217.308 9.66142C216.514 7.74174 215.417 6.07755 214.016 4.67689L213.528 5.16501ZM216.67 9.92535L216.036 10.1973C216.759 11.8842 217.122 13.6954 217.122 15.6378H217.813H218.503C218.503 13.518 218.105 11.5209 217.305 9.65343L216.67 9.92535ZM217.813 15.6378H217.122C217.122 17.6388 216.729 19.5098 215.945 21.2582L216.575 21.5406L217.205 21.823C218.071 19.8901 218.503 17.8258 218.503 15.6378H217.813ZM216.575 21.5406L215.949 21.2499C215.159 22.95 214.099 24.434 212.766 25.7064L213.243 26.2057L213.719 26.7051C215.179 25.3117 216.34 23.6856 217.201 21.8313L216.575 21.5406ZM213.243 26.2057L212.754 25.7176C211.489 26.9827 209.98 27.9807 208.218 28.7097L208.482 29.3475L208.746 29.9854C210.666 29.191 212.33 28.0945 213.731 26.6938L213.243 26.2057ZM208.482 29.3475L208.21 28.7131C206.523 29.4361 204.712 29.7997 202.77 29.7997V30.49V31.1803C204.89 31.1803 206.887 30.7824 208.754 29.982L208.482 29.3475ZM202.77 30.49V29.7997H180.015V30.49V31.1803H202.77V30.49ZM180.015 30.49H179.325V50.4835H180.015H180.706V30.49H180.015ZM180.015 50.4835H179.325C179.325 51.3787 179.019 52.0794 178.406 52.6404L178.873 53.1493L179.339 53.6581C180.251 52.8228 180.706 51.7463 180.706 50.4835H180.015ZM178.873 53.1493L178.385 52.6611C177.829 53.2172 177.122 53.5062 176.207 53.5062V54.1965V54.8868C177.451 54.8868 178.521 54.4777 179.361 53.6374L178.873 53.1493ZM176.207 54.1965V53.5062C175.368 53.5062 174.645 53.2241 174.008 52.6404L173.541 53.1493L173.075 53.6581C173.961 54.4708 175.016 54.8868 176.207 54.8868V54.1965ZM173.541 53.1493L174.029 52.6611C173.473 52.1051 173.184 51.3981 173.184 50.4835H172.494H171.804C171.804 51.7269 172.213 52.7971 173.053 53.6374L173.541 53.1493ZM172.494 50.4835H173.184V0.785492H172.494H171.804V50.4835H172.494ZM172.494 0.785492V1.47579H172.78V0.785492V0.095192H172.494V0.785492ZM172.78 0.785492V1.47579H202.865V0.785492V0.095192H172.78V0.785492ZM202.865 0.785492V1.47579H202.96V0.785492V0.095192H202.865V0.785492ZM202.96 23.6351V24.3254C205.358 24.3254 207.408 23.4955 209.066 21.8383L208.577 21.3502L208.089 20.8621C206.7 22.2515 205.005 22.9448 202.96 22.9448V23.6351ZM208.577 21.3502L209.075 21.8282C210.724 20.1115 211.553 18.0355 211.553 15.6378H210.862H210.172C210.172 17.683 209.478 19.4153 208.079 20.8721L208.577 21.3502ZM210.862 15.6378H211.553C211.553 13.297 210.719 11.2807 209.066 9.62765L208.577 10.1158L208.089 10.6039C209.483 11.9975 210.172 13.6625 210.172 15.6378H210.862ZM208.577 10.1158L209.075 9.63771C207.421 7.91382 205.368 7.0453 202.96 7.0453V7.73559V8.42589C204.996 8.42589 206.688 9.14415 208.079 10.5938L208.577 10.1158ZM202.96 7.73559V7.0453H180.015V7.73559V8.42589H202.96V7.73559ZM180.015 7.73559H179.325V23.5399H180.015H180.706V7.73559H180.015ZM180.015 23.5399V24.2302H202.96V23.5399V22.8496H180.015V23.5399ZM202.96 23.5399H202.27V23.6351H202.96H203.651V23.5399H202.96ZM269.834 48.4841L270.4 48.0883L270.391 48.0754L270.381 48.063L269.834 48.4841ZM270.501 50.4835H269.81V50.5148L269.813 50.546L270.501 50.4835ZM270.12 52.4828L269.502 52.1741L269.495 52.1881L269.489 52.2025L270.12 52.4828ZM268.882 53.9109L269.265 54.4853V54.4853L268.882 53.9109ZM264.027 52.9589L264.595 52.5678L264.585 52.552L264.573 52.5368L264.027 52.9589ZM246.889 30.7757L247.436 30.3536L247.228 30.0854H246.889V30.7757ZM233.846 30.7757V30.0854H233.156V30.7757H233.846ZM232.799 53.1493L233.287 53.6374V53.6374L232.799 53.1493ZM227.658 53.1493L227.147 53.6136L227.158 53.6258L227.169 53.6374L227.658 53.1493ZM226.705 30.7757H227.396V30.0854H226.705V30.7757ZM226.61 30.7757H225.92V31.466H226.61V30.7757ZM226.61 0.690285V-1.14441e-05H225.92V0.690285H226.61ZM262.789 1.92797L262.498 2.55408L262.511 2.56024L262.525 2.56582L262.789 1.92797ZM267.549 5.16501L267.05 5.64164L267.061 5.65326L267.073 5.66434L267.549 5.16501ZM270.786 9.92535L270.148 10.1893L270.154 10.2028L270.16 10.216L270.786 9.92535ZM270.786 21.6358L271.412 21.9265L271.416 21.9182L270.786 21.6358ZM267.454 26.3009L267.931 26.8003V26.8003L267.454 26.3009ZM262.598 29.538L262.87 30.1725L262.881 30.1679L262.598 29.538ZM256.124 30.6804V29.9902H254.722L255.577 31.1016L256.124 30.6804ZM262.313 21.255L262.801 21.7431V21.7431L262.313 21.255ZM262.313 10.3062L261.814 10.7838L261.825 10.7944L261.835 10.8046L262.313 10.3062ZM233.941 8.02121V7.33091H233.251V8.02121H233.941ZM233.941 23.4447H233.251V24.135H233.941V23.4447ZM269.834 48.4841L269.269 48.88C269.641 49.412 269.81 49.9423 269.81 50.4835H270.501H271.191C271.191 49.6283 270.916 48.8257 270.4 48.0883L269.834 48.4841ZM270.501 50.4835L269.813 50.546C269.865 51.1147 269.763 51.6527 269.502 52.1741L270.12 52.4828L270.737 52.7915C271.111 52.0435 271.263 51.2486 271.188 50.421L270.501 50.4835ZM270.12 52.4828L269.489 52.2025C269.293 52.6426 268.973 53.0209 268.499 53.3366L268.882 53.9109L269.265 54.4853C269.934 54.0393 270.438 53.4655 270.751 52.7632L270.12 52.4828ZM268.882 53.9109L268.499 53.3366C268.054 53.6336 267.524 53.7919 266.883 53.7919V54.4822V55.1725C267.765 55.1725 268.568 54.9499 269.265 54.4853L268.882 53.9109ZM266.883 54.4822V53.7919C265.91 53.7919 265.168 53.4009 264.595 52.5678L264.027 52.9589L263.458 53.3499C264.281 54.5479 265.444 55.1725 266.883 55.1725V54.4822ZM264.027 52.9589L264.573 52.5368L247.436 30.3536L246.889 30.7757L246.343 31.1977L263.48 53.3809L264.027 52.9589ZM246.889 30.7757V30.0854H233.846V30.7757V31.466H246.889V30.7757ZM233.846 30.7757H233.156V50.6739H233.846H234.536V30.7757H233.846ZM233.846 50.6739H233.156C233.156 51.4354 232.885 52.0871 232.311 52.6611L232.799 53.1493L233.287 53.6374C234.109 52.8151 234.536 51.8165 234.536 50.6739H233.846ZM232.799 53.1493L232.311 52.6611C231.746 53.2258 231.066 53.5062 230.228 53.5062V54.1965V54.8868C231.421 54.8868 232.455 54.4691 233.287 53.6374L232.799 53.1493ZM230.228 54.1965V53.5062C229.39 53.5062 228.71 53.2258 228.146 52.6611L227.658 53.1493L227.169 53.6374C228.001 54.4691 229.035 54.8868 230.228 54.8868V54.1965ZM227.658 53.1493L228.168 52.6849C227.65 52.1151 227.396 51.4559 227.396 50.6739H226.705H226.015C226.015 51.796 226.395 52.7871 227.147 53.6136L227.658 53.1493ZM226.705 50.6739H227.396V30.7757H226.705H226.015V50.6739H226.705ZM226.705 30.7757V30.0854H226.61V30.7757V31.466H226.705V30.7757ZM226.61 30.7757H227.301V0.690285H226.61H225.92V30.7757H226.61ZM226.61 0.690285V1.38058H256.981V0.690285V-1.14441e-05H226.61V0.690285ZM256.981 0.690285V1.38058C258.982 1.38058 260.818 1.77412 262.498 2.55408L262.789 1.92797L263.08 1.30187C261.205 0.431583 259.169 -1.14441e-05 256.981 -1.14441e-05V0.690285ZM262.789 1.92797L262.525 2.56582C264.28 3.29192 265.785 4.31706 267.05 5.64164L267.549 5.16501L268.049 4.68837C266.647 3.22022 264.979 2.08734 263.053 1.29013L262.789 1.92797ZM267.549 5.16501L267.073 5.66434C268.397 6.92871 269.422 8.43455 270.148 10.1893L270.786 9.92535L271.424 9.66142C270.627 7.73482 269.494 6.06709 268.026 4.66568L267.549 5.16501ZM270.786 9.92535L270.16 10.216C270.94 11.896 271.334 13.7318 271.334 15.733H272.024H272.714C272.714 13.5451 272.283 11.5091 271.412 9.63466L270.786 9.92535ZM272.024 15.733H271.334C271.334 17.734 270.94 19.605 270.156 21.3534L270.786 21.6358L271.416 21.9182C272.283 19.9853 272.714 17.921 272.714 15.733H272.024ZM270.786 21.6358L270.16 21.3451C269.371 23.0452 268.31 24.5292 266.977 25.8016L267.454 26.3009L267.931 26.8003C269.39 25.4069 270.551 23.7808 271.412 21.9265L270.786 21.6358ZM267.454 26.3009L266.977 25.8016C265.64 27.0778 264.088 28.1136 262.316 28.9081L262.598 29.538L262.881 30.1679C264.79 29.3121 266.475 28.1898 267.931 26.8003L267.454 26.3009ZM262.598 29.538L262.327 28.9035C260.642 29.6253 258.8 29.9902 256.791 29.9902V30.6804V31.3707C258.971 31.3707 261 30.9739 262.87 30.1724L262.598 29.538ZM256.791 30.6804V29.9902H256.124V30.6804V31.3707H256.791V30.6804ZM256.124 30.6804L255.577 31.1016L269.287 48.9053L269.834 48.4841L270.381 48.063L256.671 30.2593L256.124 30.6804ZM256.886 23.4447V24.135C259.218 24.135 261.205 23.3388 262.801 21.7431L262.313 21.255L261.825 20.7669C260.501 22.0908 258.87 22.7544 256.886 22.7544V23.4447ZM262.313 21.255L262.801 21.7431C264.454 20.0901 265.288 18.0737 265.288 15.733H264.598H263.907C263.907 17.7083 263.218 19.3733 261.825 20.7669L262.313 21.255ZM264.598 15.733H265.288C265.288 13.3916 264.453 11.4011 262.79 9.80779L262.313 10.3062L261.835 10.8046C263.219 12.1309 263.907 13.7583 263.907 15.733H264.598ZM262.313 10.3062L262.811 9.82856C261.218 8.16593 259.227 7.33091 256.886 7.33091V8.02121V8.71151C258.861 8.71151 260.488 9.39981 261.814 10.7838L262.313 10.3062ZM256.886 8.02121V7.33091H233.941V8.02121V8.71151H256.886V8.02121ZM233.941 8.02121H233.251V23.4447H233.941H234.631V8.02121H233.941ZM233.941 23.4447V24.135H256.886V23.4447V22.7544H233.941V23.4447ZM288.026 2.21359L287.538 2.70171L287.549 2.71231L287.56 2.72245L288.026 2.21359ZM288.026 53.1493L287.56 52.6404L287.549 52.6505L287.538 52.6611L288.026 53.1493ZM282.695 53.1493L282.206 53.6374L282.217 53.648L282.228 53.6581L282.695 53.1493ZM282.695 2.21359L282.228 1.70473L282.217 1.71487L282.206 1.72548L282.695 2.21359ZM285.36 1.16632V1.85662C286.275 1.85662 286.982 2.14563 287.538 2.70171L288.026 2.21359L288.514 1.72548C287.674 0.885189 286.604 0.476021 285.36 0.476021V1.16632ZM288.026 2.21359L287.56 2.72245C288.172 3.28348 288.478 3.98418 288.478 4.87938H289.169H289.859C289.859 3.61657 289.404 2.54008 288.493 1.70474L288.026 2.21359ZM289.169 4.87938H288.478V50.4835H289.169H289.859V4.87938H289.169ZM289.169 50.4835H288.478C288.478 51.3787 288.172 52.0794 287.56 52.6404L288.026 53.1493L288.493 53.6581C289.404 52.8228 289.859 51.7463 289.859 50.4835H289.169ZM288.026 53.1493L287.538 52.6611C286.982 53.2172 286.275 53.5062 285.36 53.5062V54.1965V54.8868C286.604 54.8868 287.674 54.4777 288.514 53.6374L288.026 53.1493ZM285.36 54.1965V53.5062C284.521 53.5062 283.798 53.2241 283.161 52.6404L282.695 53.1493L282.228 53.6581C283.115 54.4708 284.169 54.8868 285.36 54.8868V54.1965ZM282.695 53.1493L283.183 52.6611C282.627 52.1051 282.338 51.3981 282.338 50.4835H281.647H280.957C280.957 51.7269 281.366 52.7971 282.206 53.6374L282.695 53.1493ZM281.647 50.4835H282.338V4.87938H281.647H280.957V50.4835H281.647ZM281.647 4.87938H282.338C282.338 3.96476 282.627 3.25779 283.183 2.70171L282.695 2.21359L282.206 1.72548C281.366 2.56577 280.957 3.636 280.957 4.87938H281.647ZM282.695 2.21359L283.161 2.72245C283.798 2.13872 284.521 1.85662 285.36 1.85662V1.16632V0.476021C284.169 0.476021 283.115 0.892105 282.228 1.70473L282.695 2.21359ZM348.109 9.54452L348.579 10.0499L348.799 9.84516V9.54452H348.109ZM308.503 46.3896L308.033 45.8842L306.747 47.0799H308.503V46.3896ZM346.205 47.4369L345.717 47.925V47.925L346.205 47.4369ZM346.205 52.7684L345.717 52.2803V52.2803L346.205 52.7684ZM298.03 53.8157H297.34V54.506H298.03V53.8157ZM298.03 45.9135L297.56 45.4085L297.34 45.6132V45.9135H298.03ZM338.398 8.30684L338.868 8.81192L340.152 7.61654H338.398V8.30684ZM299.078 7.25956L298.569 7.72601L298.589 7.74813L298.611 7.76842L299.078 7.25956ZM299.078 1.92797L299.566 2.41609V2.41609L299.078 1.92797ZM348.109 0.785492H348.799V0.095192H348.109V0.785492ZM348.109 9.54452L347.639 9.03911L308.033 45.8842L308.503 46.3896L308.973 46.895L348.579 10.0499L348.109 9.54452ZM308.503 46.3896V47.0799H343.539V46.3896V45.6993H308.503V46.3896ZM343.539 46.3896V47.0799C344.454 47.0799 345.161 47.3689 345.717 47.925L346.205 47.4369L346.693 46.9487C345.853 46.1085 344.783 45.6993 343.539 45.6993V46.3896ZM346.205 47.4369L345.717 47.925C346.273 48.481 346.562 49.188 346.562 50.1026H347.252H347.943C347.943 48.8593 347.533 47.789 346.693 46.9487L346.205 47.4369ZM347.252 50.1026H346.562C346.562 51.0173 346.273 51.7242 345.717 52.2803L346.205 52.7684L346.693 53.2566C347.533 52.4163 347.943 51.346 347.943 50.1026H347.252ZM346.205 52.7684L345.717 52.2803C345.161 52.8364 344.454 53.1254 343.539 53.1254V53.8157V54.506C344.783 54.506 345.853 54.0968 346.693 53.2566L346.205 52.7684ZM343.539 53.8157V53.1254H298.03V53.8157V54.506H343.539V53.8157ZM298.03 53.8157H298.721V45.9135H298.03H297.34V53.8157H298.03ZM298.03 45.9135L298.501 46.4186L338.868 8.81192L338.398 8.30684L337.927 7.80175L297.56 45.4085L298.03 45.9135ZM338.398 8.30684V7.61654H301.839V8.30684V8.99714H338.398V8.30684ZM301.839 8.30684V7.61654C300.924 7.61654 300.172 7.32662 299.544 6.7507L299.078 7.25956L298.611 7.76842C299.506 8.58887 300.595 8.99714 301.839 8.99714V8.30684ZM299.078 7.25956L299.586 6.79311C299.003 6.15631 298.721 5.4333 298.721 4.59377H298.03H297.34C297.34 5.78532 297.756 6.8395 298.569 7.72601L299.078 7.25956ZM298.03 4.59377H298.721C298.721 3.67913 299.01 2.97217 299.566 2.41609L299.078 1.92797L298.589 1.43986C297.749 2.28015 297.34 3.35038 297.34 4.59377H298.03ZM299.078 1.92797L299.566 2.41609C300.198 1.78414 300.942 1.47579 301.839 1.47579V0.785492V0.095192C300.577 0.095192 299.481 0.548496 298.589 1.43986L299.078 1.92797ZM301.839 0.785492V1.47579H348.109V0.785492V0.095192H301.839V0.785492ZM348.109 0.785492H347.419V9.54452H348.109H348.799V0.785492H348.109ZM362.688 31.4421V30.7518H361.997V31.4421H362.688ZM363.354 41.534L362.716 41.7969L362.722 41.8126L362.729 41.828L363.354 41.534ZM365.353 44.3902L364.865 44.8783L364.875 44.8881L364.885 44.8975L365.353 44.3902ZM368.21 46.1992L367.947 46.8375V46.8375L368.21 46.1992ZM402.77 47.9129L402.282 48.401L402.292 48.4116L402.303 48.4217L402.77 47.9129ZM402.77 53.2445L403.258 53.7326V53.7326L402.77 53.2445ZM365.258 53.0541L364.974 53.6832L364.986 53.6886L364.998 53.6936L365.258 53.0541ZM360.117 49.5314L359.629 50.0195V50.0195L360.117 49.5314ZM356.594 44.3902L355.958 44.6572L355.961 44.6658L355.965 44.6744L356.594 44.3902ZM356.594 11.0678L355.965 10.7837L355.961 10.7934L356.594 11.0678ZM365.258 2.49921L365.525 3.13588L365.535 3.13164L365.258 2.49921ZM402.77 2.21359L402.282 2.70171L402.292 2.71231L402.303 2.72245L402.77 2.21359ZM402.77 7.54518L403.258 8.03329V8.03329L402.77 7.54518ZM365.353 11.163L365.822 11.6703L365.832 11.6609L365.842 11.6512L365.353 11.163ZM363.354 13.924L362.729 13.6301L362.725 13.6387L362.722 13.6474L363.354 13.924ZM362.688 24.016H361.997V24.7063H362.688V24.016ZM402.77 25.0632L402.282 25.5514L402.292 25.562L402.303 25.5721L402.77 25.0632ZM402.77 30.3948L403.258 30.8829V30.8829L402.77 30.3948ZM362.688 31.4421H361.997V38.1066H362.688H363.378V31.4421H362.688ZM362.688 38.1066H361.997C361.997 39.3996 362.236 40.6317 362.716 41.7969L363.354 41.534L363.992 41.2712C363.584 40.2784 363.378 39.2254 363.378 38.1066H362.688ZM363.354 41.534L362.729 41.828C363.27 42.9775 363.983 43.9956 364.865 44.8783L365.353 44.3902L365.842 43.9021C365.074 43.1346 364.453 42.2486 363.979 41.2401L363.354 41.534ZM365.353 44.3902L364.885 44.8975C365.773 45.7168 366.795 46.3632 367.947 46.8375L368.21 46.1992L368.472 45.5609C367.466 45.1465 366.584 44.587 365.822 43.883L365.353 44.3902ZM368.21 46.1992L367.947 46.8375C369.116 47.319 370.381 47.5559 371.732 47.5559V46.8656V46.1753C370.545 46.1753 369.461 45.9679 368.472 45.5609L368.21 46.1992ZM371.732 46.8656V47.5559H400.199V46.8656V46.1753H371.732V46.8656ZM400.199 46.8656V47.5559C401.037 47.5559 401.717 47.8363 402.282 48.401L402.77 47.9129L403.258 47.4248C402.426 46.5931 401.392 46.1753 400.199 46.1753V46.8656ZM402.77 47.9129L402.303 48.4217C402.915 48.9828 403.222 49.6835 403.222 50.5787H403.912H404.602C404.602 49.3159 404.147 48.2394 403.236 47.404L402.77 47.9129ZM403.912 50.5787H403.222C403.222 51.3992 402.922 52.1154 402.282 52.7564L402.77 53.2445L403.258 53.7326C404.14 52.8502 404.602 51.7893 404.602 50.5787H403.912ZM402.77 53.2445L402.282 52.7564C401.717 53.321 401.037 53.6014 400.199 53.6014V54.2917V54.982C401.392 54.982 402.426 54.5643 403.258 53.7326L402.77 53.2445ZM400.199 54.2917V53.6014H371.732V54.2917V54.982H400.199V54.2917ZM371.732 54.2917V53.6014C369.533 53.6014 367.463 53.2047 365.518 52.4145L365.258 53.0541L364.998 53.6936C367.115 54.5537 369.362 54.982 371.732 54.982V54.2917ZM365.258 53.0541L365.542 52.4249C363.647 51.5691 362.003 50.4415 360.605 49.0433L360.117 49.5314L359.629 50.0195C361.15 51.541 362.934 52.7619 364.974 53.6832L365.258 53.0541ZM360.117 49.5314L360.605 49.0433C359.207 47.6451 358.079 46.0013 357.223 44.1061L356.594 44.3902L355.965 44.6744C356.887 46.7144 358.107 48.4981 359.629 50.0195L360.117 49.5314ZM356.594 44.3902L357.231 44.1233C356.443 42.2437 356.047 40.2403 356.047 38.1066H355.357H354.666C354.666 40.4159 355.096 42.6016 355.958 44.6572L356.594 44.3902ZM355.357 38.1066H356.047V17.2563H355.357H354.666V38.1066H355.357ZM355.357 17.2563H356.047C356.047 15.1225 356.443 13.1538 357.228 11.3423L356.594 11.0678L355.961 10.7934C355.096 12.7901 354.666 14.9471 354.666 17.2563H355.357ZM356.594 11.0678L357.223 11.352C358.079 9.45678 359.207 7.81301 360.605 6.41478L360.117 5.92666L359.629 5.43855C358.107 6.95999 356.887 8.74368 355.965 10.7837L356.594 11.0678ZM360.117 5.92666L360.605 6.41478C361.999 5.02045 363.637 3.92745 365.525 3.1358L365.258 2.49921L364.991 1.86263C362.944 2.72123 361.154 3.9132 359.629 5.43855L360.117 5.92666ZM365.258 2.49921L365.535 3.13164C367.476 2.28239 369.54 1.85662 371.732 1.85662V1.16632V0.476021C369.355 0.476021 367.103 0.938843 364.982 1.86679L365.258 2.49921ZM371.732 1.16632V1.85662H400.199V1.16632V0.476021H371.732V1.16632ZM400.199 1.16632V1.85662C401.037 1.85662 401.717 2.13705 402.282 2.70171L402.77 2.21359L403.258 1.72548C402.426 0.893768 401.392 0.476021 400.199 0.476021V1.16632ZM402.77 2.21359L402.303 2.72245C402.915 3.28348 403.222 3.98418 403.222 4.87938H403.912H404.602C404.602 3.61657 404.147 2.54008 403.236 1.70474L402.77 2.21359ZM403.912 4.87938H403.222C403.222 5.69988 402.922 6.41615 402.282 7.05706L402.77 7.54518L403.258 8.03329C404.14 7.1509 404.602 6.08997 404.602 4.87938H403.912ZM402.77 7.54518L402.282 7.05706C401.717 7.62172 401.037 7.90216 400.199 7.90216V8.59246V9.28275C401.392 9.28275 402.426 8.86501 403.258 8.03329L402.77 7.54518ZM400.199 8.59246V7.90216H371.732V8.59246V9.28275H400.199V8.59246ZM371.732 8.59246V7.90216C370.381 7.90216 369.116 8.13906 367.947 8.6206L368.21 9.2589L368.472 9.89721C369.461 9.49015 370.545 9.28275 371.732 9.28275V8.59246ZM368.21 9.2589L367.947 8.6206C366.784 9.0996 365.755 9.78535 364.865 10.6749L365.353 11.163L365.842 11.6512C366.602 10.8905 367.478 10.3068 368.472 9.89721L368.21 9.2589ZM365.353 11.163L364.885 10.6558C363.991 11.4815 363.273 12.4756 362.729 13.6301L363.354 13.924L363.979 14.218C364.451 13.2144 365.066 12.3679 365.822 11.6703L365.353 11.163ZM363.354 13.924L362.722 13.6474C362.236 14.7576 361.997 15.9636 361.997 17.2563H362.688H363.378C363.378 16.1371 363.584 15.1216 363.986 14.2007L363.354 13.924ZM362.688 17.2563H361.997V24.016H362.688H363.378V17.2563H362.688ZM362.688 24.016V24.7063H400.199V24.016V23.3257H362.688V24.016ZM400.199 24.016V24.7063C401.037 24.7063 401.717 24.9867 402.282 25.5514L402.77 25.0632L403.258 24.5751C402.426 23.7434 401.392 23.3257 400.199 23.3257V24.016ZM402.77 25.0632L402.303 25.5721C402.915 26.1331 403.222 26.8338 403.222 27.729H403.912H404.602C404.602 26.4662 404.147 25.3897 403.236 24.5544L402.77 25.0632ZM403.912 27.729H403.222C403.222 28.5495 402.922 29.2658 402.282 29.9067L402.77 30.3948L403.258 30.8829C404.14 30.0005 404.602 28.9396 404.602 27.729H403.912ZM402.77 30.3948L402.282 29.9067C401.717 30.4714 401.037 30.7518 400.199 30.7518V31.4421V32.1324C401.392 32.1324 402.426 31.7147 403.258 30.8829L402.77 30.3948ZM400.199 31.4421V30.7518H362.688V31.4421V32.1324H400.199V31.4421Z" fill="white" mask="url(#path-1-outside-1_649_2927)"/>
</svg>
