<svg width="398" height="56" viewBox="0 0 398 56" fill="none" xmlns="http://www.w3.org/2000/svg">
<mask id="path-1-outside-1_649_2929" maskUnits="userSpaceOnUse" x="-0.0229492" y="-0.422607" width="398" height="56" fill="black">
<rect fill="white" x="-0.0229492" y="-0.422607" width="398" height="56"/>
<path d="M44.4853 14.4001C44.4853 16.5581 44.041 18.6209 43.1524 20.5885C42.3273 22.4927 41.153 24.0795 39.6297 25.3489C41.153 26.9357 42.3273 28.7763 43.1524 30.8709C43.9775 32.9654 44.3901 35.1869 44.3901 37.5354C44.3901 39.8203 43.9775 41.9784 43.1524 44.0094C42.3907 46.0405 41.3117 47.8177 39.9153 49.341C38.519 50.8643 36.9005 52.0703 35.0598 52.9589C33.2191 53.784 31.2515 54.1966 29.157 54.1966H4.40319C3.38765 54.1966 2.49905 53.8475 1.73739 53.1493C1.03921 52.3876 0.690118 51.499 0.690118 50.4835C0.690118 49.4045 1.03921 48.5159 1.73739 47.8177C2.49905 47.1195 3.38765 46.7704 4.40319 46.7704H29.157C31.315 46.7704 33.1557 45.8818 34.679 44.1046C36.2023 42.264 36.9639 40.0742 36.9639 37.5354C36.9639 34.933 36.2023 32.7433 34.679 30.9661C33.1557 29.1889 31.315 28.3003 29.157 28.3003H15.0664C14.0508 28.3003 13.1622 27.9512 12.4006 27.253C11.7024 26.4914 11.3533 25.6028 11.3533 24.5872C11.3533 23.5082 11.7024 22.6196 12.4006 21.9214C13.1622 21.2233 14.0508 20.8742 15.0664 20.8742H31.7276C33.1874 20.8742 34.4251 20.2712 35.4406 19.0652C36.4562 17.7958 36.9639 16.2725 36.9639 14.4953C36.9639 12.7181 36.4562 11.2265 35.4406 10.0206C34.4251 8.81463 33.1874 8.21165 31.7276 8.21165H4.40319C3.38765 8.21165 2.49905 7.86256 1.73739 7.16438C1.03921 6.40272 0.690118 5.51412 0.690118 4.49858C0.690118 3.41957 1.03921 2.53097 1.73739 1.83279C2.49905 1.07114 3.38765 0.690308 4.40319 0.690308H31.7276C33.4413 0.690308 35.0598 1.07114 36.5831 1.83279C38.1699 2.53097 39.5345 3.51478 40.677 4.78421C41.8195 5.99016 42.7081 7.45 43.3428 9.16372C44.041 10.814 44.3901 12.5912 44.3901 14.4953L44.4853 14.4001ZM84.8684 50.4542C85.1838 50.9048 85.3416 51.3779 85.3416 51.8736C85.3866 52.3693 85.2965 52.8425 85.0712 53.2931C84.8909 53.6987 84.598 54.0366 84.1925 54.307C83.7869 54.5774 83.3137 54.7126 82.773 54.7126C81.9168 54.7126 81.2409 54.3521 80.7452 53.6311L68.5782 37.8817H59.3179V52.0088C59.3179 52.6848 59.07 53.2706 58.5743 53.7663C58.0786 54.262 57.4703 54.5098 56.7493 54.5098C56.0283 54.5098 55.4199 54.262 54.9242 53.7663C54.4736 53.2706 54.2483 52.6848 54.2483 52.0088V37.8817H54.1807V16.522H75.7432C77.2303 16.522 78.6047 16.8149 79.8664 17.4007C81.1733 17.9414 82.2998 18.7075 83.2461 19.6989C84.2375 20.6452 85.0036 21.7718 85.5443 23.0786C86.1302 24.3403 86.4231 25.7147 86.4231 27.2018C86.4231 28.6889 86.1302 30.0858 85.5443 31.3926C84.9585 32.6544 84.1699 33.7584 83.1786 34.7047C82.1872 35.6511 81.0381 36.4171 79.7313 37.0029C78.4695 37.5437 77.0951 37.8141 75.608 37.8141H75.1349L84.8684 50.4542ZM75.6756 32.6769C77.2077 32.6769 78.492 32.1587 79.5285 31.1223C80.61 30.0408 81.1507 28.7339 81.1507 27.2018C81.1507 25.6697 80.61 24.3854 79.5285 23.349C78.492 22.2674 77.2077 21.7267 75.6756 21.7267H59.3855V32.6769H75.6756ZM115.967 16.8599C117.589 16.8599 119.099 17.1528 120.496 17.7386C121.893 18.2794 123.109 19.0455 124.146 20.0368C125.227 21.0282 126.061 22.1773 126.647 23.4841C127.278 24.791 127.593 26.1879 127.593 27.675V43.7623C127.593 45.2494 127.278 46.6464 126.647 47.9532C126.061 49.26 125.227 50.4091 124.146 51.4005C123.109 52.3468 121.893 53.1129 120.496 53.6987C119.099 54.2394 117.589 54.5098 115.967 54.5098H93.3229V16.8599H115.967ZM122.321 27.675C122.321 26.954 122.141 26.2555 121.78 25.5796C121.465 24.9036 121.014 24.3178 120.428 23.8221C119.842 23.3264 119.144 22.9434 118.333 22.673C117.567 22.3576 116.756 22.1999 115.899 22.1999H98.5953V49.3051H115.899C116.756 49.3051 117.567 49.1699 118.333 48.8995C119.144 48.5841 119.842 48.1785 120.428 47.6828C121.014 47.1871 121.465 46.6013 121.78 45.9254C122.141 45.2494 122.321 44.5284 122.321 43.7623V27.675ZM195.879 1.07114C197.974 1.07114 199.909 1.4837 201.687 2.30883C203.527 3.07048 205.114 4.11776 206.447 5.45065C207.78 6.78355 208.827 8.37033 209.589 10.211C210.35 11.9882 210.731 13.8923 210.731 15.9234C210.731 18.018 210.319 19.9856 209.494 21.8262C208.668 23.6034 207.558 25.1585 206.161 26.4914C204.828 27.8243 203.242 28.8715 201.401 29.6332C199.624 30.3949 197.72 30.7757 195.689 30.7757H172.934V50.7691C172.934 51.8481 172.553 52.7367 171.792 53.4349C171.093 54.1331 170.205 54.4822 169.126 54.4822C168.11 54.4822 167.222 54.1331 166.46 53.4349C165.762 52.7367 165.413 51.8481 165.413 50.7691V1.07114H165.698H195.784H195.879ZM195.879 23.9208C198.1 23.9208 199.973 23.1591 201.496 21.6358C203.019 20.049 203.781 18.1449 203.781 15.9234C203.781 13.7654 203.019 11.9247 201.496 10.4014C199.973 8.81463 198.1 8.02124 195.879 8.02124H172.934V23.8256H195.879V23.9208ZM262.753 48.7698C263.197 49.4045 263.419 50.0709 263.419 50.7691C263.483 51.4673 263.356 52.1337 263.038 52.7685C262.785 53.3397 262.372 53.8157 261.801 54.1966C261.23 54.5774 260.563 54.7678 259.801 54.7678C258.595 54.7678 257.643 54.26 256.945 53.2445L239.808 31.0613H226.765V50.9595C226.765 51.9116 226.416 52.7367 225.717 53.4349C225.019 54.1331 224.162 54.4822 223.147 54.4822C222.131 54.4822 221.274 54.1331 220.576 53.4349C219.942 52.7367 219.624 51.9116 219.624 50.9595V31.0613H219.529V0.975931H249.9C251.994 0.975931 253.93 1.38849 255.708 2.21362C257.548 2.97527 259.135 4.05428 260.468 5.45065C261.864 6.78355 262.943 8.37033 263.705 10.211C264.53 11.9882 264.943 13.9241 264.943 16.0186C264.943 18.1132 264.53 20.0808 263.705 21.9214C262.88 23.6986 261.769 25.2537 260.373 26.5866C258.976 27.9195 257.358 28.9985 255.517 29.8236C253.74 30.5853 251.804 30.9661 249.71 30.9661H249.043L262.753 48.7698ZM249.805 23.7304C251.963 23.7304 253.772 23.0005 255.232 21.5406C256.755 20.0173 257.516 18.1766 257.516 16.0186C257.516 13.8606 256.755 12.0517 255.232 10.5918C253.772 9.06851 251.963 8.30686 249.805 8.30686H226.86V23.7304H249.805ZM278.279 1.45196C279.358 1.45196 280.247 1.80106 280.945 2.49924C281.706 3.19742 282.087 4.08602 282.087 5.16503V50.7691C282.087 51.8481 281.706 52.7367 280.945 53.4349C280.247 54.1331 279.358 54.4822 278.279 54.4822C277.263 54.4822 276.375 54.1331 275.613 53.4349C274.915 52.7367 274.566 51.8481 274.566 50.7691V5.16503C274.566 4.08602 274.915 3.19742 275.613 2.49924C276.375 1.80106 277.263 1.45196 278.279 1.45196ZM341.028 9.83017L301.422 46.6752H336.458C337.537 46.6752 338.425 47.0243 339.124 47.7225C339.822 48.4207 340.171 49.3093 340.171 50.3883C340.171 51.4673 339.822 52.3559 339.124 53.0541C338.425 53.7523 337.537 54.1014 336.458 54.1014H290.949V46.1992L331.317 8.59248H294.757C293.678 8.59248 292.758 8.24339 291.996 7.5452C291.298 6.78355 290.949 5.89495 290.949 4.87941C290.949 3.8004 291.298 2.9118 291.996 2.21362C292.758 1.45196 293.678 1.07114 294.757 1.07114H341.028V9.83017ZM355.606 31.7277V38.3922C355.606 39.5982 355.828 40.7407 356.273 41.8197C356.781 42.8987 357.447 43.8508 358.272 44.6759C359.097 45.4375 360.049 46.0405 361.128 46.4848C362.207 46.9291 363.382 47.1513 364.651 47.1513H393.118C394.133 47.1513 394.99 47.5003 395.688 48.1985C396.45 48.8967 396.831 49.7853 396.831 50.8643C396.831 51.8799 396.45 52.7685 395.688 53.5301C394.99 54.2283 394.133 54.5774 393.118 54.5774H364.651C362.366 54.5774 360.208 54.1648 358.177 53.3397C356.209 52.4511 354.496 51.2769 353.036 49.817C351.576 48.3572 350.402 46.6435 349.513 44.6759C348.688 42.7083 348.275 40.6137 348.275 38.3922V17.5419C348.275 15.3204 348.688 13.2576 349.513 11.3535C350.402 9.38587 351.576 7.67215 353.036 6.21231C354.496 4.75247 356.209 3.60999 358.177 2.78486C360.208 1.89626 362.366 1.45196 364.651 1.45196H393.118C394.133 1.45196 394.99 1.80106 395.688 2.49924C396.45 3.19742 396.831 4.08602 396.831 5.16503C396.831 6.18057 396.45 7.06917 395.688 7.83082C394.99 8.52901 394.133 8.8781 393.118 8.8781H364.651C363.382 8.8781 362.207 9.10025 361.128 9.54455C360.049 9.98885 359.097 10.6236 358.272 11.4487C357.447 12.2103 356.781 13.1307 356.273 14.2097C355.828 15.2252 355.606 16.336 355.606 17.5419V24.3016H393.118C394.133 24.3016 394.99 24.6507 395.688 25.3489C396.45 26.0471 396.831 26.9357 396.831 28.0147C396.831 29.0302 396.45 29.9188 395.688 30.6805C394.99 31.3787 394.133 31.7277 393.118 31.7277H355.606Z"/>
</mask>
<path d="M44.4853 14.4001C44.4853 16.5581 44.041 18.6209 43.1524 20.5885C42.3273 22.4927 41.153 24.0795 39.6297 25.3489C41.153 26.9357 42.3273 28.7763 43.1524 30.8709C43.9775 32.9654 44.3901 35.1869 44.3901 37.5354C44.3901 39.8203 43.9775 41.9784 43.1524 44.0094C42.3907 46.0405 41.3117 47.8177 39.9153 49.341C38.519 50.8643 36.9005 52.0703 35.0598 52.9589C33.2191 53.784 31.2515 54.1966 29.157 54.1966H4.40319C3.38765 54.1966 2.49905 53.8475 1.73739 53.1493C1.03921 52.3876 0.690118 51.499 0.690118 50.4835C0.690118 49.4045 1.03921 48.5159 1.73739 47.8177C2.49905 47.1195 3.38765 46.7704 4.40319 46.7704H29.157C31.315 46.7704 33.1557 45.8818 34.679 44.1046C36.2023 42.264 36.9639 40.0742 36.9639 37.5354C36.9639 34.933 36.2023 32.7433 34.679 30.9661C33.1557 29.1889 31.315 28.3003 29.157 28.3003H15.0664C14.0508 28.3003 13.1622 27.9512 12.4006 27.253C11.7024 26.4914 11.3533 25.6028 11.3533 24.5872C11.3533 23.5082 11.7024 22.6196 12.4006 21.9214C13.1622 21.2233 14.0508 20.8742 15.0664 20.8742H31.7276C33.1874 20.8742 34.4251 20.2712 35.4406 19.0652C36.4562 17.7958 36.9639 16.2725 36.9639 14.4953C36.9639 12.7181 36.4562 11.2265 35.4406 10.0206C34.4251 8.81463 33.1874 8.21165 31.7276 8.21165H4.40319C3.38765 8.21165 2.49905 7.86256 1.73739 7.16438C1.03921 6.40272 0.690118 5.51412 0.690118 4.49858C0.690118 3.41957 1.03921 2.53097 1.73739 1.83279C2.49905 1.07114 3.38765 0.690308 4.40319 0.690308H31.7276C33.4413 0.690308 35.0598 1.07114 36.5831 1.83279C38.1699 2.53097 39.5345 3.51478 40.677 4.78421C41.8195 5.99016 42.7081 7.45 43.3428 9.16372C44.041 10.814 44.3901 12.5912 44.3901 14.4953L44.4853 14.4001ZM84.8684 50.4542C85.1838 50.9048 85.3416 51.3779 85.3416 51.8736C85.3866 52.3693 85.2965 52.8425 85.0712 53.2931C84.8909 53.6987 84.598 54.0366 84.1925 54.307C83.7869 54.5774 83.3137 54.7126 82.773 54.7126C81.9168 54.7126 81.2409 54.3521 80.7452 53.6311L68.5782 37.8817H59.3179V52.0088C59.3179 52.6848 59.07 53.2706 58.5743 53.7663C58.0786 54.262 57.4703 54.5098 56.7493 54.5098C56.0283 54.5098 55.4199 54.262 54.9242 53.7663C54.4736 53.2706 54.2483 52.6848 54.2483 52.0088V37.8817H54.1807V16.522H75.7432C77.2303 16.522 78.6047 16.8149 79.8664 17.4007C81.1733 17.9414 82.2998 18.7075 83.2461 19.6989C84.2375 20.6452 85.0036 21.7718 85.5443 23.0786C86.1302 24.3403 86.4231 25.7147 86.4231 27.2018C86.4231 28.6889 86.1302 30.0858 85.5443 31.3926C84.9585 32.6544 84.1699 33.7584 83.1786 34.7047C82.1872 35.6511 81.0381 36.4171 79.7313 37.0029C78.4695 37.5437 77.0951 37.8141 75.608 37.8141H75.1349L84.8684 50.4542ZM75.6756 32.6769C77.2077 32.6769 78.492 32.1587 79.5285 31.1223C80.61 30.0408 81.1507 28.7339 81.1507 27.2018C81.1507 25.6697 80.61 24.3854 79.5285 23.349C78.492 22.2674 77.2077 21.7267 75.6756 21.7267H59.3855V32.6769H75.6756ZM115.967 16.8599C117.589 16.8599 119.099 17.1528 120.496 17.7386C121.893 18.2794 123.109 19.0455 124.146 20.0368C125.227 21.0282 126.061 22.1773 126.647 23.4841C127.278 24.791 127.593 26.1879 127.593 27.675V43.7623C127.593 45.2494 127.278 46.6464 126.647 47.9532C126.061 49.26 125.227 50.4091 124.146 51.4005C123.109 52.3468 121.893 53.1129 120.496 53.6987C119.099 54.2394 117.589 54.5098 115.967 54.5098H93.3229V16.8599H115.967ZM122.321 27.675C122.321 26.954 122.141 26.2555 121.78 25.5796C121.465 24.9036 121.014 24.3178 120.428 23.8221C119.842 23.3264 119.144 22.9434 118.333 22.673C117.567 22.3576 116.756 22.1999 115.899 22.1999H98.5953V49.3051H115.899C116.756 49.3051 117.567 49.1699 118.333 48.8995C119.144 48.5841 119.842 48.1785 120.428 47.6828C121.014 47.1871 121.465 46.6013 121.78 45.9254C122.141 45.2494 122.321 44.5284 122.321 43.7623V27.675ZM195.879 1.07114C197.974 1.07114 199.909 1.4837 201.687 2.30883C203.527 3.07048 205.114 4.11776 206.447 5.45065C207.78 6.78355 208.827 8.37033 209.589 10.211C210.35 11.9882 210.731 13.8923 210.731 15.9234C210.731 18.018 210.319 19.9856 209.494 21.8262C208.668 23.6034 207.558 25.1585 206.161 26.4914C204.828 27.8243 203.242 28.8715 201.401 29.6332C199.624 30.3949 197.72 30.7757 195.689 30.7757H172.934V50.7691C172.934 51.8481 172.553 52.7367 171.792 53.4349C171.093 54.1331 170.205 54.4822 169.126 54.4822C168.11 54.4822 167.222 54.1331 166.46 53.4349C165.762 52.7367 165.413 51.8481 165.413 50.7691V1.07114H165.698H195.784H195.879ZM195.879 23.9208C198.1 23.9208 199.973 23.1591 201.496 21.6358C203.019 20.049 203.781 18.1449 203.781 15.9234C203.781 13.7654 203.019 11.9247 201.496 10.4014C199.973 8.81463 198.1 8.02124 195.879 8.02124H172.934V23.8256H195.879V23.9208ZM262.753 48.7698C263.197 49.4045 263.419 50.0709 263.419 50.7691C263.483 51.4673 263.356 52.1337 263.038 52.7685C262.785 53.3397 262.372 53.8157 261.801 54.1966C261.23 54.5774 260.563 54.7678 259.801 54.7678C258.595 54.7678 257.643 54.26 256.945 53.2445L239.808 31.0613H226.765V50.9595C226.765 51.9116 226.416 52.7367 225.717 53.4349C225.019 54.1331 224.162 54.4822 223.147 54.4822C222.131 54.4822 221.274 54.1331 220.576 53.4349C219.942 52.7367 219.624 51.9116 219.624 50.9595V31.0613H219.529V0.975931H249.9C251.994 0.975931 253.93 1.38849 255.708 2.21362C257.548 2.97527 259.135 4.05428 260.468 5.45065C261.864 6.78355 262.943 8.37033 263.705 10.211C264.53 11.9882 264.943 13.9241 264.943 16.0186C264.943 18.1132 264.53 20.0808 263.705 21.9214C262.88 23.6986 261.769 25.2537 260.373 26.5866C258.976 27.9195 257.358 28.9985 255.517 29.8236C253.74 30.5853 251.804 30.9661 249.71 30.9661H249.043L262.753 48.7698ZM249.805 23.7304C251.963 23.7304 253.772 23.0005 255.232 21.5406C256.755 20.0173 257.516 18.1766 257.516 16.0186C257.516 13.8606 256.755 12.0517 255.232 10.5918C253.772 9.06851 251.963 8.30686 249.805 8.30686H226.86V23.7304H249.805ZM278.279 1.45196C279.358 1.45196 280.247 1.80106 280.945 2.49924C281.706 3.19742 282.087 4.08602 282.087 5.16503V50.7691C282.087 51.8481 281.706 52.7367 280.945 53.4349C280.247 54.1331 279.358 54.4822 278.279 54.4822C277.263 54.4822 276.375 54.1331 275.613 53.4349C274.915 52.7367 274.566 51.8481 274.566 50.7691V5.16503C274.566 4.08602 274.915 3.19742 275.613 2.49924C276.375 1.80106 277.263 1.45196 278.279 1.45196ZM341.028 9.83017L301.422 46.6752H336.458C337.537 46.6752 338.425 47.0243 339.124 47.7225C339.822 48.4207 340.171 49.3093 340.171 50.3883C340.171 51.4673 339.822 52.3559 339.124 53.0541C338.425 53.7523 337.537 54.1014 336.458 54.1014H290.949V46.1992L331.317 8.59248H294.757C293.678 8.59248 292.758 8.24339 291.996 7.5452C291.298 6.78355 290.949 5.89495 290.949 4.87941C290.949 3.8004 291.298 2.9118 291.996 2.21362C292.758 1.45196 293.678 1.07114 294.757 1.07114H341.028V9.83017ZM355.606 31.7277V38.3922C355.606 39.5982 355.828 40.7407 356.273 41.8197C356.781 42.8987 357.447 43.8508 358.272 44.6759C359.097 45.4375 360.049 46.0405 361.128 46.4848C362.207 46.9291 363.382 47.1513 364.651 47.1513H393.118C394.133 47.1513 394.99 47.5003 395.688 48.1985C396.45 48.8967 396.831 49.7853 396.831 50.8643C396.831 51.8799 396.45 52.7685 395.688 53.5301C394.99 54.2283 394.133 54.5774 393.118 54.5774H364.651C362.366 54.5774 360.208 54.1648 358.177 53.3397C356.209 52.4511 354.496 51.2769 353.036 49.817C351.576 48.3572 350.402 46.6435 349.513 44.6759C348.688 42.7083 348.275 40.6137 348.275 38.3922V17.5419C348.275 15.3204 348.688 13.2576 349.513 11.3535C350.402 9.38587 351.576 7.67215 353.036 6.21231C354.496 4.75247 356.209 3.60999 358.177 2.78486C360.208 1.89626 362.366 1.45196 364.651 1.45196H393.118C394.133 1.45196 394.99 1.80106 395.688 2.49924C396.45 3.19742 396.831 4.08602 396.831 5.16503C396.831 6.18057 396.45 7.06917 395.688 7.83082C394.99 8.52901 394.133 8.8781 393.118 8.8781H364.651C363.382 8.8781 362.207 9.10025 361.128 9.54455C360.049 9.98885 359.097 10.6236 358.272 11.4487C357.447 12.2103 356.781 13.1307 356.273 14.2097C355.828 15.2252 355.606 16.336 355.606 17.5419V24.3016H393.118C394.133 24.3016 394.99 24.6507 395.688 25.3489C396.45 26.0471 396.831 26.9357 396.831 28.0147C396.831 29.0302 396.45 29.9188 395.688 30.6805C394.99 31.3787 394.133 31.7277 393.118 31.7277H355.606Z" fill="white"/>
<path d="M44.4853 14.4001H45.1756V12.7336L43.9972 13.912L44.4853 14.4001ZM43.1524 20.5885L42.5232 20.3044L42.519 20.3141L43.1524 20.5885ZM39.6297 25.3489L39.1878 24.8186L38.6189 25.2927L39.1318 25.8269L39.6297 25.3489ZM43.1524 30.8709L42.5101 31.1239V31.1239L43.1524 30.8709ZM43.1524 44.0094L42.5128 43.7496L42.5093 43.7583L42.506 43.7671L43.1524 44.0094ZM39.9153 49.341L40.4242 49.8075V49.8075L39.9153 49.341ZM35.0598 52.9589L35.3422 53.5888L35.3511 53.5848L35.3599 53.5805L35.0598 52.9589ZM1.73739 53.1493L1.22854 53.6157L1.24882 53.6379L1.27094 53.6581L1.73739 53.1493ZM1.73739 47.8177L1.27094 47.3089L1.25989 47.319L1.24928 47.3296L1.73739 47.8177ZM34.679 44.1046L35.2032 44.5539L35.2108 44.5448L34.679 44.1046ZM34.679 30.9661L35.2031 30.5169V30.5169L34.679 30.9661ZM12.4006 27.253L11.8917 27.7195L11.912 27.7416L11.9341 27.7619L12.4006 27.253ZM12.4006 21.9214L11.9341 21.4126L11.9231 21.4227L11.9124 21.4333L12.4006 21.9214ZM35.4406 19.0652L35.9686 19.5099L35.9742 19.5032L35.9797 19.4965L35.4406 19.0652ZM1.73739 7.16438L1.22854 7.63083L1.24882 7.65295L1.27094 7.67323L1.73739 7.16438ZM1.73739 1.83279L2.22551 2.32091H2.22551L1.73739 1.83279ZM36.5831 1.83279L36.2744 2.45021L36.2896 2.4578L36.3051 2.46463L36.5831 1.83279ZM40.677 4.78421L40.1639 5.24599L40.1698 5.25255L40.1759 5.25896L40.677 4.78421ZM43.3428 9.16372L42.6955 9.40347L42.7009 9.41821L42.7071 9.43269L43.3428 9.16372ZM44.3901 14.4953H43.6998V16.1618L44.8782 14.9834L44.3901 14.4953ZM44.4853 14.4001H43.795C43.795 16.4601 43.3716 18.4261 42.5233 20.3044L43.1524 20.5885L43.7815 20.8727C44.7104 18.8158 45.1756 16.6561 45.1756 14.4001H44.4853ZM43.1524 20.5885L42.519 20.3141C41.7347 22.1239 40.6243 23.6215 39.1878 24.8186L39.6297 25.3489L40.0716 25.8792C41.6818 24.5374 42.9198 22.8615 43.7858 20.863L43.1524 20.5885ZM39.6297 25.3489L39.1318 25.8269C40.5913 27.3473 41.7172 29.111 42.5101 31.1239L43.1524 30.8709L43.7946 30.6179C42.9373 28.4416 41.7148 26.524 40.1277 24.8708L39.6297 25.3489ZM43.1524 30.8709L42.5101 31.1239C43.3021 33.1344 43.6998 35.2697 43.6998 37.5354H44.3901H45.0804C45.0804 35.1041 44.6529 32.7965 43.7946 30.6179L43.1524 30.8709ZM44.3901 37.5354H43.6998C43.6998 39.7351 43.303 41.8045 42.5128 43.7496L43.1524 44.0094L43.7919 44.2692C44.652 42.1522 45.0804 39.9056 45.0804 37.5354H44.3901ZM43.1524 44.0094L42.506 43.7671C41.7739 45.7195 40.7402 47.4197 39.4065 48.8746L39.9153 49.341L40.4242 49.8075C41.8833 48.2158 43.0076 46.3615 43.7987 44.2518L43.1524 44.0094ZM39.9153 49.341L39.4065 48.8746C38.0686 50.3341 36.5207 51.4871 34.7597 52.3372L35.0598 52.9589L35.3599 53.5805C37.2802 52.6535 38.9694 51.3945 40.4242 49.8075L39.9153 49.341ZM35.0598 52.9589L34.7774 52.329C33.029 53.1127 31.158 53.5063 29.157 53.5063V54.1966V54.8869C31.345 54.8869 33.4093 54.4553 35.3422 53.5888L35.0598 52.9589ZM29.157 54.1966V53.5063H4.40319V54.1966V54.8869H29.157V54.1966ZM4.40319 54.1966V53.5063C3.56366 53.5063 2.84065 53.2242 2.20385 52.6404L1.73739 53.1493L1.27094 53.6581C2.15745 54.4708 3.21164 54.8869 4.40319 54.8869V54.1966ZM1.73739 53.1493L2.24625 52.6828C1.66252 52.046 1.38042 51.323 1.38042 50.4835H0.690118H-0.000180244C-0.000180244 51.675 0.415903 52.7292 1.22854 53.6157L1.73739 53.1493ZM0.690118 50.4835H1.38042C1.38042 49.5689 1.66943 48.8619 2.22551 48.3058L1.73739 47.8177L1.24928 47.3296C0.408989 48.1699 -0.000180244 49.2401 -0.000180244 50.4835H0.690118ZM1.73739 47.8177L2.20385 48.3266C2.84065 47.7428 3.56366 47.4607 4.40319 47.4607V46.7704V46.0801C3.21164 46.0801 2.15745 46.4962 1.27094 47.3089L1.73739 47.8177ZM4.40319 46.7704V47.4607H29.157V46.7704V46.0801H4.40319V46.7704ZM29.157 46.7704V47.4607C31.535 47.4607 33.5612 46.4694 35.2031 44.5539L34.679 44.1046L34.1549 43.6554C32.7501 45.2942 31.0949 46.0801 29.157 46.0801V46.7704ZM34.679 44.1046L35.2108 44.5448C36.8432 42.5722 37.6542 40.224 37.6542 37.5354H36.9639H36.2736C36.2736 39.9244 35.5613 41.9558 34.1472 43.6645L34.679 44.1046ZM36.9639 37.5354H37.6542C37.6542 34.788 36.8458 32.4334 35.2031 30.5169L34.679 30.9661L34.1549 31.4153C35.5588 33.0532 36.2736 35.0781 36.2736 37.5354H36.9639ZM34.679 30.9661L35.2031 30.5169C33.5612 28.6013 31.535 27.61 29.157 27.61V28.3003V28.9906C31.0949 28.9906 32.7501 29.7765 34.1549 31.4153L34.679 30.9661ZM29.157 28.3003V27.61H15.0664V28.3003V28.9906H29.157V28.3003ZM15.0664 28.3003V27.61C14.2268 27.61 13.5038 27.3279 12.867 26.7442L12.4006 27.253L11.9341 27.7619C12.8206 28.5745 13.8748 28.9906 15.0664 28.9906V28.3003ZM12.4006 27.253L12.9094 26.7866C12.3257 26.1498 12.0436 25.4268 12.0436 24.5872H11.3533H10.663C10.663 25.7788 11.0791 26.833 11.8917 27.7195L12.4006 27.253ZM11.3533 24.5872H12.0436C12.0436 23.6726 12.3326 22.9656 12.8887 22.4096L12.4006 21.9214L11.9124 21.4333C11.0722 22.2736 10.663 23.3438 10.663 24.5872H11.3533ZM12.4006 21.9214L12.867 22.4303C13.5038 21.8466 14.2268 21.5645 15.0664 21.5645V20.8742V20.1839C13.8748 20.1839 12.8206 20.5999 11.9341 21.4126L12.4006 21.9214ZM15.0664 20.8742V21.5645H31.7276V20.8742V20.1839H15.0664V20.8742ZM31.7276 20.8742V21.5645C33.4088 21.5645 34.8339 20.8574 35.9686 19.5099L35.4406 19.0652L34.9126 18.6206C34.0163 19.6849 32.966 20.1839 31.7276 20.1839V20.8742ZM35.4406 19.0652L35.9797 19.4965C37.1024 18.093 37.6542 16.4137 37.6542 14.4953H36.9639H36.2736C36.2736 16.1313 35.8099 17.4986 34.9016 18.634L35.4406 19.0652ZM36.9639 14.4953H37.6542C37.6542 12.5774 37.1023 10.9222 35.9686 9.57594L35.4406 10.0206L34.9126 10.4652C35.81 11.5309 36.2736 12.8588 36.2736 14.4953H36.9639ZM35.4406 10.0206L35.9686 9.57594C34.8339 8.22839 33.4088 7.52135 31.7276 7.52135V8.21165V8.90195C32.966 8.90195 34.0163 9.40087 34.9126 10.4652L35.4406 10.0206ZM31.7276 8.21165V7.52135H4.40319V8.21165V8.90195H31.7276V8.21165ZM4.40319 8.21165V7.52135C3.56366 7.52135 2.84065 7.23925 2.20385 6.65552L1.73739 7.16438L1.27094 7.67323C2.15745 8.48587 3.21164 8.90195 4.40319 8.90195V8.21165ZM1.73739 7.16438L2.24625 6.69793C1.66252 6.06112 1.38042 5.33811 1.38042 4.49858H0.690118H-0.000180244C-0.000180244 5.69013 0.415903 6.74432 1.22854 7.63083L1.73739 7.16438ZM0.690118 4.49858H1.38042C1.38042 3.58395 1.66943 2.87698 2.22551 2.32091L1.73739 1.83279L1.24928 1.34468C0.408989 2.18497 -0.000180244 3.2552 -0.000180244 4.49858H0.690118ZM1.73739 1.83279L2.22551 2.32091C2.86642 1.67999 3.58269 1.38061 4.40319 1.38061V0.690308V7.62939e-06C3.1926 7.62939e-06 2.13167 0.46228 1.24928 1.34468L1.73739 1.83279ZM4.40319 0.690308V1.38061H31.7276V0.690308V7.62939e-06H4.40319V0.690308ZM31.7276 0.690308V1.38061C33.3348 1.38061 34.8476 1.73679 36.2744 2.45021L36.5831 1.83279L36.8918 1.21537C35.272 0.405479 33.5477 7.62939e-06 31.7276 7.62939e-06V0.690308ZM36.5831 1.83279L36.3051 2.46463C37.8037 3.12404 39.0879 4.05038 40.1639 5.24599L40.677 4.78421L41.1901 4.32242C39.9812 2.97917 38.536 1.93791 36.8611 1.20095L36.5831 1.83279ZM40.677 4.78421L40.1759 5.25896C41.2481 6.39075 42.0899 7.76835 42.6955 9.40347L43.3428 9.16372L43.9901 8.92397C43.3263 7.13165 42.3909 5.58956 41.1781 4.30946L40.677 4.78421ZM43.3428 9.16372L42.7071 9.43269C43.367 10.9926 43.6998 12.6777 43.6998 14.4953H44.3901H45.0804C45.0804 12.5046 44.7149 10.6354 43.9785 8.89475L43.3428 9.16372ZM44.3901 14.4953L44.8782 14.9834L44.9734 14.8882L44.4853 14.4001L43.9972 13.912L43.902 14.0072L44.3901 14.4953ZM84.8684 50.4542L85.4339 50.0583L85.4249 50.0454L85.4153 50.033L84.8684 50.4542ZM85.3416 51.8736H84.6513V51.9049L84.6541 51.9361L85.3416 51.8736ZM85.0712 53.2931L84.4538 52.9844L84.4467 52.9984L84.4404 53.0127L85.0712 53.2931ZM84.1925 54.307L84.5754 54.8814V54.8814L84.1925 54.307ZM80.7452 53.6311L81.314 53.24L81.3032 53.2242L81.2914 53.2091L80.7452 53.6311ZM68.5782 37.8817L69.1245 37.4597L68.9173 37.1914H68.5782V37.8817ZM59.3179 37.8817V37.1914H58.6276V37.8817H59.3179ZM58.5743 53.7663L59.0624 54.2544V54.2544L58.5743 53.7663ZM54.9242 53.7663L54.4135 54.2306L54.4245 54.2428L54.4361 54.2544L54.9242 53.7663ZM54.2483 37.8817H54.9386V37.1914H54.2483V37.8817ZM54.1807 37.8817H53.4904V38.572H54.1807V37.8817ZM54.1807 16.522V15.8317H53.4904V16.522H54.1807ZM79.8664 17.4007L79.5758 18.0268L79.589 18.0329L79.6025 18.0385L79.8664 17.4007ZM83.2461 19.6989L82.7468 20.1755L82.7579 20.1871L82.7695 20.1982L83.2461 19.6989ZM85.5443 23.0786L84.9065 23.3425L84.9121 23.356L84.9182 23.3693L85.5443 23.0786ZM85.5443 31.3926L86.1705 31.6834L86.1742 31.675L85.5443 31.3926ZM83.1786 34.7048L83.6552 35.2041V35.2041L83.1786 34.7048ZM79.7313 37.0029L80.0032 37.6375L80.0136 37.6329L79.7313 37.0029ZM75.1349 37.8141V37.1238H73.732L74.5879 38.2352L75.1349 37.8141ZM79.5285 31.1223L80.0166 31.6104V31.6104L79.5285 31.1223ZM79.5285 23.349L79.0301 23.8266L79.0403 23.8372L79.0509 23.8473L79.5285 23.349ZM59.3855 21.7267V21.0364H58.6952V21.7267H59.3855ZM59.3855 32.6769H58.6952V33.3672H59.3855V32.6769ZM84.8684 50.4542L84.3029 50.85C84.5464 51.1979 84.6513 51.535 84.6513 51.8736H85.3416H86.0319C86.0319 51.2209 85.8213 50.6117 85.4339 50.0583L84.8684 50.4542ZM85.3416 51.8736L84.6541 51.9361C84.6874 52.3023 84.6224 52.6471 84.4538 52.9844L85.0712 53.2931L85.6886 53.6018C85.9706 53.0379 86.0859 52.4363 86.029 51.8111L85.3416 51.8736ZM85.0712 53.2931L84.4404 53.0127C84.3184 53.2872 84.1174 53.5274 83.8096 53.7327L84.1925 54.307L84.5754 54.8814C85.0787 54.5459 85.4635 54.1101 85.702 53.5735L85.0712 53.2931ZM84.1925 54.307L83.8096 53.7327C83.5296 53.9193 83.1929 54.0223 82.773 54.0223V54.7126V55.4029C83.4345 55.4029 84.0442 55.2355 84.5754 54.8814L84.1925 54.307ZM82.773 54.7126V54.0223C82.15 54.0223 81.6843 53.7786 81.314 53.24L80.7452 53.6311L80.1763 54.0221C80.7974 54.9256 81.6836 55.4029 82.773 55.4029V54.7126ZM80.7452 53.6311L81.2914 53.2091L69.1245 37.4597L68.5782 37.8817L68.032 38.3037L80.1989 54.0531L80.7452 53.6311ZM68.5782 37.8817V37.1914H59.3179V37.8817V38.572H68.5782V37.8817ZM59.3179 37.8817H58.6276V52.0088H59.3179H60.0082V37.8817H59.3179ZM59.3179 52.0088H58.6276C58.6276 52.4942 58.4578 52.9066 58.0862 53.2782L58.5743 53.7663L59.0624 54.2544C59.6822 53.6346 60.0082 52.8753 60.0082 52.0088H59.3179ZM58.5743 53.7663L58.0862 53.2782C57.7241 53.6403 57.2931 53.8195 56.7493 53.8195V54.5098V55.2001C57.6475 55.2001 58.4332 54.8836 59.0624 54.2544L58.5743 53.7663ZM56.7493 54.5098V53.8195C56.2055 53.8195 55.7745 53.6403 55.4124 53.2782L54.9242 53.7663L54.4361 54.2544C55.0654 54.8836 55.851 55.2001 56.7493 55.2001V54.5098ZM54.9242 53.7663L55.435 53.3019C55.1011 52.9346 54.9386 52.5148 54.9386 52.0088H54.2483H53.558C53.558 52.8548 53.8462 53.6066 54.4135 54.2306L54.9242 53.7663ZM54.2483 52.0088H54.9386V37.8817H54.2483H53.558V52.0088H54.2483ZM54.2483 37.8817V37.1914H54.1807V37.8817V38.572H54.2483V37.8817ZM54.1807 37.8817H54.871V16.522H54.1807H53.4904V37.8817H54.1807ZM54.1807 16.522V17.2123H75.7432V16.522V15.8317H54.1807V16.522ZM75.7432 16.522V17.2123C77.1369 17.2123 78.4113 17.4861 79.5758 18.0268L79.8664 17.4007L80.1571 16.7746C78.7981 16.1436 77.3236 15.8317 75.7432 15.8317V16.522ZM79.8664 17.4007L79.6025 18.0385C80.8234 18.5437 81.869 19.2559 82.7468 20.1755L83.2461 19.6989L83.7455 19.2222C82.7306 18.1591 81.5231 17.3391 80.1304 16.7628L79.8664 17.4007ZM83.2461 19.6989L82.7695 20.1982C83.6891 21.076 84.4013 22.1216 84.9065 23.3425L85.5443 23.0786L86.1822 22.8146C85.6059 21.4219 84.7859 20.2144 83.7228 19.1995L83.2461 19.6989ZM85.5443 23.0786L84.9182 23.3693C85.4589 24.5338 85.7328 25.8081 85.7328 27.2018H86.4231H87.1134C87.1134 25.6214 86.8014 24.1469 86.1705 22.7879L85.5443 23.0786ZM86.4231 27.2018H85.7328C85.7328 28.5954 85.4589 29.8957 84.9144 31.1103L85.5443 31.3926L86.1742 31.675C86.8014 30.276 87.1134 28.7824 87.1134 27.2018H86.4231ZM85.5443 31.3926L84.9182 31.1019C84.3682 32.2866 83.6299 33.3196 82.7019 34.2054L83.1786 34.7048L83.6552 35.2041C84.7099 34.1973 85.5489 33.0222 86.1705 31.6833L85.5443 31.3926ZM83.1786 34.7048L82.7019 34.2054C81.7699 35.0951 80.6872 35.8179 79.4489 36.373L79.7313 37.0029L80.0136 37.6329C81.3889 37.0163 82.6044 36.2071 83.6552 35.2041L83.1786 34.7048ZM79.7313 37.0029L79.4593 36.3685C78.2905 36.8694 77.0095 37.1238 75.608 37.1238V37.8141V38.5044C77.1807 38.5044 78.6486 38.218 80.0032 37.6374L79.7313 37.0029ZM75.608 37.8141V37.1238H75.1349V37.8141V38.5044H75.608V37.8141ZM75.1349 37.8141L74.5879 38.2352L84.3215 50.8753L84.8684 50.4542L85.4153 50.033L75.6818 37.3929L75.1349 37.8141ZM75.6756 32.6769V33.3672C77.3816 33.3672 78.8443 32.7827 80.0166 31.6104L79.5285 31.1223L79.0404 30.6342C78.1398 31.5347 77.0339 31.9866 75.6756 31.9866V32.6769ZM79.5285 31.1223L80.0166 31.6104C81.2278 30.3992 81.841 28.9167 81.841 27.2018H81.1507H80.4604C80.4604 28.5512 79.9922 29.6824 79.0404 30.6342L79.5285 31.1223ZM81.1507 27.2018H81.841C81.841 25.4864 81.2269 24.0205 80.0061 22.8506L79.5285 23.349L79.0509 23.8473C79.993 24.7503 80.4604 25.853 80.4604 27.2018H81.1507ZM79.5285 23.349L80.0269 22.8713C78.8569 21.6505 77.3911 21.0364 75.6756 21.0364V21.7267V22.417C77.0244 22.417 78.1272 22.8844 79.0301 23.8266L79.5285 23.349ZM75.6756 21.7267V21.0364H59.3855V21.7267V22.417H75.6756V21.7267ZM59.3855 21.7267H58.6952V32.6769H59.3855H60.0758V21.7267H59.3855ZM59.3855 32.6769V33.3672H75.6756V32.6769V31.9866H59.3855V32.6769ZM120.496 17.7386L120.229 18.3752L120.238 18.3789L120.247 18.3824L120.496 17.7386ZM124.146 20.0368L123.669 20.5357L123.674 20.5407L123.679 20.5457L124.146 20.0368ZM126.647 23.4841L126.017 23.7665L126.021 23.7754L126.025 23.7842L126.647 23.4841ZM126.647 47.9532L126.025 47.6531L126.021 47.6619L126.017 47.6708L126.647 47.9532ZM124.146 51.4005L124.611 51.9102L124.612 51.9093L124.146 51.4005ZM120.496 53.6987L120.745 54.3424L120.754 54.339L120.763 54.3353L120.496 53.6987ZM93.3229 54.5098H92.6326V55.2001H93.3229V54.5098ZM93.3229 16.8599V16.1696H92.6326V16.8599H93.3229ZM121.78 25.5796L121.154 25.8715L121.162 25.8882L121.171 25.9044L121.78 25.5796ZM120.428 23.8221L119.982 24.3491V24.3491L120.428 23.8221ZM118.333 22.673L118.07 23.3113L118.092 23.3204L118.114 23.3279L118.333 22.673ZM98.5953 22.1999V21.5096H97.905V22.1999H98.5953ZM98.5953 49.3051H97.905V49.9954H98.5953V49.3051ZM118.333 48.8995L118.562 49.5504L118.573 49.5468L118.583 49.5429L118.333 48.8995ZM120.428 47.6828L120.874 48.2098V48.2098L120.428 47.6828ZM121.78 45.9254L121.171 45.6005L121.162 45.6168L121.154 45.6334L121.78 45.9254ZM115.967 16.8599V17.5502C117.504 17.5502 118.922 17.8273 120.229 18.3752L120.496 17.7386L120.763 17.1021C119.275 16.4783 117.674 16.1696 115.967 16.1696V16.8599ZM120.496 17.7386L120.247 18.3824C121.563 18.8918 122.701 19.6099 123.669 20.5357L124.146 20.0368L124.623 19.538C123.518 18.481 122.223 17.667 120.745 17.0949L120.496 17.7386ZM124.146 20.0368L123.679 20.5457C124.693 21.4751 125.471 22.5477 126.017 23.7665L126.647 23.4841L127.277 23.2018C126.651 21.807 125.761 20.5813 124.612 19.528L124.146 20.0368ZM126.647 23.4841L126.025 23.7842C126.61 24.9951 126.903 26.2892 126.903 27.675H127.593H128.283C128.283 26.0866 127.946 24.5868 127.268 23.184L126.647 23.4841ZM127.593 27.675H126.903V43.7623H127.593H128.283V27.675H127.593ZM127.593 43.7623H126.903C126.903 45.1481 126.61 46.4422 126.025 47.6531L126.647 47.9532L127.268 48.2533C127.946 46.8505 128.283 45.3507 128.283 43.7623H127.593ZM126.647 47.9532L126.017 47.6708C125.471 48.8897 124.693 49.9622 123.679 50.8916L124.146 51.4005L124.612 51.9093C125.761 50.856 126.651 49.6303 127.277 48.2355L126.647 47.9532ZM124.146 51.4005L123.68 50.8907C122.707 51.7796 121.559 52.5044 120.229 53.0621L120.496 53.6987L120.763 54.3353C122.227 53.7213 123.512 52.914 124.611 51.9102L124.146 51.4005ZM120.496 53.6987L120.247 53.0549C118.935 53.5624 117.511 53.8195 115.967 53.8195V54.5098V55.2001C117.667 55.2001 119.262 54.9164 120.745 54.3424L120.496 53.6987ZM115.967 54.5098V53.8195H93.3229V54.5098V55.2001H115.967V54.5098ZM93.3229 54.5098H94.0132V16.8599H93.3229H92.6326V54.5098H93.3229ZM93.3229 16.8599V17.5502H115.967V16.8599V16.1696H93.3229V16.8599ZM122.321 27.675H123.011C123.011 26.8336 122.799 26.0242 122.389 25.2547L121.78 25.5796L121.171 25.9044C121.482 26.4868 121.63 27.0743 121.63 27.675H122.321ZM121.78 25.5796L122.406 25.2876C122.047 24.5186 121.534 23.8534 120.874 23.2951L120.428 23.8221L119.982 24.3491C120.494 24.7822 120.882 25.2886 121.154 25.8715L121.78 25.5796ZM120.428 23.8221L120.874 23.2951C120.214 22.7366 119.436 22.3131 118.551 22.0181L118.333 22.673L118.114 23.3279C118.852 23.5737 119.471 23.9162 119.982 24.3491L120.428 23.8221ZM118.333 22.673L118.596 22.0347C117.743 21.6838 116.843 21.5096 115.899 21.5096V22.1999V22.8902C116.668 22.8902 117.39 23.0314 118.07 23.3113L118.333 22.673ZM115.899 22.1999V21.5096H98.5953V22.1999V22.8902H115.899V22.1999ZM98.5953 22.1999H97.905V49.3051H98.5953H99.2856V22.1999H98.5953ZM98.5953 49.3051V49.9954H115.899V49.3051V48.6148H98.5953V49.3051ZM115.899 49.3051V49.9954C116.83 49.9954 117.719 49.8482 118.562 49.5504L118.333 48.8995L118.103 48.2486C117.415 48.4915 116.682 48.6148 115.899 48.6148V49.3051ZM118.333 48.8995L118.583 49.5429C119.456 49.2034 120.223 48.761 120.874 48.2098L120.428 47.6828L119.982 47.1558C119.462 47.596 118.832 47.9647 118.083 48.2561L118.333 48.8995ZM120.428 47.6828L120.874 48.2098C121.534 47.6515 122.047 46.9863 122.406 46.2173L121.78 45.9254L121.154 45.6334C120.882 46.2163 120.494 46.7227 119.982 47.1558L120.428 47.6828ZM121.78 45.9254L122.389 46.2502C122.803 45.4743 123.011 44.6417 123.011 43.7623H122.321H121.63C121.63 44.4151 121.478 45.0245 121.171 45.6005L121.78 45.9254ZM122.321 43.7623H123.011V27.675H122.321H121.63V43.7623H122.321ZM201.687 2.30883L201.396 2.93493L201.409 2.94109L201.423 2.94667L201.687 2.30883ZM206.447 5.45065L206.935 4.96254L206.447 5.45065ZM209.589 10.211L208.951 10.475L208.954 10.4829L209.589 10.211ZM209.494 21.8262L210.12 22.117L210.123 22.1086L209.494 21.8262ZM206.161 26.4914L205.685 25.992L205.679 25.9976L205.673 26.0033L206.161 26.4914ZM201.401 29.6332L201.137 28.9953L201.129 28.9987L201.401 29.6332ZM172.934 30.7757V30.0854H172.244V30.7757H172.934ZM171.792 53.4349L171.325 52.9261L171.314 52.9362L171.304 52.9468L171.792 53.4349ZM166.46 53.4349L165.972 53.923L165.983 53.9336L165.994 53.9438L166.46 53.4349ZM165.413 1.07114V0.380836H164.722V1.07114H165.413ZM195.879 23.9208H195.189V24.6111H195.879V23.9208ZM201.496 21.6358L201.984 22.124L201.994 22.1139L201.496 21.6358ZM201.496 10.4014L200.998 10.8796L201.008 10.8895L201.496 10.4014ZM172.934 8.02124V7.33094H172.244V8.02124H172.934ZM172.934 23.8256H172.244V24.5159H172.934V23.8256ZM195.879 23.8256H196.569V23.1353H195.879V23.8256ZM195.879 1.07114V1.76144C197.88 1.76144 199.716 2.15496 201.396 2.93493L201.687 2.30883L201.977 1.68272C200.103 0.812435 198.067 0.380836 195.879 0.380836V1.07114ZM201.687 2.30883L201.423 2.94667C203.184 3.67564 204.694 4.67363 205.959 5.93877L206.447 5.45065L206.935 4.96254C205.534 3.56189 203.87 2.46533 201.951 1.67098L201.687 2.30883ZM206.447 5.45065L205.959 5.93877C207.224 7.20391 208.222 8.71328 208.951 10.4749L209.589 10.211L210.227 9.94706C209.432 8.02739 208.336 6.36319 206.935 4.96254L206.447 5.45065ZM209.589 10.211L208.954 10.4829C209.677 12.1699 210.041 13.981 210.041 15.9234H210.731H211.422C211.422 13.8036 211.024 11.8065 210.223 9.93907L209.589 10.211ZM210.731 15.9234H210.041C210.041 17.9245 209.647 19.7954 208.864 21.5439L209.494 21.8262L210.123 22.1086C210.99 20.1757 211.422 18.1115 211.422 15.9234H210.731ZM209.494 21.8262L208.867 21.5355C208.078 23.2357 207.018 24.7196 205.685 25.992L206.161 26.4914L206.638 26.9907C208.098 25.5973 209.259 23.9712 210.12 22.1169L209.494 21.8262ZM206.161 26.4914L205.673 26.0033C204.408 27.2684 202.899 28.2664 201.137 28.9953L201.401 29.6332L201.665 30.271C203.585 29.4767 205.249 28.3801 206.649 26.9795L206.161 26.4914ZM201.401 29.6332L201.129 28.9987C199.442 29.7217 197.631 30.0854 195.689 30.0854V30.7757V31.466C197.808 31.466 199.805 31.068 201.673 30.2677L201.401 29.6332ZM195.689 30.7757V30.0854H172.934V30.7757V31.466H195.689V30.7757ZM172.934 30.7757H172.244V50.7691H172.934H173.624V30.7757H172.934ZM172.934 50.7691H172.244C172.244 51.6643 171.937 52.365 171.325 52.9261L171.792 53.4349L172.258 53.9438C173.169 53.1084 173.624 52.0319 173.624 50.7691H172.934ZM171.792 53.4349L171.304 52.9468C170.747 53.5029 170.04 53.7919 169.126 53.7919V54.4822V55.1725C170.369 55.1725 171.439 54.7633 172.28 53.923L171.792 53.4349ZM169.126 54.4822V53.7919C168.286 53.7919 167.563 53.5098 166.927 52.9261L166.46 53.4349L165.994 53.9438C166.88 54.7564 167.934 55.1725 169.126 55.1725V54.4822ZM166.46 53.4349L166.948 52.9468C166.392 52.3907 166.103 51.6838 166.103 50.7691H165.413H164.722C164.722 52.0125 165.132 53.0827 165.972 53.923L166.46 53.4349ZM165.413 50.7691H166.103V1.07114H165.413H164.722V50.7691H165.413ZM165.413 1.07114V1.76144H165.698V1.07114V0.380836H165.413V1.07114ZM165.698 1.07114V1.76144H195.784V1.07114V0.380836H165.698V1.07114ZM195.784 1.07114V1.76144H195.879V1.07114V0.380836H195.784V1.07114ZM195.879 23.9208V24.6111C198.277 24.6111 200.327 23.7811 201.984 22.1239L201.496 21.6358L201.008 21.1477C199.619 22.5371 197.924 23.2305 195.879 23.2305V23.9208ZM201.496 21.6358L201.994 22.1139C203.642 20.3971 204.471 18.3211 204.471 15.9234H203.781H203.091C203.091 17.9687 202.397 19.701 200.998 21.1578L201.496 21.6358ZM203.781 15.9234H204.471C204.471 13.5827 203.637 11.5663 201.984 9.9133L201.496 10.4014L201.008 10.8895C202.402 12.2831 203.091 13.9481 203.091 15.9234H203.781ZM201.496 10.4014L201.994 9.92336C200.339 8.19946 198.286 7.33094 195.879 7.33094V8.02124V8.71154C197.915 8.71154 199.607 9.42979 200.998 10.8795L201.496 10.4014ZM195.879 8.02124V7.33094H172.934V8.02124V8.71154H195.879V8.02124ZM172.934 8.02124H172.244V23.8256H172.934H173.624V8.02124H172.934ZM172.934 23.8256V24.5159H195.879V23.8256V23.1353H172.934V23.8256ZM195.879 23.8256H195.189V23.9208H195.879H196.569V23.8256H195.879ZM262.753 48.7698L263.318 48.3739L263.309 48.3611L263.3 48.3486L262.753 48.7698ZM263.419 50.7691H262.729V50.8004L262.732 50.8316L263.419 50.7691ZM263.038 52.7685L262.421 52.4598L262.414 52.4738L262.408 52.4881L263.038 52.7685ZM261.801 54.1966L262.184 54.7709V54.7709L261.801 54.1966ZM256.945 53.2445L257.514 52.8534L257.503 52.8376L257.492 52.8225L256.945 53.2445ZM239.808 31.0613L240.354 30.6393L240.147 30.371H239.808V31.0613ZM226.765 31.0613V30.371H226.074V31.0613H226.765ZM225.717 53.4349L226.206 53.923V53.923L225.717 53.4349ZM220.576 53.4349L220.065 53.8993L220.076 53.9114L220.088 53.923L220.576 53.4349ZM219.624 31.0613H220.314V30.371H219.624V31.0613ZM219.529 31.0613H218.839V31.7516H219.529V31.0613ZM219.529 0.975929V0.285633H218.839V0.975929H219.529ZM255.708 2.21362L255.417 2.83973L255.43 2.84588L255.444 2.85147L255.708 2.21362ZM260.468 5.45065L259.969 5.92728L259.98 5.9389L259.991 5.94998L260.468 5.45065ZM263.705 10.211L263.067 10.4749L263.073 10.4884L263.079 10.5017L263.705 10.211ZM263.705 21.9214L264.331 22.2122L264.335 22.2038L263.705 21.9214ZM260.373 26.5866L260.849 27.0859V27.0859L260.373 26.5866ZM255.517 29.8236L255.789 30.4582L255.799 30.4535L255.517 29.8236ZM249.043 30.9661V30.2758H247.64L248.496 31.3873L249.043 30.9661ZM255.232 21.5406L255.72 22.0287V22.0287L255.232 21.5406ZM255.232 10.5918L254.733 11.0694L254.743 11.08L254.754 11.0902L255.232 10.5918ZM226.86 8.30686V7.61656H226.17V8.30686H226.86ZM226.86 23.7304H226.17V24.4207H226.86V23.7304ZM262.753 48.7698L262.187 49.1656C262.56 49.6976 262.729 50.228 262.729 50.7691H263.419H264.11C264.11 49.9139 263.835 49.1114 263.318 48.3739L262.753 48.7698ZM263.419 50.7691L262.732 50.8316C262.784 51.4003 262.682 51.9384 262.421 52.4598L263.038 52.7685L263.656 53.0772C264.03 52.3291 264.182 51.5343 264.107 50.7066L263.419 50.7691ZM263.038 52.7685L262.408 52.4881C262.212 52.9282 261.891 53.3065 261.418 53.6222L261.801 54.1966L262.184 54.7709C262.853 54.325 263.357 53.7512 263.669 53.0488L263.038 52.7685ZM261.801 54.1966L261.418 53.6222C260.972 53.9193 260.442 54.0775 259.801 54.0775V54.7678V55.4581C260.684 55.4581 261.487 55.2355 262.184 54.7709L261.801 54.1966ZM259.801 54.7678V54.0775C258.829 54.0775 258.087 53.6866 257.514 52.8534L256.945 53.2445L256.376 53.6356C257.2 54.8335 258.362 55.4581 259.801 55.4581V54.7678ZM256.945 53.2445L257.492 52.8225L240.354 30.6393L239.808 31.0613L239.262 31.4833L256.399 53.6665L256.945 53.2445ZM239.808 31.0613V30.371H226.765V31.0613V31.7516H239.808V31.0613ZM226.765 31.0613H226.074V50.9595H226.765H227.455V31.0613H226.765ZM226.765 50.9595H226.074C226.074 51.7211 225.803 52.3727 225.229 52.9468L225.717 53.4349L226.206 53.923C227.028 53.1007 227.455 52.1021 227.455 50.9595H226.765ZM225.717 53.4349L225.229 52.9468C224.665 53.5115 223.985 53.7919 223.147 53.7919V54.4822V55.1725C224.34 55.1725 225.374 54.7547 226.206 53.923L225.717 53.4349ZM223.147 54.4822V53.7919C222.309 53.7919 221.629 53.5115 221.064 52.9468L220.576 53.4349L220.088 53.923C220.92 54.7547 221.954 55.1725 223.147 55.1725V54.4822ZM220.576 53.4349L221.087 52.9706C220.569 52.4007 220.314 51.7416 220.314 50.9595H219.624H218.934C218.934 52.0816 219.314 53.0727 220.065 53.8993L220.576 53.4349ZM219.624 50.9595H220.314V31.0613H219.624H218.934V50.9595H219.624ZM219.624 31.0613V30.371H219.529V31.0613V31.7516H219.624V31.0613ZM219.529 31.0613H220.219V0.975929H219.529H218.839V31.0613H219.529ZM219.529 0.975929V1.66623H249.9V0.975929V0.285633H219.529V0.975929ZM249.9 0.975929V1.66623C251.901 1.66623 253.737 2.05976 255.417 2.83973L255.708 2.21362L255.998 1.58751C254.124 0.717228 252.088 0.285633 249.9 0.285633V0.975929ZM255.708 2.21362L255.444 2.85147C257.198 3.57756 258.704 4.6027 259.969 5.92728L260.468 5.45065L260.967 4.97402C259.566 3.50587 257.898 2.37298 255.971 1.57577L255.708 2.21362ZM260.468 5.45065L259.991 5.94998C261.316 7.21436 262.341 8.7202 263.067 10.4749L263.705 10.211L264.343 9.94706C263.546 8.02047 262.413 6.35274 260.945 4.95132L260.468 5.45065ZM263.705 10.211L263.079 10.5017C263.859 12.1816 264.252 14.0174 264.252 16.0186H264.943H265.633C265.633 13.8307 265.201 11.7948 264.331 9.9203L263.705 10.211ZM264.943 16.0186H264.252C264.252 18.0197 263.859 19.8906 263.075 21.6391L263.705 21.9214L264.335 22.2038C265.201 20.2709 265.633 18.2067 265.633 16.0186H264.943ZM263.705 21.9214L263.079 21.6307C262.289 23.3309 261.229 24.8148 259.896 26.0872L260.373 26.5866L260.849 27.0859C262.309 25.6925 263.47 24.0664 264.331 22.2121L263.705 21.9214ZM260.373 26.5866L259.896 26.0872C258.559 27.3635 257.007 28.3993 255.235 29.1937L255.517 29.8236L255.799 30.4535C257.709 29.5977 259.394 28.4755 260.849 27.0859L260.373 26.5866ZM255.517 29.8236L255.245 29.1891C253.561 29.911 251.718 30.2758 249.71 30.2758V30.9661V31.6564C251.89 31.6564 253.919 31.2596 255.789 30.4581L255.517 29.8236ZM249.71 30.9661V30.2758H249.043V30.9661V31.6564H249.71V30.9661ZM249.043 30.9661L248.496 31.3873L262.206 49.1909L262.753 48.7698L263.3 48.3486L249.59 30.5449L249.043 30.9661ZM249.805 23.7304V24.4207C252.137 24.4207 254.124 23.6244 255.72 22.0287L255.232 21.5406L254.743 21.0525C253.419 22.3765 251.789 23.0401 249.805 23.0401V23.7304ZM255.232 21.5406L255.72 22.0287C257.373 20.3757 258.207 18.3594 258.207 16.0186H257.516H256.826C256.826 17.9939 256.137 19.6589 254.743 21.0525L255.232 21.5406ZM257.516 16.0186H258.207C258.207 13.6773 257.372 11.6868 255.709 10.0934L255.232 10.5918L254.754 11.0902C256.138 12.4165 256.826 14.0439 256.826 16.0186H257.516ZM255.232 10.5918L255.73 10.1142C254.137 8.45158 252.146 7.61656 249.805 7.61656V8.30686V8.99716C251.779 8.99716 253.407 9.68545 254.733 11.0694L255.232 10.5918ZM249.805 8.30686V7.61656H226.86V8.30686V8.99716H249.805V8.30686ZM226.86 8.30686H226.17V23.7304H226.86H227.55V8.30686H226.86ZM226.86 23.7304V24.4207H249.805V23.7304V23.0401H226.86V23.7304ZM280.945 2.49924L280.457 2.98735L280.467 2.99796L280.478 3.00809L280.945 2.49924ZM280.945 53.4349L280.478 52.9261L280.467 52.9362L280.457 52.9468L280.945 53.4349ZM275.613 53.4349L275.125 53.923L275.136 53.9336L275.147 53.9438L275.613 53.4349ZM275.613 2.49924L275.147 1.99038L275.136 2.00051L275.125 2.01112L275.613 2.49924ZM278.279 1.45197V2.14226C279.194 2.14226 279.901 2.43128 280.457 2.98735L280.945 2.49924L281.433 2.01112C280.593 1.17083 279.522 0.761665 278.279 0.761665V1.45197ZM280.945 2.49924L280.478 3.00809C281.09 3.56912 281.397 4.26983 281.397 5.16503H282.087H282.778C282.778 3.90221 282.323 2.82573 281.411 1.99038L280.945 2.49924ZM282.087 5.16503H281.397V50.7691H282.087H282.778V5.16503H282.087ZM282.087 50.7691H281.397C281.397 51.6643 281.09 52.365 280.478 52.9261L280.945 53.4349L281.411 53.9438C282.323 53.1084 282.778 52.0319 282.778 50.7691H282.087ZM280.945 53.4349L280.457 52.9468C279.901 53.5029 279.194 53.7919 278.279 53.7919V54.4822V55.1725C279.522 55.1725 280.593 54.7633 281.433 53.923L280.945 53.4349ZM278.279 54.4822V53.7919C277.439 53.7919 276.716 53.5098 276.08 52.9261L275.613 53.4349L275.147 53.9438C276.033 54.7564 277.087 55.1725 278.279 55.1725V54.4822ZM275.613 53.4349L276.101 52.9468C275.545 52.3907 275.256 51.6838 275.256 50.7691H274.566H273.876C273.876 52.0125 274.285 53.0827 275.125 53.923L275.613 53.4349ZM274.566 50.7691H275.256V5.16503H274.566H273.876V50.7691H274.566ZM274.566 5.16503H275.256C275.256 4.2504 275.545 3.54343 276.101 2.98735L275.613 2.49924L275.125 2.01112C274.285 2.85141 273.876 3.92164 273.876 5.16503H274.566ZM275.613 2.49924L276.08 3.00809C276.716 2.42436 277.439 2.14226 278.279 2.14226V1.45197V0.761665C277.087 0.761665 276.033 1.17775 275.147 1.99038L275.613 2.49924ZM341.028 9.83017L341.498 10.3356L341.718 10.1308V9.83017H341.028ZM301.422 46.6752L300.952 46.1698L299.666 47.3655H301.422V46.6752ZM339.124 47.7225L338.636 48.2106V48.2106L339.124 47.7225ZM339.124 53.0541L338.636 52.566V52.566L339.124 53.0541ZM290.949 54.1014H290.259V54.7917H290.949V54.1014ZM290.949 46.1992L290.478 45.6941L290.259 45.8988V46.1992H290.949ZM331.317 8.59248L331.787 9.09756L333.07 7.90218H331.317V8.59248ZM291.996 7.5452L291.487 8.01165L291.508 8.03378L291.53 8.05406L291.996 7.5452ZM291.996 2.21362L292.484 2.70174V2.70174L291.996 2.21362ZM341.028 1.07114H341.718V0.380836H341.028V1.07114ZM341.028 9.83017L340.558 9.32475L300.952 46.1698L301.422 46.6752L301.892 47.1806L341.498 10.3356L341.028 9.83017ZM301.422 46.6752V47.3655H336.458V46.6752V45.9849H301.422V46.6752ZM336.458 46.6752V47.3655C337.372 47.3655 338.079 47.6545 338.636 48.2106L339.124 47.7225L339.612 47.2344C338.771 46.3941 337.701 45.9849 336.458 45.9849V46.6752ZM339.124 47.7225L338.636 48.2106C339.192 48.7667 339.481 49.4737 339.481 50.3883H340.171H340.861C340.861 49.1449 340.452 48.0747 339.612 47.2344L339.124 47.7225ZM340.171 50.3883H339.481C339.481 51.3029 339.192 52.0099 338.636 52.566L339.124 53.0541L339.612 53.5422C340.452 52.7019 340.861 51.6317 340.861 50.3883H340.171ZM339.124 53.0541L338.636 52.566C338.079 53.122 337.372 53.4111 336.458 53.4111V54.1014V54.7917C337.701 54.7917 338.771 54.3825 339.612 53.5422L339.124 53.0541ZM336.458 54.1014V53.4111H290.949V54.1014V54.7917H336.458V54.1014ZM290.949 54.1014H291.639V46.1992H290.949H290.259V54.1014H290.949ZM290.949 46.1992L291.42 46.7043L331.787 9.09756L331.317 8.59248L330.846 8.0874L290.478 45.6941L290.949 46.1992ZM331.317 8.59248V7.90218H294.757V8.59248V9.28278H331.317V8.59248ZM294.757 8.59248V7.90218C293.843 7.90218 293.091 7.61227 292.463 7.03635L291.996 7.5452L291.53 8.05406C292.425 8.87451 293.514 9.28278 294.757 9.28278V8.59248ZM291.996 7.5452L292.505 7.07875C291.921 6.44195 291.639 5.71894 291.639 4.87941H290.949H290.259C290.259 6.07096 290.675 7.12514 291.487 8.01165L291.996 7.5452ZM290.949 4.87941H291.639C291.639 3.96478 291.928 3.25781 292.484 2.70174L291.996 2.21362L291.508 1.72551C290.668 2.5658 290.259 3.63602 290.259 4.87941H290.949ZM291.996 2.21362L292.484 2.70174C293.116 2.06979 293.861 1.76144 294.757 1.76144V1.07114V0.380836C293.496 0.380836 292.4 0.834141 291.508 1.72551L291.996 2.21362ZM294.757 1.07114V1.76144H341.028V1.07114V0.380836H294.757V1.07114ZM341.028 1.07114H340.337V9.83017H341.028H341.718V1.07114H341.028ZM355.606 31.7277V31.0374H354.916V31.7277H355.606ZM356.273 41.8197L355.634 42.0825L355.641 42.0982L355.648 42.1136L356.273 41.8197ZM358.272 44.6759L357.784 45.164L357.794 45.1738L357.804 45.1831L358.272 44.6759ZM361.128 46.4848L360.865 47.1231V47.1231L361.128 46.4848ZM395.688 48.1985L395.2 48.6866L395.211 48.6973L395.222 48.7074L395.688 48.1985ZM395.688 53.5301L396.177 54.0182V54.0182L395.688 53.5301ZM358.177 53.3397L357.893 53.9688L357.905 53.9743L357.917 53.9792L358.177 53.3397ZM353.036 49.817L352.548 50.3052V50.3052L353.036 49.817ZM349.513 44.6759L348.876 44.9428L348.88 44.9515L348.884 44.96L349.513 44.6759ZM349.513 11.3535L348.884 11.0693L348.88 11.079L349.513 11.3535ZM358.177 2.78486L358.444 3.42152L358.454 3.41728L358.177 2.78486ZM395.688 2.49924L395.2 2.98735L395.211 2.99796L395.222 3.00809L395.688 2.49924ZM395.688 7.83082L396.177 8.31894V8.31894L395.688 7.83082ZM358.272 11.4487L358.74 11.9559L358.75 11.9466L358.76 11.9368L358.272 11.4487ZM356.273 14.2097L355.648 13.9158L355.644 13.9243L355.64 13.933L356.273 14.2097ZM355.606 24.3016H354.916V24.9919H355.606V24.3016ZM395.688 25.3489L395.2 25.837L395.211 25.8476L395.222 25.8577L395.688 25.3489ZM395.688 30.6805L396.177 31.1686V31.1686L395.688 30.6805ZM355.606 31.7277H354.916V38.3922H355.606H356.297V31.7277H355.606ZM355.606 38.3922H354.916C354.916 39.6853 355.155 40.9173 355.634 42.0825L356.273 41.8197L356.911 41.5568C356.502 40.564 356.297 39.5111 356.297 38.3922H355.606ZM356.273 41.8197L355.648 42.1136C356.189 43.2631 356.901 44.2813 357.784 45.164L358.272 44.6759L358.76 44.1878C357.993 43.4202 357.372 42.5342 356.897 41.5257L356.273 41.8197ZM358.272 44.6759L357.804 45.1831C358.691 46.0025 359.714 46.6489 360.865 47.1231L361.128 46.4848L361.391 45.8465C360.385 45.4321 359.503 44.8726 358.74 44.1686L358.272 44.6759ZM361.128 46.4848L360.865 47.1231C362.035 47.6047 363.299 47.8416 364.651 47.8416V47.1513V46.461C363.464 46.461 362.38 46.2536 361.391 45.8465L361.128 46.4848ZM364.651 47.1513V47.8416H393.118V47.1513V46.461H364.651V47.1513ZM393.118 47.1513V47.8416C393.956 47.8416 394.636 48.122 395.2 48.6866L395.688 48.1985L396.177 47.7104C395.345 46.8787 394.311 46.461 393.118 46.461V47.1513ZM395.688 48.1985L395.222 48.7074C395.834 49.2684 396.141 49.9691 396.141 50.8643H396.831H397.521C397.521 49.6015 397.066 48.525 396.155 47.6897L395.688 48.1985ZM396.831 50.8643H396.141C396.141 51.6848 395.841 52.4011 395.2 53.042L395.688 53.5301L396.177 54.0182C397.059 53.1358 397.521 52.0749 397.521 50.8643H396.831ZM395.688 53.5301L395.2 53.042C394.636 53.6067 393.956 53.8871 393.118 53.8871V54.5774V55.2677C394.311 55.2677 395.345 54.8499 396.177 54.0182L395.688 53.5301ZM393.118 54.5774V53.8871H364.651V54.5774V55.2677H393.118V54.5774ZM364.651 54.5774V53.8871C362.451 53.8871 360.382 53.4904 358.437 52.7002L358.177 53.3397L357.917 53.9792C360.034 54.8393 362.281 55.2677 364.651 55.2677V54.5774ZM358.177 53.3397L358.461 52.7106C356.566 51.8547 354.922 50.7272 353.524 49.3289L353.036 49.817L352.548 50.3052C354.069 51.8266 355.853 53.0475 357.893 53.9688L358.177 53.3397ZM353.036 49.817L353.524 49.3289C352.126 47.9307 350.998 46.2869 350.142 44.3918L349.513 44.6759L348.884 44.96C349.805 47 351.026 48.7837 352.548 50.3052L353.036 49.817ZM349.513 44.6759L350.15 44.4089C349.361 42.5293 348.966 40.5259 348.966 38.3922H348.275H347.585C347.585 40.7015 348.014 42.8872 348.876 44.9428L349.513 44.6759ZM348.275 38.3922H348.966V17.5419H348.275H347.585V38.3922H348.275ZM348.275 17.5419H348.966C348.966 15.4081 349.361 13.4395 350.146 11.6279L349.513 11.3535L348.88 11.079C348.014 13.0758 347.585 15.2328 347.585 17.5419H348.275ZM349.513 11.3535L350.142 11.6376C350.998 9.74242 352.126 8.09866 353.524 6.70042L353.036 6.21231L352.548 5.72419C351.026 7.24563 349.805 9.02932 348.884 11.0694L349.513 11.3535ZM353.036 6.21231L353.524 6.70042C354.918 5.3061 356.556 4.2131 358.444 3.42145L358.177 2.78486L357.91 2.14827C355.862 3.00688 354.073 4.19884 352.548 5.72419L353.036 6.21231ZM358.177 2.78486L358.454 3.41728C360.395 2.56804 362.458 2.14226 364.651 2.14226V1.45197V0.761665C362.274 0.761665 360.021 1.22449 357.9 2.15244L358.177 2.78486ZM364.651 1.45197V2.14226H393.118V1.45197V0.761665H364.651V1.45197ZM393.118 1.45197V2.14226C393.956 2.14226 394.636 2.4227 395.2 2.98735L395.688 2.49924L396.177 2.01112C395.345 1.17941 394.311 0.761665 393.118 0.761665V1.45197ZM395.688 2.49924L395.222 3.00809C395.834 3.56912 396.141 4.26982 396.141 5.16503H396.831H397.521C397.521 3.90221 397.066 2.82573 396.155 1.99038L395.688 2.49924ZM396.831 5.16503H396.141C396.141 5.98553 395.841 6.7018 395.2 7.34271L395.688 7.83082L396.177 8.31894C397.059 7.43654 397.521 6.37562 397.521 5.16503H396.831ZM395.688 7.83082L395.2 7.34271C394.636 7.90736 393.956 8.1878 393.118 8.1878V8.8781V9.5684C394.311 9.5684 395.345 9.15065 396.177 8.31894L395.688 7.83082ZM393.118 8.8781V8.1878H364.651V8.8781V9.5684H393.118V8.8781ZM364.651 8.8781V8.1878C363.299 8.1878 362.035 8.42471 360.865 8.90624L361.128 9.54455L361.391 10.1829C362.38 9.77579 363.464 9.5684 364.651 9.5684V8.8781ZM361.128 9.54455L360.865 8.90624C359.702 9.38524 358.674 10.071 357.784 10.9606L358.272 11.4487L358.76 11.9368C359.521 11.1761 360.396 10.5924 361.391 10.1829L361.128 9.54455ZM358.272 11.4487L357.804 10.9415C356.909 11.7671 356.191 12.7613 355.648 13.9158L356.273 14.2097L356.897 14.5036C357.37 13.5001 357.985 12.6535 358.74 11.9559L358.272 11.4487ZM356.273 14.2097L355.64 13.933C355.155 15.0432 354.916 16.2492 354.916 17.5419H355.606H356.297C356.297 16.4227 356.502 15.4072 356.905 14.4864L356.273 14.2097ZM355.606 17.5419H354.916V24.3016H355.606H356.297V17.5419H355.606ZM355.606 24.3016V24.9919H393.118V24.3016V23.6113H355.606V24.3016ZM393.118 24.3016V24.9919C393.956 24.9919 394.636 25.2723 395.2 25.837L395.688 25.3489L396.177 24.8608C395.345 24.0291 394.311 23.6113 393.118 23.6113V24.3016ZM395.688 25.3489L395.222 25.8577C395.834 26.4188 396.141 27.1195 396.141 28.0147H396.831H397.521C397.521 26.7519 397.066 25.6754 396.155 24.84L395.688 25.3489ZM396.831 28.0147H396.141C396.141 28.8352 395.841 29.5514 395.2 30.1924L395.688 30.6805L396.177 31.1686C397.059 30.2862 397.521 29.2253 397.521 28.0147H396.831ZM395.688 30.6805L395.2 30.1924C394.636 30.757 393.956 31.0374 393.118 31.0374V31.7277V32.418C394.311 32.418 395.345 32.0003 396.177 31.1686L395.688 30.6805ZM393.118 31.7277V31.0374H355.606V31.7277V32.418H393.118V31.7277Z" fill="white" mask="url(#path-1-outside-1_649_2929)"/>
</svg>
