<svg width="130" height="134" viewBox="0 0 130 134" fill="none" xmlns="http://www.w3.org/2000/svg">
<path d="M64.826 133.455C100.628 133.455 129.652 103.58 129.652 66.7275C129.652 29.8749 100.628 0 64.826 0C29.0236 0 0 29.8749 0 66.7275C0 103.58 29.0236 133.455 64.826 133.455Z" fill="url(#paint0_linear_73_4886)"/>
<g opacity="0.26" style="mix-blend-mode:overlay">
<path d="M64.8259 130.209C98.8877 130.209 126.5 101.787 126.5 66.7274C126.5 31.6676 98.8877 3.24609 64.8259 3.24609C30.7641 3.24609 3.15161 31.6676 3.15161 66.7274C3.15161 101.787 30.7641 130.209 64.8259 130.209Z" fill="white"/>
</g>
<path d="M122.374 66.7278C122.374 99.4402 96.6087 125.962 64.826 125.962C33.0434 125.962 7.27759 99.4454 7.27759 66.7278C7.27759 34.0153 33.0434 7.49316 64.826 7.49316C96.6087 7.49316 122.374 34.0101 122.374 66.7278Z" fill="#38354A"/>
<path d="M64.8258 124.289C95.7141 124.289 120.754 98.5181 120.754 66.7275C120.754 34.9369 95.7141 9.16553 64.8258 9.16553C33.9374 9.16553 8.89746 34.9369 8.89746 66.7275C8.89746 98.5181 33.9374 124.289 64.8258 124.289Z" fill="#38354A"/>
<path opacity="0.7" d="M64.826 123.581C94.88 123.581 119.244 98.5021 119.244 67.5662C119.244 36.6303 94.88 11.5518 64.826 11.5518C34.772 11.5518 10.4084 36.6303 10.4084 67.5662C10.4084 98.5021 34.772 123.581 64.826 123.581Z" fill="url(#paint1_linear_73_4886)"/>
<path d="M64.8259 121.903C94.431 121.903 118.431 97.1998 118.431 66.7273C118.431 36.2547 94.431 11.5518 64.8259 11.5518C35.2207 11.5518 11.2209 36.2547 11.2209 66.7273C11.2209 97.1998 35.2207 121.903 64.8259 121.903Z" fill="#201B32"/>
<path d="M64.8258 119.709C93.2543 119.709 116.3 95.9882 116.3 66.7272C116.3 37.4661 93.2543 13.7454 64.8258 13.7454C36.3974 13.7454 13.3516 37.4661 13.3516 66.7272C13.3516 95.9882 36.3974 119.709 64.8258 119.709Z" fill="url(#paint2_linear_73_4886)"/>
<path d="M64.826 115.192C90.8319 115.192 111.914 93.4937 111.914 66.7276C111.914 39.9616 90.8319 18.2634 64.826 18.2634C38.82 18.2634 17.738 39.9616 17.738 66.7276C17.738 93.4937 38.82 115.192 64.826 115.192Z" fill="url(#paint3_linear_73_4886)"/>
<path d="M107.548 66.7275C107.548 91.0143 88.4194 110.7 64.826 110.7C41.2325 110.7 22.1035 91.0143 22.1035 66.7275C22.1035 42.4407 41.2325 22.7549 64.826 22.7549C88.4194 22.7549 107.548 42.4407 107.548 66.7275Z" fill="#00CCFF"/>
<g filter="url(#filter0_d_73_4886)">
<mask id="path-10-outside-1_73_4886" maskUnits="userSpaceOnUse" x="33.3159" y="56" width="62" height="20" fill="black">
<rect fill="white" x="33.3159" y="56" width="62" height="20"/>
<path d="M36.5138 62.264C36.5351 62.968 36.8018 63.576 37.3138 64.088C37.8258 64.5787 38.4338 64.824 39.1378 64.824H50.1778V69.912C50.1778 70.616 50.0391 71.2773 49.7618 71.896C49.5058 72.5147 49.1431 73.0587 48.6738 73.528C48.2258 73.976 47.6925 74.3387 47.0738 74.616C46.4551 74.872 45.7938 75 45.0898 75H35.4898C35.1485 75 34.8498 74.8827 34.5938 74.648C34.3591 74.392 34.2418 74.0933 34.2418 73.752C34.2418 73.3893 34.3591 73.0907 34.5938 72.856C34.8498 72.6213 35.1485 72.504 35.4898 72.504H45.0898C45.7938 72.504 46.3911 72.2587 46.8818 71.768C47.3938 71.256 47.6498 70.6373 47.6498 69.912V67.32H39.1378C38.4338 67.32 37.7618 67.192 37.1218 66.936C36.5031 66.6587 35.9591 66.296 35.4898 65.848C35.0205 65.4 34.6471 64.8667 34.3698 64.248C34.0925 63.6293 33.9538 62.968 33.9538 62.264C33.9538 61.56 34.0818 60.8987 34.3378 60.28C34.6151 59.6613 34.9778 59.1173 35.4258 58.648C35.8951 58.1787 36.4391 57.816 37.0578 57.56C37.6765 57.2827 38.3378 57.144 39.0418 57.144H48.9298C49.2925 57.144 49.5911 57.2613 49.8258 57.496C50.0818 57.7307 50.2098 58.0293 50.2098 58.392C50.2098 58.7333 50.0818 59.032 49.8258 59.288C49.5911 59.5227 49.2925 59.64 48.9298 59.64H39.0418C38.3165 59.64 37.6978 59.896 37.1858 60.408C36.6951 60.92 36.4605 61.5387 36.4818 62.264H36.5138ZM64.0258 57.016C64.7085 57.016 65.3485 57.1547 65.9458 57.432C66.5645 57.688 67.0978 58.04 67.5458 58.488C68.0151 58.936 68.3778 59.4693 68.6338 60.088C68.8898 60.6853 69.0178 61.3253 69.0178 62.008C69.0178 62.712 68.8791 63.3733 68.6018 63.992C68.3245 64.5893 67.9511 65.112 67.4818 65.56C67.0338 66.008 66.5005 66.36 65.8818 66.616C65.2845 66.872 64.6445 67 63.9618 67H56.2818V73.72C56.2818 74.0827 56.1645 74.3813 55.9298 74.616C55.6951 74.8507 55.3965 74.968 55.0338 74.968C54.6925 74.968 54.3938 74.8507 54.1378 74.616C53.9031 74.3813 53.7858 74.0827 53.7858 73.72V57.016H53.8498H63.9938H64.0258ZM64.0258 64.696C64.7725 64.696 65.4018 64.44 65.9138 63.928C66.4258 63.3947 66.6818 62.7547 66.6818 62.008C66.6818 61.2827 66.4258 60.664 65.9138 60.152C65.4018 59.6187 64.7725 59.352 64.0258 59.352H56.2818V64.664H64.0258V64.696ZM73.158 57.144C73.5207 57.144 73.8194 57.2613 74.054 57.496C74.31 57.7307 74.438 58.0293 74.438 58.392V73.72C74.438 74.0827 74.31 74.3813 74.054 74.616C73.8194 74.8507 73.5207 74.968 73.158 74.968C72.8167 74.968 72.518 74.8507 72.262 74.616C72.0274 74.3813 71.91 74.0827 71.91 73.72V58.392C71.91 58.0293 72.0274 57.7307 72.262 57.496C72.518 57.2613 72.8167 57.144 73.158 57.144ZM93.5445 57.016C93.9072 57.016 94.2059 57.144 94.4405 57.4C94.6965 57.6347 94.8245 57.9333 94.8245 58.296V73.496C94.8245 73.9013 94.6859 74.2533 94.4085 74.552C94.1312 74.8507 93.7792 75.0213 93.3525 75.064C93.1179 75.064 92.8832 75.0213 92.6485 74.936C92.4352 74.8293 92.2539 74.68 92.1045 74.488L81.0005 60.696V73.784C81.0005 74.1467 80.8725 74.456 80.6165 74.712C80.3819 74.9467 80.0832 75.064 79.7205 75.064C79.3792 75.0427 79.0912 74.9147 78.8565 74.68C78.6219 74.424 78.5045 74.1253 78.5045 73.784V58.936C78.5045 58.424 78.6859 57.976 79.0485 57.592C79.4325 57.208 79.8912 57.016 80.4245 57.016C81.0432 57.016 81.5445 57.2613 81.9285 57.752L92.2965 70.68V58.264C92.2965 57.9013 92.4139 57.6027 92.6485 57.368C92.9045 57.1333 93.2032 57.016 93.5445 57.016Z"/>
</mask>
<path d="M36.5138 62.264C36.5351 62.968 36.8018 63.576 37.3138 64.088C37.8258 64.5787 38.4338 64.824 39.1378 64.824H50.1778V69.912C50.1778 70.616 50.0391 71.2773 49.7618 71.896C49.5058 72.5147 49.1431 73.0587 48.6738 73.528C48.2258 73.976 47.6925 74.3387 47.0738 74.616C46.4551 74.872 45.7938 75 45.0898 75H35.4898C35.1485 75 34.8498 74.8827 34.5938 74.648C34.3591 74.392 34.2418 74.0933 34.2418 73.752C34.2418 73.3893 34.3591 73.0907 34.5938 72.856C34.8498 72.6213 35.1485 72.504 35.4898 72.504H45.0898C45.7938 72.504 46.3911 72.2587 46.8818 71.768C47.3938 71.256 47.6498 70.6373 47.6498 69.912V67.32H39.1378C38.4338 67.32 37.7618 67.192 37.1218 66.936C36.5031 66.6587 35.9591 66.296 35.4898 65.848C35.0205 65.4 34.6471 64.8667 34.3698 64.248C34.0925 63.6293 33.9538 62.968 33.9538 62.264C33.9538 61.56 34.0818 60.8987 34.3378 60.28C34.6151 59.6613 34.9778 59.1173 35.4258 58.648C35.8951 58.1787 36.4391 57.816 37.0578 57.56C37.6765 57.2827 38.3378 57.144 39.0418 57.144H48.9298C49.2925 57.144 49.5911 57.2613 49.8258 57.496C50.0818 57.7307 50.2098 58.0293 50.2098 58.392C50.2098 58.7333 50.0818 59.032 49.8258 59.288C49.5911 59.5227 49.2925 59.64 48.9298 59.64H39.0418C38.3165 59.64 37.6978 59.896 37.1858 60.408C36.6951 60.92 36.4605 61.5387 36.4818 62.264H36.5138ZM64.0258 57.016C64.7085 57.016 65.3485 57.1547 65.9458 57.432C66.5645 57.688 67.0978 58.04 67.5458 58.488C68.0151 58.936 68.3778 59.4693 68.6338 60.088C68.8898 60.6853 69.0178 61.3253 69.0178 62.008C69.0178 62.712 68.8791 63.3733 68.6018 63.992C68.3245 64.5893 67.9511 65.112 67.4818 65.56C67.0338 66.008 66.5005 66.36 65.8818 66.616C65.2845 66.872 64.6445 67 63.9618 67H56.2818V73.72C56.2818 74.0827 56.1645 74.3813 55.9298 74.616C55.6951 74.8507 55.3965 74.968 55.0338 74.968C54.6925 74.968 54.3938 74.8507 54.1378 74.616C53.9031 74.3813 53.7858 74.0827 53.7858 73.72V57.016H53.8498H63.9938H64.0258ZM64.0258 64.696C64.7725 64.696 65.4018 64.44 65.9138 63.928C66.4258 63.3947 66.6818 62.7547 66.6818 62.008C66.6818 61.2827 66.4258 60.664 65.9138 60.152C65.4018 59.6187 64.7725 59.352 64.0258 59.352H56.2818V64.664H64.0258V64.696ZM73.158 57.144C73.5207 57.144 73.8194 57.2613 74.054 57.496C74.31 57.7307 74.438 58.0293 74.438 58.392V73.72C74.438 74.0827 74.31 74.3813 74.054 74.616C73.8194 74.8507 73.5207 74.968 73.158 74.968C72.8167 74.968 72.518 74.8507 72.262 74.616C72.0274 74.3813 71.91 74.0827 71.91 73.72V58.392C71.91 58.0293 72.0274 57.7307 72.262 57.496C72.518 57.2613 72.8167 57.144 73.158 57.144ZM93.5445 57.016C93.9072 57.016 94.2059 57.144 94.4405 57.4C94.6965 57.6347 94.8245 57.9333 94.8245 58.296V73.496C94.8245 73.9013 94.6859 74.2533 94.4085 74.552C94.1312 74.8507 93.7792 75.0213 93.3525 75.064C93.1179 75.064 92.8832 75.0213 92.6485 74.936C92.4352 74.8293 92.2539 74.68 92.1045 74.488L81.0005 60.696V73.784C81.0005 74.1467 80.8725 74.456 80.6165 74.712C80.3819 74.9467 80.0832 75.064 79.7205 75.064C79.3792 75.0427 79.0912 74.9147 78.8565 74.68C78.6219 74.424 78.5045 74.1253 78.5045 73.784V58.936C78.5045 58.424 78.6859 57.976 79.0485 57.592C79.4325 57.208 79.8912 57.016 80.4245 57.016C81.0432 57.016 81.5445 57.2613 81.9285 57.752L92.2965 70.68V58.264C92.2965 57.9013 92.4139 57.6027 92.6485 57.368C92.9045 57.1333 93.2032 57.016 93.5445 57.016Z" fill="white"/>
<path d="M36.5138 62.264L36.7637 62.2564L36.7563 62.014H36.5138V62.264ZM37.3138 64.088L37.137 64.2648L37.1408 64.2685L37.3138 64.088ZM50.1778 64.824H50.4278V64.574H50.1778V64.824ZM49.7618 71.896L49.5336 71.7937L49.5308 71.8004L49.7618 71.896ZM48.6738 73.528L48.497 73.3512V73.3512L48.6738 73.528ZM47.0738 74.616L47.1694 74.8471L47.1761 74.8441L47.0738 74.616ZM34.5938 74.648L34.4095 74.8169L34.4168 74.8249L34.4249 74.8323L34.5938 74.648ZM34.5938 72.856L34.4247 72.6715L34.417 72.6792L34.5938 72.856ZM46.8818 71.768L47.0586 71.9448V71.9448L46.8818 71.768ZM47.6498 67.32H47.8998V67.07H47.6498V67.32ZM37.1218 66.936L37.0194 67.1643L37.0289 67.1681L37.1218 66.936ZM34.3698 64.248L34.5979 64.1457V64.1457L34.3698 64.248ZM34.3378 60.28L34.1096 60.1777L34.1068 60.1844L34.3378 60.28ZM35.4258 58.648L35.249 58.4712L35.245 58.4754L35.4258 58.648ZM37.0578 57.56L37.1534 57.7911L37.1601 57.7881L37.0578 57.56ZM49.8258 57.496L49.6489 57.6729L49.6569 57.6803L49.8258 57.496ZM49.8258 59.288L50.0026 59.4648V59.4648L49.8258 59.288ZM37.1858 60.408L37.009 60.2312L37.0053 60.235L37.1858 60.408ZM36.4818 62.264L36.2319 62.2713L36.239 62.514H36.4818V62.264ZM36.5138 62.264L36.2639 62.2716C36.2872 63.0412 36.5814 63.7091 37.137 64.2648L37.3138 64.088L37.4906 63.9112C37.0222 63.4429 36.783 62.8948 36.7637 62.2564L36.5138 62.264ZM37.3138 64.088L37.1408 64.2685C37.699 64.8034 38.3688 65.074 39.1378 65.074V64.824V64.574C38.4988 64.574 37.9526 64.3539 37.4868 63.9075L37.3138 64.088ZM39.1378 64.824V65.074H50.1778V64.824V64.574H39.1378V64.824ZM50.1778 64.824H49.9278V69.912H50.1778H50.4278V64.824H50.1778ZM50.1778 69.912H49.9278C49.9278 70.5821 49.796 71.2085 49.5337 71.7937L49.7618 71.896L49.9899 71.9983C50.2822 71.3462 50.4278 70.6499 50.4278 69.912H50.1778ZM49.7618 71.896L49.5308 71.8004C49.2872 72.389 48.9429 72.9053 48.497 73.3512L48.6738 73.528L48.8506 73.7048C49.3433 73.212 49.7243 72.6403 49.9928 71.9916L49.7618 71.896ZM48.6738 73.528L48.497 73.3512C48.072 73.7762 47.5644 74.1221 46.9715 74.3879L47.0738 74.616L47.1761 74.8441C47.8205 74.5552 48.3796 74.1758 48.8506 73.7048L48.6738 73.528ZM47.0738 74.616L46.9782 74.385C46.3914 74.6278 45.7627 74.75 45.0898 74.75V75V75.25C45.8249 75.25 46.5189 75.1162 47.1694 74.847L47.0738 74.616ZM45.0898 75V74.75H35.4898V75V75.25H45.0898V75ZM35.4898 75V74.75C35.2122 74.75 34.9735 74.6569 34.7627 74.4637L34.5938 74.648L34.4249 74.8323C34.7261 75.1084 35.0847 75.25 35.4898 75.25V75ZM34.5938 74.648L34.7781 74.4791C34.5849 74.2683 34.4918 74.0296 34.4918 73.752H34.2418H33.9918C33.9918 74.1571 34.1334 74.5157 34.4095 74.8169L34.5938 74.648ZM34.2418 73.752H34.4918C34.4918 73.4489 34.5874 73.216 34.7706 73.0328L34.5938 72.856L34.417 72.6792C34.1309 72.9654 33.9918 73.3298 33.9918 73.752H34.2418ZM34.5938 72.856L34.7627 73.0403C34.9735 72.8471 35.2122 72.754 35.4898 72.754V72.504V72.254C35.0847 72.254 34.7261 72.3956 34.4249 72.6717L34.5938 72.856ZM35.4898 72.504V72.754H45.0898V72.504V72.254H35.4898V72.504ZM45.0898 72.504V72.754C45.859 72.754 46.5203 72.4831 47.0586 71.9448L46.8818 71.768L46.705 71.5912C46.262 72.0342 45.7286 72.254 45.0898 72.254V72.504ZM46.8818 71.768L47.0586 71.9448C47.6175 71.3858 47.8998 70.7035 47.8998 69.912H47.6498H47.3998C47.3998 70.5712 47.17 71.1262 46.705 71.5912L46.8818 71.768ZM47.6498 69.912H47.8998V67.32H47.6498H47.3998V69.912H47.6498ZM47.6498 67.32V67.07H39.1378V67.32V67.57H47.6498V67.32ZM39.1378 67.32V67.07C38.4649 67.07 37.8245 66.9478 37.2146 66.7039L37.1218 66.936L37.0289 67.1681C37.6991 67.4362 38.4027 67.57 39.1378 67.57V67.32ZM37.1218 66.936L37.2241 66.7079C36.6302 66.4417 36.1102 66.0946 35.6624 65.6672L35.4898 65.848L35.3172 66.0288C35.808 66.4974 36.3761 66.8757 37.0195 67.1641L37.1218 66.936ZM35.4898 65.848L35.6624 65.6672C35.2175 65.2425 34.8626 64.7362 34.5979 64.1457L34.3698 64.248L34.1417 64.3503C34.4316 64.9971 34.8234 65.5575 35.3172 66.0288L35.4898 65.848ZM34.3698 64.248L34.5979 64.1457C34.3356 63.5605 34.2038 62.9341 34.2038 62.264H33.9538H33.7038C33.7038 63.0019 33.8494 63.6982 34.1417 64.3503L34.3698 64.248ZM33.9538 62.264H34.2038C34.2038 61.5911 34.326 60.9624 34.5688 60.3756L34.3378 60.28L34.1068 60.1844C33.8376 60.8349 33.7038 61.5289 33.7038 62.264H33.9538ZM34.3378 60.28L34.5659 60.3823C34.8321 59.7884 35.1792 59.2684 35.6066 58.8206L35.4258 58.648L35.245 58.4754C34.7764 58.9662 34.3981 59.5343 34.1097 60.1777L34.3378 60.28ZM35.4258 58.648L35.6026 58.8248C36.0485 58.3789 36.5648 58.0346 37.1534 57.791L37.0578 57.56L36.9622 57.329C36.3134 57.5974 35.7418 57.9784 35.249 58.4712L35.4258 58.648ZM37.0578 57.56L37.1601 57.7881C37.7453 57.5258 38.3717 57.394 39.0418 57.394V57.144V56.894C38.3039 56.894 37.6076 57.0396 36.9555 57.3319L37.0578 57.56ZM39.0418 57.144V57.394H48.9298V57.144V56.894H39.0418V57.144ZM48.9298 57.144V57.394C49.2329 57.394 49.4658 57.4896 49.649 57.6728L49.8258 57.496L50.0026 57.3192C49.7164 57.0331 49.352 56.894 48.9298 56.894V57.144ZM49.8258 57.496L49.6569 57.6803C49.8587 57.8653 49.9598 58.0959 49.9598 58.392H50.2098H50.4598C50.4598 57.9628 50.3049 57.5961 49.9947 57.3117L49.8258 57.496ZM50.2098 58.392H49.9598C49.9598 58.6627 49.8613 58.899 49.649 59.1112L49.8258 59.288L50.0026 59.4648C50.3023 59.165 50.4598 58.804 50.4598 58.392H50.2098ZM49.8258 59.288L49.649 59.1112C49.4658 59.2944 49.2329 59.39 48.9298 59.39V59.64V59.89C49.352 59.89 49.7164 59.7509 50.0026 59.4648L49.8258 59.288ZM48.9298 59.64V59.39H39.0418V59.64V59.89H48.9298V59.64ZM39.0418 59.64V59.39C38.2503 59.39 37.568 59.6722 37.009 60.2312L37.1858 60.408L37.3626 60.5848C37.8276 60.1198 38.3826 59.89 39.0418 59.89V59.64ZM37.1858 60.408L37.0053 60.235C36.4671 60.7967 36.2086 61.4808 36.2319 62.2713L36.4818 62.264L36.7317 62.2566C36.7123 61.5965 36.9232 61.0433 37.3663 60.581L37.1858 60.408ZM36.4818 62.264V62.514H36.5138V62.264V62.014H36.4818V62.264ZM65.9458 57.432L65.8404 57.659L65.8502 57.663L65.9458 57.432ZM67.5458 58.488L67.369 58.6648L67.3732 58.6688L67.5458 58.488ZM68.6338 60.088L68.4028 60.1836L68.404 60.1865L68.6338 60.088ZM68.6018 63.992L68.8286 64.0973L68.8299 64.0943L68.6018 63.992ZM67.4818 65.56L67.3091 65.3791L67.305 65.3832L67.4818 65.56ZM65.8818 66.616L65.7862 66.385L65.7833 66.3862L65.8818 66.616ZM56.2818 67V66.75H56.0318V67H56.2818ZM55.9298 74.616L56.1066 74.7928H56.1066L55.9298 74.616ZM54.1378 74.616L53.9608 74.7929L53.9689 74.8003L54.1378 74.616ZM53.7858 57.016V56.766H53.5358V57.016H53.7858ZM64.0258 64.696H63.7758V64.946H64.0258V64.696ZM65.9138 63.928L66.0906 64.1048L66.0941 64.1011L65.9138 63.928ZM65.9138 60.152L65.7334 60.3252L65.737 60.3288L65.9138 60.152ZM56.2818 59.352V59.102H56.0318V59.352H56.2818ZM56.2818 64.664H56.0318V64.914H56.2818V64.664ZM64.0258 64.664H64.2758V64.414H64.0258V64.664ZM64.0258 57.016V57.266C64.6735 57.266 65.2774 57.3973 65.8405 57.6588L65.9458 57.432L66.0511 57.2052C65.4195 56.912 64.7435 56.766 64.0258 56.766V57.016ZM65.9458 57.432L65.8502 57.663C66.4403 57.9072 66.9456 58.2413 67.369 58.6648L67.5458 58.488L67.7226 58.3112C67.25 57.8387 66.6887 57.4688 66.0414 57.201L65.9458 57.432ZM67.5458 58.488L67.3732 58.6688C67.8165 59.092 68.1597 59.596 68.4028 60.1836L68.6338 60.088L68.8648 59.9924C68.5959 59.3426 68.2137 58.78 67.7184 58.3072L67.5458 58.488ZM68.6338 60.088L68.404 60.1865C68.646 60.7511 68.7678 61.3574 68.7678 62.008H69.0178H69.2678C69.2678 61.2932 69.1336 60.6195 68.8636 59.9895L68.6338 60.088ZM69.0178 62.008H68.7678C68.7678 62.6781 68.636 63.3045 68.3737 63.8897L68.6018 63.992L68.8299 64.0943C69.1222 63.4422 69.2678 62.7459 69.2678 62.008H69.0178ZM68.6018 63.992L68.375 63.8867C68.1107 64.4561 67.7556 64.9531 67.3092 65.3792L67.4818 65.56L67.6544 65.7408C68.1467 65.2709 68.5383 64.7225 68.8285 64.0973L68.6018 63.992ZM67.4818 65.56L67.305 65.3832C66.8816 65.8067 66.3763 66.1408 65.7862 66.385L65.8818 66.616L65.9774 66.847C66.6247 66.5792 67.186 66.2093 67.6586 65.7368L67.4818 65.56ZM65.8818 66.616L65.7833 66.3862C65.2187 66.6282 64.6123 66.75 63.9618 66.75V67V67.25C64.6766 67.25 65.3503 67.1158 65.9803 66.8458L65.8818 66.616ZM63.9618 67V66.75H56.2818V67V67.25H63.9618V67ZM56.2818 67H56.0318V73.72H56.2818H56.5318V67H56.2818ZM56.2818 73.72H56.0318C56.0318 74.0231 55.9362 74.256 55.753 74.4392L55.9298 74.616L56.1066 74.7928C56.3927 74.5066 56.5318 74.1422 56.5318 73.72H56.2818ZM55.9298 74.616L55.753 74.4392C55.5698 74.6224 55.3369 74.718 55.0338 74.718V74.968V75.218C55.456 75.218 55.8204 75.0789 56.1066 74.7928L55.9298 74.616ZM55.0338 74.968V74.718C54.7562 74.718 54.5175 74.6249 54.3067 74.4317L54.1378 74.616L53.9689 74.8003C54.2701 75.0764 54.6287 75.218 55.0338 75.218V74.968ZM54.1378 74.616L54.3146 74.4392C54.1314 74.256 54.0358 74.0231 54.0358 73.72H53.7858H53.5358C53.5358 74.1422 53.6749 74.5066 53.961 74.7928L54.1378 74.616ZM53.7858 73.72H54.0358V57.016H53.7858H53.5358V73.72H53.7858ZM53.7858 57.016V57.266H53.8498V57.016V56.766H53.7858V57.016ZM53.8498 57.016V57.266H63.9938V57.016V56.766H53.8498V57.016ZM63.9938 57.016V57.266H64.0258V57.016V56.766H63.9938V57.016ZM64.0258 64.696V64.946C64.8365 64.946 65.5301 64.6653 66.0906 64.1048L65.9138 63.928L65.737 63.7512C65.2735 64.2147 64.7085 64.446 64.0258 64.446V64.696ZM65.9138 63.928L66.0941 64.1011C66.6513 63.5207 66.9318 62.8185 66.9318 62.008H66.6818H66.4318C66.4318 62.6908 66.2003 63.2686 65.7334 63.7549L65.9138 63.928ZM66.6818 62.008H66.9318C66.9318 61.2165 66.6495 60.5342 66.0906 59.9752L65.9138 60.152L65.737 60.3288C66.202 60.7938 66.4318 61.3488 66.4318 62.008H66.6818ZM65.9138 60.152L66.0941 59.9789C65.5345 59.3959 64.8398 59.102 64.0258 59.102V59.352V59.602C64.7052 59.602 65.2691 59.8415 65.7334 60.3251L65.9138 60.152ZM64.0258 59.352V59.102H56.2818V59.352V59.602H64.0258V59.352ZM56.2818 59.352H56.0318V64.664H56.2818H56.5318V59.352H56.2818ZM56.2818 64.664V64.914H64.0258V64.664V64.414H56.2818V64.664ZM64.0258 64.664H63.7758V64.696H64.0258H64.2758V64.664H64.0258ZM74.054 57.496L73.8771 57.6729L73.8851 57.6803L74.054 57.496ZM74.054 74.616L73.885 74.4315L73.8773 74.4392L74.054 74.616ZM72.262 74.616L72.0851 74.7929L72.0931 74.8003L72.262 74.616ZM72.262 57.496L72.093 57.3115L72.0853 57.3192L72.262 57.496ZM73.158 57.144V57.394C73.4612 57.394 73.6941 57.4896 73.8773 57.6728L74.054 57.496L74.2308 57.3192C73.9447 57.0331 73.5802 56.894 73.158 56.894V57.144ZM74.054 57.496L73.8851 57.6803C74.0869 57.8653 74.188 58.0959 74.188 58.392H74.438H74.688C74.688 57.9628 74.5332 57.5961 74.223 57.3117L74.054 57.496ZM74.438 58.392H74.188V73.72H74.438H74.688V58.392H74.438ZM74.438 73.72H74.188C74.188 74.0161 74.0869 74.2467 73.8851 74.4317L74.054 74.616L74.223 74.8003C74.5332 74.5159 74.688 74.1492 74.688 73.72H74.438ZM74.054 74.616L73.8773 74.4392C73.6941 74.6224 73.4612 74.718 73.158 74.718V74.968V75.218C73.5802 75.218 73.9447 75.0789 74.2308 74.7928L74.054 74.616ZM73.158 74.968V74.718C72.8805 74.718 72.6418 74.6249 72.431 74.4317L72.262 74.616L72.0931 74.8003C72.3943 75.0764 72.753 75.218 73.158 75.218V74.968ZM72.262 74.616L72.4388 74.4392C72.2556 74.256 72.16 74.0231 72.16 73.72H71.91H71.66C71.66 74.1422 71.7991 74.5066 72.0853 74.7928L72.262 74.616ZM71.91 73.72H72.16V58.392H71.91H71.66V73.72H71.91ZM71.91 58.392H72.16C72.16 58.0889 72.2556 57.856 72.4388 57.6728L72.262 57.496L72.0853 57.3192C71.7991 57.6054 71.66 57.9698 71.66 58.392H71.91ZM72.262 57.496L72.431 57.6803C72.6418 57.4871 72.8805 57.394 73.158 57.394V57.144V56.894C72.753 56.894 72.3943 57.0356 72.0931 57.3117L72.262 57.496ZM94.4405 57.4L94.2563 57.5689L94.2636 57.5769L94.2716 57.5843L94.4405 57.4ZM94.4085 74.552L94.5917 74.7221V74.7221L94.4085 74.552ZM93.3525 75.064V75.314H93.365L93.3774 75.3128L93.3525 75.064ZM92.6485 74.936L92.5367 75.1596L92.5496 75.166L92.5631 75.1709L92.6485 74.936ZM92.1045 74.488L92.3019 74.3345L92.2993 74.3312L92.1045 74.488ZM81.0005 60.696L81.1953 60.5392L80.7505 59.9868V60.696H81.0005ZM80.6165 74.712L80.7933 74.8888V74.8888L80.6165 74.712ZM79.7205 75.064L79.7049 75.3135L79.7127 75.314H79.7205V75.064ZM78.8565 74.68L78.6721 74.8491L78.6798 74.8568L78.8565 74.68ZM79.0485 57.592L78.8717 57.4151L78.8668 57.4203L79.0485 57.592ZM81.9285 57.752L81.7317 57.9061L81.7335 57.9084L81.9285 57.752ZM92.2965 70.68L92.1015 70.8364L92.5465 71.3913V70.68H92.2965ZM92.6485 57.368L92.4795 57.1835L92.4718 57.1912L92.6485 57.368ZM93.5445 57.016V57.266C93.8406 57.266 94.0713 57.3671 94.2563 57.5689L94.4405 57.4L94.6248 57.2311C94.3405 56.9209 93.9738 56.766 93.5445 56.766V57.016ZM94.4405 57.4L94.2716 57.5843C94.4734 57.7693 94.5745 57.9999 94.5745 58.296H94.8245H95.0745C95.0745 57.8668 94.9197 57.5 94.6095 57.2157L94.4405 57.4ZM94.8245 58.296H94.5745V73.496H94.8245H95.0745V58.296H94.8245ZM94.8245 73.496H94.5745C94.5745 73.8378 94.46 74.1292 94.2253 74.3819L94.4085 74.552L94.5917 74.7221C94.9118 74.3775 95.0745 73.9648 95.0745 73.496H94.8245ZM94.4085 74.552L94.2253 74.3819C93.9917 74.6335 93.6972 74.7783 93.3277 74.8152L93.3525 75.064L93.3774 75.3128C93.8612 75.2644 94.2707 75.0679 94.5917 74.7221L94.4085 74.552ZM93.3525 75.064V74.814C93.1488 74.814 92.943 74.7771 92.734 74.7011L92.6485 74.936L92.5631 75.1709C92.8234 75.2656 93.0869 75.314 93.3525 75.314V75.064ZM92.6485 74.936L92.7603 74.7124C92.5811 74.6228 92.4288 74.4977 92.3019 74.3345L92.1045 74.488L91.9072 74.6415C92.079 74.8623 92.2893 75.0359 92.5367 75.1596L92.6485 74.936ZM92.1045 74.488L92.2993 74.3312L81.1953 60.5392L81.0005 60.696L80.8058 60.8528L91.9098 74.6448L92.1045 74.488ZM81.0005 60.696H80.7505V73.784H81.0005H81.2505V60.696H81.0005ZM81.0005 73.784H80.7505C80.7505 74.0805 80.6488 74.3262 80.4398 74.5352L80.6165 74.712L80.7933 74.8888C81.0963 74.5858 81.2505 74.2128 81.2505 73.784H81.0005ZM80.6165 74.712L80.4398 74.5352C80.2566 74.7184 80.0237 74.814 79.7205 74.814V75.064V75.314C80.1427 75.314 80.5072 75.1749 80.7933 74.8888L80.6165 74.712ZM79.7205 75.064L79.7361 74.8145C79.4536 74.7968 79.2235 74.6934 79.0333 74.5032L78.8565 74.68L78.6798 74.8568C78.9589 75.1359 79.3049 75.2885 79.7049 75.3135L79.7205 75.064ZM78.8565 74.68L79.0408 74.5111C78.8476 74.3003 78.7545 74.0616 78.7545 73.784H78.5045H78.2545C78.2545 74.1891 78.3961 74.5477 78.6723 74.8489L78.8565 74.68ZM78.5045 73.784H78.7545V58.936H78.5045H78.2545V73.784H78.5045ZM78.5045 58.936H78.7545C78.7545 58.49 78.9099 58.1029 79.2303 57.7637L79.0485 57.592L78.8668 57.4203C78.4618 57.8491 78.2545 58.358 78.2545 58.936H78.5045ZM79.0485 57.592L79.2253 57.7688C79.5634 57.4307 79.9589 57.266 80.4245 57.266V57.016V56.766C79.8236 56.766 79.3017 56.9853 78.8718 57.4152L79.0485 57.592ZM80.4245 57.016V57.266C80.9657 57.266 81.3947 57.4755 81.7317 57.9061L81.9285 57.752L82.1254 57.5979C81.6944 57.0472 81.1207 56.766 80.4245 56.766V57.016ZM81.9285 57.752L81.7335 57.9084L92.1015 70.8364L92.2965 70.68L92.4916 70.5236L82.1236 57.5956L81.9285 57.752ZM92.2965 70.68H92.5465V58.264H92.2965H92.0465V70.68H92.2965ZM92.2965 58.264H92.5465C92.5465 57.9609 92.6421 57.728 92.8253 57.5448L92.6485 57.368L92.4718 57.1912C92.1856 57.4774 92.0465 57.8418 92.0465 58.264H92.2965ZM92.6485 57.368L92.8175 57.5523C93.0283 57.3591 93.267 57.266 93.5445 57.266V57.016V56.766C93.1395 56.766 92.7808 56.9076 92.4796 57.1837L92.6485 57.368Z" fill="white" mask="url(#path-10-outside-1_73_4886)"/>
</g>
<path d="M129.345 66.0136C129.345 66.1908 129.345 66.3732 129.34 66.5451C129.058 30.3312 100.292 1.06297 64.826 1.06297C29.3655 1.06297 0.59389 30.3259 0.312582 66.5451C0.307372 66.368 0.307373 66.1856 0.307373 66.0136C0.307373 29.5548 29.1936 0 64.826 0C100.458 0 129.345 29.5548 129.345 66.0136Z" fill="url(#paint4_linear_73_4886)"/>
<defs>
<filter id="filter0_d_73_4886" x="26.7039" y="49.7661" width="77.3706" height="34.5479" filterUnits="userSpaceOnUse" color-interpolation-filters="sRGB">
<feFlood flood-opacity="0" result="BackgroundImageFix"/>
<feColorMatrix in="SourceAlpha" type="matrix" values="0 0 0 0 0 0 0 0 0 0 0 0 0 0 0 0 0 0 127 0" result="hardAlpha"/>
<feOffset dx="1" dy="1"/>
<feGaussianBlur stdDeviation="4"/>
<feComposite in2="hardAlpha" operator="out"/>
<feColorMatrix type="matrix" values="0 0 0 0 0.00392157 0 0 0 0 0.411765 0 0 0 0 0.827451 0 0 0 1 0"/>
<feBlend mode="normal" in2="BackgroundImageFix" result="effect1_dropShadow_73_4886"/>
<feBlend mode="normal" in="SourceGraphic" in2="effect1_dropShadow_73_4886" result="shape"/>
</filter>
<linearGradient id="paint0_linear_73_4886" x1="64.826" y1="0" x2="64.826" y2="133.45" gradientUnits="userSpaceOnUse">
<stop stop-color="#9D9DA5"/>
<stop offset="1" stop-color="#3B3C51"/>
</linearGradient>
<linearGradient id="paint1_linear_73_4886" x1="64.826" y1="13.6412" x2="64.826" y2="123.023" gradientUnits="userSpaceOnUse">
<stop stop-color="#9A9BB0"/>
<stop offset="1" stop-color="#CACCD9"/>
</linearGradient>
<linearGradient id="paint2_linear_73_4886" x1="64.8258" y1="13.8913" x2="64.8258" y2="119.157" gradientUnits="userSpaceOnUse">
<stop stop-color="#2C1F3B"/>
<stop offset="1" stop-color="#34314C"/>
</linearGradient>
<linearGradient id="paint3_linear_73_4886" x1="64.826" y1="17.0077" x2="64.826" y2="113.806" gradientUnits="userSpaceOnUse">
<stop stop-color="#16D7F8"/>
<stop offset="0.21" stop-color="#11BAE9"/>
<stop offset="0.56" stop-color="#0A92D3"/>
<stop offset="0.83" stop-color="#0679C6"/>
<stop offset="1" stop-color="#0570C2"/>
</linearGradient>
<linearGradient id="paint4_linear_73_4886" x1="64.826" y1="56.2645" x2="64.826" y2="-1.01086" gradientUnits="userSpaceOnUse">
<stop offset="0.4" stop-color="#9A9BB0" stop-opacity="0"/>
<stop offset="0.46" stop-color="#A8AABB" stop-opacity="0.2"/>
<stop offset="0.53" stop-color="#B8BBC7" stop-opacity="0.41"/>
<stop offset="0.61" stop-color="#C6CAD1" stop-opacity="0.59"/>
<stop offset="0.69" stop-color="#D1D6DA" stop-opacity="0.74"/>
<stop offset="0.76" stop-color="#D9DFE0" stop-opacity="0.85"/>
<stop offset="0.84" stop-color="#E0E5E5" stop-opacity="0.94"/>
<stop offset="0.92" stop-color="#E3E9E8" stop-opacity="0.98"/>
<stop offset="1" stop-color="#E5EBE9"/>
</linearGradient>
</defs>
</svg>
