<svg width="477" height="477" viewBox="0 0 477 477" fill="none" xmlns="http://www.w3.org/2000/svg">
<g clip-path="url(#clip0_9_4146)">
<path d="M238.516 31.3987C121.633 31.3987 26.9355 126.148 26.9355 243.023C26.9355 359.897 121.665 454.647 238.516 454.647C355.367 454.647 450.097 359.897 450.097 243.023C450.097 126.148 355.367 31.3987 238.516 31.3987ZM238.516 442.803C185.166 442.803 135.003 422.012 97.2998 384.301C59.564 346.557 38.8093 296.384 38.8093 243.023C38.8093 189.661 59.5965 139.488 97.2998 101.777C135.036 64.0338 185.166 43.2749 238.516 43.2749C291.867 43.2749 342.029 64.0663 379.733 101.777C417.469 139.521 438.223 189.661 438.223 243.023C438.223 296.384 417.469 346.557 379.733 384.301C341.997 422.012 291.867 442.803 238.516 442.803Z" fill="url(#paint0_linear_9_4146)"/>
<path opacity="0.5" d="M238.516 448.855C142.973 448.855 62.1014 386.578 34.9056 300.744C60.0194 389.572 141.672 454.647 238.516 454.647C335.361 454.647 417.013 389.572 442.127 300.744C414.931 386.578 334.059 448.855 238.516 448.855Z" fill="url(#paint1_linear_9_4146)" style="mix-blend-mode:multiply"/>
<path d="M383.734 97.7753C344.925 58.958 293.363 37.6134 238.484 37.6134C183.604 37.6134 132.043 58.9905 93.2334 97.7753C54.4566 136.56 33.0839 188.164 33.0839 243.023C33.0839 297.881 54.4566 349.485 93.2334 388.303C132.043 427.087 183.604 448.465 238.484 448.465C293.363 448.465 344.925 427.087 383.734 388.303C422.511 349.518 443.884 297.914 443.884 243.023C443.884 188.132 422.511 136.56 383.734 97.7753ZM379.733 384.301C341.997 422.012 291.867 442.803 238.516 442.803C185.166 442.803 135.003 422.012 97.2998 384.301C59.564 346.557 38.8093 296.384 38.8093 243.023C38.8093 189.661 59.5965 139.488 97.2998 101.777C135.036 64.0339 185.166 43.2749 238.516 43.2749C291.867 43.2749 342.029 64.0664 379.733 101.777C417.469 139.521 438.223 189.661 438.223 243.023C438.223 296.384 417.469 346.557 379.733 384.301Z" fill="url(#paint2_linear_9_4146)"/>
<path opacity="0.5" d="M442.127 185.301C417.013 96.4737 335.361 31.3987 238.516 31.3987C141.672 31.3987 60.0194 96.4737 34.9056 185.301C62.1014 99.4672 142.973 37.8086 238.516 37.8086C334.059 37.8086 414.931 99.4672 442.127 185.301Z" fill="url(#paint3_linear_9_4146)" style="mix-blend-mode:color-dodge"/>
<path opacity="0.5" d="M67.7292 348.965L73.2595 365.103C73.2595 365.103 74.6258 369.496 72.3486 374.084L84.9381 388.628L83.279 368.813L67.6967 348.997L67.7292 348.965Z" fill="url(#paint4_linear_9_4146)" style="mix-blend-mode:multiply"/>
<path d="M86.5321 89.2829C77.1957 120.682 63.4026 145.475 63.4026 145.475C60.2471 152.438 55.9205 161.776 55.9205 161.776C54.0988 165.746 50.9108 174.108 50.9108 174.108C59.9869 164.087 65.875 155.334 72.7715 146.289C86.1417 128.783 95.2829 97.9379 99.7396 79.9772C101.854 71.5499 102.895 65.9535 102.895 65.9535C110.637 62.1791 114.769 59.869 115.257 59.5761C115.972 59.2182 116.688 58.8928 117.404 58.5675C114.216 54.3701 110.345 51.2791 110.345 51.2791C98.3408 49.457 93.4286 56.0295 93.4286 56.0295C92.7129 62.0815 91.7045 67.9057 90.5008 73.5022C89.3297 79.001 87.9634 84.2721 86.467 89.2829H86.5321Z" fill="url(#paint5_linear_9_4146)"/>
<path d="M55.9205 161.776C55.9205 161.776 62.6869 146.809 63.1424 146.061C63.1424 146.061 77.2282 120.714 86.5321 89.2829C88.0285 84.3047 89.3948 79.0336 90.5659 73.5022C90.5659 73.5022 92.9732 115.443 55.9205 161.776Z" fill="url(#paint6_linear_9_4146)"/>
<path d="M100.716 82.4174C100.716 82.4174 99.2842 83.8816 94.9576 97.4172C94.9576 97.4172 96.454 78.5129 101.334 63.383C101.334 63.383 106.474 53.7844 110.475 51.3441C111.093 51.8647 115.973 55.1835 123.194 65.4979C122.479 65.8233 120.267 67.5803 119.551 67.9057C119.063 68.1986 111.776 73.4696 100.683 82.3524L100.716 82.4174Z" fill="url(#paint7_linear_9_4146)"/>
<path opacity="0.5" d="M93.4937 56.0621C93.4937 56.0621 97.7553 50.4006 108.002 51.0514C103.643 57.0383 95.3154 58.4374 93.4937 56.0621Z" fill="url(#paint8_linear_9_4146)" style="mix-blend-mode:color-dodge"/>
<path d="M100.716 82.4175L103.838 73.5348C107.97 67.9708 112.719 65.1075 112.719 65.1075C112.719 65.1075 116.916 65.6932 120.95 67.0923L119.583 67.9708C109.792 74.4133 100.716 82.4175 100.716 82.4175Z" fill="url(#paint9_linear_9_4146)"/>
<path opacity="0.5" d="M58.2302 165.518C58.2302 165.518 60.8977 158.881 62.8171 152.731L65.5497 141.506C65.1593 141.994 63.8906 144.922 63.4026 145.508C58.2302 155.855 55.2374 162.395 50.9433 174.141C50.9433 174.141 56.2133 167.861 58.2627 165.551L58.2302 165.518Z" fill="url(#paint10_linear_9_4146)" style="mix-blend-mode:multiply"/>
<path d="M33.1164 192.004C33.1164 192.004 18.4775 207.459 9.72673 243.023H0C0 243.023 2.30969 203.847 39.7202 170.399L33.1164 192.004Z" fill="url(#paint11_linear_9_4146)"/>
<path d="M86.5321 396.762C77.1957 365.364 63.4026 340.57 63.4026 340.57C60.2471 333.607 55.9205 324.269 55.9205 324.269C54.0988 320.299 50.9108 311.937 50.9108 311.937C59.9869 321.959 65.875 330.711 72.7715 339.757C86.1417 357.262 95.2829 388.107 99.7396 406.068C101.854 414.495 102.895 420.092 102.895 420.092C110.637 423.866 114.769 426.176 115.257 426.469C115.972 426.827 116.688 427.152 117.404 427.478C114.216 431.675 110.345 434.766 110.345 434.766C98.3408 436.556 93.4286 430.016 93.4286 430.016C92.7129 423.964 91.7045 418.139 90.5008 412.543C89.3297 407.044 87.9634 401.773 86.467 396.762H86.5321Z" fill="url(#paint12_linear_9_4146)"/>
<path d="M55.9205 324.269C55.9205 324.269 62.6869 339.236 63.1424 339.984C63.1424 339.984 77.2282 365.331 86.5321 396.762C88.0285 401.741 89.3948 407.012 90.5659 412.543C90.5659 412.543 92.9732 370.602 55.9205 324.269Z" fill="url(#paint13_linear_9_4146)"/>
<path d="M99.642 402.521C99.642 402.521 99.2842 402.164 94.9576 388.628C94.9576 388.628 96.454 407.532 101.334 422.662C101.334 422.662 106.473 432.261 110.475 434.701C111.093 434.18 121.405 425.005 124.268 421.231C123.552 420.905 118.835 417.489 118.12 417.131C117.632 416.838 108.816 411.176 99.6095 402.554L99.642 402.521Z" fill="url(#paint14_linear_9_4146)"/>
<path d="M93.4937 430.016C93.4937 430.016 97.7553 435.677 108.002 435.027C103.643 429.04 95.3154 427.641 93.4937 430.016Z" fill="url(#paint15_linear_9_4146)"/>
<path d="M99.642 402.521L102.277 409.875C104.229 416.578 109.076 421.654 109.076 421.654C109.076 421.654 112.492 422.369 115.517 420.742L119.388 417.879C117.436 416.838 106.148 408.118 99.642 402.521Z" fill="url(#paint16_linear_9_4146)"/>
<path opacity="0.5" d="M58.2302 320.559C58.2302 320.559 60.8977 327.197 62.8171 333.347L65.5497 344.572C65.1593 344.084 63.8906 341.156 63.4026 340.57C58.2302 330.223 55.2374 323.683 50.9433 311.937C50.9433 311.937 56.2133 318.217 58.2627 320.527L58.2302 320.559Z" fill="url(#paint17_linear_9_4146)" style="mix-blend-mode:multiply"/>
<path d="M33.1164 294.074C33.1164 294.074 18.4775 278.619 9.72673 243.055H0C0 243.055 2.30969 282.23 39.7202 315.679L33.1164 294.074Z" fill="url(#paint18_linear_9_4146)"/>
<path d="M9.72673 243.023C18.0221 208.338 33.1164 192.004 33.1164 192.004L36.89 179.672C9.1737 205.897 4.68445 243.023 4.68445 243.023C4.68445 243.023 9.1737 280.148 36.89 306.406L33.1164 294.074C33.1164 294.074 18.0221 277.74 9.72673 243.055V243.023Z" fill="url(#paint19_linear_9_4146)"/>
<path opacity="0.5" d="M29.7657 289.779C29.7657 289.779 30.9043 296.807 30.7417 299.996L33.1164 309.367L39.7202 315.679L36.89 306.438L33.1164 294.107L29.7657 289.812V289.779Z" fill="url(#paint20_linear_9_4146)" style="mix-blend-mode:multiply"/>
<path opacity="0.5" d="M39.7202 170.399L36.89 179.64L33.1164 192.004L29.7657 196.299V187.188L36.89 173.002L39.7202 170.399Z" fill="url(#paint21_linear_9_4146)" style="mix-blend-mode:multiply"/>
<path opacity="0.5" d="M409.238 348.965L403.708 365.103C403.708 365.103 402.342 369.496 404.619 374.084L392.029 388.628L393.688 368.813L409.271 348.997L409.238 348.965Z" fill="url(#paint22_linear_9_4146)" style="mix-blend-mode:multiply"/>
<path d="M390.468 89.2829C399.804 120.682 413.597 145.475 413.597 145.475C416.753 152.438 421.079 161.776 421.079 161.776C422.901 165.746 426.089 174.108 426.089 174.108C417.013 164.087 411.125 155.334 404.228 146.289C390.858 128.783 381.717 97.9379 377.26 79.9772C375.146 71.5499 374.105 65.9535 374.105 65.9535C366.362 62.1791 362.231 59.869 361.743 59.5761C361.027 59.2182 360.312 58.8928 359.596 58.5675C362.784 54.3701 366.655 51.2791 366.655 51.2791C378.659 49.457 383.571 56.0295 383.571 56.0295C384.287 62.0815 385.295 67.9057 386.499 73.5022C387.67 79.001 389.037 84.2721 390.533 89.2829H390.468Z" fill="url(#paint23_linear_9_4146)"/>
<path d="M421.079 161.776C421.079 161.776 414.313 146.809 413.858 146.061C413.858 146.061 399.772 120.714 390.468 89.2829C388.971 84.3047 387.605 79.0336 386.434 73.5022C386.434 73.5022 384.027 115.443 421.079 161.776Z" fill="url(#paint24_linear_9_4146)"/>
<path d="M376.252 82.4174C376.252 82.4174 377.683 83.8816 382.01 97.4172C382.01 97.4172 380.513 78.5129 375.634 63.383C375.634 63.383 370.494 53.7844 366.493 51.3441C365.875 51.8647 360.995 55.1835 353.773 65.4979C354.489 65.8233 356.701 67.5803 357.417 67.9057C357.904 68.1986 365.191 73.4696 376.284 82.3524L376.252 82.4174Z" fill="url(#paint25_linear_9_4146)"/>
<path opacity="0.5" d="M383.506 56.0621C383.506 56.0621 379.245 50.4006 368.998 51.0514C373.357 57.0383 381.685 58.4374 383.506 56.0621Z" fill="url(#paint26_linear_9_4146)" style="mix-blend-mode:color-dodge"/>
<path d="M376.252 82.4175L373.129 73.5348C368.997 67.9708 364.248 65.1075 364.248 65.1075C364.248 65.1075 360.052 65.6932 356.018 67.0923L357.384 67.9708C367.176 74.4133 376.252 82.4175 376.252 82.4175Z" fill="url(#paint27_linear_9_4146)"/>
<path opacity="0.5" d="M418.737 165.518C418.737 165.518 416.07 158.881 414.15 152.731L411.418 141.506C411.808 141.994 413.077 144.922 413.565 145.508C418.737 155.855 421.73 162.395 426.024 174.141C426.024 174.141 420.754 167.861 418.705 165.551L418.737 165.518Z" fill="url(#paint28_linear_9_4146)" style="mix-blend-mode:multiply"/>
<path d="M443.884 192.004C443.884 192.004 458.522 207.459 467.273 243.023H477C477 243.023 474.69 203.847 437.28 170.399L443.884 192.004Z" fill="url(#paint29_linear_9_4146)"/>
<path d="M390.468 396.762C399.804 365.364 413.597 340.57 413.597 340.57C416.753 333.607 421.079 324.269 421.079 324.269C422.901 320.299 426.089 311.937 426.089 311.937C417.013 321.959 411.125 330.711 404.228 339.757C390.858 357.262 381.717 388.107 377.26 406.068C375.146 414.495 374.105 420.092 374.105 420.092C366.362 423.866 362.231 426.176 361.743 426.469C361.027 426.827 360.312 427.152 359.596 427.478C362.784 431.675 366.655 434.766 366.655 434.766C378.659 436.556 383.571 430.016 383.571 430.016C384.287 423.964 385.295 418.139 386.499 412.543C387.67 407.044 389.037 401.773 390.533 396.762H390.468Z" fill="url(#paint30_linear_9_4146)"/>
<path d="M421.079 324.269C421.079 324.269 414.313 339.236 413.858 339.984C413.858 339.984 399.772 365.331 390.468 396.762C388.971 401.741 387.605 407.012 386.434 412.543C386.434 412.543 384.027 370.602 421.079 324.269Z" fill="url(#paint31_linear_9_4146)"/>
<path d="M377.358 402.521C377.358 402.521 377.716 402.164 382.042 388.628C382.042 388.628 380.546 407.532 375.666 422.662C375.666 422.662 370.526 432.261 366.525 434.701C365.907 434.18 355.595 425.005 352.732 421.231C353.448 420.905 358.165 417.489 358.88 417.131C359.368 416.838 368.184 411.176 377.39 402.554L377.358 402.521Z" fill="url(#paint32_linear_9_4146)"/>
<path d="M383.506 430.016C383.506 430.016 379.245 435.677 368.997 435.027C373.357 429.04 381.684 427.641 383.506 430.016Z" fill="url(#paint33_linear_9_4146)"/>
<path d="M377.358 402.521L374.723 409.875C372.771 416.578 367.924 421.654 367.924 421.654C367.924 421.654 364.508 422.369 361.483 420.742L357.612 417.879C359.564 416.838 370.852 408.118 377.358 402.521Z" fill="url(#paint34_linear_9_4146)"/>
<path opacity="0.5" d="M418.737 320.559C418.737 320.559 416.07 327.197 414.15 333.347L411.418 344.572C411.808 344.084 413.077 341.156 413.565 340.57C418.737 330.223 421.73 323.683 426.024 311.937C426.024 311.937 420.754 318.217 418.705 320.527L418.737 320.559Z" fill="url(#paint35_linear_9_4146)" style="mix-blend-mode:multiply"/>
<path d="M443.884 294.074C443.884 294.074 458.522 278.619 467.273 243.055H477C477 243.055 474.69 282.23 437.28 315.679L443.884 294.074Z" fill="url(#paint36_linear_9_4146)"/>
<path d="M467.273 243.023C458.978 208.338 443.884 192.004 443.884 192.004L440.11 179.672C467.794 205.93 472.316 243.055 472.316 243.055C472.316 243.055 467.826 280.181 440.11 306.438L443.884 294.107C443.884 294.107 458.978 277.773 467.273 243.088V243.023Z" fill="url(#paint37_linear_9_4146)"/>
<path opacity="0.5" d="M447.234 289.779C447.234 289.779 446.096 296.807 446.258 299.996L443.884 309.367L437.28 315.679L440.11 306.438L443.884 294.107L447.234 289.812V289.779Z" fill="url(#paint38_linear_9_4146)" style="mix-blend-mode:multiply"/>
<path opacity="0.5" d="M437.28 170.399L440.11 179.64L443.884 192.004L447.234 196.299V187.188L440.11 173.002L437.28 170.399Z" fill="url(#paint39_linear_9_4146)" style="mix-blend-mode:multiply"/>
</g>
<defs>
<linearGradient id="paint0_linear_9_4146" x1="238.516" y1="454.647" x2="238.516" y2="31.3987" gradientUnits="userSpaceOnUse">
<stop stop-color="#CA6B34"/>
<stop offset="0.74" stop-color="#FFBD2B"/>
<stop offset="1" stop-color="#FFA933"/>
</linearGradient>
<linearGradient id="paint1_linear_9_4146" x1="238.516" y1="300.777" x2="238.516" y2="454.647" gradientUnits="userSpaceOnUse">
<stop stop-color="#F08D1D"/>
<stop offset="1" stop-color="#8D2C1B"/>
</linearGradient>
<linearGradient id="paint2_linear_9_4146" x1="238.516" y1="37.6134" x2="238.516" y2="448.465" gradientUnits="userSpaceOnUse">
<stop stop-color="#CA6B34"/>
<stop offset="0.17" stop-color="#CB6D33"/>
<stop offset="0.29" stop-color="#D17632"/>
<stop offset="0.39" stop-color="#DB8531"/>
<stop offset="0.48" stop-color="#E99B2E"/>
<stop offset="0.57" stop-color="#FBB62B"/>
<stop offset="0.59" stop-color="#FFBD2B"/>
<stop offset="1" stop-color="#FFA933"/>
</linearGradient>
<linearGradient id="paint3_linear_9_4146" x1="238.516" y1="185.301" x2="238.516" y2="31.3987" gradientUnits="userSpaceOnUse">
<stop stop-color="#EBBD38"/>
<stop offset="1" stop-color="#FFF29E"/>
</linearGradient>
<linearGradient id="paint4_linear_9_4146" x1="76.3499" y1="239.411" x2="76.3499" y2="308.423" gradientUnits="userSpaceOnUse">
<stop stop-color="#F08D1D"/>
<stop offset="1" stop-color="#8D2C1B"/>
</linearGradient>
<linearGradient id="paint5_linear_9_4146" x1="41.9379" y1="92.9677" x2="98.5005" y2="123.239" gradientUnits="userSpaceOnUse">
<stop stop-color="#B75014"/>
<stop offset="0.39" stop-color="#CA6B34"/>
<stop offset="1" stop-color="#FFA933"/>
</linearGradient>
<linearGradient id="paint6_linear_9_4146" x1="99.9712" y1="132.97" x2="49.8049" y2="106.122" gradientUnits="userSpaceOnUse">
<stop stop-color="#D16509"/>
<stop offset="1" stop-color="#8D2C1B"/>
</linearGradient>
<linearGradient id="paint7_linear_9_4146" x1="111.728" y1="80.2526" x2="93.7729" y2="70.6431" gradientUnits="userSpaceOnUse">
<stop stop-color="#E39330"/>
<stop offset="1" stop-color="#FFCD61"/>
</linearGradient>
<linearGradient id="paint8_linear_9_4146" x1="95.7779" y1="52.0049" x2="110.664" y2="59.9719" gradientUnits="userSpaceOnUse">
<stop stop-color="#EBBD38"/>
<stop offset="1" stop-color="#FFF29E"/>
</linearGradient>
<linearGradient id="paint9_linear_9_4146" x1="145.638" y1="94.3856" x2="127.138" y2="84.4844" gradientUnits="userSpaceOnUse">
<stop stop-color="#D16509"/>
<stop offset="1" stop-color="#8D2C1B"/>
</linearGradient>
<linearGradient id="paint10_linear_9_4146" x1="57.8658" y1="158.626" x2="62.1969" y2="160.944" gradientUnits="userSpaceOnUse">
<stop stop-color="#F08D1D"/>
<stop offset="1" stop-color="#8D2C1B"/>
</linearGradient>
<linearGradient id="paint11_linear_9_4146" x1="15.5172" y1="215.105" x2="1.42676" y2="242.955" gradientUnits="userSpaceOnUse">
<stop stop-color="#F08D1D"/>
<stop offset="1" stop-color="#8D2C1B"/>
</linearGradient>
<linearGradient id="paint12_linear_9_4146" x1="43.0154" y1="392.346" x2="99.5781" y2="362.074" gradientUnits="userSpaceOnUse">
<stop stop-color="#B75014"/>
<stop offset="0.39" stop-color="#CA6B34"/>
<stop offset="1" stop-color="#FFA933"/>
</linearGradient>
<linearGradient id="paint13_linear_9_4146" x1="101.077" y1="352.328" x2="50.9111" y2="379.177" gradientUnits="userSpaceOnUse">
<stop stop-color="#D16509"/>
<stop offset="1" stop-color="#8D2C1B"/>
</linearGradient>
<linearGradient id="paint14_linear_9_4146" x1="113.252" y1="404.86" x2="94.7511" y2="414.761" gradientUnits="userSpaceOnUse">
<stop stop-color="#E39330"/>
<stop offset="1" stop-color="#FFCD61"/>
</linearGradient>
<linearGradient id="paint15_linear_9_4146" x1="96.8841" y1="433.294" x2="111.771" y2="425.327" gradientUnits="userSpaceOnUse">
<stop stop-color="#D16509"/>
<stop offset="1" stop-color="#8D2C1B"/>
</linearGradient>
<linearGradient id="paint16_linear_9_4146" x1="144.813" y1="390.545" x2="126.686" y2="400.246" gradientUnits="userSpaceOnUse">
<stop stop-color="#D16509"/>
<stop offset="1" stop-color="#8D2C1B"/>
</linearGradient>
<linearGradient id="paint17_linear_9_4146" x1="58.9587" y1="326.716" x2="63.3185" y2="324.383" gradientUnits="userSpaceOnUse">
<stop stop-color="#F08D1D"/>
<stop offset="1" stop-color="#8D2C1B"/>
</linearGradient>
<linearGradient id="paint18_linear_9_4146" x1="-0.585556" y1="294.204" x2="19.196" y2="279.826" gradientUnits="userSpaceOnUse">
<stop stop-color="#F08D1D"/>
<stop offset="1" stop-color="#8D2C1B"/>
</linearGradient>
<linearGradient id="paint19_linear_9_4146" x1="62.4592" y1="261.048" x2="9.75211" y2="223.933" gradientUnits="userSpaceOnUse">
<stop stop-color="#B75014"/>
<stop offset="0.39" stop-color="#CA6B34"/>
<stop offset="1" stop-color="#FFA933"/>
</linearGradient>
<linearGradient id="paint20_linear_9_4146" x1="34.743" y1="218.294" x2="34.743" y2="263.326" gradientUnits="userSpaceOnUse">
<stop stop-color="#F08D1D"/>
<stop offset="1" stop-color="#8D2C1B"/>
</linearGradient>
<linearGradient id="paint21_linear_9_4146" x1="34.743" y1="98.914" x2="34.743" y2="143.946" gradientUnits="userSpaceOnUse">
<stop stop-color="#F08D1D"/>
<stop offset="1" stop-color="#8D2C1B"/>
</linearGradient>
<linearGradient id="paint22_linear_9_4146" x1="400.65" y1="239.411" x2="400.65" y2="308.423" gradientUnits="userSpaceOnUse">
<stop stop-color="#F08D1D"/>
<stop offset="1" stop-color="#8D2C1B"/>
</linearGradient>
<linearGradient id="paint23_linear_9_4146" x1="434.288" y1="91.802" x2="377.725" y2="122.074" gradientUnits="userSpaceOnUse">
<stop stop-color="#B75014"/>
<stop offset="0.39" stop-color="#CA6B34"/>
<stop offset="1" stop-color="#FFA933"/>
</linearGradient>
<linearGradient id="paint24_linear_9_4146" x1="376.226" y1="131.82" x2="426.392" y2="104.972" gradientUnits="userSpaceOnUse">
<stop stop-color="#D16509"/>
<stop offset="1" stop-color="#8D2C1B"/>
</linearGradient>
<linearGradient id="paint25_linear_9_4146" x1="364.482" y1="79.0582" x2="382.409" y2="69.464" gradientUnits="userSpaceOnUse">
<stop stop-color="#E39330"/>
<stop offset="1" stop-color="#FFCD61"/>
</linearGradient>
<linearGradient id="paint26_linear_9_4146" x1="380.419" y1="50.8545" x2="365.533" y2="58.8215" gradientUnits="userSpaceOnUse">
<stop stop-color="#EBBD38"/>
<stop offset="1" stop-color="#FFF29E"/>
</linearGradient>
<linearGradient id="paint27_linear_9_4146" x1="330.587" y1="93.2198" x2="349.059" y2="83.334" gradientUnits="userSpaceOnUse">
<stop stop-color="#D16509"/>
<stop offset="1" stop-color="#8D2C1B"/>
</linearGradient>
<linearGradient id="paint28_linear_9_4146" x1="418.345" y1="157.432" x2="413.985" y2="159.765" gradientUnits="userSpaceOnUse">
<stop stop-color="#F08D1D"/>
<stop offset="1" stop-color="#8D2C1B"/>
</linearGradient>
<linearGradient id="paint29_linear_9_4146" x1="461.483" y1="215.105" x2="475.573" y2="242.955" gradientUnits="userSpaceOnUse">
<stop stop-color="#F08D1D"/>
<stop offset="1" stop-color="#8D2C1B"/>
</linearGradient>
<linearGradient id="paint30_linear_9_4146" x1="433.166" y1="393.525" x2="376.604" y2="363.254" gradientUnits="userSpaceOnUse">
<stop stop-color="#B75014"/>
<stop offset="0.39" stop-color="#CA6B34"/>
<stop offset="1" stop-color="#FFA933"/>
</linearGradient>
<linearGradient id="paint31_linear_9_4146" x1="375.133" y1="353.523" x2="425.3" y2="380.371" gradientUnits="userSpaceOnUse">
<stop stop-color="#D16509"/>
<stop offset="1" stop-color="#8D2C1B"/>
</linearGradient>
<linearGradient id="paint32_linear_9_4146" x1="362.93" y1="406.039" x2="381.431" y2="415.94" gradientUnits="userSpaceOnUse">
<stop stop-color="#E39330"/>
<stop offset="1" stop-color="#FFCD61"/>
</linearGradient>
<linearGradient id="paint33_linear_9_4146" x1="379.298" y1="434.473" x2="364.44" y2="426.521" gradientUnits="userSpaceOnUse">
<stop stop-color="#D16509"/>
<stop offset="1" stop-color="#8D2C1B"/>
</linearGradient>
<linearGradient id="paint34_linear_9_4146" x1="331.384" y1="391.695" x2="349.54" y2="401.412" gradientUnits="userSpaceOnUse">
<stop stop-color="#D16509"/>
<stop offset="1" stop-color="#8D2C1B"/>
</linearGradient>
<linearGradient id="paint35_linear_9_4146" x1="417.223" y1="327.896" x2="412.892" y2="325.578" gradientUnits="userSpaceOnUse">
<stop stop-color="#F08D1D"/>
<stop offset="1" stop-color="#8D2C1B"/>
</linearGradient>
<linearGradient id="paint36_linear_9_4146" x1="477.553" y1="294.204" x2="457.804" y2="279.826" gradientUnits="userSpaceOnUse">
<stop stop-color="#F08D1D"/>
<stop offset="1" stop-color="#8D2C1B"/>
</linearGradient>
<linearGradient id="paint37_linear_9_4146" x1="414.541" y1="261.048" x2="467.248" y2="223.933" gradientUnits="userSpaceOnUse">
<stop stop-color="#B75014"/>
<stop offset="0.39" stop-color="#CA6B34"/>
<stop offset="1" stop-color="#FFA933"/>
</linearGradient>
<linearGradient id="paint38_linear_9_4146" x1="442.257" y1="218.294" x2="442.257" y2="263.326" gradientUnits="userSpaceOnUse">
<stop stop-color="#F08D1D"/>
<stop offset="1" stop-color="#8D2C1B"/>
</linearGradient>
<linearGradient id="paint39_linear_9_4146" x1="442.257" y1="98.914" x2="442.257" y2="143.946" gradientUnits="userSpaceOnUse">
<stop stop-color="#F08D1D"/>
<stop offset="1" stop-color="#8D2C1B"/>
</linearGradient>
<clipPath id="clip0_9_4146">
<rect width="477" height="477" fill="white"/>
</clipPath>
</defs>
</svg>
