<svg width="393" height="393" viewBox="0 0 393 393" fill="none" xmlns="http://www.w3.org/2000/svg">
<g clip-path="url(#clip0_9_4312)">
<path d="M196.513 22C100.213 22 22.1921 100.064 22.1921 196.357C22.1921 292.65 100.24 370.714 196.513 370.714C292.787 370.714 370.835 292.65 370.835 196.357C370.835 100.064 292.787 22 196.513 22ZM196.513 360.956C152.558 360.956 111.229 343.826 80.1652 312.756C49.0747 281.659 31.9749 240.321 31.9749 196.357C31.9749 152.392 49.1015 111.055 80.1652 79.9849C111.256 48.8881 152.558 31.7848 196.513 31.7848C240.469 31.7848 281.798 48.9149 312.862 79.9849C343.952 111.082 361.052 152.392 361.052 196.357C361.052 240.321 343.952 281.659 312.862 312.756C281.771 343.826 240.469 360.956 196.513 360.956Z" fill="url(#paint0_linear_9_4312)"/>
<path opacity="0.5" d="M196.513 365.942C117.795 365.942 51.1653 314.632 28.7587 243.914C49.4499 317.098 116.723 370.714 196.513 370.714C276.303 370.714 343.577 317.098 364.268 243.914C341.861 314.632 275.231 365.942 196.513 365.942Z" fill="url(#paint1_linear_9_4312)" style="mix-blend-mode:multiply"/>
<path d="M316.158 76.6876C284.183 44.706 241.702 27.1202 196.486 27.1202C151.271 27.1202 108.79 44.7329 76.8149 76.6876C44.8667 108.642 27.2577 151.159 27.2577 196.357C27.2577 241.555 44.8667 284.071 76.8149 316.053C108.79 348.008 151.271 365.62 196.486 365.62C241.702 365.62 284.183 348.008 316.158 316.053C348.106 284.098 365.715 241.581 365.715 196.357C365.715 151.132 348.106 108.642 316.158 76.6876ZM312.861 312.756C281.771 343.826 240.469 360.956 196.513 360.956C152.558 360.956 111.229 343.826 80.1651 312.756C49.0746 281.659 31.9749 240.321 31.9749 196.357C31.9749 152.392 49.1014 111.055 80.1651 79.9849C111.256 48.888 152.558 31.7848 196.513 31.7848C240.469 31.7848 281.798 48.9149 312.861 79.9849C343.952 111.082 361.052 152.392 361.052 196.357C361.052 240.321 343.952 281.659 312.861 312.756Z" fill="url(#paint2_linear_9_4312)"/>
<path d="M364.268 148.8C343.577 75.6153 276.303 22 196.513 22C116.723 22 49.4499 75.6153 28.7587 148.8C51.1653 78.0816 117.795 27.2811 196.513 27.2811C275.231 27.2811 341.861 78.0816 364.268 148.8Z" fill="url(#paint3_linear_9_4312)"/>
<path opacity="0.5" d="M55.8021 283.643L60.3584 296.939C60.3584 296.939 61.4841 300.558 59.608 304.338L69.9804 316.321L68.6135 299.995L55.7753 283.669L55.8021 283.643Z" fill="url(#paint4_linear_9_4312)" style="mix-blend-mode:multiply"/>
<path d="M71.2937 69.6908C63.6015 95.5602 52.2373 115.988 52.2373 115.988C49.6375 121.724 46.0728 129.418 46.0728 129.418C44.5719 132.689 41.9453 139.578 41.9453 139.578C49.4231 131.322 54.2743 124.11 59.9564 116.658C70.972 102.235 78.5035 76.8216 82.1753 62.0238C83.9175 55.0806 84.7752 50.4697 84.7752 50.4697C91.1541 47.36 94.5579 45.4567 94.96 45.2154C95.5496 44.9205 96.1393 44.6525 96.7289 44.3844C94.1023 40.9262 90.9128 38.3795 90.9128 38.3795C81.0229 36.8782 76.9757 42.2934 76.9757 42.2934C76.3861 47.2796 75.5552 52.0782 74.5635 56.6891C73.5987 61.2196 72.473 65.5624 71.2401 69.6908H71.2937Z" fill="url(#paint5_linear_9_4312)"/>
<path d="M46.0729 129.418C46.0729 129.418 51.6477 117.087 52.023 116.47C52.023 116.47 63.6283 95.5868 71.2937 69.6907C72.5266 65.5891 73.6523 61.2463 74.6172 56.689C74.6172 56.689 76.6005 91.244 46.0729 129.418Z" fill="#B15429"/>
<path d="M82.9795 64.0344C82.9795 64.0344 81.8002 65.2407 78.2355 76.3927C78.2355 76.3927 79.4684 60.8175 83.4887 48.3519C83.4887 48.3519 87.7234 40.4437 91.0201 38.4331C91.5293 38.862 95.5497 41.5964 101.5 50.0944C100.91 50.3625 99.0875 51.8101 98.4979 52.0782C98.0959 52.3195 92.0922 56.6623 82.9527 63.9808L82.9795 64.0344Z" fill="url(#paint6_linear_9_4312)"/>
<path opacity="0.5" d="M77.0294 42.3202C77.0294 42.3202 80.5405 37.6557 88.9832 38.1918C85.3917 43.1244 78.5303 44.2772 77.0294 42.3202Z" fill="url(#paint7_linear_9_4312)" style="mix-blend-mode:color-dodge"/>
<path d="M82.9795 64.0344L85.5525 56.7159C88.9564 52.1318 92.8695 49.7727 92.8695 49.7727C92.8695 49.7727 96.327 50.2552 99.6504 51.408L98.5247 52.1318C90.4573 57.4397 82.9795 64.0344 82.9795 64.0344Z" fill="url(#paint8_linear_9_4312)"/>
<path opacity="0.5" d="M47.9759 132.501C47.9759 132.501 50.1736 127.032 51.755 121.966L54.0063 112.717C53.6847 113.119 52.6394 115.532 52.2374 116.014C47.9759 124.539 45.5101 129.928 41.9722 139.605C41.9722 139.605 46.3141 134.431 48.0027 132.528L47.9759 132.501Z" fill="url(#paint9_linear_9_4312)" style="mix-blend-mode:multiply"/>
<path d="M27.2846 154.322C27.2846 154.322 15.2236 167.056 8.01384 196.357H0C0 196.357 1.90295 164.08 32.7254 136.522L27.2846 154.322Z" fill="url(#paint10_linear_9_4312)"/>
<path d="M71.2937 323.023C63.6015 297.154 52.2373 276.726 52.2373 276.726C49.6375 270.989 46.0728 263.296 46.0728 263.296C44.5719 260.025 41.9453 253.135 41.9453 253.135C49.4231 261.392 54.2743 268.603 59.9564 276.056C70.972 290.479 78.5035 315.892 82.1753 330.69C83.9175 337.633 84.7752 342.244 84.7752 342.244C91.1541 345.354 94.5579 347.257 94.96 347.498C95.5496 347.793 96.1393 348.061 96.7289 348.329C94.1023 351.788 90.9128 354.334 90.9128 354.334C81.0229 355.809 76.9757 350.42 76.9757 350.42C76.3861 345.434 75.5552 340.636 74.5635 336.025C73.5987 331.494 72.473 327.151 71.2401 323.023H71.2937Z" fill="url(#paint11_linear_9_4312)"/>
<path d="M46.0729 263.295C46.0729 263.295 51.6477 275.627 52.023 276.243C52.023 276.243 63.6283 297.127 71.2937 323.023C72.5266 327.124 73.6523 331.467 74.6172 336.025C74.6172 336.025 76.6005 301.469 46.0729 263.295Z" fill="#B15429"/>
<path d="M82.095 327.768C82.095 327.768 81.8002 327.473 78.2355 316.321C78.2355 316.321 79.4684 331.896 83.4887 344.362C83.4887 344.362 87.7234 352.27 91.0201 354.281C91.5293 353.852 100.026 346.292 102.384 343.182C101.795 342.914 97.9083 340.099 97.3186 339.805C96.9166 339.563 89.6532 334.899 82.0682 327.795L82.095 327.768Z" fill="url(#paint12_linear_9_4312)"/>
<path d="M77.0294 350.42C77.0294 350.42 80.5405 355.085 88.9832 354.549C85.3917 349.616 78.5303 348.463 77.0294 350.42Z" fill="url(#paint13_linear_9_4312)"/>
<path d="M82.095 327.768L84.2659 333.826C85.8741 339.349 89.8676 343.531 89.8676 343.531C89.8676 343.531 92.6818 344.12 95.1744 342.78L98.3639 340.421C96.7558 339.563 87.4554 332.379 82.095 327.768Z" fill="url(#paint14_linear_9_4312)"/>
<path opacity="0.5" d="M47.9759 260.24C47.9759 260.24 50.1736 265.708 51.755 270.775L54.0063 280.024C53.6847 279.621 52.6394 277.209 52.2374 276.726C47.9759 268.201 45.5101 262.813 41.9722 253.135C41.9722 253.135 46.3141 258.309 48.0027 260.213L47.9759 260.24Z" fill="url(#paint15_linear_9_4312)" style="mix-blend-mode:multiply"/>
<path d="M27.2846 238.418C27.2846 238.418 15.2236 225.684 8.01384 196.384H0C0 196.384 1.90295 228.66 32.7254 256.218L27.2846 238.418Z" fill="url(#paint16_linear_9_4312)"/>
<path d="M8.01383 196.357C14.8484 167.78 27.2846 154.322 27.2846 154.322L30.3936 144.162C7.55819 165.769 3.8595 196.357 3.8595 196.357C3.8595 196.357 7.55819 226.944 30.3936 248.578L27.2846 238.418C27.2846 238.418 14.8484 224.961 8.01383 196.384V196.357Z" fill="url(#paint17_linear_9_4312)"/>
<path opacity="0.5" d="M24.5239 234.879C24.5239 234.879 25.462 240.67 25.328 243.297L27.2845 251.018L32.7254 256.218L30.3936 248.605L27.2845 238.445L24.5239 234.906V234.879Z" fill="url(#paint18_linear_9_4312)" style="mix-blend-mode:multiply"/>
<path opacity="0.5" d="M32.7254 136.522L30.3936 144.136L27.2845 154.322L24.5239 157.861V150.355L30.3936 138.667L32.7254 136.522Z" fill="url(#paint19_linear_9_4312)" style="mix-blend-mode:multiply"/>
<path opacity="0.5" d="M337.171 283.643L332.615 296.939C332.615 296.939 331.489 300.558 333.365 304.338L322.993 316.321L324.36 299.995L337.198 283.669L337.171 283.643Z" fill="url(#paint20_linear_9_4312)" style="mix-blend-mode:multiply"/>
<path d="M321.706 69.6908C329.398 95.5602 340.763 115.988 340.763 115.988C343.362 121.724 346.927 129.418 346.927 129.418C348.428 132.689 351.055 139.578 351.055 139.578C343.577 131.322 338.726 124.11 333.044 116.658C322.028 102.235 314.496 76.8216 310.825 62.0238C309.082 55.0806 308.225 50.4697 308.225 50.4697C301.846 47.36 298.442 45.4567 298.04 45.2154C297.45 44.9205 296.861 44.6525 296.271 44.3844C298.898 40.9262 302.087 38.3795 302.087 38.3795C311.977 36.8782 316.024 42.2934 316.024 42.2934C316.614 47.2796 317.445 52.0782 318.436 56.6891C319.401 61.2196 320.527 65.5624 321.76 69.6908H321.706Z" fill="url(#paint21_linear_9_4312)"/>
<path d="M346.927 129.418C346.927 129.418 341.352 117.087 340.977 116.47C340.977 116.47 329.372 95.5868 321.706 69.6907C320.473 65.5891 319.348 61.2463 318.383 56.689C318.383 56.689 316.399 91.244 346.927 129.418Z" fill="#B15429"/>
<path d="M309.994 64.0344C309.994 64.0344 311.173 65.2407 314.738 76.3927C314.738 76.3927 313.505 60.8175 309.484 48.3519C309.484 48.3519 305.25 40.4437 301.953 38.4331C301.444 38.862 297.423 41.5964 291.473 50.0944C292.063 50.3625 293.886 51.8101 294.475 52.0782C294.877 52.3195 300.881 56.6623 310.02 63.9808L309.994 64.0344Z" fill="url(#paint22_linear_9_4312)"/>
<path opacity="0.5" d="M315.971 42.3202C315.971 42.3202 312.46 37.6557 304.017 38.1918C307.608 43.1244 314.47 44.2772 315.971 42.3202Z" fill="url(#paint23_linear_9_4312)" style="mix-blend-mode:color-dodge"/>
<path d="M309.994 64.0344L307.421 56.7159C304.017 52.1318 300.104 49.7727 300.104 49.7727C300.104 49.7727 296.646 50.2552 293.323 51.408L294.448 52.1318C302.516 57.4397 309.994 64.0344 309.994 64.0344Z" fill="url(#paint24_linear_9_4312)"/>
<path opacity="0.5" d="M344.997 132.501C344.997 132.501 342.799 127.032 341.218 121.966L338.967 112.717C339.288 113.119 340.334 115.532 340.736 116.014C344.997 124.539 347.463 129.928 351.001 139.605C351.001 139.605 346.659 134.431 344.97 132.528L344.997 132.501Z" fill="url(#paint25_linear_9_4312)" style="mix-blend-mode:multiply"/>
<path d="M365.715 154.322C365.715 154.322 377.776 167.056 384.986 196.357H393C393 196.357 391.097 164.08 360.275 136.522L365.715 154.322Z" fill="url(#paint26_linear_9_4312)"/>
<path d="M321.706 323.023C329.398 297.154 340.763 276.726 340.763 276.726C343.362 270.989 346.927 263.296 346.927 263.296C348.428 260.025 351.055 253.135 351.055 253.135C343.577 261.392 338.726 268.603 333.044 276.056C322.028 290.479 314.496 315.892 310.825 330.69C309.082 337.633 308.225 342.244 308.225 342.244C301.846 345.354 298.442 347.257 298.04 347.498C297.45 347.793 296.861 348.061 296.271 348.329C298.898 351.788 302.087 354.334 302.087 354.334C311.977 355.809 316.024 350.42 316.024 350.42C316.614 345.434 317.445 340.636 318.436 336.025C319.401 331.494 320.527 327.151 321.76 323.023H321.706Z" fill="url(#paint27_linear_9_4312)"/>
<path d="M346.927 263.295C346.927 263.295 341.352 275.627 340.977 276.243C340.977 276.243 329.372 297.127 321.706 323.023C320.473 327.124 319.348 331.467 318.383 336.025C318.383 336.025 316.399 301.469 346.927 263.295Z" fill="#B15429"/>
<path d="M310.905 327.768C310.905 327.768 311.2 327.473 314.764 316.321C314.764 316.321 313.532 331.896 309.511 344.362C309.511 344.362 305.276 352.27 301.98 354.281C301.471 353.852 292.974 346.292 290.616 343.182C291.205 342.914 295.092 340.099 295.681 339.805C296.083 339.563 303.347 334.899 310.932 327.795L310.905 327.768Z" fill="url(#paint28_linear_9_4312)"/>
<path d="M315.971 350.42C315.971 350.42 312.46 355.085 304.017 354.549C307.608 349.616 314.47 348.463 315.971 350.42Z" fill="url(#paint29_linear_9_4312)"/>
<path d="M310.905 327.768L308.734 333.826C307.126 339.349 303.132 343.531 303.132 343.531C303.132 343.531 300.318 344.12 297.825 342.78L294.636 340.421C296.244 339.563 305.544 332.379 310.905 327.768Z" fill="url(#paint30_linear_9_4312)"/>
<path opacity="0.5" d="M344.997 260.24C344.997 260.24 342.799 265.708 341.218 270.775L338.967 280.024C339.288 279.621 340.334 277.209 340.736 276.726C344.997 268.201 347.463 262.813 351.001 253.135C351.001 253.135 346.659 258.309 344.97 260.213L344.997 260.24Z" fill="url(#paint31_linear_9_4312)" style="mix-blend-mode:multiply"/>
<path d="M365.715 238.418C365.715 238.418 377.776 225.684 384.986 196.384H393C393 196.384 391.097 228.66 360.275 256.218L365.715 238.418Z" fill="url(#paint32_linear_9_4312)"/>
<path d="M384.986 196.357C378.152 167.78 365.715 154.322 365.715 154.322L362.606 144.162C385.415 165.796 389.14 196.384 389.14 196.384C389.14 196.384 385.442 226.971 362.606 248.605L365.715 238.445C365.715 238.445 378.152 224.987 384.986 196.41V196.357Z" fill="url(#paint33_linear_9_4312)"/>
<path opacity="0.5" d="M368.476 234.879C368.476 234.879 367.538 240.67 367.672 243.297L365.715 251.018L360.275 256.218L362.606 248.605L365.715 238.445L368.476 234.906V234.879Z" fill="url(#paint34_linear_9_4312)" style="mix-blend-mode:multiply"/>
<path opacity="0.5" d="M360.275 136.522L362.606 144.136L365.715 154.322L368.476 157.861V150.355L362.606 138.667L360.275 136.522Z" fill="url(#paint35_linear_9_4312)" style="mix-blend-mode:multiply"/>
</g>
<defs>
<linearGradient id="paint0_linear_9_4312" x1="195.963" y1="371" x2="195.963" y2="7.49997" gradientUnits="userSpaceOnUse">
<stop stop-color="#A64B21"/>
<stop offset="1" stop-color="#F68D59"/>
</linearGradient>
<linearGradient id="paint1_linear_9_4312" x1="196.513" y1="243.94" x2="196.513" y2="370.714" gradientUnits="userSpaceOnUse">
<stop stop-color="#8980EB"/>
<stop offset="1" stop-color="#705AB8"/>
</linearGradient>
<linearGradient id="paint2_linear_9_4312" x1="160.967" y1="72.4684" x2="237.8" y2="340.544" gradientUnits="userSpaceOnUse">
<stop stop-color="#A64B21"/>
<stop offset="1" stop-color="#F68D59"/>
</linearGradient>
<linearGradient id="paint3_linear_9_4312" x1="252.76" y1="132.835" x2="233.344" y2="18.2392" gradientUnits="userSpaceOnUse">
<stop stop-color="#843D17"/>
<stop offset="1" stop-color="#F38B55"/>
</linearGradient>
<linearGradient id="paint4_linear_9_4312" x1="62.9046" y1="193.381" x2="62.9046" y2="250.24" gradientUnits="userSpaceOnUse">
<stop stop-color="#8980EB"/>
<stop offset="1" stop-color="#705AB8"/>
</linearGradient>
<linearGradient id="paint5_linear_9_4312" x1="78.5214" y1="126.803" x2="32.1613" y2="70.9674" gradientUnits="userSpaceOnUse">
<stop stop-color="#843D17"/>
<stop offset="1" stop-color="#F38B55"/>
</linearGradient>
<linearGradient id="paint6_linear_9_4312" x1="89.8625" y1="39.7071" x2="89.8625" y2="87.0436" gradientUnits="userSpaceOnUse">
<stop stop-color="#A64B21"/>
<stop offset="1" stop-color="#F68D59"/>
</linearGradient>
<linearGradient id="paint7_linear_9_4312" x1="78.8611" y1="39.0075" x2="91.126" y2="45.5716" gradientUnits="userSpaceOnUse">
<stop stop-color="#8980EB"/>
<stop offset="1" stop-color="#ADBEDF"/>
</linearGradient>
<linearGradient id="paint8_linear_9_4312" x1="119.918" y1="73.9123" x2="104.699" y2="65.7673" gradientUnits="userSpaceOnUse">
<stop stop-color="#705AB8"/>
<stop offset="1" stop-color="#181D3B"/>
</linearGradient>
<linearGradient id="paint9_linear_9_4312" x1="47.6144" y1="126.816" x2="51.2064" y2="128.739" gradientUnits="userSpaceOnUse">
<stop stop-color="#8980EB"/>
<stop offset="1" stop-color="#705AB8"/>
</linearGradient>
<linearGradient id="paint10_linear_9_4312" x1="16.366" y1="68.8883" x2="16.366" y2="165.586" gradientUnits="userSpaceOnUse">
<stop stop-color="#A64B21"/>
<stop offset="1" stop-color="#F68D59"/>
</linearGradient>
<linearGradient id="paint11_linear_9_4312" x1="78.5214" y1="341.816" x2="32.1653" y2="285.981" gradientUnits="userSpaceOnUse">
<stop stop-color="#843D17"/>
<stop offset="1" stop-color="#F38B55"/>
</linearGradient>
<linearGradient id="paint12_linear_9_4312" x1="90.3045" y1="317.595" x2="90.3045" y2="364.932" gradientUnits="userSpaceOnUse">
<stop stop-color="#A64B21"/>
<stop offset="1" stop-color="#F68D59"/>
</linearGradient>
<linearGradient id="paint13_linear_9_4312" x1="85.0103" y1="353.953" x2="84.1437" y2="349.399" gradientUnits="userSpaceOnUse">
<stop stop-color="#843D17"/>
<stop offset="1" stop-color="#F38B55"/>
</linearGradient>
<linearGradient id="paint14_linear_9_4312" x1="119.338" y1="317.838" x2="104.379" y2="325.844" gradientUnits="userSpaceOnUse">
<stop stop-color="#705AB8"/>
<stop offset="1" stop-color="#181D3B"/>
</linearGradient>
<linearGradient id="paint15_linear_9_4312" x1="48.6025" y1="265.25" x2="52.1709" y2="263.34" gradientUnits="userSpaceOnUse">
<stop stop-color="#8980EB"/>
<stop offset="1" stop-color="#705AB8"/>
</linearGradient>
<linearGradient id="paint16_linear_9_4312" x1="16.366" y1="128.75" x2="16.366" y2="225.448" gradientUnits="userSpaceOnUse">
<stop stop-color="#A64B21"/>
<stop offset="1" stop-color="#F68D59"/>
</linearGradient>
<linearGradient id="paint17_linear_9_4312" x1="17.1248" y1="146.249" x2="17.1248" y2="223.71" gradientUnits="userSpaceOnUse">
<stop stop-color="#833C16"/>
<stop offset="1" stop-color="#E47D4B"/>
</linearGradient>
<linearGradient id="paint18_linear_9_4312" x1="28.6247" y1="175.983" x2="28.6247" y2="213.085" gradientUnits="userSpaceOnUse">
<stop stop-color="#8980EB"/>
<stop offset="1" stop-color="#705AB8"/>
</linearGradient>
<linearGradient id="paint19_linear_9_4312" x1="28.6247" y1="77.6258" x2="28.6247" y2="114.728" gradientUnits="userSpaceOnUse">
<stop stop-color="#8980EB"/>
<stop offset="1" stop-color="#705AB8"/>
</linearGradient>
<linearGradient id="paint20_linear_9_4312" x1="330.095" y1="193.381" x2="330.095" y2="250.24" gradientUnits="userSpaceOnUse">
<stop stop-color="#8980EB"/>
<stop offset="1" stop-color="#705AB8"/>
</linearGradient>
<linearGradient id="paint21_linear_9_4312" x1="332.847" y1="126.803" x2="286.487" y2="70.9674" gradientUnits="userSpaceOnUse">
<stop stop-color="#843D17"/>
<stop offset="1" stop-color="#F38B55"/>
</linearGradient>
<linearGradient id="paint22_linear_9_4312" x1="303.1" y1="39.7071" x2="303.1" y2="87.0436" gradientUnits="userSpaceOnUse">
<stop stop-color="#A64B21"/>
<stop offset="1" stop-color="#F68D59"/>
</linearGradient>
<linearGradient id="paint23_linear_9_4312" x1="313.465" y1="38.0361" x2="301.224" y2="44.5875" gradientUnits="userSpaceOnUse">
<stop stop-color="#8980EB"/>
<stop offset="1" stop-color="#ADBEDF"/>
</linearGradient>
<linearGradient id="paint24_linear_9_4312" x1="251.753" y1="71.3529" x2="313.935" y2="54.3365" gradientUnits="userSpaceOnUse">
<stop stop-color="#705AB8"/>
<stop offset="1" stop-color="#181D3B"/>
</linearGradient>
<linearGradient id="paint25_linear_9_4312" x1="344.712" y1="125.845" x2="341.143" y2="127.755" gradientUnits="userSpaceOnUse">
<stop stop-color="#8980EB"/>
<stop offset="1" stop-color="#705AB8"/>
</linearGradient>
<linearGradient id="paint26_linear_9_4312" x1="376.641" y1="68.8883" x2="376.641" y2="165.586" gradientUnits="userSpaceOnUse">
<stop stop-color="#A64B21"/>
<stop offset="1" stop-color="#F68D59"/>
</linearGradient>
<linearGradient id="paint27_linear_9_4312" x1="332.847" y1="341.816" x2="286.491" y2="285.981" gradientUnits="userSpaceOnUse">
<stop stop-color="#843D17"/>
<stop offset="1" stop-color="#F38B55"/>
</linearGradient>
<linearGradient id="paint28_linear_9_4312" x1="302.685" y1="317.595" x2="302.685" y2="364.932" gradientUnits="userSpaceOnUse">
<stop stop-color="#A64B21"/>
<stop offset="1" stop-color="#F68D59"/>
</linearGradient>
<linearGradient id="paint29_linear_9_4312" x1="311.998" y1="353.953" x2="311.131" y2="349.399" gradientUnits="userSpaceOnUse">
<stop stop-color="#843D17"/>
<stop offset="1" stop-color="#F38B55"/>
</linearGradient>
<linearGradient id="paint30_linear_9_4312" x1="273.011" y1="318.822" x2="287.947" y2="326.815" gradientUnits="userSpaceOnUse">
<stop stop-color="#705AB8"/>
<stop offset="1" stop-color="#181D3B"/>
</linearGradient>
<linearGradient id="paint31_linear_9_4312" x1="343.747" y1="266.234" x2="340.155" y2="264.312" gradientUnits="userSpaceOnUse">
<stop stop-color="#8980EB"/>
<stop offset="1" stop-color="#705AB8"/>
</linearGradient>
<linearGradient id="paint32_linear_9_4312" x1="376.641" y1="128.75" x2="376.641" y2="225.448" gradientUnits="userSpaceOnUse">
<stop stop-color="#A64B21"/>
<stop offset="1" stop-color="#F68D59"/>
</linearGradient>
<linearGradient id="paint33_linear_9_4312" x1="375.872" y1="146.249" x2="375.872" y2="223.73" gradientUnits="userSpaceOnUse">
<stop stop-color="#833C16"/>
<stop offset="1" stop-color="#E47D4B"/>
</linearGradient>
<linearGradient id="paint34_linear_9_4312" x1="364.375" y1="175.983" x2="364.375" y2="213.085" gradientUnits="userSpaceOnUse">
<stop stop-color="#8980EB"/>
<stop offset="1" stop-color="#705AB8"/>
</linearGradient>
<linearGradient id="paint35_linear_9_4312" x1="364.375" y1="77.6258" x2="364.375" y2="114.728" gradientUnits="userSpaceOnUse">
<stop stop-color="#8980EB"/>
<stop offset="1" stop-color="#705AB8"/>
</linearGradient>
<clipPath id="clip0_9_4312">
<rect width="393" height="393" fill="white"/>
</clipPath>
</defs>
</svg>
