<svg width="582" height="582" viewBox="0 0 582 582" fill="none" xmlns="http://www.w3.org/2000/svg">
<g clip-path="url(#clip0_2010_362)">
<path fill-rule="evenodd" clip-rule="evenodd" d="M144 289.12L144 286.883L146.275 289.154L146.275 286.918L144 284.647L144 229.529L145.138 228.394L145.138 171.005L146.275 169.87L146.275 119.947L150.067 116.163L150.067 87.0554L179.231 87.0554L183.023 83.2708L194.226 83.2708L196.502 81L228.01 81L230.285 83.2708L277.098 83.2708L280.89 87.0554L312.984 87.0554L316.776 83.2708L373.759 83.2708L373.759 110.245L376.034 112.516L376.034 181.636L373.759 183.907L373.759 189.137L376.034 191.408L376.034 199.321L373.759 201.592L373.759 438.906L374.897 440.042L374.897 442.278L373.759 441.143L373.759 443.379L375.552 445.168L375.552 447.405L373.759 445.616L373.759 447.852L376.034 450.123L376.034 452.359L373.759 450.088L373.759 452.325L376.034 454.595L376.034 456.832L373.759 454.561L373.759 456.797L376.034 459.068L376.034 461.304L373.759 459.034L373.759 461.27L376.034 463.541L376.034 530.46L373.759 532.731L373.759 548.729L338.494 548.729L336.219 551L253.278 551L251.003 548.729L188.401 548.729L186.608 550.518L166.717 550.518L164.925 548.729L146.275 548.729L146.275 530.081L150.067 526.297L150.067 513.567L146.275 509.782L146.275 467.532L150.067 463.747L150.067 341.716L146.275 337.931L146.275 322.665L145.138 321.53L145.138 319.293L146.275 320.429L146.275 318.193L144.483 316.403L144.483 314.167L146.275 315.956L146.275 313.72L144 311.449L144 309.213L146.275 311.483L146.275 309.247L144 306.976L144 304.74L146.275 307.011L146.275 304.774L144 302.504L144 300.267L146.275 302.538L146.275 300.302L144 298.031L144 295.794L146.275 298.065L146.275 295.829L144 293.558L144 291.322L146.275 293.592L146.275 291.356L144 289.085L144 289.12ZM372.277 227.981L372.277 99.1662L369.933 96.8266L369.933 544.945L192.193 544.945L189.848 547.284L372.311 547.284L372.311 227.981L372.277 227.981ZM368.485 225.297L368.485 88.5004L151.515 88.5004L151.515 543.5L368.485 543.5L368.485 225.297ZM373.759 200.628L373.759 190.1L375.345 191.683L375.345 199.046L373.759 200.628ZM373.759 182.91L373.759 111.174L375.345 112.756L375.345 181.327L373.759 182.91ZM317.569 84.7158L357.833 84.7158L360.177 87.0554L315.225 87.0554L317.569 84.7158ZM360.039 84.7158L372.277 84.7158L372.277 96.9298L369.933 94.5902L369.933 87.0554L362.383 87.0554L360.039 84.7158ZM187.608 547.284L147.723 547.284L147.723 530.873L150.067 528.533L150.067 544.945L189.952 544.945L187.608 547.284ZM251.968 548.729L257.621 548.729L259.207 550.312L253.554 550.312L251.968 548.729ZM310.537 550.312L312.122 548.729L337.529 548.729L335.943 550.312L310.537 550.312ZM147.723 509.025L147.723 468.323L150.067 465.984L150.067 511.365L147.723 509.025ZM147.723 337.14L147.723 120.739L150.067 118.399L150.067 339.479L147.723 337.14ZM183.816 84.7158L276.305 84.7158L278.65 87.0554L181.472 87.0554L183.816 84.7158Z" fill="url(#paint0_radial_2010_362)"/>
<path fill-rule="evenodd" clip-rule="evenodd" d="M314.432 83.2708L279.408 83.2708L281.269 85.1287L312.571 85.1287L314.432 83.2708Z" fill="#CCCC33"/>
<path fill-rule="evenodd" clip-rule="evenodd" d="M148.137 513.979L146.275 512.122L146.275 527.776L148.137 525.918L148.137 513.979Z" fill="#CCCC14"/>
<path fill-rule="evenodd" clip-rule="evenodd" d="M146.275 375.192L148.137 373.334L148.137 342.129L146.275 340.271L146.275 375.192Z" fill="#CCCC14"/>
<path fill-rule="evenodd" clip-rule="evenodd" d="M146.275 110.589L148.137 108.731L148.137 83.6837L146.275 81.8258L146.275 110.589Z" fill="#CCCC33"/>
<path fill-rule="evenodd" clip-rule="evenodd" d="M163.925 84.7158L166.166 84.7158L163.27 81.8258L161.03 81.8258L163.925 84.7158ZM159.444 84.7158L161.684 84.7158L158.789 81.8258L156.548 81.8258L159.444 84.7158ZM154.962 84.7158L157.203 84.7158L154.307 81.8258L152.067 81.8258L154.962 84.7158Z" fill="#CCCC33"/>
<path fill-rule="evenodd" clip-rule="evenodd" d="M259 548.729L260.31 550.037L286.923 550.037L288.233 548.729L259 548.729Z" fill="url(#paint1_linear_2010_362)" style="mix-blend-mode:screen"/>
<rect x="152" y="543" width="455" height="216" transform="rotate(-90 152 543)" fill="#073191"/>
</g>
<path d="M163.699 325.535C160.635 327.597 156.984 329.897 154.468 330.871V330.875C153.282 331.335 152 330.47 152 329.218V325.453V306.156V301.783C152 300.461 153.413 299.6 154.615 300.188C157.294 301.502 161.06 303.755 164.222 306.156C167.699 308.795 170.953 311.566 173.243 313.978C174.251 315.042 174.254 316.683 173.243 317.744C170.981 320.125 167.58 322.924 163.699 325.535Z" fill="white"/>
<path d="M357.301 325.535C360.365 327.597 364.016 329.897 366.532 330.871V330.875C367.718 331.335 369 330.47 369 329.218V325.453V306.156V301.783C369 300.461 367.587 299.6 366.385 300.188C363.706 301.502 359.94 303.755 356.778 306.156C353.301 308.795 350.047 311.566 347.757 313.978C346.749 315.042 346.746 316.683 347.757 317.744C350.019 320.125 353.42 322.924 357.301 325.535Z" fill="white"/>
<defs>
<radialGradient id="paint0_radial_2010_362" cx="0" cy="0" r="1" gradientUnits="userSpaceOnUse" gradientTransform="translate(146.31 478.97) rotate(-90) scale(457.457 458.347)">
<stop stop-color="#00CCFF"/>
<stop offset="1" stop-color="#00CCFF"/>
</radialGradient>
<linearGradient id="paint1_linear_2010_362" x1="288.233" y1="549.383" x2="259" y2="549.383" gradientUnits="userSpaceOnUse">
<stop/>
<stop offset="1" stop-color="white"/>
</linearGradient>
<clipPath id="clip0_2010_362">
<rect width="470" height="232" fill="white" transform="translate(144 551) rotate(-90)"/>
</clipPath>
</defs>
</svg>
