<svg width="45" height="30" viewBox="0 0 45 30" fill="none" xmlns="http://www.w3.org/2000/svg">
<path d="M42.8754 10.1226L34.443 2.1703C33.0621 0.867611 31.449 0 28.0717 0C25.0612 0 23.4823 1.78484 23.1739 3.67017H6.50582C6.48043 3.67017 6.45505 3.67017 6.42966 3.67144H6.40428H4.5259C2.02942 3.67144 -0.00126266 5.74506 -0.00126266 8.29446V21.4562C-0.00126266 24.0056 2.02942 26.0792 4.5259 26.0792H6.38778L6.42459 26.0818C6.45124 26.0818 6.47789 26.0843 6.50582 26.0843H12.259L19.6609 26.0881C19.7129 26.0881 19.7637 26.0868 19.8144 26.0843H23.1397C23.344 28.0421 24.9102 29.9987 28.0704 30C30.8855 30 32.8502 29.3308 34.4417 27.8297L42.8741 19.8774C44.2461 18.5849 45 16.8523 45 15C45 13.1477 44.2461 11.4151 42.8754 10.1226Z" fill="#6D3902"/>
<path d="M42.5875 10.4304L34.155 2.47817C32.8516 1.24799 31.3552 0.422363 28.0719 0.422363C25.1033 0.422363 23.6754 2.27717 23.5485 4.09253H6.50726C6.47299 4.09253 6.43999 4.09508 6.40572 4.09508H4.52734C2.25931 4.09508 0.421543 5.97533 0.421543 8.29574V21.4575C0.421543 23.7779 2.26058 25.6594 4.52734 25.6594H6.39684C6.43364 25.6607 6.46918 25.6632 6.50599 25.6632H12.2604L19.6623 25.667C19.7131 25.667 19.7638 25.6645 19.8146 25.6632H23.5396C23.5511 27.5536 24.97 29.5789 28.0719 29.5789C31.1204 29.5789 32.8516 28.752 34.155 27.5231L42.5887 19.5709C43.8731 18.3598 44.5801 16.7365 44.5801 15.0013C44.5801 13.2661 43.8731 11.6428 42.5887 10.4317L42.5875 10.4304Z" fill="#B26510"/>
<path d="M28.0922 0.422363C25.1236 0.422363 23.6957 2.27717 23.5688 4.09254H6.52754C6.49327 4.09254 6.46028 4.09508 6.42601 4.09508H4.54762C2.2796 4.09508 0.441833 5.97533 0.441833 8.29574V9.746L44.165 12.7114C43.8287 11.8616 43.3045 11.0856 42.609 10.4291L34.1753 2.47817C32.8719 1.24799 31.3755 0.422363 28.0922 0.422363Z" fill="#E2B137"/>
<path d="M41.1165 10.7864L33.7159 3.80734C32.5711 2.72855 30.628 2.00342 28.8778 2.00342C26.2722 2.00342 25.0195 3.63051 24.9078 5.22452H7.08347C7.05428 5.22452 7.02509 5.22706 6.99463 5.22706H5.34597C3.35589 5.22706 1.74277 6.87705 1.74277 8.91377V20.465C1.74277 22.5017 3.35589 24.1529 5.34597 24.1529H6.98701C7.01874 24.1542 7.05047 24.1568 7.0822 24.1568H12.1323L18.6279 24.1606C18.6723 24.1606 18.7168 24.1593 18.7612 24.1568H24.8977C24.9078 25.8156 26.1529 27.5928 28.8753 27.5928C30.6242 27.5928 32.5686 26.8677 33.7121 25.7889L41.1127 18.8099C42.2397 17.7464 42.8604 16.3228 42.8604 14.8C42.8604 13.2773 42.2397 11.8525 41.1127 10.7889L41.1165 10.7864Z" fill="#B26510"/>
<path d="M41.1161 18.7526L33.7155 25.7317C32.572 26.8105 30.6276 27.5356 28.8787 27.5356C26.1563 27.5356 24.91 25.7584 24.9011 24.0995H18.7646C18.7202 24.1008 18.6758 24.1033 18.6313 24.1033L12.1357 24.0995H7.08562C7.05389 24.0995 7.02216 24.097 6.99043 24.097H5.34938C3.35931 24.097 1.74619 22.4444 1.74619 20.409V20.7639C1.74619 22.8006 3.35931 24.4519 5.34938 24.4519H6.99043C7.02216 24.4532 7.05389 24.4557 7.08562 24.4557H12.1357L18.6313 24.4595C18.6758 24.4595 18.7202 24.4583 18.7646 24.4557H24.9011C24.9112 26.1146 26.1563 27.8918 28.8787 27.8918C30.6276 27.8918 32.572 27.1667 33.7155 26.0879L41.1161 19.1088C42.2431 18.0453 42.8638 16.6218 42.8638 15.099C42.8638 15.0392 42.8612 14.9807 42.8587 14.9209C42.8117 16.3762 42.1987 17.7324 41.1148 18.7539L41.1161 18.7526Z" fill="#FFFD98"/>
<path d="M5.34724 5.53114H6.99591C7.0251 5.53114 7.05556 5.52987 7.08475 5.52987H24.9091C25.0208 3.93585 26.2735 2.30876 28.8791 2.30876C30.628 2.30876 32.5724 3.03389 33.7172 4.11268L41.1178 11.0917C42.1991 12.112 42.8134 13.4656 42.8616 14.9197C42.8642 14.8586 42.8667 14.7988 42.8667 14.7365C42.8667 13.2137 42.2461 11.7889 41.119 10.7254L33.7185 3.7463C32.5737 2.66751 30.6305 1.94238 28.8804 1.94238C26.2747 1.94238 25.022 3.56947 24.9104 5.16348H7.08602C7.05682 5.16348 7.02764 5.16603 6.99718 5.16603H5.34851C3.35844 5.16603 1.74532 6.81602 1.74532 8.85274V9.21785C1.74532 7.18112 3.35844 5.53114 5.34851 5.53114H5.34724Z" fill="#FFFCC7"/>
<path opacity="0.32" d="M29.521 1.17793C29.2342 1.27589 28.9448 1.33568 28.6541 1.38784C28.3635 1.43745 28.0716 1.47307 27.7784 1.49724C27.4852 1.52014 27.1921 1.53159 26.8976 1.52905C26.6032 1.52396 26.3074 1.50996 26.0079 1.45908C26.2947 1.36112 26.5841 1.30006 26.8748 1.24917C27.1654 1.19956 27.4573 1.16394 27.7505 1.14104C28.0437 1.11814 28.3369 1.10669 28.6313 1.10924C28.9258 1.11432 29.2215 1.12705 29.521 1.17793Z" fill="#6D3902"/>
<path d="M29.6304 1.13721C29.6304 1.13721 28.2977 1.52521 27.408 1.5214C26.5183 1.51631 25.9434 1.42471 25.9434 1.42471C25.9434 1.42471 26.8064 1.66897 27.5756 1.66642C28.3447 1.66388 29.6304 1.13848 29.6304 1.13848V1.13721Z" fill="#F7E494"/>
<path d="M28.7202 1.29102C28.7202 1.29102 27.5094 1.30628 27.3267 1.31646C27.1439 1.32664 26.4522 1.4106 26.4522 1.4106C26.4522 1.4106 27.7303 1.63068 28.7202 1.29102Z" fill="#6D3902"/>
<path opacity="0.32" d="M36.5764 7.97544C36.3048 7.84059 36.0585 7.67776 35.8161 7.50729C35.5763 7.33555 35.3453 7.15363 35.1219 6.96281C34.8985 6.77198 34.684 6.57098 34.4771 6.3598C34.2728 6.14735 34.0735 5.92727 33.8997 5.6792C34.1713 5.81405 34.4188 5.97688 34.6599 6.14735C34.8998 6.31909 35.1308 6.50101 35.3541 6.69311C35.5775 6.8852 35.792 7.0862 35.9989 7.29738C36.2032 7.50983 36.4025 7.72992 36.5776 7.97799L36.5764 7.97544Z" fill="#6D3902"/>
<path d="M36.6831 8.02354C36.6831 8.02354 35.4685 7.35057 34.8441 6.71577C34.2196 6.07969 33.8782 5.60645 33.8782 5.60645C33.8782 5.60645 34.3148 6.39264 34.8593 6.93712C35.4038 7.4816 36.6831 8.02354 36.6831 8.02354Z" fill="#F7E494"/>
<path d="M35.9316 7.48684C35.9316 7.48684 35.0661 6.63704 34.9303 6.51364C34.7945 6.39025 34.2474 5.95898 34.2474 5.95898C34.2474 5.95898 34.9924 7.02251 35.9316 7.48557V7.48684Z" fill="#6D3902"/>
<path d="M41.7638 13.8628L41.0962 14.4467C41.0962 14.4467 41.7664 14.0282 41.807 14.0027C41.8476 13.9773 42.3324 13.5957 42.3349 13.5257C42.3387 13.4557 41.7638 13.8615 41.7638 13.8615V13.8628Z" fill="#FFD818"/>
<path d="M42.2156 12.2139C42.2156 12.2139 41.7257 13.1883 41.6534 13.3105C41.581 13.4326 41.0924 14.3765 41.0924 14.3765L41.7016 13.6883L42.5469 12.6019L42.2156 12.2139Z" fill="#E2B137"/>
<path d="M43.7473 11.452C43.6775 11.377 42.8475 12.214 42.8475 12.214L41.7014 13.6885L41.0922 14.3767C41.0922 14.3767 41.5478 13.9887 41.7623 13.8628C41.9768 13.7355 42.3474 13.1949 42.5454 13.2954C42.7434 13.3959 43.3234 14.2673 43.3691 14.0701L44.6357 14.2775C44.6357 14.2775 44.5241 12.2764 43.7486 11.452H43.7473Z" fill="#6D3902"/>
<path d="M21.9567 5.49316C21.9567 5.49316 21.8197 6.13815 20.8564 6.1814C19.8943 6.22465 19.7928 5.55168 19.7928 5.55168L21.958 5.49316H21.9567Z" fill="#6D3902"/>
<path d="M20.4263 5.81995C20.1344 5.64694 20.0837 5.61768 20.0837 5.61768L19.8197 5.64694C19.8197 5.64694 19.8907 6.01332 20.4289 6.14562C20.9657 6.27793 21.3592 6.12018 21.5166 6.01459C21.6727 5.909 20.7182 5.99296 20.4263 5.81995Z" fill="#934900"/>
<path d="M21.9961 4.19439C22.0088 4.2351 22.0824 5.41312 21.9555 5.49453C21.8298 5.57468 19.8182 5.64847 19.8182 5.64847L19.5529 3.91579C19.5529 3.91579 21.8336 3.67408 21.9961 4.19566V4.19439Z" fill="#6D3902"/>
<path opacity="0.32" d="M1.38575 21.9777C1.28422 21.6914 1.21822 21.4027 1.16111 21.1126C1.10654 20.8226 1.06592 20.53 1.03673 20.2374C1.00754 19.9448 0.991042 19.6496 0.988504 19.3545C0.988504 19.0581 0.996116 18.7617 1.04181 18.4614C1.14461 18.7477 1.21061 19.0364 1.26645 19.3265C1.32103 19.6178 1.36164 19.9091 1.38956 20.2017C1.41749 20.4943 1.43399 20.7895 1.43652 21.0846C1.43652 21.3798 1.42891 21.6774 1.38322 21.9777H1.38575Z" fill="#6D3902"/>
<path d="M1.43018 22.087C1.43018 22.087 1.01896 20.7589 1.00754 19.8671C0.996118 18.9753 1.07734 18.3965 1.07734 18.3965C1.07734 18.3965 0.848894 19.2666 0.865394 20.0376C0.881893 20.8085 1.42891 22.087 1.42891 22.087H1.43018Z" fill="#F7E494"/>
<path d="M1.25996 21.1775C1.25996 21.1775 1.22316 19.9639 1.21046 19.7807C1.19777 19.5975 1.10131 18.9067 1.10131 18.9067C1.10131 18.9067 0.903322 20.1916 1.26123 21.1775H1.25996Z" fill="#6D3902"/>
<path opacity="0.32" d="M3.44189 4.61426C3.30355 4.88396 3.13729 5.12948 2.96468 5.36992C2.7908 5.60781 2.60551 5.83807 2.41259 6.05816C2.21841 6.27951 2.01534 6.49196 1.80212 6.69678C1.58636 6.89905 1.36552 7.09624 1.11549 7.2667C1.25383 6.99574 1.41883 6.75021 1.59143 6.51104C1.76531 6.27188 1.95061 6.04289 2.14479 5.82281C2.33898 5.60145 2.54205 5.389 2.75527 5.18546C2.96976 4.98318 3.19187 4.786 3.44189 4.61426Z" fill="#6D3902"/>
<path d="M3.49268 4.50732C3.49268 4.50732 2.80478 5.71587 2.16385 6.33414C1.52164 6.95241 1.0457 7.28699 1.0457 7.28699C1.0457 7.28699 1.83513 6.85954 2.38469 6.32142C2.93424 5.78202 3.49268 4.50732 3.49268 4.50732Z" fill="#F7E494"/>
<path d="M2.9458 5.25391C2.9458 5.25391 2.08784 6.11007 1.96219 6.24492C1.83781 6.37977 1.39994 6.92298 1.39994 6.92298C1.39994 6.92298 2.47113 6.18894 2.94453 5.25391H2.9458Z" fill="#6D3902"/>
<path d="M1.90982 24.9932L3.49756 24.1434L4.20703 23.501C4.20703 23.501 3.82247 24.034 3.69428 24.2426C3.56736 24.4513 3.02289 24.9932 3.14854 25.226C3.27419 25.4576 4.22734 25.8914 4.01031 25.9028C3.79201 25.9143 1.90855 24.9945 1.90855 24.9945L1.90982 24.9932Z" fill="#6D3902"/>
<path d="M3.69576 24.2424L4.25293 23.4766C4.25293 23.4766 3.88106 24.2768 3.85568 24.3149C3.82902 24.3544 3.21093 25.1291 3.13351 25.1202C3.05609 25.1113 3.69703 24.2424 3.69703 24.2424H3.69576Z" fill="#FFD818"/>
<path opacity="0.35" d="M1.45566 24.404C1.45566 24.404 2.89364 24.0643 3.02563 24.0096C3.15636 23.9549 4.25293 23.4766 4.25293 23.4766L3.55234 24.1877L2.32251 24.9497L1.45439 24.404H1.45566Z" fill="#6D3902"/>
<path d="M1.76312 8.72607L2.49671 9.59114L2.95996 9.95371C2.95996 9.95371 2.6122 9.77433 2.48148 9.71708C2.34948 9.65984 1.96873 9.3876 1.87227 9.48301C1.77582 9.57842 1.72759 10.1852 1.6819 10.0568C1.63621 9.92826 1.76312 8.72607 1.76312 8.72607Z" fill="#6D3902"/>
<path d="M2.48148 9.71694L2.96631 10.0006C2.96631 10.0006 2.49798 9.82889 2.47387 9.81744C2.44848 9.80599 1.9332 9.50958 1.92431 9.46251C1.91416 9.41544 2.48275 9.71694 2.48275 9.71694H2.48148Z" fill="#FFD818"/>
<path d="M1.9865 8.43213C1.9865 8.43213 2.42817 9.25521 2.48148 9.32773C2.53351 9.40024 2.95996 9.95363 2.95996 9.95363L2.49671 9.59106L1.86593 8.99697L1.98777 8.43213H1.9865Z" fill="#B26510"/>
<path d="M0.330086 8.07584C0.360546 8.01605 1.76172 8.72591 1.76172 8.72591L1.68049 10.0566L0.262819 10.5476C0.262819 10.5476 -0.00370848 8.74118 0.330086 8.07584Z" fill="#6D3902"/>
<path d="M1.62212 13.8574C1.62212 13.8574 2.58923 13.9656 2.61335 15.4705C2.63746 16.9768 1.61831 17.249 1.61831 17.249L1.62212 13.8574Z" fill="#B26510"/>
<path opacity="0.33" d="M2.47633 15.7261C2.47633 15.7261 2.21615 14.9844 2.08161 14.8598C1.94708 14.7351 1.88108 14.6308 1.90901 14.3865C1.93693 14.1423 1.98642 14.0049 1.98642 14.0049C1.98642 14.0049 2.59309 14.4641 2.6299 15.16C2.66671 15.8559 2.50171 16.3011 2.50171 16.3011L2.4776 15.7248L2.47633 15.7261Z" fill="#6D3902"/>
<path d="M7.96777 5.18764C7.96777 5.18764 7.69998 6.08578 6.33053 6.03871C4.96109 5.99164 4.89129 5.02734 4.89129 5.02734L7.96777 5.18764Z" fill="#E2B137"/>
<path d="M5.76052 5.47753C5.3658 5.2002 5.29727 5.15186 5.29727 5.15186L4.91906 5.16458C4.91906 5.16458 4.97998 5.69379 5.72752 5.94059C6.47507 6.18866 7.05127 6.00802 7.2848 5.87698C7.51833 5.74595 6.15523 5.75613 5.76052 5.4788V5.47753Z" fill="#B26510"/>
<g opacity="0.37" style="mix-blend-mode:overlay">
<path d="M26.1554 11.2011C16.4449 8.81963 7.27131 9.59056 1.69453 12.7124V8.9125C1.69453 6.87578 3.30766 5.22579 5.29773 5.22579H6.9464C6.97559 5.22579 7.00478 5.22452 7.03524 5.22452H24.8596C24.9713 3.63051 26.2239 2.00342 28.8296 2.00342C30.5785 2.00342 32.5229 2.72855 33.6677 3.80734L41.0683 10.7864C42.1953 11.8499 42.8159 13.2735 42.8159 14.7975C42.8159 16.0468 42.3971 17.2299 41.6242 18.2018C37.6237 15.2122 32.2716 12.7023 26.1554 11.2024V11.2011Z" fill="#E2B137"/>
</g>
<path d="M29.5211 3.25271C32.0188 3.30742 29.4373 5.56295 27.5868 5.19148C25.7364 4.82001 27.6579 3.212 29.5211 3.25271Z" fill="white"/>
</svg>
