<svg width="301" height="280" viewBox="0 0 301 280" fill="none" xmlns="http://www.w3.org/2000/svg">
    <g clip-path="url(#clip0_197_27293)">
        <g style="mix-blend-mode:hard-light">
            <path
                d="M71.4914 25.1056C114.458 75.1324 136.833 78.146 155.001 14.3794C167.597 77.3834 189.799 76.4362 235.066 28.0946C201.263 91.0986 212.469 97.1383 273.985 70.6549C228.829 113.154 239.937 124.446 300.161 113.978C237.673 139.895 242.913 176.158 294.576 200.919C234.242 188.864 215.298 201.005 244.353 244.857C198.225 206.159 180.032 210.464 172.172 280C161.274 216.196 139.293 213.429 91.1971 269.889C94.9119 225.176 72.1065 220.944 28.5744 243.824C73.3611 205.126 70.8149 188.704 9.79133 195.593C69.3265 171.114 58.0345 153.869 0 138.727C56.5338 134.766 70.7411 118.64 26.8277 80.4832C88.7493 101.923 95.5023 84.7515 71.4914 25.0933V25.1056Z"
                fill="url(#paint0_linear_197_27293)" />
            <path
                d="M27.9467 80.9013C88.9579 102.022 95.7848 85.2066 72.3766 26.68C114.716 75.6736 136.709 78.4289 154.533 15.5725C166.44 74.0376 186.391 76.7437 225.483 37.7875C228.201 35.1306 231.018 32.2645 233.934 29.1893C200.759 91.3938 212.026 97.6671 273.123 71.2453C228.312 113.4 239.407 124.827 299.139 114.691C237.587 140.178 242.433 175.826 293.051 200.378C233.884 188.704 215.372 200.82 244.032 244.094C217.045 221.51 199.811 214.118 188.655 225.25C180.401 232.79 175.296 249.937 171.889 279.151C161.729 220.415 142.097 213.908 101.185 258.24C98.1096 261.524 94.8991 265.116 91.5534 268.991C95.3297 224.598 72.5857 220.477 29.3858 243.221C73.7297 204.794 71.3434 188.335 10.7503 195.236C11.8082 194.793 12.8537 194.363 13.8747 193.92C69.363 170.266 57.5174 153.475 1.02051 138.702C56.7056 134.84 71.9338 119.021 27.959 80.9259L27.9467 80.9013Z"
                fill="url(#paint1_linear_197_27293)" />
            <path
                d="M29.0662 81.2951C89.1672 102.083 96.0679 85.6372 73.2747 28.2423C114.986 76.1903 136.599 78.6874 154.065 16.7412C166.108 74.8249 185.85 77.1744 224.536 38.5257C227.181 35.9671 229.936 33.2118 232.79 30.2473C200.242 91.6399 211.559 98.147 272.238 71.799C227.771 113.609 238.866 125.172 298.082 115.356C237.476 140.412 241.917 175.444 291.488 199.8C233.479 188.52 215.397 200.599 243.663 243.283C216.577 220.674 199.516 213.822 188.581 225.028C180.229 232.2 175.087 248.83 171.569 278.241C161.372 220.022 141.802 213.626 101.246 257.674C98.2574 260.823 95.133 264.28 91.8733 268.031C95.7234 223.958 73.0287 219.948 30.1732 242.557C74.0866 204.412 71.8479 187.917 11.6853 194.818C12.7186 194.387 13.7149 193.957 14.699 193.539C69.8059 169.995 58.0342 153.303 2.0293 138.616C56.8533 134.852 73.1271 119.353 29.0662 81.3074V81.2951Z"
                fill="url(#paint2_linear_197_27293)" />
            <path
                d="M30.186 81.6885C89.3768 102.157 96.3513 86.0675 74.1732 29.8043C115.257 76.719 136.488 78.9578 153.611 17.9219C165.801 75.6243 185.334 77.6293 223.602 39.2758C226.185 36.828 228.866 34.171 231.659 31.3296C199.726 91.9227 211.116 98.6511 271.377 72.3769C227.243 113.855 238.338 125.54 297.061 116.044C237.391 140.67 241.438 175.1 289.964 199.234C233.122 188.335 215.471 200.378 243.344 242.495C216.16 219.862 199.259 213.552 188.557 224.831C180.106 231.621 174.928 247.735 171.287 277.367C161.04 219.665 141.532 213.367 101.358 257.145C98.4547 260.171 95.4164 263.492 92.2306 267.109C96.1422 223.368 73.509 219.456 30.9856 241.929C74.4684 204.055 72.3773 187.523 12.6453 194.424C13.6416 194.006 14.6011 193.588 15.5483 193.182C70.2739 169.749 58.576 153.155 3.05078 138.554C57.0261 134.901 74.3331 119.698 30.186 81.7008V81.6885Z"
                fill="url(#paint3_linear_197_27293)" />
            <path
                d="M31.2928 82.0822C89.5734 102.218 96.6217 86.4858 75.0586 31.3665C115.515 77.248 136.353 79.2161 153.131 19.1028C165.456 76.4239 184.793 78.0845 222.642 40.0262C225.164 37.6768 227.784 35.1305 230.502 32.3998C199.197 92.1933 210.636 99.1432 270.479 72.9428C226.689 114.076 237.772 125.897 296.003 116.733C237.267 140.929 240.921 174.743 288.401 198.68C232.729 188.175 215.508 200.181 242.975 241.72C215.692 219.062 198.951 213.293 188.495 224.635C179.946 231.043 174.731 246.653 170.979 276.494C160.696 219.321 141.236 213.121 101.431 256.604C98.6144 259.495 95.6622 262.68 92.5624 266.162C96.5479 222.74 73.9638 218.939 31.7726 241.277C74.8249 203.674 72.8814 187.118 13.5799 194.018C14.5393 193.612 15.4742 193.206 16.3721 192.813C70.7165 169.491 59.0923 152.995 4.04688 138.481C57.1611 134.926 75.5014 120.03 31.2928 82.0945V82.0822Z"
                fill="url(#paint4_linear_197_27293)" />
            <path
                d="M32.4122 82.4758C89.7824 102.28 96.9045 86.9164 75.9442 32.9288C115.774 77.7647 136.23 79.4745 152.663 20.2837C165.136 77.2112 184.252 78.5273 221.695 40.7766C224.143 38.5379 226.701 36.1023 229.37 33.47C198.693 92.4517 210.194 99.6476 269.618 73.5087C226.16 114.298 237.243 126.254 294.97 117.41C237.181 141.175 240.429 174.374 286.864 198.102C232.347 187.979 215.557 199.959 242.643 240.908C215.261 218.214 198.693 212.998 188.458 224.413C179.799 230.453 174.559 245.546 170.684 275.596C160.364 218.939 140.966 212.851 101.53 256.05C98.7988 258.806 95.9205 261.856 92.9068 265.214C96.966 222.125 74.4312 218.423 32.5844 240.625C75.1939 203.293 73.4103 186.712 14.5393 193.612C15.4618 193.219 16.3598 192.825 17.2331 192.431C71.1838 169.232 59.6458 152.836 5.08008 138.395C57.3456 134.938 76.7191 120.362 32.4245 82.4635L32.4122 82.4758Z"
                fill="url(#paint5_linear_197_27293)" />
            <path
                d="M33.5318 82.8695C89.9919 102.354 97.2001 87.3469 76.8425 34.491C116.032 78.2937 136.119 79.7451 152.196 21.4646C164.805 78.0107 183.723 78.9825 220.748 41.527C223.134 39.3867 225.619 37.0618 228.227 34.5525C198.176 92.7346 209.727 100.152 268.745 74.0868C225.631 114.544 236.702 126.635 293.937 118.099C237.083 141.433 239.937 174.017 285.326 197.536C231.978 187.806 215.619 199.75 242.299 240.121C214.819 217.402 198.41 212.74 188.409 224.216C179.651 229.875 174.374 244.463 170.377 274.711C160.02 218.57 140.671 212.58 101.616 255.509C98.9714 258.129 96.1791 261.057 93.2393 264.28C97.36 221.51 74.899 217.918 33.3719 239.986C75.5509 202.936 73.9149 186.306 15.4622 193.219C16.3478 192.837 17.2089 192.456 18.0453 192.075C71.6147 168.986 60.1505 152.688 6.06445 138.321C57.4812 134.975 77.888 120.694 33.5072 82.8572L33.5318 82.8695Z"
                fill="url(#paint6_linear_197_27293)" />
            <path
                d="M34.6384 83.2632C90.1882 102.415 97.4702 87.7775 77.7277 36.0532C116.29 78.8226 135.984 80.0035 151.728 22.6455C164.484 78.8103 183.194 79.4254 219.8 42.2774C222.113 40.2478 224.536 38.0213 227.082 35.6227C197.659 93.0053 209.271 100.644 267.859 74.6527C225.077 114.765 236.148 126.992 292.891 118.775C236.972 141.667 239.444 173.648 283.776 196.971C231.597 187.622 215.655 199.529 241.954 239.334C214.376 216.59 198.127 212.469 188.36 224.02C179.503 229.309 174.189 243.381 170.081 273.837C159.675 218.214 140.4 212.334 101.702 254.98C99.1431 257.477 96.437 260.257 93.5832 263.357C97.7777 220.92 75.3659 217.426 34.1833 239.359C75.9318 202.58 74.4434 185.924 16.4212 192.825C17.2699 192.456 18.0941 192.087 18.8936 191.718C72.0817 168.74 60.6913 152.541 7.08496 138.259C57.6407 135.012 79.093 121.051 34.6384 83.2632Z"
                fill="url(#paint7_linear_197_27293)" />
            <path
                d="M35.7583 83.6568C90.3979 102.477 97.7537 88.2081 78.6261 37.6155C116.561 79.3393 135.873 80.2619 151.262 23.8264C164.153 79.6099 182.653 79.8805 218.854 43.0277C221.105 41.0965 223.466 38.9931 225.939 36.6929C197.131 93.2637 208.804 101.136 266.986 75.2186C224.549 114.987 235.607 127.349 291.858 119.464C236.874 141.925 238.953 173.292 282.239 196.405C231.216 187.45 215.717 199.32 241.61 238.547C213.933 215.778 197.856 212.199 188.311 223.823C179.356 228.731 174.005 242.286 169.774 272.964C159.331 217.869 140.105 212.088 101.788 254.452C99.3159 256.813 96.6958 259.47 93.9159 262.422C98.1719 220.305 75.8216 216.922 34.9711 238.719C76.289 202.211 74.9482 185.519 17.3565 192.432C18.1684 192.075 18.9556 191.718 19.7306 191.361C72.5373 168.495 61.2207 152.393 8.10645 138.198C57.8134 135.049 80.2867 121.395 35.7583 83.6568Z"
                fill="url(#paint8_linear_197_27293)" />
            <path
                d="M36.8772 84.0504C90.6188 102.551 98.0361 88.6385 79.5236 39.1652C116.832 79.8558 135.762 80.5201 150.806 24.9949C163.832 80.3971 182.136 80.3233 217.918 43.7657C220.096 41.9329 222.396 39.9402 224.807 37.763C196.626 93.5342 208.348 101.64 266.112 75.7843C224.007 115.22 235.078 127.705 290.812 120.141C236.775 142.171 238.448 172.923 280.689 195.839C230.834 187.265 215.753 199.111 241.265 237.747C213.49 214.954 197.573 211.916 188.274 223.614C179.221 228.14 173.833 241.191 169.491 272.078C159.011 217.5 139.834 211.817 101.886 253.91C99.4999 256.137 96.966 258.658 94.2721 261.487C98.602 219.69 76.3009 216.43 35.7825 238.079C76.6576 201.854 75.4767 185.125 18.3155 192.038C19.0905 191.693 19.8408 191.337 20.5789 191.005C73.0043 168.248 61.7615 152.245 9.12695 138.136C57.9729 135.086 81.4917 121.74 36.8772 84.0627V84.0504Z"
                fill="url(#paint9_linear_197_27293)" />
            <path
                d="M37.9844 84.4562C90.8158 102.624 98.3069 89.0813 80.3971 40.7397C117.078 80.397 135.627 80.7906 150.314 26.188C163.488 81.1966 181.582 80.7783 216.959 44.5283C219.075 42.8062 221.301 40.9119 223.663 38.8454C196.109 93.817 207.894 102.145 265.239 76.3624C223.478 115.454 234.537 128.074 289.779 120.829C236.677 142.429 237.956 172.566 279.151 195.273C230.465 187.093 215.815 198.902 240.921 236.96C213.047 214.13 197.29 211.645 188.225 223.404C179.073 227.562 173.648 240.097 169.183 271.18C158.666 217.119 139.551 211.547 101.972 253.357C99.6723 255.448 97.2121 257.846 94.6044 260.54C98.9957 219.075 76.7561 215.913 36.5822 237.427C77.0267 201.472 75.9935 184.707 19.2628 191.632C20.0009 191.3 20.7266 190.955 21.4155 190.623C73.4596 167.978 62.2906 152.085 10.1357 138.05C58.1329 135.11 82.6851 122.072 37.9967 84.4316L37.9844 84.4562Z"
                fill="url(#paint10_linear_197_27293)" />
            <path
                d="M39.1038 84.8499C91.0249 102.698 98.5898 89.4995 81.295 42.3019C117.336 80.9137 135.504 81.0613 149.859 27.3689C163.168 81.9961 181.053 81.2335 216.024 45.2787C218.078 43.655 220.243 41.8714 222.531 39.9156C195.605 94.0754 207.438 102.637 264.378 76.916C222.962 115.663 234.008 128.419 288.758 121.506C236.591 142.675 237.477 172.209 277.626 194.695C230.096 186.896 215.877 198.668 240.601 236.16C212.629 213.306 197.044 211.375 188.2 223.195C178.95 226.972 173.489 239.002 168.913 270.295C158.346 216.762 139.293 211.276 102.083 252.815C99.869 254.784 97.495 257.035 94.9611 259.593C99.4262 218.447 77.2358 215.397 37.394 236.775C77.408 201.091 76.5224 184.301 20.2222 191.214C20.9234 190.882 21.6122 190.562 22.2764 190.242C73.9269 167.707 62.844 151.913 11.1689 137.964C58.3051 135.123 83.8905 122.392 39.1284 84.813L39.1038 84.8499Z"
                fill="url(#paint11_linear_197_27293)" />
            <path
                d="M40.2232 85.2436C91.2341 102.76 98.8728 89.9301 82.1931 43.8641C117.607 81.4427 135.393 81.3197 149.392 28.5498C162.849 82.7957 180.525 81.6887 215.077 46.029C217.058 44.5161 219.161 42.8432 221.387 40.9981C195.089 94.3584 206.983 103.141 263.493 77.4941C222.408 115.897 233.454 128.8 287.713 122.195C236.493 142.934 236.972 171.853 276.076 194.141C229.715 186.736 215.926 198.471 240.244 235.385C212.174 212.506 196.749 211.116 188.139 223.011C178.778 226.418 173.292 237.919 168.593 269.434C157.99 216.418 138.985 211.042 102.157 252.299C100.029 254.132 97.7411 256.26 95.2933 258.683C99.82 217.869 77.6911 214.917 38.1936 236.16C77.7772 200.747 77.0514 183.932 21.1695 190.845C21.8338 190.525 22.4857 190.217 23.113 189.91C74.3822 167.486 63.3731 151.79 12.1777 137.927C58.4651 135.184 85.0838 122.773 40.2355 85.2436H40.2232Z"
                fill="url(#paint12_linear_197_27293)" />
            <path
                d="M41.3302 85.6372C91.4308 102.821 99.1557 90.3607 83.0787 45.4264C117.865 81.9716 135.27 81.578 148.912 29.7307C162.504 83.5953 179.983 82.1315 214.118 46.7794C216.037 45.3649 218.066 43.8027 220.231 42.0683C194.547 94.629 206.504 103.645 262.607 78.06C221.867 116.131 232.901 129.157 286.655 122.871C236.37 143.18 236.456 171.484 274.514 193.563C229.321 186.54 215.95 198.25 239.888 234.574C211.719 211.67 196.454 210.821 188.077 222.79C178.618 225.816 173.095 236.812 168.273 268.536C157.633 216.037 138.69 210.772 102.219 251.745C100.177 253.443 97.9748 255.436 95.6008 257.736C100.201 217.242 78.1215 214.401 38.9562 235.509C78.0969 200.378 77.5311 183.514 22.0797 190.439C22.707 190.131 23.3221 189.836 23.9125 189.541C74.8003 167.228 63.865 151.63 13.1494 137.854C58.5881 135.221 86.24 123.105 41.3179 85.6249L41.3302 85.6372Z"
                fill="url(#paint13_linear_197_27293)" />
            <path
                d="M42.4495 86.0306C91.6399 102.895 99.4385 90.791 83.9643 46.9883C118.123 82.4881 135.135 81.8484 148.444 30.9114C162.184 84.3947 179.442 82.5865 213.17 47.5296C215.016 46.2257 216.996 44.7619 219.099 43.1382C194.043 94.8871 206.061 104.137 261.733 78.6256C221.326 116.352 232.359 129.513 285.621 123.56C236.271 143.438 235.964 171.127 272.976 193.009C228.94 186.379 216.012 198.053 239.543 233.798C211.276 210.87 196.183 210.563 188.04 222.605C178.483 225.25 172.923 235.742 167.99 267.662C157.313 215.68 138.419 210.513 102.329 251.216C100.373 252.778 98.2577 254.648 95.9574 256.801C100.619 216.639 78.6012 213.896 39.768 234.869C78.4782 200.009 78.06 183.12 23.0391 190.045C23.6418 189.75 24.2077 189.467 24.7612 189.184C75.2677 166.981 64.4062 151.482 14.1826 137.792C58.7602 135.258 87.4454 123.449 42.4495 86.0306Z"
                fill="url(#paint14_linear_197_27293)" />
            <path
                d="M43.5692 86.4243C91.8493 102.956 99.7218 91.2216 84.8626 48.5506C118.394 83.017 135.025 82.1068 147.977 32.0923C161.852 85.1819 178.913 83.0293 212.224 48.28C214.007 47.0745 215.914 45.7337 217.956 44.2207C193.527 95.1701 205.594 104.642 260.86 79.2038C220.797 116.586 231.819 129.883 284.588 124.249C236.185 143.684 235.472 170.77 271.439 192.444C228.571 186.195 216.061 197.831 239.211 233.011C210.846 210.058 195.913 210.292 188.004 222.408C178.348 224.684 172.751 234.66 167.695 266.789C156.969 215.335 138.149 210.267 102.428 250.687C100.558 252.127 98.5163 253.849 96.3145 255.878C101.05 216.036 79.0935 213.404 40.5925 234.241C78.8721 199.652 78.6015 182.726 24.0112 189.651C24.577 189.369 25.1182 189.098 25.6349 188.827C75.7601 166.748 64.9724 151.347 15.2285 137.73C58.9574 135.295 88.6758 123.806 43.5938 86.4243H43.5692Z"
                fill="url(#paint15_linear_197_27293)" />
            <path
                d="M44.6756 86.818C92.0455 103.03 99.9917 91.6521 85.7476 50.1128C118.652 83.546 134.901 82.3651 147.509 33.2732C161.532 85.9815 178.384 83.4845 211.276 49.0303C212.998 47.9356 214.831 46.6932 216.811 45.2909C193.009 95.4407 205.138 105.134 259.986 79.7697C220.255 116.819 231.289 130.239 283.542 124.925C236.074 143.93 234.967 170.401 269.888 191.866C228.189 186.011 216.11 197.61 238.854 232.212C210.39 209.222 195.617 210.021 187.941 222.187C178.187 224.081 172.566 233.553 167.387 265.891C156.624 214.954 137.853 209.997 102.501 250.134C100.717 251.438 98.7617 253.037 96.6336 254.931C101.443 215.409 79.5357 212.887 41.3668 233.589C79.2159 199.271 79.0929 182.32 24.9331 189.246C25.462 188.975 25.9663 188.717 26.4461 188.446C76.1776 166.477 65.4761 151.175 16.2119 137.644C59.0797 135.32 89.8437 124.126 44.6879 86.8057L44.6756 86.818Z"
                fill="url(#paint16_linear_197_27293)" />
            <path
                d="M45.7951 87.2116C92.2547 103.092 100.275 92.0827 86.6456 51.675C118.91 84.0627 134.79 82.6358 147.042 34.4541C161.2 86.7811 177.843 83.9397 210.329 49.7807C211.977 48.7844 213.761 47.6527 215.667 46.3611C192.493 95.6991 204.671 105.638 259.101 80.3356C219.714 117.041 230.736 130.608 282.497 125.614C235.963 144.188 234.463 170.044 268.339 191.312C227.796 185.838 216.159 197.413 238.51 231.425C209.947 208.41 195.347 209.751 187.892 221.99C178.04 223.515 172.381 232.458 167.08 265.005C156.28 214.585 137.558 209.726 102.587 249.593C100.89 250.761 99.0201 252.225 96.9782 253.984C101.849 214.794 80.0033 212.371 42.1664 232.938C79.5728 198.902 79.6097 181.914 25.8804 188.84C26.3724 188.581 26.8398 188.323 27.2826 188.077C76.6329 166.219 66.0051 151.015 17.2207 137.571C59.2398 135.344 91.0247 124.458 45.7951 87.1993V87.2116Z"
                fill="url(#paint17_linear_197_27293)" />
            <path
                d="M46.915 87.6175C92.4644 103.166 100.558 92.5132 87.5318 53.2495C119.169 84.6039 134.656 82.9064 146.575 35.6472C160.868 87.5929 177.314 84.3947 209.382 50.5433C210.969 49.6577 212.679 48.6244 214.524 47.4559C191.964 95.9943 204.204 106.155 258.228 80.926C219.174 117.287 230.195 130.99 281.464 126.315C235.866 144.459 233.971 169.7 266.789 190.759C227.415 185.678 216.197 197.204 238.153 230.65C209.493 207.61 195.052 209.493 187.844 221.805C177.88 222.949 172.197 231.388 166.785 264.144C155.948 214.253 137.288 209.492 102.674 249.076C101.063 250.109 99.279 251.45 97.3108 253.074C102.256 214.204 80.4589 211.891 42.9665 232.335C79.9423 198.57 80.1268 181.545 26.828 188.483C27.2832 188.237 27.7137 187.991 28.1319 187.757C77.1009 166.01 66.5469 150.904 18.2422 137.534C59.4002 135.406 92.2307 124.839 46.915 87.6175Z"
                fill="url(#paint18_linear_197_27293)" />
            <path
                d="M48.0214 88.0112C92.6605 103.239 100.828 92.9438 88.4168 54.8117C119.427 85.1328 134.532 83.177 146.095 36.8281C160.536 88.3925 176.772 84.8499 208.422 51.2937C209.935 50.5065 211.583 49.5962 213.379 48.5261C191.447 96.2649 203.748 106.647 257.342 81.4918C218.632 117.52 229.641 131.346 280.418 126.992C235.766 144.705 233.479 169.343 265.239 190.193C227.033 185.494 216.245 196.995 237.796 229.862C209.037 206.799 194.756 209.222 187.782 221.609C177.72 222.371 172 230.305 166.464 263.271C155.578 213.896 136.98 209.247 102.747 248.547C101.222 249.445 99.5243 250.651 97.63 252.151C102.636 213.613 80.9011 211.399 43.7408 231.708C80.2861 198.213 80.6182 181.164 27.7499 188.089C28.1682 187.856 28.5618 187.622 28.9431 187.401C77.5307 165.764 67.0506 150.757 19.2256 137.472C59.5349 135.455 93.3986 125.184 48.0091 88.0235L48.0214 88.0112Z"
                fill="url(#paint19_linear_197_27293)" />
            <path
                d="M49.1411 88.4047C92.8823 103.301 101.124 93.3742 89.3151 56.3738C119.698 85.6617 134.422 83.4352 145.64 37.9966C160.216 89.1673 176.244 85.2803 207.5 52.0439C208.951 51.3674 210.538 50.5556 212.26 49.5961C190.955 96.5231 203.305 107.139 256.493 82.0576C218.115 117.742 229.124 131.703 279.397 127.681C235.681 144.963 232.999 168.986 263.714 189.627C226.677 185.322 216.307 196.786 237.477 229.075C208.619 205.987 194.51 208.951 187.757 221.412C177.597 221.805 171.84 229.223 166.182 262.398C155.259 213.539 136.71 208.988 102.846 248.018C101.407 248.793 99.783 249.863 97.9871 251.229C103.067 213.01 81.3812 210.919 44.5653 231.08C80.68 197.868 81.1598 180.77 28.722 187.708C29.1034 187.487 29.4601 187.265 29.8045 187.056C78.0108 165.53 67.6044 150.634 20.2715 137.423C59.732 135.504 94.6167 125.553 49.1534 88.4293L49.1411 88.4047Z"
                fill="url(#paint20_linear_197_27293)" />
            <path
                d="M50.2602 88.7984C93.0911 103.362 101.406 93.8047 90.2128 57.936C119.968 86.1783 134.298 83.6936 145.172 39.1775C159.896 89.9669 175.715 85.7355 206.552 52.7943C207.93 52.2162 209.455 51.5151 211.116 50.6786C190.439 96.8061 202.85 107.655 255.62 82.6357C217.586 117.976 228.583 132.072 278.364 128.37C235.582 145.222 232.507 168.63 262.176 189.061C226.295 185.137 216.368 196.577 237.132 228.276C208.176 205.15 194.227 208.681 187.708 221.19C177.449 221.203 171.655 228.103 165.886 261.487C154.927 213.146 136.439 208.705 102.944 247.452C101.591 248.092 100.053 249.027 98.3312 250.257C103.473 212.359 81.8483 210.378 45.3646 230.404C81.0488 197.462 81.6761 180.34 29.6566 187.277C30.001 187.068 30.3332 186.859 30.6284 186.65C78.4534 165.235 68.1208 150.437 21.2676 137.312C59.8671 135.492 95.7973 125.848 50.2479 88.7861L50.2602 88.7984Z"
                fill="url(#paint21_linear_197_27293)" />
            <path
                d="M51.3676 89.192C93.2883 103.436 101.677 94.2353 91.0865 59.4982C120.214 86.7073 134.163 83.9642 144.693 40.3584C159.552 90.7665 175.161 86.1907 205.593 53.5447C206.91 53.0773 208.361 52.4745 209.96 51.7488C189.91 97.0768 202.371 108.147 254.722 83.2016C217.033 118.209 228.017 132.429 277.306 129.046C235.472 145.468 231.991 168.261 260.614 188.495C225.902 184.965 216.393 196.355 236.776 227.488C207.721 204.339 193.932 208.41 187.647 220.994C177.29 220.637 171.459 227.021 165.567 260.614C154.558 212.801 136.131 208.447 103.006 246.911C101.739 247.415 100.287 248.227 98.6391 249.322C103.855 211.756 82.2792 209.874 46.1275 229.764C81.3689 197.093 82.1562 179.946 30.5672 186.884C30.8747 186.687 31.1699 186.49 31.4405 186.293C78.8719 164.989 68.6255 150.289 22.252 137.251C60.0027 135.541 96.9662 126.192 51.343 89.192H51.3676Z"
                fill="url(#paint22_linear_197_27293)" />
            <path
                d="M52.4873 89.5857C93.4977 103.498 101.961 94.6659 91.9847 61.0605C120.473 87.2363 134.053 84.2226 144.226 41.5393C159.232 91.5661 174.633 86.6335 204.646 54.2951C205.901 53.9261 207.291 53.4463 208.829 52.819C189.406 97.3351 201.928 108.639 253.861 83.7675C216.504 118.431 227.501 132.798 276.273 129.723C235.374 145.701 231.499 167.892 259.077 187.917C225.533 184.768 216.455 196.134 236.431 226.689C207.279 203.514 193.662 208.127 187.61 220.785C177.155 220.047 171.287 225.926 165.284 259.728C154.238 212.432 135.861 208.189 103.117 246.37C101.936 246.739 100.571 247.415 99.0084 248.387C104.285 211.141 82.7716 209.37 46.9643 229.124C81.7752 196.724 82.71 179.54 31.5516 186.478C31.8222 186.294 32.0805 186.109 32.3142 185.924C79.3643 164.73 69.1916 150.13 23.2979 137.177C60.1875 135.566 98.1966 126.537 52.4873 89.5734V89.5857Z"
                fill="url(#paint23_linear_197_27293)" />
            <path
                d="M53.6058 89.9794C93.706 103.572 102.243 95.0964 92.8819 62.6227C120.743 87.7529 133.941 84.4933 143.77 42.7202C158.912 92.3534 174.115 87.0887 203.711 55.0455C204.892 54.7872 206.22 54.4058 207.696 53.9015C188.889 97.6181 201.472 109.144 252.987 84.3457C215.975 118.665 226.959 133.167 275.239 130.424C235.274 145.972 231.006 167.547 257.539 187.376C225.151 184.621 216.504 195.95 236.098 225.914C206.847 202.715 193.391 207.869 187.572 220.6C177.006 219.481 171.114 224.856 164.988 258.867C153.905 212.088 135.59 207.955 103.214 245.853C102.12 246.099 100.84 246.641 99.352 247.465C104.703 210.55 83.2504 208.878 47.763 228.497C82.1434 196.38 83.2258 179.159 32.4979 186.097C32.7316 185.925 32.953 185.74 33.1498 185.58C79.8186 164.509 69.7197 149.994 24.3057 137.128C60.3466 135.615 99.3766 126.894 53.5935 89.9917L53.6058 89.9794Z"
                fill="url(#paint24_linear_197_27293)" />
            <path
                d="M54.7138 90.3728C93.9037 103.633 102.514 95.5268 93.7684 64.1847C121.002 88.2817 133.807 84.7514 143.291 43.9009C158.581 93.1527 173.563 87.5436 202.752 55.7956C203.872 55.6357 205.126 55.3651 206.541 54.9715C188.361 97.8885 200.993 109.648 252.103 84.9113C215.422 118.898 226.406 133.523 274.195 131.1C235.177 146.218 230.503 167.178 255.99 186.798C224.77 184.424 216.554 195.728 235.743 225.114C206.393 201.891 193.109 207.586 187.512 220.391C176.847 218.902 170.918 223.761 164.682 257.969C153.562 211.707 135.295 207.672 103.289 245.3C102.28 245.41 101.075 245.816 99.685 246.517C105.097 209.923 83.7065 208.361 48.5635 227.845C82.5133 195.999 83.7557 178.741 33.446 185.691C33.6428 185.518 33.8273 185.358 33.9995 185.211C80.2869 164.251 70.2619 149.846 25.3398 137.054C60.532 135.652 100.595 127.238 54.7384 90.3851L54.7138 90.3728Z"
                fill="url(#paint25_linear_197_27293)" />
            <path
                d="M55.8329 90.7664C94.1126 103.694 102.797 95.945 94.6538 65.7469C121.26 88.8106 133.684 85.0097 142.823 45.0818C158.248 93.9523 173.034 87.9865 201.805 56.546C202.85 56.4968 204.056 56.3369 205.397 56.0417C187.844 98.1591 200.538 110.14 251.217 85.4772C214.88 119.119 225.853 133.88 273.149 131.777C235.066 146.464 229.998 166.809 254.439 186.232C224.389 184.251 216.59 195.507 235.398 224.327C205.95 201.066 192.825 207.328 187.462 220.194C176.699 218.324 170.733 222.666 164.374 257.096C153.205 211.362 135.012 207.426 103.375 244.771C102.452 244.746 101.333 245.029 100.017 245.595C105.503 209.333 84.1614 207.869 49.3505 227.218C82.8575 195.642 84.2598 178.359 34.3806 185.309C34.5528 185.149 34.7004 185.002 34.8234 184.867C80.7295 164.017 70.7782 149.711 26.3359 137.005C60.6671 135.701 101.776 127.595 55.8329 90.791V90.7664Z"
                fill="url(#paint26_linear_197_27293)" />
            <path
                d="M56.9522 91.1723C94.3216 103.781 103.092 96.3878 95.5517 67.3213C121.531 89.3395 133.573 85.2926 142.356 46.2749C157.916 94.7641 172.505 88.4539 200.858 57.3086C201.842 57.3578 202.973 57.3086 204.253 57.1241C187.327 98.4297 200.07 110.644 250.343 86.0553C214.339 119.353 225.311 134.249 272.103 132.478C234.955 146.734 229.494 166.477 252.889 185.678C223.995 184.092 216.639 195.31 235.041 223.552C205.495 200.267 192.53 207.069 187.401 219.997C176.539 217.758 170.537 221.584 164.054 256.223C152.848 211.005 134.705 207.18 103.436 244.242C102.6 244.082 101.567 244.242 100.324 244.66C105.872 208.717 84.5918 207.364 50.113 226.578C83.1895 195.285 84.7394 177.966 35.2907 184.903C35.4261 184.756 35.5368 184.62 35.6229 184.485C81.1353 163.746 71.2702 149.539 27.3076 136.919C60.79 135.713 102.92 127.914 56.903 91.1723H56.9522Z"
                fill="url(#paint27_linear_197_27293)" />
            <path
                d="M58.0594 91.566C94.5186 103.842 103.363 96.8184 96.4375 68.8836C121.789 89.8685 133.438 85.551 141.888 47.4558C157.596 95.5637 171.964 88.8967 199.911 58.059C200.833 58.2066 201.891 58.2681 203.121 58.2066C186.823 98.7127 199.628 111.149 249.482 86.6334C213.823 119.599 224.783 134.618 271.082 133.167C234.869 146.993 229.014 166.12 251.364 185.113C223.639 183.907 216.701 195.101 234.722 222.753C205.077 199.443 192.284 206.786 187.389 219.788C176.429 217.168 170.389 220.489 163.796 255.325C152.553 210.624 134.459 206.897 103.572 243.688C102.822 243.405 101.874 243.418 100.718 243.713C106.34 208.09 85.1086 206.848 50.9742 225.926C83.6202 194.904 85.3177 177.548 36.2996 184.497C36.398 184.362 36.4718 184.239 36.521 184.116C81.6521 163.488 71.8608 149.379 28.3779 136.845C60.9993 135.75 104.175 128.259 58.084 91.5537L58.0594 91.566Z"
                fill="url(#paint28_linear_197_27293)" />
            <path
                d="M59.1785 91.9597C94.7274 103.904 103.645 97.2489 97.3352 70.4458C122.047 90.3975 133.327 85.8093 141.421 48.6367C157.264 96.351 171.434 89.3519 198.976 58.8094C199.824 59.0677 200.821 59.2276 201.989 59.2768C186.306 98.9833 199.172 111.641 248.609 87.1993C213.281 119.821 224.241 134.987 270.049 133.843C234.783 147.239 228.522 165.751 249.826 184.547C223.269 183.735 216.762 194.892 234.377 221.965C204.634 198.631 192.001 206.516 187.339 219.591C176.281 216.59 170.204 219.407 163.488 254.451C152.208 210.28 134.176 206.651 103.645 243.159C102.981 242.741 102.12 242.618 101.038 242.79C106.733 207.5 85.5511 206.356 51.7489 225.299C83.9644 194.547 85.8095 177.166 37.2218 184.116C37.2834 183.993 37.3203 183.883 37.3449 183.772C82.0947 163.254 72.3771 149.244 29.374 136.796C61.1466 135.799 105.355 128.616 59.1785 91.972V91.9597Z"
                fill="url(#paint29_linear_197_27293)" />
            <path
                d="M60.2974 92.3533C94.9484 103.977 103.928 97.6795 98.2204 72.008C122.305 90.9141 133.203 86.08 140.953 49.8176C156.944 97.1506 170.905 89.8071 198.028 59.5597C198.815 59.9165 199.75 60.1994 200.845 60.347C185.789 99.2417 198.717 112.145 247.735 87.7652C212.752 120.042 223.712 135.344 269.015 134.532C234.684 147.485 228.029 165.395 248.288 183.981C222.888 183.55 216.823 194.67 234.044 221.178C204.203 197.819 191.73 206.245 187.302 219.395C176.133 216.024 170.032 218.312 163.205 253.578C151.876 209.923 133.905 206.405 103.756 242.631C103.19 242.077 102.39 241.831 101.394 241.856C107.151 206.885 86.0304 205.852 52.5603 224.659C84.3329 194.178 86.338 176.76 38.1809 183.723C38.2055 183.612 38.2055 183.514 38.1932 183.415C82.5616 163.008 72.9179 149.109 30.3945 136.722C61.3061 135.824 106.548 128.948 60.2974 92.3656V92.3533Z"
                fill="url(#paint30_linear_197_27293)" />
            <path
                d="M61.4048 92.747C95.1455 104.039 104.199 98.1101 99.1064 73.5703C122.564 91.4431 133.081 86.3383 140.473 50.9985C156.6 97.9502 170.352 90.25 197.069 60.3101C197.782 60.7776 198.656 61.1589 199.689 61.4295C185.26 99.5247 198.237 112.649 246.837 88.3433C212.199 120.288 223.146 135.713 267.945 135.221C234.549 147.743 227.513 165.038 246.714 183.427C222.482 183.391 216.836 194.473 233.663 220.403C203.724 197.02 191.423 205.999 187.216 219.21C175.949 215.458 169.823 217.242 162.861 252.717C151.495 209.579 133.573 206.159 103.793 242.114C103.313 241.425 102.6 241.044 101.689 240.945C107.52 206.307 86.449 205.384 53.3233 224.044C84.6654 193.846 86.818 176.391 39.0914 183.341C39.0791 183.243 39.0422 183.157 38.993 183.071C82.9802 162.775 73.4103 148.973 31.3789 136.673C61.4417 135.885 107.717 129.317 61.3925 92.7716L61.4048 92.747Z"
                fill="url(#paint31_linear_197_27293)" />
            <path
                d="M62.5245 93.1407C95.355 104.113 104.482 98.5407 100.005 75.1325C122.835 91.9721 132.958 86.609 140.019 52.1794C156.292 98.7498 169.836 90.7051 196.134 61.0605C196.786 61.6264 197.586 62.1184 198.57 62.4997C184.769 99.7953 197.807 113.142 245.989 88.9092C211.682 120.51 222.63 136.07 266.937 135.898C234.488 147.989 227.046 164.669 245.202 182.849C222.138 183.194 216.922 194.252 233.356 219.591C203.318 196.171 191.177 205.704 187.204 218.976C175.838 214.843 169.676 216.123 162.59 251.795C151.188 209.173 133.327 205.864 103.916 241.536C103.523 240.724 102.895 240.207 102.059 239.974C107.951 205.655 86.9413 204.843 54.1478 223.368C85.0593 193.44 87.3596 175.961 40.0635 182.911C40.0143 182.825 39.9528 182.739 39.8667 182.665C83.4603 162.479 73.9764 148.777 32.4248 136.562C61.6389 135.873 108.947 129.612 62.5368 93.1284L62.5245 93.1407Z"
                fill="url(#paint32_linear_197_27293)" />
            <path
                d="M63.6433 93.5341C95.5635 104.174 104.764 98.9587 100.902 76.6945C123.105 92.4885 132.847 86.8671 139.551 53.3601C155.96 99.5491 169.306 91.16 195.187 61.8107C195.765 62.4872 196.515 63.0899 197.425 63.5697C184.251 100.053 197.339 113.633 245.115 89.4749C211.153 120.731 222.088 136.426 265.903 136.586C234.389 148.247 226.553 164.312 243.663 182.283C221.756 183.021 216.971 194.031 233.011 218.804C202.874 195.359 190.894 205.433 187.167 218.779C175.702 214.277 169.503 215.04 162.307 250.921C150.867 208.828 133.056 205.618 104.026 241.007C103.719 240.06 103.178 239.408 102.427 239.039C108.393 205.052 87.445 204.338 54.9836 222.728C85.4646 193.071 87.9125 175.555 41.0469 182.517C40.9608 182.443 40.8624 182.369 40.7394 182.308C83.9516 162.246 74.5416 148.629 33.4697 136.5C61.8228 135.91 110.164 129.969 63.6802 93.5218L63.6433 93.5341Z"
                fill="url(#paint33_linear_197_27293)" />
            <path
                d="M64.7502 93.9277C95.7602 104.236 105.047 99.3892 101.788 78.2567C123.363 93.0175 132.724 87.1255 139.083 54.541C155.64 100.336 168.765 91.6029 194.239 62.561C194.756 63.336 195.432 64.0494 196.281 64.6522C183.722 100.336 196.872 114.15 244.229 90.053C210.599 120.977 221.534 136.796 264.845 137.275C234.266 148.506 226.037 163.968 242.101 181.73C221.362 182.849 217.008 193.834 232.654 218.029C202.419 194.559 190.611 205.175 187.105 218.595C175.542 213.712 169.306 213.958 161.987 250.06C150.498 208.484 132.761 205.372 104.088 240.49C103.866 239.408 103.411 238.62 102.735 238.128C108.762 204.462 87.8755 203.859 55.7462 222.113C85.7844 192.739 88.3921 175.186 41.9571 182.148C41.8341 182.087 41.6988 182.025 41.5389 181.976C84.3698 162.024 75.0336 148.506 34.4414 136.463C61.9457 135.984 111.321 130.338 64.7502 93.9523V93.9277Z"
                fill="url(#paint34_linear_197_27293)" />
            <path
                d="M65.8703 94.3214C95.97 104.31 105.331 99.8198 102.674 79.8189C123.61 93.5465 132.589 87.3961 138.604 55.7219C155.296 101.136 168.224 92.0581 193.281 63.3114C193.736 64.1971 194.338 65.0089 195.126 65.7224C183.194 100.607 196.405 114.642 243.344 90.6189C210.059 121.198 220.982 137.165 263.8 137.952C234.168 148.752 225.533 163.599 240.552 181.152C220.982 182.665 217.045 193.612 232.298 217.23C201.965 193.735 190.316 204.892 187.044 218.386C175.383 213.133 169.11 212.863 161.68 249.174C150.154 208.115 132.466 205.113 104.175 239.949C104.039 238.731 103.658 237.821 103.068 237.194C109.169 203.846 88.3313 203.354 56.5341 221.473C86.1418 192.37 88.8972 174.78 42.8927 181.742C42.7328 181.693 42.5606 181.644 42.3637 181.607C84.8133 161.766 75.5509 148.358 35.4385 136.39C62.0817 136.008 112.502 130.67 65.858 94.346L65.8703 94.3214Z"
                fill="url(#paint35_linear_197_27293)" />
            <path
                d="M66.9892 94.7273C96.1787 104.383 105.613 100.263 103.571 81.3934C123.88 94.0753 132.478 87.6667 138.149 56.915C154.976 101.948 167.707 92.5132 192.345 64.074C192.727 65.0581 193.28 65.9806 193.994 66.8048C182.689 100.878 195.949 115.146 242.47 91.197C209.517 121.432 220.44 137.534 262.767 138.641C234.069 149.01 225.04 163.242 239.014 180.598C220.6 182.493 217.107 193.415 231.966 216.442C201.534 192.923 190.045 204.621 187.007 218.189C175.247 212.555 168.937 211.78 161.385 248.289C149.822 207.758 132.183 204.843 104.26 239.408C104.211 238.067 103.916 237.009 103.411 236.259C109.574 203.244 88.7983 202.85 57.3455 220.834C86.5227 192.001 89.4256 174.386 43.8394 181.349C43.6426 181.312 43.4335 181.275 43.2121 181.25C85.2803 161.52 76.0917 148.211 36.459 136.328C62.2535 136.045 113.695 131.027 66.9769 94.7396L66.9892 94.7273Z"
                fill="url(#paint36_linear_197_27293)" />
            <path
                d="M68.0962 95.121C96.3755 104.445 105.884 100.693 104.457 82.9434C124.138 94.5921 132.355 87.9129 137.669 58.0837C154.644 102.735 167.153 92.9561 191.386 64.8122C191.706 65.907 192.185 66.9402 192.85 67.8751C182.173 101.148 195.494 115.639 241.597 91.763C208.988 121.666 219.911 137.89 261.733 139.33C233.971 149.269 224.548 162.885 237.476 180.033C220.231 182.32 217.156 193.194 231.621 215.655C201.091 192.099 189.774 204.363 186.97 217.992C175.1 211.977 168.765 210.698 161.102 247.416C149.502 207.402 131.924 204.597 104.371 238.879C104.408 237.403 104.199 236.222 103.768 235.324C110.005 202.629 89.278 202.346 58.1573 220.194C86.9039 191.632 89.9545 173.993 44.7988 180.955C44.5651 180.93 44.3191 180.906 44.0607 180.894C85.7477 161.274 76.6329 148.063 37.4922 136.267C62.4256 136.082 114.913 131.371 68.1085 95.1456L68.0962 95.121Z"
                fill="url(#paint37_linear_197_27293)" />
            <path
                d="M69.2157 95.5146C96.5847 104.519 106.167 101.124 105.355 84.5055C124.409 95.1209 132.244 88.1834 137.201 59.2522C154.312 103.51 166.625 93.3988 190.451 65.5501C190.697 66.7433 191.115 67.8873 191.718 68.9328C181.668 101.407 195.039 116.13 240.736 92.3164C208.459 121.875 219.382 138.235 260.7 139.994C233.872 149.49 224.056 162.504 235.939 179.442C219.862 182.111 217.217 192.96 231.277 214.843C200.648 191.263 189.492 204.068 186.921 217.759C174.952 211.374 168.58 209.579 160.794 246.505C149.145 207.008 131.629 204.314 104.445 238.313C104.568 236.702 104.445 235.385 104.1 234.364C110.398 202.001 89.7332 201.817 58.957 219.53C87.2608 191.251 90.4836 173.562 45.7461 180.537C45.4878 180.524 45.2048 180.512 44.8973 180.5C86.1906 160.991 77.162 147.878 38.501 136.168C62.5857 136.094 116.106 131.691 69.228 95.5023L69.2157 95.5146Z"
                fill="url(#paint38_linear_197_27293)" />
            <path
                d="M70.3352 95.9082C96.7939 104.58 106.45 101.554 106.241 86.0677C124.667 95.6376 132.109 88.4417 136.734 60.4331C153.992 104.31 166.096 93.8417 189.504 66.3005C189.689 67.6044 190.045 68.8468 190.574 70.003C181.14 101.665 194.584 116.623 239.851 92.8823C207.918 122.096 218.829 138.592 259.655 140.67C233.774 149.736 223.552 162.135 234.389 178.876C219.481 181.939 217.254 192.751 230.933 214.056C200.206 190.451 189.209 203.797 186.872 217.562C174.805 210.796 168.396 208.484 160.487 245.62C148.801 206.639 131.334 204.043 104.531 237.759C104.74 236.013 104.703 234.574 104.433 233.417C110.804 201.374 90.1885 201.3 59.7444 218.878C87.6177 190.869 90.988 173.156 46.6811 180.119C46.3858 180.119 46.066 180.119 45.7339 180.119C86.6459 160.72 77.691 147.706 39.5098 136.082C62.7457 136.107 117.299 132.011 70.3352 95.8836V95.9082Z"
                fill="url(#paint39_linear_197_27293)" />
            <path
                d="M71.442 96.3019C96.9905 104.654 106.72 101.972 107.126 87.6299C124.925 96.1666 131.986 88.7124 136.254 61.614C153.647 105.109 165.542 94.2969 188.544 67.0509C188.667 68.4532 188.95 69.8063 189.418 71.0855C180.61 101.948 194.104 117.127 238.965 93.4604C207.377 122.342 218.275 138.973 258.609 141.372C233.663 150.007 223.048 161.791 232.839 178.323C219.087 181.767 217.303 192.555 230.576 213.269C199.75 189.639 188.926 203.527 186.81 217.365C174.645 210.231 168.199 207.401 160.179 244.746C148.456 206.294 131.051 203.797 104.617 237.231C104.912 235.361 104.949 233.774 104.765 232.483C111.21 200.771 90.6434 200.796 60.5313 218.238C87.9741 190.5 91.4921 172.751 47.6156 179.725C47.2835 179.725 46.9268 179.737 46.5578 179.762C87.0885 160.474 78.2074 147.571 40.5059 136.021C62.8808 136.144 118.467 132.355 71.4297 96.2896L71.442 96.3019Z"
                fill="url(#paint40_linear_197_27293)" />
            <path
                d="M72.5619 96.6955C97.2124 104.716 107.016 102.403 108.025 89.1921C125.184 96.6956 131.876 88.9707 135.8 62.7949C153.34 105.909 165.026 94.7397 187.61 67.8013C187.659 69.3143 187.881 70.7781 188.299 72.1557C180.119 102.219 193.674 117.619 238.104 94.0263C206.848 122.564 217.747 139.33 257.576 142.048C233.565 150.253 222.556 161.422 231.302 177.757C218.718 181.595 217.353 192.333 230.244 212.482C199.32 188.828 188.656 203.256 186.774 217.168C174.51 209.653 168.027 206.319 159.884 243.873C148.125 205.938 130.769 203.551 104.704 236.702C105.085 234.697 105.208 232.987 105.109 231.56C111.617 200.169 91.1113 200.304 61.3437 217.611C88.356 190.144 92.0216 172.369 48.5756 179.344C48.2066 179.356 47.813 179.381 47.4071 179.418C87.5564 160.241 78.7491 147.436 41.5273 135.972C63.0535 136.205 119.673 132.724 72.5619 96.6955Z"
                fill="url(#paint41_linear_197_27293)" />
            <path
                d="M73.6806 97.089C97.4209 104.777 107.298 102.833 108.922 90.7541C125.454 97.212 131.752 89.2288 135.332 63.9756C153.008 106.708 164.496 95.1947 186.662 68.5637C186.65 70.1751 186.81 71.7496 187.154 73.238C179.602 102.489 193.206 118.135 237.23 94.6042C206.319 122.797 217.205 139.698 256.542 142.737C233.479 150.511 222.076 161.077 229.764 177.191C218.349 181.41 217.414 192.124 229.899 211.694C198.877 188.015 188.372 202.998 186.736 216.971C174.374 209.074 167.855 205.236 159.601 242.999C147.792 205.581 130.51 203.293 104.814 236.173C105.281 234.032 105.49 232.187 105.466 230.637C112.046 199.566 91.6027 199.824 62.1549 216.984C88.7366 189.799 92.5499 171.975 49.5344 178.95C49.1285 178.974 48.698 179.011 48.2675 179.061C88.0355 159.995 79.302 147.288 42.5723 135.898C63.2374 136.23 120.903 133.056 73.7052 97.089H73.6806Z"
                fill="url(#paint42_linear_197_27293)" />
            <path
                d="M74.788 97.4826C97.618 104.851 107.569 103.264 109.796 92.3164C125.7 97.741 131.617 89.4995 134.852 65.1565C152.676 107.495 163.943 95.6498 185.703 69.3141C185.617 71.0362 185.703 72.7091 185.998 74.3205C179.073 102.772 192.727 118.64 236.345 95.1824C205.765 123.043 216.652 140.068 255.497 143.438C233.368 150.781 221.572 160.733 228.202 176.637C217.943 181.25 217.439 191.927 229.543 210.907C198.422 187.191 188.089 202.727 186.675 216.774C174.202 208.508 167.658 204.142 159.281 242.114C147.436 205.224 130.203 203.035 104.875 235.631C105.429 233.356 105.724 231.388 105.773 229.69C112.416 198.951 92.0336 199.308 62.9302 216.332C89.0691 189.418 93.0422 171.57 50.4573 178.544C50.0145 178.581 49.5594 178.63 49.0796 178.679C88.4541 159.736 79.8067 147.116 43.5566 135.812C63.373 136.242 122.059 133.376 74.788 97.458V97.4826Z"
                fill="url(#paint43_linear_197_27293)" />
            <path
                d="M75.9075 97.8763C97.8273 104.912 107.852 103.695 110.694 93.8786C125.971 98.2699 131.507 89.7579 134.385 66.3374C152.344 108.295 163.414 96.0927 184.756 70.0645C184.608 71.885 184.633 73.6809 184.854 75.3907C178.544 103.043 192.272 119.132 235.459 95.736C205.224 123.253 216.11 140.412 254.452 144.102C233.258 151.015 221.068 160.351 226.652 176.059C217.562 181.053 217.488 191.693 229.186 210.108C197.967 186.367 187.794 202.444 186.613 216.553C174.042 207.906 167.461 203.035 158.974 241.216C147.091 204.843 129.907 202.764 104.962 235.078C105.601 232.679 105.983 230.564 106.118 228.743C112.834 198.324 92.5011 198.791 63.7299 215.68C89.4382 189.037 93.559 171.164 51.4046 178.138C50.9249 178.187 50.4328 178.249 49.9162 178.31C88.9093 159.478 80.3358 146.956 44.5654 135.738C63.5208 136.279 123.253 133.72 75.9075 97.8517V97.8763Z"
                fill="url(#paint44_linear_197_27293)" />
            <path
                d="M77.0266 98.2822C98.0361 104.986 108.135 104.137 111.591 95.453C126.242 98.7988 131.396 90.0407 133.929 67.5305C152.024 109.107 162.898 96.5601 183.821 70.8271C183.6 72.7583 183.575 74.6526 183.723 76.4731C178.04 103.313 191.816 119.636 234.598 96.3141C204.695 123.486 215.581 140.781 253.418 144.791C233.171 151.273 220.575 159.995 225.114 175.493C217.193 180.881 217.549 191.484 228.854 209.32C197.536 185.555 187.523 202.174 186.576 216.356C173.907 207.34 167.289 201.952 158.678 240.343C146.759 204.486 129.637 202.506 105.048 234.549C105.773 232.015 106.228 229.776 106.45 227.82C113.227 197.733 92.956 198.299 64.5168 215.052C89.7947 188.692 94.063 170.77 52.3392 177.757C51.8226 177.818 51.2936 177.892 50.7401 177.966C89.3519 159.244 80.8521 146.821 45.5615 135.688C63.6681 136.328 124.433 134.077 77.002 98.2699L77.0266 98.2822Z"
                fill="url(#paint45_linear_197_27293)" />
            <path
                d="M78.1342 98.6758C98.2335 105.06 108.406 104.568 112.478 97.0153C126.488 99.3278 131.261 90.2991 133.45 68.7114C151.692 109.906 162.345 97.0152 182.862 71.5775C182.579 73.6071 182.481 75.6121 182.579 77.5556C177.524 103.596 191.362 120.153 233.713 96.8922C204.155 123.732 215.028 141.162 252.373 145.492C233.061 151.532 220.072 159.65 223.565 174.952C216.8 180.721 217.587 191.3 228.498 208.558C197.082 184.768 187.241 201.928 186.515 216.184C173.747 206.786 167.105 200.894 158.359 239.494C146.391 204.154 129.33 202.284 105.122 234.045C105.934 231.375 106.475 229.001 106.782 226.91C113.634 197.143 93.4116 197.819 65.3169 214.437C90.1643 188.348 94.5802 170.401 53.2869 177.375C52.7333 177.449 52.1675 177.535 51.5894 177.621C89.8198 159.011 81.3939 146.698 46.583 135.639C63.8408 136.377 125.627 134.446 78.1219 98.6758H78.1342Z"
                fill="url(#paint46_linear_197_27293)" />
            <path
                d="M79.2535 99.0695C98.4426 105.121 108.689 104.986 113.363 98.5775C126.746 99.8567 131.138 90.5574 132.983 69.8923C151.36 110.706 161.816 97.4581 181.927 72.3279C181.583 74.4682 181.411 76.5716 181.447 78.6258C177.019 103.867 190.907 120.645 232.852 97.4581C203.626 123.954 214.499 141.519 251.352 146.169C232.975 151.778 219.592 159.281 222.04 174.374C216.443 180.537 217.661 191.078 228.178 207.746C196.663 183.932 186.983 201.645 186.503 215.963C173.636 206.184 166.957 199.787 158.101 238.584C146.095 203.773 129.083 201.989 105.245 233.479C106.143 230.674 106.77 228.177 107.151 225.951C114.064 196.515 93.9036 197.29 66.141 213.785C90.5455 187.966 95.1214 169.983 54.2586 176.97C53.6681 177.056 53.0654 177.142 52.4504 177.253C90.2995 158.752 81.9474 146.538 47.6162 135.566C64.013 136.414 126.845 134.778 79.2658 99.0695H79.2535Z"
                fill="url(#paint47_linear_197_27293)" />
            <path
                d="M80.3726 99.4632C98.6514 105.195 108.984 105.417 114.261 100.14C127.017 100.373 131.027 90.8281 132.515 71.0732C151.04 111.493 161.286 97.9133 180.98 73.0783C180.561 75.317 180.34 77.5434 180.303 79.696C176.502 104.125 190.451 121.137 231.978 98.024C203.096 124.175 213.958 141.876 250.306 146.845C232.864 152.024 219.087 158.912 220.489 173.796C216.061 180.34 217.697 190.845 227.821 206.946C196.208 183.095 186.687 201.362 186.441 215.754C173.476 205.606 166.76 198.68 157.781 237.698C145.738 203.404 128.788 201.731 105.318 232.938C106.302 230.01 107.016 227.365 107.471 225.016C114.458 195.9 94.3462 196.786 66.9157 213.146C90.8897 187.597 95.6131 169.589 55.1809 176.576C54.5535 176.674 53.9139 176.773 53.262 176.884C90.7298 158.494 82.4514 146.378 48.6123 135.492C64.1603 136.439 128.025 135.11 80.3603 99.4509L80.3726 99.4632Z"
                fill="url(#paint48_linear_197_27293)" />
            <path
                d="M81.48 99.8566C98.8486 105.257 109.255 105.847 115.147 101.702C127.275 100.902 130.892 91.0862 132.048 72.2539C150.708 112.293 160.746 98.3559 180.033 73.8284C179.553 76.1655 179.258 78.5026 179.16 80.7783C175.974 104.408 189.984 121.641 231.093 98.6019C202.555 124.421 213.405 142.245 249.261 147.546C232.766 152.294 218.583 158.568 218.94 173.255C215.668 180.192 217.747 190.66 227.477 206.184C195.765 182.308 186.417 201.116 186.392 215.569C173.317 205.04 166.576 197.61 157.486 236.837C145.407 203.059 128.505 201.497 105.417 232.421C106.487 229.358 107.287 226.59 107.828 224.093C114.876 195.297 94.8262 196.294 67.7402 212.518C91.2836 187.253 96.1547 169.208 56.153 176.195C55.4887 176.305 54.8245 176.416 54.1356 176.539C91.2098 158.26 83.0176 146.242 49.6582 135.442C64.3452 136.488 129.244 135.479 81.5046 99.8689L81.48 99.8566Z"
                fill="url(#paint49_linear_197_27293)" />
            <path
                d="M82.5993 100.25C99.0576 105.318 109.538 106.278 116.045 103.264C127.546 101.431 130.781 91.3446 131.581 73.4348C150.388 113.092 160.216 98.8111 179.086 74.5788C178.532 77.0266 178.175 79.4621 178.016 81.8485C175.457 104.678 189.529 122.145 230.22 99.1678C202.014 124.642 212.863 142.601 248.228 148.223C232.667 152.54 218.091 158.211 217.402 172.677C215.299 179.995 217.796 190.439 227.132 205.384C195.335 181.484 186.134 200.833 186.343 215.36C173.169 204.461 166.391 196.515 157.178 235.951C145.05 202.702 128.21 201.226 105.491 231.88C106.647 228.681 107.52 225.779 108.148 223.158C115.27 194.695 95.269 195.79 68.515 211.879C91.628 186.884 96.6467 168.802 57.0631 175.789C56.3743 175.912 55.6609 176.035 54.9351 176.17C91.628 158.002 83.5096 146.083 50.6299 135.369C64.4681 136.525 130.4 135.811 82.587 100.263L82.5993 100.25Z"
                fill="url(#paint50_linear_197_27293)" />
            <path
                d="M226.787 204.597C201.3 163.66 224.659 154.902 247.182 148.912C212.322 142.971 201.472 124.876 229.333 99.746C184.498 125.233 172.074 100.423 178.126 75.3292C159.675 99.2663 150.043 113.892 131.1 74.6157C130.35 102.747 123.019 112.637 83.7059 100.644C131.605 136.144 64.6276 136.55 51.6504 135.295C84.0503 145.935 92.095 157.756 55.7834 175.801C97.3596 167.719 92.4148 186.047 69.3141 211.227C98.3191 193.723 119.513 193.981 105.576 231.326C127.927 200.956 144.705 202.321 156.87 235.053C166.194 195.408 173.021 203.871 186.281 215.151C185.838 200.55 194.867 180.66 226.775 204.585L226.787 204.597Z"
                fill="url(#paint51_linear_197_27293)" />
        </g>
        <path
            d="M143.29 149.908C169.493 149.908 190.734 128.667 190.734 102.464C190.734 76.262 169.493 55.0208 143.29 55.0208C117.088 55.0208 95.8467 76.262 95.8467 102.464C95.8467 128.667 117.088 149.908 143.29 149.908Z"
            fill="#010000" />
        <path d="M144.606 58.3421L146.439 49.2273L163.857 53.5325L160.536 65.3166L144.606 58.3421Z" fill="#010000" />
        <path
            d="M155.026 56.4846L152.442 55.8942C152.565 55.353 155.53 42.4865 160.733 33.9375L162.996 35.3152C158.027 43.4951 155.062 56.3616 155.026 56.4846Z"
            fill="#010000" />
        <path
            d="M171.767 77.5926L176.355 74.825C176.355 74.825 184.978 84.2842 184.485 98.5406C184.485 98.5406 181.054 85.4896 171.767 77.5803V77.5926Z"
            fill="white" />
        <path
            d="M142.011 54.9471L154.078 37.1726C154.213 36.9635 154.324 36.7913 154.41 36.6314C153.807 36.5822 152.786 36.5822 151.126 36.7913L128.05 39.8295L149.896 32.0924C149.551 32.0186 149.158 31.9571 148.727 31.8833L130.781 28.8328L148.887 27.0492C150.154 26.9261 150.991 26.7908 151.544 26.6678C151.421 26.5202 151.286 26.3603 151.114 26.1758L135.885 10.0496L154.263 22.4733C154.263 22.4733 154.361 22.5348 154.41 22.5717C154.361 22.3995 154.312 22.215 154.25 22.0059L147.645 0L158.74 20.1239C158.851 20.333 158.961 20.5175 159.06 20.702L160.843 15.7325L163.217 21.846C163.217 21.846 163.254 21.9567 163.279 22.0059C163.5 21.723 163.771 21.3539 164.103 20.8988L176.76 3.32118L168.334 23.2729C168.298 23.3467 168.273 23.4205 168.236 23.4943L175.592 21.1571L172.32 25.3517L192.653 16.8396L174.411 29.7184C173.87 30.0997 173.452 30.4072 173.144 30.6656C173.599 30.8501 174.19 31.0469 174.878 31.2806L190.943 36.6929L174.005 36.0286C172.935 35.9917 172.221 36.0163 171.754 36.0655C171.951 36.41 172.258 36.902 172.738 37.5416L186.736 56.1648L169.183 40.8505C169.011 40.7029 168.851 40.5676 168.703 40.4323L169.454 53.6063L164.324 41.3917L159.011 59.0678L159.539 40.6168C159.564 39.8418 159.539 39.2637 159.503 38.8455C159.084 39.1407 158.519 39.5958 157.744 40.3093L141.986 54.9225L142.011 54.9471ZM157.362 32.4122C157.977 32.7198 158.506 33.138 158.912 33.7038C159.884 33.384 160.88 33.3594 161.827 33.7899C162.492 34.0974 162.996 34.5403 163.377 35.0938C163.599 35.0323 163.845 34.9954 164.091 34.9831C164.374 34.9708 164.681 34.9831 165.013 35.0569C165.222 34.8724 165.456 34.7125 165.727 34.5772C166.047 34.4173 166.354 34.3311 166.674 34.2819C166.748 34.0482 166.834 33.8145 166.957 33.5808C167.166 33.1872 167.424 32.8428 167.732 32.5599C167.572 32.2523 167.473 31.9079 167.412 31.5389C167.363 31.1822 167.363 30.8501 167.412 30.5179C166.957 30.2842 166.575 29.9644 166.28 29.5708C166.17 29.4232 166.034 29.2141 165.911 28.9558C164.976 28.9312 164.103 28.6605 163.402 27.8979C163.365 27.861 163.34 27.8241 163.303 27.7872C163.057 27.8118 162.799 27.8118 162.529 27.7872C161.889 27.7011 161.335 27.4551 160.88 27.0984C160.536 27.2829 160.13 27.4182 159.675 27.4551C159.232 27.492 158.826 27.4428 158.445 27.3075C158.334 27.4182 158.211 27.5166 158.088 27.615C157.707 27.8979 157.313 28.0701 156.907 28.1685C156.87 28.3038 156.833 28.4268 156.784 28.5621C156.673 28.8697 156.526 29.1403 156.341 29.3863C156.944 29.9398 157.338 30.6409 157.411 31.5143C157.436 31.8341 157.411 32.1293 157.362 32.4122Z"
            fill="#FFD613" />
        <path
            d="M166.096 22.3256C163.562 25.8436 162.479 26.6924 160.942 22.7316C159.675 26.2496 158.986 25.6222 156.612 21.3047C158.002 25.9174 156.686 27.0491 152.922 24.5029C156.243 28.0208 154.361 28.968 149.17 29.4846C155.246 30.5179 157.756 31.9202 150.831 34.3803C158.814 33.3224 157.596 36.373 156.12 38.5502C160.45 34.5279 162.172 35.0445 162.012 40.7151C163.217 36.7051 164.902 36.4099 166.231 39.5958C166.022 35.9302 167.092 35.7949 170.819 39.0422C167.51 34.6386 168.765 33.4085 174.128 33.6177C169.122 31.9325 168.187 31.1575 173.033 27.7379C169.306 29.3001 166.698 28.6605 168.851 25.8928C164.374 27.3197 164.398 26.3849 166.108 22.3379L166.096 22.3256Z"
            fill="white" />
        <path
            d="M44.8482 205.655C42.6341 205.655 40.6168 205.163 38.8455 204.203C36.5084 202.936 34.9585 200.587 34.2328 197.229L23.3713 146.993C22.9162 144.902 23.0269 141.753 26.1389 138.616C28.2792 136.451 31.0592 134.668 34.405 133.29C37.6154 131.974 40.8136 131.051 43.9257 130.535C51.6505 129.255 58.3544 130.215 63.8405 133.376C69.3635 136.574 72.6477 141.691 73.6072 148.592C73.9147 150.819 73.7179 153.316 73.0045 156.243C72.6477 157.719 72.4263 158.629 72.3033 159.183C72.5616 159.404 72.8568 159.626 73.2013 159.86C73.2505 159.896 73.2997 159.921 73.3366 159.958C75.4154 161.606 77.1867 163.316 78.589 165.013C80.1634 166.92 81.1352 169.233 81.4796 171.877C82.1807 177.253 81.332 182.333 78.9826 186.982C76.707 191.485 73.3981 195.285 69.1543 198.274C64.9106 201.264 60.261 203.256 55.353 204.191C51.5398 204.917 48.4277 205.384 46.0783 205.556C45.6601 205.593 45.2542 205.606 44.8605 205.606L44.8482 205.655ZM50.2974 134.68C48.5138 134.68 46.6441 134.84 44.6883 135.172C41.9207 135.627 39.0546 136.464 36.1763 137.645C33.4086 138.776 31.1576 140.215 29.4601 141.925C27.6888 143.709 27.7503 145.123 27.9471 146.021L38.8086 196.257C39.2391 198.225 40.0018 199.517 41.0842 200.107C42.3881 200.821 43.9134 201.091 45.7216 200.956C47.8865 200.784 50.8387 200.353 54.4797 199.652C58.7357 198.84 62.7703 197.106 66.4728 194.498C70.1384 191.927 72.8691 188.791 74.825 184.916C76.7685 181.066 77.4327 177.007 76.8546 172.517C76.6208 170.721 76.0181 169.257 74.9972 168.027C73.8163 166.6 72.3033 165.136 70.5074 163.71C69.8678 163.267 69.3143 162.824 68.8468 162.369C68.3425 161.889 67.6537 161.126 67.5061 160.106C67.4323 159.601 67.42 159.454 68.4655 155.161C69.0313 152.848 69.2035 150.868 68.9821 149.256C68.2195 143.783 65.784 139.908 61.5033 137.448C58.3175 135.603 54.5658 134.68 50.2974 134.68ZM51.4414 187.462C50.7895 187.462 50.1252 187.253 49.5471 186.835C48.8336 186.318 48.3662 185.58 48.2063 184.695L46.8532 177.413C46.6072 176.072 47.1239 174.805 48.2801 173.931C48.3416 173.882 48.4031 173.845 48.4769 173.796C50.6664 172.48 52.8437 171.594 54.9594 171.188C57.6286 170.672 59.9657 170.893 61.897 171.877C64.5785 173.23 65.4149 175.186 65.6364 176.588C65.9439 178.52 65.6364 181.3 62.4874 183.649C60.4209 185.187 57.7393 186.281 54.2951 187.019L52.0564 187.413C51.8596 187.462 51.6505 187.474 51.4414 187.474V187.462ZM51.2569 182.788C51.2569 182.788 51.1831 182.788 51.1585 182.8H51.2569V182.788ZM51.6013 177.388L52.5607 182.567L53.4095 182.419C56.0541 181.853 58.2068 180.992 59.6951 179.885C61.0605 178.876 61.1343 178.015 61.0236 177.314C60.9867 177.117 60.9129 176.601 59.7935 176.035C58.8095 175.543 57.481 175.444 55.845 175.764C54.492 176.023 53.0651 176.576 51.589 177.376L51.6013 177.388ZM46.558 160.536C45.9553 160.536 45.3403 160.364 44.7867 160.019C43.938 159.49 43.3722 158.691 43.1999 157.756L42.2036 152.381C42.0437 151.495 42.2036 150.622 42.6833 149.908C43.0646 149.342 43.5567 148.924 44.1594 148.641C46.1398 147.694 47.9234 147.067 49.4487 146.808C51.5398 146.439 53.2373 146.722 54.5043 147.62C55.2792 148.162 56.2632 149.219 56.5954 151.151C57.0505 153.857 56.0049 156.169 53.6432 157.658C51.9334 158.74 49.8915 159.65 47.6036 160.352C47.2592 160.475 46.9024 160.536 46.5457 160.536H46.558ZM46.9762 152.479L47.5298 155.444C48.8952 154.952 50.1129 154.361 51.1585 153.697C52.0318 153.143 52.1302 152.639 52.0072 151.913C51.9457 151.569 51.8596 151.446 51.835 151.421C51.835 151.421 51.4906 151.188 50.2728 151.397C49.3503 151.557 48.2555 151.926 46.9762 152.479ZM46.1767 152.848C46.1767 152.848 46.1767 152.848 46.1644 152.848C46.1644 152.848 46.1644 152.848 46.1767 152.848Z"
            fill="white" />
        <path
            d="M45.8941 203.281C43.6431 203.453 41.675 203.084 39.9652 202.149C38.2554 201.214 37.0991 199.418 36.521 196.737L25.6595 146.501C25.1798 144.287 25.8809 142.196 27.7998 140.265C29.7187 138.333 32.2158 136.722 35.2909 135.467C38.3661 134.213 41.3798 133.339 44.3073 132.86C51.5647 131.654 57.7397 132.577 62.6722 135.418C67.6048 138.272 70.4462 142.786 71.295 148.936C71.5656 150.868 71.3688 153.131 70.7292 155.714C70.0895 158.31 69.7943 159.663 69.8066 159.773C69.8435 160.007 70.0526 160.302 70.4462 160.684C70.8399 161.065 71.3196 161.446 71.8731 161.815C73.8412 163.377 75.4772 164.952 76.7688 166.526C78.0727 168.101 78.8476 169.995 79.1428 172.209C79.7947 177.203 79.0075 181.767 76.8795 185.961C74.7515 190.168 71.7255 193.625 67.7893 196.392C63.8531 199.16 59.5602 201.042 54.8859 201.928C51.1342 202.641 48.1205 203.084 45.8695 203.269L45.8941 203.281ZM52.4135 155.677C53.9757 154.681 54.6153 153.316 54.3078 151.532C53.9634 149.465 52.475 148.641 49.8672 149.096C48.5634 149.33 46.9889 149.871 45.1561 150.745C44.9347 150.843 44.7625 150.991 44.6272 151.2C44.4918 151.409 44.4426 151.655 44.5041 151.938C44.8978 154.09 45.1069 155.161 45.5005 157.313C45.5497 157.608 45.7342 157.842 46.0171 158.027C46.3123 158.211 46.5953 158.248 46.8659 158.137C49.0062 157.485 50.8513 156.674 52.4135 155.69V155.677ZM61.0977 181.767C62.8813 180.439 63.644 178.839 63.3365 176.957C63.1397 175.703 62.3032 174.694 60.8517 173.956C59.4002 173.218 57.5675 173.058 55.4025 173.476C53.5574 173.833 51.6508 174.608 49.6827 175.789C49.2399 176.121 49.0677 176.515 49.1538 176.982C49.695 179.897 49.9656 181.349 50.5069 184.264C50.5561 184.559 50.7037 184.781 50.9251 184.941C51.1465 185.1 51.3925 185.15 51.6508 185.1C52.5119 184.953 52.9424 184.879 53.8157 184.731C56.8909 184.079 59.3141 183.095 61.0977 181.767Z"
            fill="url(#paint52_linear_197_27293)" />
        <path
            d="M104.912 189.037C100.422 189.037 96.2031 188.163 92.0947 186.392C86.8177 184.116 82.3279 180.648 78.7484 176.059C75.0951 171.385 72.8072 166.01 71.9585 160.093C71.0605 153.82 71.9216 147.817 74.517 142.257C77.1493 136.623 81.1348 132.023 86.3748 128.567C91.6149 125.11 97.5438 123.203 104.002 122.871C110.373 122.539 116.462 123.757 122.096 126.463C127.656 129.145 132.17 132.946 135.516 137.767C138.837 142.54 140.596 147.94 140.768 153.795C140.941 159.712 139.526 165.333 136.574 170.487C133.708 175.494 129.759 179.688 124.864 182.948C119.943 186.22 114.556 188.188 108.811 188.803C107.483 188.938 106.179 189.012 104.9 189.012L104.912 189.037ZM106.019 127.496C105.429 127.496 104.838 127.509 104.248 127.546C98.6263 127.828 93.4846 129.489 88.9457 132.478C84.4313 135.455 80.9995 139.416 78.7361 144.25C76.5343 148.973 75.8086 154.078 76.5712 159.441C77.297 164.534 79.2651 169.159 82.414 173.193C85.5507 177.203 89.3147 180.119 93.9274 182.111C98.4418 184.055 103.153 184.744 108.307 184.19C113.362 183.649 117.926 181.988 122.268 179.085C126.623 176.182 129.981 172.615 132.515 168.187C135.073 163.722 136.242 159.06 136.094 153.955C135.947 148.949 134.507 144.533 131.678 140.449C128.8 136.304 124.888 133.019 120.066 130.695C115.675 128.579 110.952 127.509 106.019 127.509V127.496ZM105.638 172.172C103.362 172.172 101.16 171.742 99.0568 170.893C96.3999 169.823 94.1489 168.15 92.3653 165.948C90.5325 163.685 89.4254 160.979 89.081 157.904C88.7366 154.902 89.2655 151.987 90.6186 149.244C91.9716 146.513 93.989 144.25 96.609 142.515C99.229 140.781 102.218 139.797 105.49 139.588C108.479 139.391 111.357 139.895 114.027 141.064C116.708 142.245 118.959 144.004 120.681 146.304C122.44 148.641 123.424 151.347 123.597 154.349C123.769 157.239 123.129 160.044 121.702 162.701C120.312 165.284 118.32 167.449 115.773 169.134C113.239 170.819 110.373 171.816 107.286 172.099C106.72 172.148 106.167 172.172 105.613 172.172H105.638ZM106.745 144.225C106.437 144.225 106.117 144.225 105.798 144.25C103.35 144.41 101.123 145.136 99.1921 146.415C97.2732 147.694 95.7972 149.342 94.8131 151.323C93.8413 153.279 93.4846 155.259 93.7306 157.375C93.9766 159.577 94.727 161.422 96.0063 163.008C97.2978 164.607 98.8723 165.776 100.816 166.563C102.759 167.351 104.74 167.646 106.905 167.437C109.254 167.228 111.321 166.502 113.227 165.235C115.146 163.968 116.585 162.406 117.619 160.487C118.639 158.592 119.082 156.674 118.959 154.632C118.836 152.541 118.184 150.732 116.979 149.121C115.737 147.473 114.125 146.206 112.182 145.345C110.484 144.594 108.651 144.225 106.757 144.225H106.745Z"
            fill="white" />
        <path
            d="M93.0173 184.252C88.1093 182.136 83.964 178.95 80.5936 174.633C77.2232 170.315 75.0829 165.358 74.2834 159.773C73.4592 154.017 74.1973 148.481 76.6451 143.254C79.093 138.026 82.7708 133.757 87.6788 130.522C92.5868 127.287 98.1221 125.516 104.149 125.208C110.177 124.901 115.86 126.057 121.1 128.579C126.34 131.1 130.51 134.631 133.609 139.108C136.709 143.573 138.284 148.494 138.444 153.881C138.604 159.478 137.275 164.608 134.557 169.343C131.838 174.091 128.173 177.966 123.572 181.029C118.972 184.092 114.002 185.925 108.565 186.503C103.079 187.093 97.9253 186.367 93.0173 184.252ZM114.519 167.191C116.745 165.715 118.467 163.857 119.673 161.594C120.891 159.331 121.432 156.969 121.284 154.496C121.137 151.962 120.325 149.699 118.836 147.719C117.348 145.738 115.441 144.238 113.104 143.217C110.779 142.196 108.282 141.765 105.65 141.937C102.784 142.122 100.189 142.971 97.9007 144.484C95.6127 145.997 93.8783 147.94 92.7098 150.302C91.5412 152.664 91.1107 155.124 91.3936 157.658C91.6888 160.302 92.6237 162.59 94.1736 164.497C95.7234 166.403 97.6301 167.818 99.918 168.741C102.206 169.663 104.592 170.008 107.089 169.774C109.808 169.528 112.268 168.667 114.494 167.191H114.519Z"
            fill="url(#paint53_linear_197_27293)" />
        <path
            d="M168.236 190.156C168.076 190.156 167.904 190.156 167.744 190.156C161.766 190.082 156.464 188.717 151.507 185.998C146.538 183.268 142.479 179.504 139.453 174.792C136.341 169.97 134.68 164.632 134.495 158.949C134.299 152.909 135.824 147.325 139.022 142.368C142.257 137.361 146.722 133.474 152.282 130.83C157.83 128.197 163.894 127.09 170.303 127.533C176.613 127.964 182.48 129.809 187.757 133.007C192.96 136.168 197.02 140.264 199.812 145.185C202.592 150.08 203.76 155.37 203.281 160.93C202.801 166.526 200.771 171.656 197.253 176.182C193.858 180.537 189.479 184.018 184.252 186.515C179.184 188.938 173.796 190.168 168.248 190.168L168.236 190.156ZM167.572 132.121C162.861 132.121 158.396 133.105 154.275 135.061C149.502 137.325 145.689 140.646 142.934 144.902C140.252 149.047 138.985 153.721 139.145 158.789C139.305 163.623 140.72 168.15 143.364 172.246C146.009 176.355 149.404 179.504 153.746 181.878C158.014 184.215 162.602 185.383 167.793 185.457C172.837 185.506 177.585 184.485 182.222 182.271C186.847 180.057 190.562 177.117 193.551 173.279C196.552 169.429 198.201 165.259 198.606 160.511C199 155.862 198.065 151.593 195.728 147.473C193.329 143.253 189.824 139.723 185.309 136.98C180.684 134.176 175.518 132.552 169.958 132.171C169.159 132.121 168.359 132.084 167.56 132.084L167.572 132.121ZM168.691 174.313C168.494 174.313 168.298 174.313 168.101 174.313C165.247 174.227 162.566 173.538 160.105 172.258C157.596 170.955 155.554 169.134 154.029 166.858C152.454 164.497 151.643 161.803 151.643 158.838C151.643 155.935 152.491 153.229 154.164 150.769C155.812 148.346 158.063 146.439 160.856 145.111C163.623 143.795 166.674 143.217 169.934 143.389C172.898 143.549 175.666 144.348 178.175 145.75C180.709 147.165 182.726 149.084 184.19 151.446C185.691 153.869 186.38 156.55 186.22 159.429C186.072 162.209 185.113 164.804 183.391 167.154C181.718 169.429 179.504 171.225 176.785 172.517C174.276 173.722 171.545 174.325 168.691 174.325V174.313ZM168.777 148.026C166.649 148.026 164.669 148.457 162.861 149.318C160.831 150.289 159.195 151.655 158.014 153.389C156.87 155.074 156.304 156.846 156.304 158.814C156.304 160.868 156.833 162.639 157.904 164.238C158.998 165.887 160.425 167.141 162.258 168.101C164.103 169.06 166.059 169.565 168.224 169.626C170.573 169.7 172.726 169.257 174.768 168.285C176.797 167.314 178.384 166.034 179.614 164.374C180.807 162.75 181.435 161.052 181.545 159.17C181.644 157.239 181.213 155.517 180.205 153.894C179.159 152.208 177.708 150.843 175.875 149.81C173.993 148.764 171.902 148.161 169.651 148.038C169.355 148.026 169.06 148.014 168.765 148.014L168.777 148.026Z"
            fill="white" />
        <path
            d="M152.614 183.956C147.989 181.422 144.25 177.966 141.396 173.538C138.542 169.109 136.98 164.214 136.808 158.888C136.635 153.389 137.976 148.284 140.965 143.647C143.954 139.022 148.063 135.43 153.266 132.958C158.469 130.485 164.127 129.464 170.118 129.883C176.108 130.301 181.607 132.048 186.515 135.024C191.423 138.001 195.162 141.802 197.745 146.353C200.328 150.904 201.349 155.689 200.919 160.745C200.464 165.997 198.582 170.635 195.371 174.755C192.161 178.876 188.101 182.074 183.206 184.411C178.31 186.749 173.193 187.905 167.744 187.831C162.245 187.757 157.227 186.503 152.602 183.969L152.614 183.956ZM175.776 170.401C178.138 169.282 180.044 167.732 181.496 165.764C182.947 163.783 183.747 161.643 183.87 159.306C183.993 156.919 183.439 154.705 182.185 152.676C180.93 150.646 179.208 149.01 177.006 147.792C174.817 146.562 172.393 145.873 169.773 145.726C166.92 145.566 164.263 146.07 161.84 147.227C159.416 148.383 157.485 150.007 156.07 152.085C154.656 154.164 153.955 156.415 153.967 158.826C153.967 161.348 154.644 163.586 155.96 165.555C157.276 167.523 159.023 169.06 161.175 170.192C163.34 171.324 165.653 171.914 168.162 171.988C170.88 172.062 173.414 171.545 175.776 170.413V170.401Z"
            fill="url(#paint54_linear_197_27293)" />
        <path
            d="M255.005 205.187C254.698 205.187 254.378 205.163 254.058 205.126C249.15 204.462 246.764 204.166 241.856 203.625C241.819 203.625 241.77 203.625 241.733 203.613C240.737 203.453 239.814 203.121 239.002 202.629C238.129 202.112 237.428 201.387 236.899 200.476C236.382 199.578 236.124 198.619 236.111 197.623C236.025 194.068 235.952 191.571 235.865 188.852C234.894 191.029 233.959 193.133 232.667 196.085C232.028 197.377 231.13 198.348 229.937 199.062C228.706 199.812 227.341 200.132 225.89 200.009C222.409 199.701 220.711 199.578 217.218 199.332C216.012 199.283 214.881 198.853 213.921 198.053C212.949 197.253 212.31 196.196 212.076 195.002C210.871 189.59 210.108 186.269 209.025 181.792C207.512 186.171 206.405 189.467 204.622 194.916C204.24 196.183 203.466 197.253 202.383 197.955C201.042 198.828 199.529 199.136 198.004 198.865C193.969 198.213 191.977 197.918 187.918 197.34C186.405 197.094 185.15 196.368 184.24 195.224C183.305 194.08 182.862 192.69 182.948 191.238C182.985 190.636 183.071 190.193 183.219 189.812C188.619 173.821 194.523 157.867 200.784 142.393C201.018 141.728 201.276 141.236 201.62 140.855C202.334 140.006 203.244 139.379 204.302 138.973C205.372 138.567 206.492 138.444 207.648 138.592C211.744 139.108 213.761 139.391 217.87 139.994C219.075 140.178 220.17 140.634 221.129 141.347C222.027 142.011 222.741 142.823 223.233 143.758C223.589 144.311 223.799 144.902 223.872 145.517C224.819 150.745 225.385 153.98 226.099 158.236C227.612 154.804 228.817 152.122 230.773 147.866C231.154 146.993 231.757 146.169 232.557 145.443C234.66 143.696 237.231 143.106 240.06 143.672C242.963 144.25 244.414 144.545 247.317 145.16C248.658 145.443 249.901 145.972 250.983 146.735C252.065 147.485 252.914 148.395 253.542 149.453C254.107 150.277 254.452 151.212 254.55 152.221C256.887 167.904 258.991 183.674 260.811 199.074C260.811 199.111 260.811 199.16 260.811 199.197C260.848 199.812 260.811 200.329 260.725 200.784C260.405 202.248 259.532 203.453 258.203 204.265C257.219 204.868 256.137 205.163 254.993 205.163L255.005 205.187ZM242.434 198.988C247.342 199.529 249.765 199.824 254.698 200.501C255.128 200.562 255.46 200.501 255.78 200.304C256.075 200.12 256.125 199.984 256.162 199.837C256.162 199.787 256.162 199.701 256.162 199.591C254.353 184.239 252.25 168.519 249.913 152.885C249.913 152.836 249.913 152.799 249.901 152.75C249.876 152.504 249.802 152.307 249.667 152.122C249.618 152.061 249.581 151.987 249.532 151.913C249.249 151.409 248.843 150.991 248.301 150.609C247.723 150.203 247.084 149.933 246.346 149.773C243.467 149.158 242.028 148.863 239.15 148.297C237.686 148.014 236.567 148.235 235.619 149.023C235.398 149.232 235.177 149.515 235.041 149.822C232.36 155.665 231.081 158.543 228.485 164.497C228.141 165.259 227.55 165.825 226.8 166.133C226.222 166.367 225.631 166.428 225.053 166.342C223.7 166.133 222.667 165.223 222.31 163.919C222.286 163.845 222.273 163.759 222.261 163.673C221.117 156.698 220.527 153.291 219.26 146.304C219.26 146.28 219.26 146.267 219.26 146.243C219.223 146.181 219.186 146.107 219.149 146.046C218.977 145.714 218.718 145.419 218.362 145.148C218.005 144.89 217.624 144.73 217.181 144.656C213.134 144.065 211.141 143.783 207.057 143.266C206.664 143.217 206.319 143.254 205.975 143.377C205.68 143.487 205.446 143.647 205.249 143.856C205.225 143.918 205.2 143.992 205.163 144.078C198.902 159.577 193.022 175.457 187.647 191.374C187.647 191.423 187.647 191.484 187.635 191.558C187.622 191.854 187.684 192.063 187.893 192.309C188.102 192.567 188.323 192.69 188.656 192.751C192.702 193.317 194.707 193.625 198.816 194.289C199.222 194.363 199.517 194.289 199.861 194.068C199.923 194.031 200.083 193.932 200.194 193.539C202.555 186.343 203.724 182.874 206.196 175.813C206.455 175.137 206.861 174.608 207.402 174.202C208.054 173.722 208.853 173.513 209.653 173.599C211.055 173.759 212.15 174.731 212.494 176.146C214.253 183.378 215.077 186.896 216.676 194.055C216.713 194.203 216.738 194.314 216.922 194.474C217.082 194.609 217.255 194.67 217.501 194.683C221.092 194.929 222.802 195.064 226.308 195.359C226.751 195.396 227.144 195.298 227.538 195.064C227.968 194.806 228.264 194.498 228.46 194.105C230.748 188.852 231.917 186.257 234.303 181.041C234.82 179.7 236.148 178.987 237.674 179.245C238.24 179.344 238.793 179.602 239.26 179.996C239.851 180.5 240.232 181.213 240.331 182.001C240.331 182.062 240.331 182.124 240.343 182.197C240.564 188.434 240.663 191.448 240.81 197.561C240.81 197.721 240.835 197.905 240.983 198.164C241.106 198.373 241.253 198.533 241.425 198.631C241.721 198.803 242.065 198.926 242.459 199L242.434 198.988Z"
            fill="white" />
        <path
            d="M186.06 193.772C185.494 193.071 185.236 192.284 185.285 191.398C185.31 191.042 185.347 190.783 185.408 190.623C190.796 174.669 196.639 158.875 202.949 143.278C203.109 142.835 203.244 142.54 203.379 142.405C203.847 141.851 204.425 141.433 205.138 141.162C205.84 140.892 206.578 140.818 207.34 140.916C211.424 141.433 213.454 141.716 217.525 142.319C218.349 142.442 219.075 142.749 219.739 143.241C220.391 143.721 220.883 144.299 221.228 144.963C221.425 145.246 221.535 145.541 221.56 145.861C222.827 152.86 223.43 156.341 224.561 163.267C224.672 163.685 224.955 163.931 225.41 164.005C225.582 164.029 225.754 164.005 225.939 163.931C226.123 163.857 226.259 163.734 226.332 163.537C228.903 157.621 230.22 154.693 232.889 148.863C233.159 148.26 233.565 147.706 234.119 147.202C235.607 145.972 237.44 145.566 239.593 145.997C242.483 146.575 243.935 146.87 246.825 147.485C247.871 147.706 248.806 148.112 249.642 148.69C250.466 149.269 251.118 149.957 251.573 150.757C251.955 151.286 252.176 151.889 252.238 152.541C254.563 168.15 256.654 183.71 258.499 199.381C258.523 199.775 258.511 200.095 258.462 200.329C258.277 201.165 257.798 201.829 257.01 202.309C256.223 202.789 255.35 202.961 254.403 202.826C249.495 202.149 247.035 201.854 242.127 201.313C241.438 201.202 240.798 200.981 240.22 200.636C239.691 200.316 239.26 199.861 238.941 199.32C238.633 198.779 238.473 198.201 238.461 197.61C238.313 191.497 238.215 188.434 237.994 182.284C237.969 182.087 237.883 181.914 237.735 181.791C237.588 181.668 237.428 181.595 237.268 181.558C236.825 181.484 236.554 181.619 236.444 181.939C234.045 187.191 232.864 189.836 230.527 195.15C230.133 195.937 229.531 196.577 228.731 197.069C227.932 197.561 227.046 197.77 226.086 197.684C222.605 197.376 220.859 197.241 217.378 197.007C216.627 196.971 215.975 196.724 215.422 196.269C214.856 195.802 214.512 195.236 214.376 194.572C212.789 187.462 211.953 183.895 210.206 176.699C210.096 176.232 209.813 175.973 209.37 175.924C209.148 175.899 208.952 175.949 208.767 176.084C208.583 176.219 208.46 176.379 208.386 176.576C205.938 183.587 204.745 187.105 202.42 194.203C202.186 195.002 201.743 195.605 201.128 196.011C200.28 196.565 199.382 196.749 198.435 196.577C194.375 195.925 192.333 195.617 188.262 195.039C187.364 194.892 186.638 194.473 186.072 193.772H186.06Z"
            fill="url(#paint55_linear_197_27293)" />
    </g>
    <defs>
        <linearGradient id="paint0_linear_197_27293" x1="195.396" y1="93.6572" x2="73.927" y2="258.437"
            gradientUnits="userSpaceOnUse">
            <stop offset="0.26" stop-color="#FFA72E" />
            <stop offset="0.58" stop-color="#FF6D08" />
            <stop offset="0.92" stop-color="#E92701" />
            <stop offset="1" stop-color="#E41700" />
        </linearGradient>
        <linearGradient id="paint1_linear_197_27293" x1="150.08" y1="15.5725" x2="150.08" y2="279.151"
            gradientUnits="userSpaceOnUse">
            <stop stop-color="#FF2502" />
            <stop offset="1" stop-color="#991601" />
        </linearGradient>
        <linearGradient id="paint2_linear_197_27293" x1="193.329" y1="90.1639" x2="82.1435" y2="259.667"
            gradientUnits="userSpaceOnUse">
            <stop stop-color="#FEAA35" />
            <stop offset="0.26" stop-color="#FFA932" />
            <stop offset="0.58" stop-color="#FF6F0A" />
            <stop offset="0.59" stop-color="#FE6D09" />
            <stop offset="1" stop-color="#E41700" />
        </linearGradient>
        <linearGradient id="paint3_linear_197_27293" x1="192.124" y1="88.5277" x2="86.277" y2="259.95"
            gradientUnits="userSpaceOnUse">
            <stop stop-color="#FEAC38" />
            <stop offset="0.26" stop-color="#FEAA34" />
            <stop offset="0.58" stop-color="#FF710A" />
            <stop offset="0.59" stop-color="#FE6F0A" />
            <stop offset="1" stop-color="#E41700" />
        </linearGradient>
        <linearGradient id="paint4_linear_197_27293" x1="190.832" y1="86.9901" x2="90.4221" y2="260.024"
            gradientUnits="userSpaceOnUse">
            <stop stop-color="#FEAE3B" />
            <stop offset="0.26" stop-color="#FEAB36" />
            <stop offset="0.58" stop-color="#FF720B" />
            <stop offset="0.59" stop-color="#FE700B" />
            <stop offset="1" stop-color="#E41700" />
        </linearGradient>
        <linearGradient id="paint5_linear_197_27293" x1="189.43" y1="85.551" x2="94.5551" y2="259.864"
            gradientUnits="userSpaceOnUse">
            <stop stop-color="#FDB03E" />
            <stop offset="0.26" stop-color="#FEAC38" />
            <stop offset="0.58" stop-color="#FF730C" />
            <stop offset="0.59" stop-color="#FE710C" />
            <stop offset="1" stop-color="#E41700" />
        </linearGradient>
        <linearGradient id="paint6_linear_197_27293" x1="187.954" y1="84.198" x2="98.6638" y2="259.495"
            gradientUnits="userSpaceOnUse">
            <stop stop-color="#FDB142" />
            <stop offset="0.26" stop-color="#FEAD39" />
            <stop offset="0.58" stop-color="#FF740D" />
            <stop offset="0.59" stop-color="#FE720C" />
            <stop offset="1" stop-color="#E41700" />
        </linearGradient>
        <linearGradient id="paint7_linear_197_27293" x1="185.814" y1="82.685" x2="102.169" y2="258.634"
            gradientUnits="userSpaceOnUse">
            <stop stop-color="#FDB345" />
            <stop offset="0.26" stop-color="#FEAE3B" />
            <stop offset="0.58" stop-color="#FF750E" />
            <stop offset="0.59" stop-color="#FE730D" />
            <stop offset="1" stop-color="#E41700" />
        </linearGradient>
        <linearGradient id="paint8_linear_197_27293" x1="183.256" y1="81.1721" x2="105.294" y2="257.465"
            gradientUnits="userSpaceOnUse">
            <stop stop-color="#FCB548" />
            <stop offset="0.26" stop-color="#FDAF3D" />
            <stop offset="0.58" stop-color="#FF760F" />
            <stop offset="0.59" stop-color="#FE740E" />
            <stop offset="1" stop-color="#E41700" />
        </linearGradient>
        <linearGradient id="paint9_linear_197_27293" x1="180.635" y1="79.8312" x2="108.356" y2="256.137"
            gradientUnits="userSpaceOnUse">
            <stop stop-color="#FCB74C" />
            <stop offset="0.26" stop-color="#FDB03F" />
            <stop offset="0.58" stop-color="#FF780F" />
            <stop offset="0.59" stop-color="#FE760F" />
            <stop offset="1" stop-color="#E41700" />
        </linearGradient>
        <linearGradient id="paint10_linear_197_27293" x1="177.855" y1="78.8717" x2="110.977" y2="255.62"
            gradientUnits="userSpaceOnUse">
            <stop stop-color="#FCB84F" />
            <stop offset="0.26" stop-color="#FDB141" />
            <stop offset="0.58" stop-color="#FF7910" />
            <stop offset="0.59" stop-color="#FE770F" />
            <stop offset="1" stop-color="#E41700" />
        </linearGradient>
        <linearGradient id="paint11_linear_197_27293" x1="175.001" y1="78.1829" x2="113.424" y2="255.448"
            gradientUnits="userSpaceOnUse">
            <stop stop-color="#FBBA52" />
            <stop offset="0.26" stop-color="#FDB243" />
            <stop offset="0.58" stop-color="#FF7A11" />
            <stop offset="0.59" stop-color="#FE7810" />
            <stop offset="1" stop-color="#E41700" />
        </linearGradient>
        <linearGradient id="paint12_linear_197_27293" x1="172.123" y1="77.654" x2="115.86" y2="255.128"
            gradientUnits="userSpaceOnUse">
            <stop stop-color="#FBBC56" />
            <stop offset="0.26" stop-color="#FDB345" />
            <stop offset="0.58" stop-color="#FF7B12" />
            <stop offset="0.59" stop-color="#FE7911" />
            <stop offset="1" stop-color="#E41700" />
        </linearGradient>
        <linearGradient id="paint13_linear_197_27293" x1="169.233" y1="77.2974" x2="118.295" y2="254.673"
            gradientUnits="userSpaceOnUse">
            <stop stop-color="#FBBD59" />
            <stop offset="0.26" stop-color="#FCB447" />
            <stop offset="0.58" stop-color="#FF7C13" />
            <stop offset="0.59" stop-color="#FE7A12" />
            <stop offset="1" stop-color="#E41700" />
        </linearGradient>
        <linearGradient id="paint14_linear_197_27293" x1="166.342" y1="77.1004" x2="120.706" y2="254.082"
            gradientUnits="userSpaceOnUse">
            <stop stop-color="#FABF5C" />
            <stop offset="0.26" stop-color="#FCB549" />
            <stop offset="0.58" stop-color="#FF7D14" />
            <stop offset="0.59" stop-color="#FE7B12" />
            <stop offset="1" stop-color="#E41700" />
        </linearGradient>
        <linearGradient id="paint15_linear_197_27293" x1="163.451" y1="77.0635" x2="123.105" y2="253.369"
            gradientUnits="userSpaceOnUse">
            <stop stop-color="#FAC15F" />
            <stop offset="0.26" stop-color="#FCB64B" />
            <stop offset="0.58" stop-color="#FF7F14" />
            <stop offset="0.59" stop-color="#FE7D13" />
            <stop offset="1" stop-color="#E41700" />
        </linearGradient>
        <linearGradient id="paint16_linear_197_27293" x1="160.708" y1="77.2112" x2="125.602" y2="252.533"
            gradientUnits="userSpaceOnUse">
            <stop stop-color="#FAC363" />
            <stop offset="0.26" stop-color="#FCB74C" />
            <stop offset="0.58" stop-color="#FF8015" />
            <stop offset="0.59" stop-color="#FE7E14" />
            <stop offset="1" stop-color="#E41700" />
        </linearGradient>
        <linearGradient id="paint17_linear_197_27293" x1="159.146" y1="77.6171" x2="129.206" y2="251.77"
            gradientUnits="userSpaceOnUse">
            <stop stop-color="#F9C466" />
            <stop offset="0.26" stop-color="#FCB84E" />
            <stop offset="0.58" stop-color="#FF8116" />
            <stop offset="0.59" stop-color="#FE7F15" />
            <stop offset="1" stop-color="#E41700" />
        </linearGradient>
        <linearGradient id="paint18_linear_197_27293" x1="157.781" y1="76.8421" x2="132.601" y2="251.758"
            gradientUnits="userSpaceOnUse">
            <stop stop-color="#F9C669" />
            <stop offset="0.26" stop-color="#FBB950" />
            <stop offset="0.58" stop-color="#FF8217" />
            <stop offset="0.59" stop-color="#FE8015" />
            <stop offset="1" stop-color="#E41700" />
        </linearGradient>
        <linearGradient id="paint19_linear_197_27293" x1="156.329" y1="76.301" x2="135.873" y2="252.52"
            gradientUnits="userSpaceOnUse">
            <stop stop-color="#F9C86D" />
            <stop offset="0.26" stop-color="#FBBA52" />
            <stop offset="0.58" stop-color="#FF8318" />
            <stop offset="0.59" stop-color="#FE8116" />
            <stop offset="1" stop-color="#E41700" />
        </linearGradient>
        <linearGradient id="paint20_linear_197_27293" x1="154.841" y1="75.8457" x2="139.157" y2="253.074"
            gradientUnits="userSpaceOnUse">
            <stop stop-color="#F8CA70" />
            <stop offset="0.26" stop-color="#FBBB54" />
            <stop offset="0.58" stop-color="#FF8518" />
            <stop offset="0.59" stop-color="#FE8317" />
            <stop offset="1" stop-color="#E41700" />
        </linearGradient>
        <linearGradient id="paint21_linear_197_27293" x1="153.315" y1="75.4398" x2="142.454" y2="253.418"
            gradientUnits="userSpaceOnUse">
            <stop stop-color="#F8CB73" />
            <stop offset="0.26" stop-color="#FBBC56" />
            <stop offset="0.58" stop-color="#FF8619" />
            <stop offset="0.59" stop-color="#FE8418" />
            <stop offset="1" stop-color="#E41700" />
        </linearGradient>
        <linearGradient id="paint22_linear_197_27293" x1="151.741" y1="75.1201" x2="145.763" y2="253.566"
            gradientUnits="userSpaceOnUse">
            <stop stop-color="#F8CD76" />
            <stop offset="0.26" stop-color="#FBBD58" />
            <stop offset="0.58" stop-color="#FF871A" />
            <stop offset="0.59" stop-color="#FE8518" />
            <stop offset="1" stop-color="#E41700" />
        </linearGradient>
        <linearGradient id="paint23_linear_197_27293" x1="150.142" y1="74.8741" x2="149.048" y2="253.517"
            gradientUnits="userSpaceOnUse">
            <stop stop-color="#F7CF7A" />
            <stop offset="0.26" stop-color="#FABE5A" />
            <stop offset="0.58" stop-color="#FF881B" />
            <stop offset="0.59" stop-color="#FE8619" />
            <stop offset="1" stop-color="#E41700" />
        </linearGradient>
        <linearGradient id="paint24_linear_197_27293" x1="148.518" y1="74.7019" x2="152.294" y2="253.258"
            gradientUnits="userSpaceOnUse">
            <stop stop-color="#F7D07D" />
            <stop offset="0.26" stop-color="#FABF5C" />
            <stop offset="0.58" stop-color="#FF891C" />
            <stop offset="0.59" stop-color="#FE871A" />
            <stop offset="1" stop-color="#E41700" />
        </linearGradient>
        <linearGradient id="paint25_linear_197_27293" x1="146.87" y1="74.6033" x2="155.518" y2="252.815"
            gradientUnits="userSpaceOnUse">
            <stop stop-color="#F7D280" />
            <stop offset="0.26" stop-color="#FAC05E" />
            <stop offset="0.58" stop-color="#FF8A1D" />
            <stop offset="0.59" stop-color="#FE881B" />
            <stop offset="1" stop-color="#E41700" />
        </linearGradient>
        <linearGradient id="paint26_linear_197_27293" x1="145.197" y1="74.5911" x2="158.703" y2="252.176"
            gradientUnits="userSpaceOnUse">
            <stop stop-color="#F6D484" />
            <stop offset="0.26" stop-color="#FAC15F" />
            <stop offset="0.58" stop-color="#FF8C1D" />
            <stop offset="0.59" stop-color="#FF8A1B" />
            <stop offset="1" stop-color="#E41700" />
        </linearGradient>
        <linearGradient id="paint27_linear_197_27293" x1="143.512" y1="74.6648" x2="161.815" y2="251.339"
            gradientUnits="userSpaceOnUse">
            <stop stop-color="#F6D687" />
            <stop offset="0.26" stop-color="#FAC261" />
            <stop offset="0.58" stop-color="#FF8D1E" />
            <stop offset="0.59" stop-color="#FF8B1C" />
            <stop offset="1" stop-color="#E41700" />
        </linearGradient>
        <linearGradient id="paint28_linear_197_27293" x1="141.815" y1="74.8248" x2="164.866" y2="250.331"
            gradientUnits="userSpaceOnUse">
            <stop stop-color="#F6D78A" />
            <stop offset="0.26" stop-color="#FAC363" />
            <stop offset="0.58" stop-color="#FF8E1F" />
            <stop offset="0.59" stop-color="#FF8C1D" />
            <stop offset="1" stop-color="#E41700" />
        </linearGradient>
        <linearGradient id="paint29_linear_197_27293" x1="140.117" y1="75.0585" x2="167.83" y2="249.138"
            gradientUnits="userSpaceOnUse">
            <stop stop-color="#F5D98E" />
            <stop offset="0.26" stop-color="#F9C465" />
            <stop offset="0.58" stop-color="#FF8F20" />
            <stop offset="0.59" stop-color="#FF8D1E" />
            <stop offset="1" stop-color="#E41700" />
        </linearGradient>
        <linearGradient id="paint30_linear_197_27293" x1="137.915" y1="75.4768" x2="170.216" y2="247.871"
            gradientUnits="userSpaceOnUse">
            <stop stop-color="#F5DB91" />
            <stop offset="0.26" stop-color="#F9C567" />
            <stop offset="0.58" stop-color="#FF9021" />
            <stop offset="0.59" stop-color="#FF8E1E" />
            <stop offset="1" stop-color="#E41700" />
        </linearGradient>
        <linearGradient id="paint31_linear_197_27293" x1="135.553" y1="76.0427" x2="172.357" y2="246.505"
            gradientUnits="userSpaceOnUse">
            <stop stop-color="#F5DC94" />
            <stop offset="0.26" stop-color="#F9C669" />
            <stop offset="0.58" stop-color="#FF9122" />
            <stop offset="0.59" stop-color="#FF8F1F" />
            <stop offset="1" stop-color="#E41700" />
        </linearGradient>
        <linearGradient id="paint32_linear_197_27293" x1="133.192" y1="76.7316" x2="174.362" y2="245.017"
            gradientUnits="userSpaceOnUse">
            <stop stop-color="#F4DE97" />
            <stop offset="0.26" stop-color="#F9C76B" />
            <stop offset="0.58" stop-color="#FF9322" />
            <stop offset="0.59" stop-color="#FF9120" />
            <stop offset="1" stop-color="#E41700" />
        </linearGradient>
        <linearGradient id="paint33_linear_197_27293" x1="130.866" y1="77.5432" x2="176.28" y2="243.418"
            gradientUnits="userSpaceOnUse">
            <stop stop-color="#F4E09B" />
            <stop offset="0.26" stop-color="#F9C86D" />
            <stop offset="0.58" stop-color="#FF9423" />
            <stop offset="0.59" stop-color="#FF9221" />
            <stop offset="1" stop-color="#E41700" />
        </linearGradient>
        <linearGradient id="paint34_linear_197_27293" x1="128.566" y1="78.4658" x2="178.101" y2="241.708"
            gradientUnits="userSpaceOnUse">
            <stop stop-color="#F4E29E" />
            <stop offset="0.26" stop-color="#F8C96F" />
            <stop offset="0.58" stop-color="#FF9524" />
            <stop offset="0.59" stop-color="#FF9321" />
            <stop offset="1" stop-color="#E41700" />
        </linearGradient>
        <linearGradient id="paint35_linear_197_27293" x1="126.316" y1="79.4991" x2="179.824" y2="239.887"
            gradientUnits="userSpaceOnUse">
            <stop stop-color="#F3E3A1" />
            <stop offset="0.26" stop-color="#F8CA71" />
            <stop offset="0.58" stop-color="#FF9625" />
            <stop offset="0.59" stop-color="#FF9422" />
            <stop offset="1" stop-color="#E41700" />
        </linearGradient>
        <linearGradient id="paint36_linear_197_27293" x1="123.978" y1="80.7045" x2="181.299" y2="238.03"
            gradientUnits="userSpaceOnUse">
            <stop stop-color="#F3E5A5" />
            <stop offset="0.26" stop-color="#F8CB72" />
            <stop offset="0.58" stop-color="#FF9726" />
            <stop offset="0.59" stop-color="#FF9523" />
            <stop offset="1" stop-color="#E41700" />
        </linearGradient>
        <linearGradient id="paint37_linear_197_27293" x1="121.333" y1="82.1684" x2="182.283" y2="236.234"
            gradientUnits="userSpaceOnUse">
            <stop stop-color="#F3E7A8" />
            <stop offset="0.26" stop-color="#F8CC74" />
            <stop offset="0.58" stop-color="#FF9926" />
            <stop offset="0.59" stop-color="#FF9724" />
            <stop offset="1" stop-color="#E41700" />
        </linearGradient>
        <linearGradient id="paint38_linear_197_27293" x1="118.935" y1="83.6813" x2="183.341" y2="234.303"
            gradientUnits="userSpaceOnUse">
            <stop stop-color="#F2E9AB" />
            <stop offset="0.26" stop-color="#F8CD76" />
            <stop offset="0.58" stop-color="#FF9A27" />
            <stop offset="0.59" stop-color="#FF9824" />
            <stop offset="1" stop-color="#E41700" />
        </linearGradient>
        <linearGradient id="paint39_linear_197_27293" x1="117.213" y1="85.1082" x2="185.174" y2="232.753"
            gradientUnits="userSpaceOnUse">
            <stop stop-color="#F2EAAE" />
            <stop offset="0.26" stop-color="#F7CE78" />
            <stop offset="0.58" stop-color="#FF9B28" />
            <stop offset="0.59" stop-color="#FF9925" />
            <stop offset="1" stop-color="#E41700" />
        </linearGradient>
        <linearGradient id="paint40_linear_197_27293" x1="115.601" y1="86.7074" x2="187.536" y2="232.36"
            gradientUnits="userSpaceOnUse">
            <stop stop-color="#F2ECB2" />
            <stop offset="0.26" stop-color="#F7CF7A" />
            <stop offset="0.58" stop-color="#FF9C29" />
            <stop offset="0.59" stop-color="#FF9A26" />
            <stop offset="1" stop-color="#E41700" />
        </linearGradient>
        <linearGradient id="paint41_linear_197_27293" x1="114.064" y1="88.3557" x2="189.873" y2="231.818"
            gradientUnits="userSpaceOnUse">
            <stop stop-color="#F1EEB5" />
            <stop offset="0.26" stop-color="#F7D07C" />
            <stop offset="0.58" stop-color="#FF9D2A" />
            <stop offset="0.59" stop-color="#FF9B27" />
            <stop offset="1" stop-color="#E41700" />
        </linearGradient>
        <linearGradient id="paint42_linear_197_27293" x1="111.948" y1="88.8721" x2="192.173" y2="231.142"
            gradientUnits="userSpaceOnUse">
            <stop stop-color="#F1EFB8" />
            <stop offset="0.26" stop-color="#F7D17E" />
            <stop offset="0.58" stop-color="#FF9E2B" />
            <stop offset="0.59" stop-color="#FF9C27" />
            <stop offset="1" stop-color="#E41700" />
        </linearGradient>
        <linearGradient id="paint43_linear_197_27293" x1="109.673" y1="89.2043" x2="194.424" y2="230.342"
            gradientUnits="userSpaceOnUse">
            <stop stop-color="#F1F1BC" />
            <stop offset="0.26" stop-color="#F7D280" />
            <stop offset="0.58" stop-color="#FFA02B" />
            <stop offset="0.59" stop-color="#FF9E28" />
            <stop offset="1" stop-color="#E41700" />
        </linearGradient>
        <linearGradient id="paint44_linear_197_27293" x1="107.446" y1="89.6841" x2="196.651" y2="229.432"
            gradientUnits="userSpaceOnUse">
            <stop stop-color="#F0F3BF" />
            <stop offset="0.26" stop-color="#F6D382" />
            <stop offset="0.58" stop-color="#FFA12C" />
            <stop offset="0.59" stop-color="#FF9F29" />
            <stop offset="1" stop-color="#E41700" />
        </linearGradient>
        <linearGradient id="paint45_linear_197_27293" x1="105.269" y1="90.3113" x2="198.828" y2="228.399"
            gradientUnits="userSpaceOnUse">
            <stop stop-color="#F0F5C2" />
            <stop offset="0.26" stop-color="#F6D484" />
            <stop offset="0.58" stop-color="#FFA22D" />
            <stop offset="0.59" stop-color="#FFA02A" />
            <stop offset="1" stop-color="#E41700" />
        </linearGradient>
        <linearGradient id="paint46_linear_197_27293" x1="103.154" y1="91.0863" x2="200.944" y2="227.255"
            gradientUnits="userSpaceOnUse">
            <stop stop-color="#F0F6C6" />
            <stop offset="0.26" stop-color="#F6D585" />
            <stop offset="0.58" stop-color="#FFA32E" />
            <stop offset="0.59" stop-color="#FFA12A" />
            <stop offset="1" stop-color="#E41700" />
        </linearGradient>
        <linearGradient id="paint47_linear_197_27293" x1="101.112" y1="92.0089" x2="203.01" y2="226"
            gradientUnits="userSpaceOnUse">
            <stop stop-color="#EFF8C9" />
            <stop offset="0.26" stop-color="#F6D687" />
            <stop offset="0.58" stop-color="#FFA42F" />
            <stop offset="0.59" stop-color="#FFA22B" />
            <stop offset="1" stop-color="#E41700" />
        </linearGradient>
        <linearGradient id="paint48_linear_197_27293" x1="99.1434" y1="93.0668" x2="205.015" y2="224.647"
            gradientUnits="userSpaceOnUse">
            <stop stop-color="#EFFACC" />
            <stop offset="0.26" stop-color="#F6D789" />
            <stop offset="0.58" stop-color="#FFA530" />
            <stop offset="0.59" stop-color="#FFA32C" />
            <stop offset="1" stop-color="#E41700" />
        </linearGradient>
        <linearGradient id="paint49_linear_197_27293" x1="97.2741" y1="94.2598" x2="206.947" y2="223.183"
            gradientUnits="userSpaceOnUse">
            <stop stop-color="#EFFCCF" />
            <stop offset="0.26" stop-color="#F5D88B" />
            <stop offset="0.58" stop-color="#FFA730" />
            <stop offset="0.59" stop-color="#FFA52D" />
            <stop offset="1" stop-color="#E41700" />
        </linearGradient>
        <linearGradient id="paint50_linear_197_27293" x1="95.4904" y1="95.576" x2="208.804" y2="221.633"
            gradientUnits="userSpaceOnUse">
            <stop stop-color="#EEFDD3" />
            <stop offset="0.25" stop-color="#F4D98D" />
            <stop offset="0.26" stop-color="#F5D98D" />
            <stop offset="0.58" stop-color="#FFA831" />
            <stop offset="0.59" stop-color="#FFA62D" />
            <stop offset="1" stop-color="#E41700" />
        </linearGradient>
        <linearGradient id="paint51_linear_197_27293" x1="93.8048" y1="97.0152" x2="210.587" y2="219.985"
            gradientUnits="userSpaceOnUse">
            <stop stop-color="#EEFFD6" />
            <stop offset="0.25" stop-color="#F5DA8F" />
            <stop offset="0.59" stop-color="#FFA72E" />
            <stop offset="1" stop-color="#E41700" />
        </linearGradient>
        <linearGradient id="paint52_linear_197_27293" x1="52.4396" y1="132.343" x2="52.4396" y2="203.322"
            gradientUnits="userSpaceOnUse">
            <stop stop-color="#FF2502" />
            <stop offset="1" stop-color="#991601" />
        </linearGradient>
        <linearGradient id="paint53_linear_197_27293" x1="106.208" y1="125.16" x2="106.208" y2="186.701"
            gradientUnits="userSpaceOnUse">
            <stop stop-color="#FF2502" />
            <stop offset="1" stop-color="#991601" />
        </linearGradient>
        <linearGradient id="paint54_linear_197_27293" x1="168.904" y1="129.792" x2="168.904" y2="187.834"
            gradientUnits="userSpaceOnUse">
            <stop stop-color="#FF2502" />
            <stop offset="1" stop-color="#991601" />
        </linearGradient>
        <linearGradient id="paint55_linear_197_27293" x1="221.895" y1="140.875" x2="221.895" y2="202.87"
            gradientUnits="userSpaceOnUse">
            <stop stop-color="#FF2502" />
            <stop offset="1" stop-color="#991601" />
        </linearGradient>
        <clipPath id="clip0_197_27293">
            <rect width="300.161" height="280" fill="white" />
        </clipPath>
    </defs>
</svg>