<svg width="376" height="100" viewBox="0 0 376 100" fill="none" xmlns="http://www.w3.org/2000/svg">
<path d="M20.8095 0H354.469C365.954 0 375.284 9.32485 375.284 20.815V79.1905C375.284 90.6752 365.959 100.005 354.469 100.005H20.8095C9.32485 100.005 0 90.6806 0 79.1959V20.8095C0 9.32485 9.32485 0 20.8095 0Z" fill="#6D3902"/>
<path d="M20.8096 2.17603H354.469C364.757 2.17603 373.108 10.527 373.108 20.8148V79.1903C373.108 89.4781 364.757 97.8237 354.475 97.8237H20.8096C10.5218 97.8237 2.17621 89.4727 2.17621 79.1903V20.8094C2.17621 10.527 10.5272 2.17603 20.8096 2.17603Z" fill="#B26510"/>
<path d="M2.17621 22.0988C7.00184 23.72 13.835 26.1247 13.835 26.1247L359.948 51.6129L372.085 44.7907C372.085 44.7907 372.466 44.4643 373.108 43.9039V20.8094C373.108 10.5162 364.763 2.17603 354.475 2.17603H20.815C10.5218 2.17603 2.17621 10.5216 2.17621 20.8094V22.0933V22.0988Z" fill="#E2B137"/>
<path d="M27.9147 6.94739H347.375C357.206 6.94739 365.187 14.9285 365.187 24.7593V71.1006C365.187 80.9314 357.206 88.9125 347.375 88.9125H27.9093C18.0785 88.9125 10.0974 80.9314 10.0974 71.1006V24.7593C10.0974 14.9285 18.0785 6.94739 27.9093 6.94739H27.9147Z" fill="#FFFCC7"/>
<path d="M364.83 73.0231C364.83 82.8593 356.854 90.835 347.018 90.835H27.5628C17.7265 90.835 9.75092 82.8593 9.75092 73.0231V26.6763C9.75092 16.8401 17.7265 8.86444 27.5628 8.86444H347.023C356.859 8.86444 364.835 16.8401 364.835 26.6763V73.0176L364.83 73.0231Z" fill="url(#paint0_linear_25_4)"/>
<path d="M347.375 89.6633H27.9148C18.0785 89.6633 10.1029 81.6877 10.1029 71.8514V73.1735C10.1029 83.0097 18.0785 90.9853 27.9148 90.9853H347.375C357.211 90.9853 365.187 83.0097 365.187 73.1735V71.8514C365.187 81.6877 357.211 89.6633 347.375 89.6633Z" fill="#FFFD98"/>
<path opacity="0.32" d="M127.724 87.6394C126.397 87.9876 125.069 88.1725 123.742 88.314C122.414 88.4446 121.082 88.5153 119.754 88.5316C118.427 88.5479 117.094 88.5044 115.766 88.401C114.433 88.2868 113.106 88.1344 111.773 87.808C113.1 87.4544 114.428 87.2749 115.755 87.128C117.083 86.9974 118.416 86.9267 119.743 86.9104C121.076 86.8995 122.404 86.9376 123.736 87.0409C125.069 87.1552 126.397 87.3075 127.73 87.6285L127.724 87.6394Z" fill="#6D3902"/>
<path d="M128.23 87.4871C128.23 87.4871 122.088 88.82 118.073 88.5207C114.053 88.2215 111.485 87.6285 111.485 87.6285C111.485 87.6285 115.309 88.9995 118.786 89.228C122.262 89.4565 128.23 87.4871 128.23 87.4871Z" fill="#F7E494"/>
<path d="M124.074 87.9006C124.074 87.9006 118.601 87.5904 117.768 87.5796C116.936 87.5687 113.791 87.7319 113.791 87.7319C113.791 87.7319 119.498 89.1246 124.074 87.9006Z" fill="#6D3902"/>
<path opacity="0.32" d="M328.165 10.4783C326.865 10.919 325.554 11.191 324.237 11.4249C322.92 11.648 321.598 11.8112 320.271 11.9146C318.949 12.0234 317.616 12.0724 316.283 12.0615C314.945 12.0397 313.612 11.9799 312.257 11.7459C313.558 11.3053 314.869 11.0278 316.18 10.7939C317.496 10.5708 318.818 10.4076 320.14 10.3042C321.468 10.2009 322.795 10.1465 324.128 10.1628C325.467 10.1845 326.805 10.2444 328.154 10.4729L328.165 10.4783Z" fill="#6D3902"/>
<path d="M328.66 10.2878C328.66 10.2878 322.627 12.0396 318.595 12.0178C314.564 11.9961 311.963 11.5826 311.963 11.5826C311.963 11.5826 315.875 12.687 319.357 12.6761C322.839 12.6652 328.66 10.2878 328.66 10.2878Z" fill="#F7E494"/>
<path d="M324.542 10.984C324.542 10.984 319.058 11.0547 318.231 11.0983C317.398 11.1418 314.276 11.5226 314.276 11.5226C314.276 11.5226 320.064 12.5182 324.547 10.984H324.542Z" fill="#6D3902"/>
<path opacity="0.32" d="M16.2288 4.35242C15.6031 5.57107 14.8524 6.68091 14.069 7.76899C13.2801 8.84619 12.4423 9.87986 11.5664 10.8809C10.6905 11.8819 9.77104 12.8449 8.80264 13.7643C7.82881 14.6783 6.82234 15.5651 5.69073 16.3431C6.31638 15.119 7.06716 14.0091 7.84513 12.9265C8.63399 11.8493 9.47181 10.8156 10.3477 9.81458C11.2291 8.81899 12.1485 7.85604 13.1114 6.93661C14.0853 6.02262 15.0863 5.13583 16.2179 4.35786L16.2288 4.35242Z" fill="#6D3902"/>
<path d="M16.4573 3.87367C16.4573 3.87367 13.3454 9.33039 10.4402 12.1213C7.53502 14.9122 5.37518 16.4247 5.37518 16.4247C5.37518 16.4247 8.94953 14.4933 11.4412 12.0615C13.9329 9.62961 16.4573 3.86823 16.4573 3.86823V3.87367Z" fill="#F7E494"/>
<path d="M13.9873 7.24115C13.9873 7.24115 10.1029 11.1093 9.53707 11.7186C8.97127 12.3279 6.99097 14.7815 6.99097 14.7815C6.99097 14.7815 11.8384 11.4683 13.9873 7.24659V7.24115Z" fill="#6D3902"/>
<path d="M67.2488 92.4269L63.1141 93.2538H60.8292C60.8292 93.2538 62.3742 93.515 62.94 93.6455C63.5058 93.7761 65.3393 93.8468 65.5079 94.3365C65.682 94.8207 64.7626 96.6541 65.1543 96.3875C65.546 96.1264 67.2434 92.4269 67.2434 92.4269H67.2488Z" fill="#6D3902"/>
<path d="M62.94 93.6455L60.7203 93.3735C60.7203 93.3735 62.6789 93.9284 62.7877 93.9502C62.8965 93.9719 65.2468 94.2766 65.3664 94.1623C65.4861 94.0481 62.94 93.6455 62.94 93.6455Z" fill="#FFD818"/>
<path d="M7.87232 94.8204L15.0591 90.9794L18.2744 88.0797C18.2744 88.0797 16.5334 90.4898 15.9513 91.431C15.3746 92.3722 12.9101 94.8204 13.4814 95.8704C14.0472 96.9149 18.3669 98.8735 17.3821 98.9279C16.3974 98.9823 7.86688 94.8204 7.86688 94.8204H7.87232Z" fill="#6D3902"/>
<path d="M15.9567 91.4312L18.4811 87.9711C18.4811 87.9711 16.8 91.5835 16.6803 91.7576C16.5606 91.9317 13.7643 95.4353 13.4106 95.3972C13.057 95.3537 15.9567 91.4312 15.9567 91.4312Z" fill="#FFD818"/>
<path opacity="0.35" d="M5.81586 92.1604C5.81586 92.1604 12.328 90.6262 12.921 90.376C13.514 90.1257 18.4757 87.9713 18.4757 87.9713L15.3039 91.1812L9.73839 94.6249L5.81042 92.1604H5.81586Z" fill="#6D3902"/>
<path d="M9.79822 23.4044L13.922 27.3106L16.528 28.9482C16.528 28.9482 14.5803 28.1376 13.8404 27.8819C13.1005 27.6262 10.9625 26.3912 10.4184 26.821C9.87438 27.2508 9.6078 29.9928 9.34666 29.4106C9.08552 28.8339 9.80366 23.399 9.80366 23.399L9.79822 23.4044Z" fill="#6D3902"/>
<path d="M13.835 27.882L16.5606 29.1659C16.5606 29.1659 13.9329 28.3934 13.7915 28.339C13.65 28.2846 10.7557 26.9463 10.7013 26.7341C10.6469 26.5219 13.835 27.882 13.835 27.882Z" fill="#FFD818"/>
<path d="M11.055 22.0769C11.055 22.0769 13.5413 25.7927 13.835 26.1246C14.1288 26.451 16.528 28.9536 16.528 28.9536L13.9221 27.316L10.3749 24.6339L11.0604 22.0823L11.055 22.0769Z" fill="#B26510"/>
<path d="M1.75183 20.4667C1.92049 20.1947 9.79819 23.4045 9.79819 23.4045L9.34119 29.4161L1.37101 31.6358C1.37101 31.6358 -0.125104 23.4807 1.74639 20.4721L1.75183 20.4667Z" fill="#6D3902"/>
<path d="M368.881 43.5993L362.478 49.105L359.164 51.6076C359.164 51.6076 361.531 50.2964 362.597 49.9265C363.664 49.5565 367.205 47.9135 367.994 48.5392C368.783 49.1594 369.169 53.12 369.545 52.2822C369.92 51.4498 368.886 43.5993 368.886 43.5993H368.881Z" fill="#6D3902"/>
<path d="M362.597 49.9321L359.11 51.9233C359.11 51.9233 362.461 50.6665 362.663 50.5904C362.864 50.5142 365.356 49.2575 365.432 48.9528C365.508 48.6482 362.597 49.9321 362.597 49.9321Z" fill="#FFD818"/>
<path d="M365.437 43.2891C365.437 43.2891 363.033 46.9178 362.603 47.3911C362.173 47.8699 359.164 51.6129 359.164 51.6129L362.478 49.1103L365.367 47.1735L365.432 43.2945L365.437 43.2891Z" fill="#B26510"/>
<path d="M373.56 41.0313C373.315 40.6396 368.881 43.5992 368.881 43.5992L369.539 52.2821L374.974 54.3331C374.974 54.3331 376.264 45.3728 373.554 41.0313H373.56Z" fill="#6D3902"/>
<path d="M9.42824 43.7897C9.42824 43.7897 13.1277 44.3609 12.9699 50.1332C12.8176 55.9054 8.85699 56.7868 8.85699 56.7868L9.42824 43.7897Z" fill="#B26510"/>
<path opacity="0.33" d="M12.3987 51.0906C12.3987 51.0906 11.5174 48.2072 11.0223 47.7067C10.5272 47.2061 10.2933 46.7981 10.4348 45.8678C10.5816 44.9375 10.7938 44.4207 10.7938 44.4207C10.7938 44.4207 13.0461 46.2758 13.0734 48.9525C13.1006 51.6237 12.3933 53.3048 12.3933 53.3048V51.0906H12.3987Z" fill="#6D3902"/>
<path d="M111.485 8.28583C111.485 8.28583 110.859 11.1964 106.501 11.3923C102.144 11.5882 101.687 8.55241 101.687 8.55241L111.485 8.28583Z" fill="#6D3902"/>
<path d="M104.554 9.76018C103.232 8.9822 103.003 8.84619 103.003 8.84619L101.806 8.97676C101.806 8.97676 102.127 10.6361 104.565 11.2291C106.996 11.8275 108.781 11.1094 109.488 10.6361C110.195 10.1628 105.876 10.5382 104.554 9.75474V9.76018Z" fill="#934900"/>
<path d="M111.664 2.41554C111.724 2.60051 112.051 7.92122 111.479 8.28573C110.908 8.65024 101.806 8.9821 101.806 8.9821L100.604 1.15336C100.604 1.15336 110.93 0.0598441 111.664 2.42098V2.41554Z" fill="#6D3902"/>
<path d="M335.591 0.288143C335.591 0.288143 338.85 5.85367 339.601 5.95704C340.351 6.06041 349.557 2.27933 350.046 2.07803C350.53 1.87674 346.815 -0.299421 335.597 0.288143H335.591Z" fill="#6D3902"/>
<path d="M348.398 2.55151C348.398 2.55151 340.058 5.91368 339.829 5.93544C339.601 5.9572 338.224 4.92896 337.631 3.79192C337.038 2.65488 336.375 1.55048 336.375 1.55048C336.375 1.55048 337.914 4.30876 338.42 5.33155C338.926 6.35435 340.373 6.78414 340.373 6.78414L349.056 2.63856L348.398 2.55151Z" fill="#FCFACC"/>
<path d="M303.21 91.1539C303.21 91.1539 304.195 87.5959 309.602 87.683C315.01 87.7646 315.353 91.5565 315.353 91.5565L303.21 91.1594V91.1539Z" fill="#B26510"/>
<path opacity="0.33" d="M310.435 88.2215C310.435 88.2215 307.617 89.0974 307.089 89.5816C306.556 90.0604 306.142 90.2943 305.288 90.1637C304.429 90.0331 303.971 89.8373 303.971 89.8373C303.971 89.8373 305.99 87.6557 308.503 87.5958C311.017 87.5414 312.513 88.1997 312.513 88.1997L310.435 88.2215Z" fill="#6D3902"/>
<path d="M280.192 5.86469C280.192 5.86469 279.495 10.0429 273.315 10.6087C267.135 11.1691 266.28 6.88748 266.28 6.88748L280.192 5.86469Z" fill="#E2B137"/>
<path d="M270.442 8.41088C268.511 7.38808 268.179 7.21399 268.179 7.21399L266.487 7.48057C266.487 7.48057 267.058 9.8145 270.557 10.5C274.055 11.1855 276.541 10.0539 277.515 9.33575C278.489 8.61217 272.374 9.43367 270.442 8.41088Z" fill="#B26510"/>
<path opacity="0.32" d="M336.881 93.2157C335.129 93.7489 333.366 94.059 331.598 94.3201C329.83 94.5649 328.062 94.7227 326.283 94.8152C324.509 94.9022 322.73 94.9185 320.946 94.8478C319.161 94.7608 317.377 94.6248 315.581 94.2603C317.333 93.7217 319.096 93.4116 320.864 93.1504C322.632 92.9056 324.4 92.7424 326.179 92.6608C327.953 92.5737 329.732 92.5629 331.516 92.6336C333.301 92.7206 335.085 92.8566 336.881 93.2157Z" fill="#6D3902"/>
<path d="M337.55 92.9817C337.55 92.9817 329.416 95.0762 324.041 94.8804C318.661 94.69 315.201 94.0262 315.201 94.0262C315.201 94.0262 320.38 95.6584 325.031 95.7889C329.683 95.9141 337.555 92.9817 337.555 92.9817H337.55Z" fill="#F7E494"/>
<path d="M332.017 93.7489C332.017 93.7489 324.694 93.6183 323.584 93.6401C322.474 93.6618 318.28 94.0427 318.28 94.0427C318.28 94.0427 325.967 95.6095 332.017 93.7434V93.7489Z" fill="#6D3902"/>
<path d="M256.945 84.6852L258.425 87.1715L257.293 98.3352L259.012 98.1013L260.802 97.8945L263.12 96.4963L260.894 93.9829L260.851 87.6557L256.945 84.6852Z" fill="#6D3902"/>
<path d="M256.945 84.6852L260.807 87.4544L260.508 94.3039L262.374 95.4844L260.922 97.8293L267.613 97.9C267.613 97.9 264.175 96.7466 264.632 95.9033C265.094 95.0601 262.978 94.3148 262.358 94.2223C261.732 94.1298 261.373 91.3443 261.58 91.0832C261.792 90.8166 262.146 87.0192 262.146 87.0192L256.945 84.6907V84.6852Z" fill="#FFFD98"/>
<defs>
<linearGradient id="paint0_linear_25_4" x1="187.287" y1="-6.96169" x2="187.287" y2="95.9109" gradientUnits="userSpaceOnUse">
<stop stop-color="#FFE600"/>
<stop offset="1" stop-color="#D07C13"/>
</linearGradient>
</defs>
</svg>
