<svg width="376" height="100" viewBox="0 0 376 100" fill="none" xmlns="http://www.w3.org/2000/svg">
<g clip-path="url(#clip0_256_10483)">
<path d="M20.8095 0H354.469C365.954 0 375.284 9.32485 375.284 20.815V79.1905C375.284 90.6752 365.959 100.005 354.469 100.005H20.8095C9.32485 100.005 0 90.6806 0 79.1959V20.8095C0 9.32485 9.32485 0 20.8095 0Z" fill="#7F1200"/>
<path d="M20.8096 2.17603H354.469C364.757 2.17603 373.108 10.527 373.108 20.8148V79.1903C373.108 89.4781 364.757 97.8237 354.475 97.8237H20.8096C10.5218 97.8237 2.17621 89.4727 2.17621 79.1903V20.8094C2.17621 10.527 10.5272 2.17603 20.8096 2.17603Z" fill="#A81902"/>
<path d="M2.17621 22.0988C7.00184 23.72 13.835 26.1247 13.835 26.1247L359.948 51.6129L372.085 44.7907C372.085 44.7907 372.466 44.4643 373.108 43.9039V20.8094C373.108 10.5162 364.763 2.17603 354.475 2.17603H20.815C10.5218 2.17603 2.17621 10.5216 2.17621 20.8094V22.0933V22.0988Z" fill="#F22302"/>
<path d="M27.9147 6.94739H347.375C357.206 6.94739 365.187 14.9285 365.187 24.7593V71.1006C365.187 80.9314 357.206 88.9125 347.375 88.9125H27.9093C18.0785 88.9125 10.0974 80.9314 10.0974 71.1006V24.7593C10.0974 14.9285 18.0785 6.94739 27.9093 6.94739H27.9147Z" fill="#FFFCC7"/>
<path d="M364.83 73.023C364.83 82.8593 356.854 90.8349 347.018 90.8349H27.5628C17.7266 90.8349 9.75095 82.8593 9.75095 73.023V26.6763C9.75095 16.84 17.7266 8.86438 27.5628 8.86438H347.023C356.859 8.86438 364.835 16.84 364.835 26.6763V73.0176L364.83 73.023Z" fill="url(#paint0_linear_256_10483)"/>
<path d="M347.375 89.6633H27.9147C18.0785 89.6633 10.1029 81.6877 10.1029 71.8514V73.1735C10.1029 83.0097 18.0785 90.9853 27.9147 90.9853H347.375C357.211 90.9853 365.187 83.0097 365.187 73.1735V71.8514C365.187 81.6877 357.211 89.6633 347.375 89.6633Z" fill="#FFFD98"/>
<path opacity="0.32" d="M127.724 87.6393C126.397 87.9874 125.069 88.1724 123.742 88.3139C122.414 88.4444 121.082 88.5152 119.754 88.5315C118.427 88.5478 117.094 88.5043 115.766 88.4009C114.433 88.2867 113.106 88.1343 111.773 87.8079C113.1 87.4543 114.428 87.2747 115.755 87.1279C117.083 86.9973 118.416 86.9266 119.743 86.9102C121.076 86.8994 122.404 86.9374 123.736 87.0408C125.069 87.1551 126.397 87.3074 127.73 87.6284L127.724 87.6393Z" fill="#6D3902"/>
<path d="M128.23 87.4869C128.23 87.4869 122.088 88.8198 118.073 88.5206C114.053 88.2214 111.485 87.6284 111.485 87.6284C111.485 87.6284 115.309 88.9994 118.786 89.2279C122.262 89.4564 128.23 87.4869 128.23 87.4869Z" fill="#F7E494"/>
<path d="M124.074 87.9005C124.074 87.9005 118.601 87.5904 117.768 87.5795C116.936 87.5686 113.791 87.7318 113.791 87.7318C113.791 87.7318 119.498 89.1246 124.074 87.9005Z" fill="#6D3902"/>
<path opacity="0.32" d="M328.165 10.4783C326.865 10.919 325.553 11.191 324.237 11.4249C322.92 11.648 321.598 11.8112 320.271 11.9146C318.949 12.0234 317.616 12.0724 316.283 12.0615C314.945 12.0397 313.612 11.9799 312.257 11.7459C313.557 11.3053 314.869 11.0278 316.18 10.7939C317.496 10.5708 318.818 10.4076 320.14 10.3042C321.468 10.2009 322.795 10.1465 324.128 10.1628C325.466 10.1845 326.805 10.2444 328.154 10.4729L328.165 10.4783Z" fill="#6D3902"/>
<path d="M328.66 10.2878C328.66 10.2878 322.627 12.0397 318.595 12.0179C314.564 11.9961 311.963 11.5827 311.963 11.5827C311.963 11.5827 315.875 12.6871 319.357 12.6762C322.839 12.6653 328.66 10.2878 328.66 10.2878Z" fill="#F7E494"/>
<path d="M324.542 10.984C324.542 10.984 319.058 11.0547 318.231 11.0983C317.398 11.1418 314.275 11.5226 314.275 11.5226C314.275 11.5226 320.064 12.5182 324.547 10.984H324.542Z" fill="#6D3902"/>
<path opacity="0.32" d="M16.2288 4.35229C15.6031 5.57094 14.8524 6.68079 14.069 7.76887C13.2801 8.84607 12.4423 9.87974 11.5664 10.8808C10.6905 11.8818 9.77104 12.8448 8.80264 13.7642C7.82881 14.6782 6.82234 15.565 5.69073 16.3429C6.31638 15.1188 7.06716 14.009 7.84513 12.9264C8.63399 11.8492 9.47181 10.8155 10.3477 9.81446C11.2291 8.81886 12.1485 7.85591 13.1114 6.93649C14.0853 6.0225 15.0863 5.13571 16.2179 4.35774L16.2288 4.35229Z" fill="#6D3902"/>
<path d="M16.4573 3.8736C16.4573 3.8736 13.3454 9.33033 10.4402 12.1213C7.53502 14.9122 5.37518 16.4246 5.37518 16.4246C5.37518 16.4246 8.94953 14.4933 11.4412 12.0614C13.9329 9.62955 16.4573 3.86816 16.4573 3.86816V3.8736Z" fill="#F7E494"/>
<path d="M13.9873 7.24109C13.9873 7.24109 10.1029 11.1092 9.53707 11.7185C8.97127 12.3279 6.99097 14.7815 6.99097 14.7815C6.99097 14.7815 11.8384 11.4683 13.9873 7.24653V7.24109Z" fill="#6D3902"/>
<path d="M67.2489 92.4268L63.1142 93.2537H60.8292C60.8292 93.2537 62.3743 93.5148 62.9401 93.6454C63.5059 93.776 65.3393 93.8467 65.5079 94.3363C65.682 94.8205 64.7626 96.6539 65.1543 96.3874C65.546 96.1262 67.2434 92.4268 67.2434 92.4268H67.2489Z" fill="#6D3902"/>
<path d="M62.9401 93.6454L60.7204 93.3734C60.7204 93.3734 62.6789 93.9283 62.7877 93.9501C62.8965 93.9719 65.2468 94.2765 65.3665 94.1623C65.4862 94.048 62.9401 93.6454 62.9401 93.6454Z" fill="#FFD818"/>
<path d="M7.87223 94.8204L15.059 90.9794L18.2743 88.0797C18.2743 88.0797 16.5333 90.4898 15.9512 91.431C15.3745 92.3722 12.91 94.8204 13.4813 95.8704C14.0471 96.9149 18.3668 98.8735 17.3821 98.9279C16.3973 98.9823 7.86679 94.8204 7.86679 94.8204H7.87223Z" fill="#6D3902"/>
<path d="M15.9567 91.4312L18.481 87.9711C18.481 87.9711 16.7999 91.5835 16.6803 91.7576C16.5606 91.9317 13.7642 95.4353 13.4106 95.3972C13.057 95.3537 15.9567 91.4312 15.9567 91.4312Z" fill="#FFD818"/>
<path opacity="0.35" d="M5.81583 92.1604C5.81583 92.1604 12.328 90.6262 12.921 90.376C13.514 90.1257 18.4756 87.9713 18.4756 87.9713L15.3039 91.1812L9.73836 94.6249L5.81039 92.1604H5.81583Z" fill="#6D3902"/>
<path d="M9.79825 23.4044L13.9221 27.3106L16.528 28.9481C16.528 28.9481 14.5804 28.1375 13.8405 27.8818C13.1006 27.6261 10.9625 26.3911 10.4185 26.8209C9.87441 27.2507 9.60783 29.9927 9.34669 29.4106C9.08555 28.8339 9.80369 23.3989 9.80369 23.3989L9.79825 23.4044Z" fill="#6D3902"/>
<path d="M13.835 27.8819L16.5607 29.1659C16.5607 29.1659 13.9329 28.3933 13.7915 28.3389C13.65 28.2845 10.7557 26.9462 10.7013 26.734C10.6469 26.5218 13.835 27.8819 13.835 27.8819Z" fill="#FFD818"/>
<path d="M11.055 22.0768C11.055 22.0768 13.5413 25.7926 13.835 26.1244C14.1288 26.4509 16.528 28.9534 16.528 28.9534L13.9221 27.3159L10.3749 24.6338L11.0604 22.0822L11.055 22.0768Z" fill="#B26510"/>
<path d="M1.75186 20.4667C1.92052 20.1947 9.79822 23.4045 9.79822 23.4045L9.34122 29.4161L1.37104 31.6358C1.37104 31.6358 -0.125074 23.4807 1.74642 20.4721L1.75186 20.4667Z" fill="#FB2503"/>
<path d="M368.881 43.5992L362.478 49.1049L359.165 51.6075C359.165 51.6075 361.531 50.2964 362.598 49.9264C363.664 49.5565 367.206 47.9135 367.995 48.5391C368.783 49.1593 369.17 53.1199 369.545 52.2821C369.92 51.4497 368.887 43.5992 368.887 43.5992H368.881Z" fill="#FB2503"/>
<path d="M362.598 49.932L359.11 51.9232C359.11 51.9232 362.462 50.6665 362.663 50.5903C362.864 50.5142 365.356 49.2574 365.432 48.9528C365.508 48.6481 362.598 49.932 362.598 49.932Z" fill="#FFD818"/>
<path d="M365.438 43.2889C365.438 43.2889 363.033 46.9177 362.603 47.391C362.173 47.8698 359.165 51.6128 359.165 51.6128L362.478 49.1102L365.367 47.1734L365.432 43.2944L365.438 43.2889Z" fill="#B26510"/>
<path d="M373.56 41.0313C373.315 40.6396 368.881 43.5992 368.881 43.5992L369.539 52.2821L374.974 54.3331C374.974 54.3331 376.264 45.3728 373.554 41.0313H373.56Z" fill="#FB2503"/>
<path d="M9.42827 43.7897C9.42827 43.7897 13.1277 44.3609 12.97 50.1332C12.8176 55.9054 8.85703 56.7868 8.85703 56.7868L9.42827 43.7897Z" fill="#B26510"/>
<path opacity="0.33" d="M12.3987 51.0906C12.3987 51.0906 11.5174 48.2072 11.0223 47.7067C10.5272 47.2061 10.2933 46.7981 10.4348 45.8678C10.5816 44.9375 10.7938 44.4207 10.7938 44.4207C10.7938 44.4207 13.0461 46.2758 13.0734 48.9525C13.1006 51.6237 12.3933 53.3048 12.3933 53.3048V51.0906H12.3987Z" fill="#6D3902"/>
<path d="M111.485 8.28589C111.485 8.28589 110.859 11.1965 106.501 11.3924C102.144 11.5882 101.687 8.55247 101.687 8.55247L111.485 8.28589Z" fill="#6D3902"/>
<path d="M104.554 9.7603C103.232 8.98232 103.003 8.84631 103.003 8.84631L101.806 8.97688C101.806 8.97688 102.127 10.6362 104.564 11.2292C106.996 11.8277 108.781 11.1095 109.488 10.6362C110.195 10.1629 105.876 10.5383 104.554 9.75486V9.7603Z" fill="#934900"/>
<path d="M111.664 2.41554C111.724 2.60051 112.051 7.92122 111.479 8.28573C110.908 8.65024 101.806 8.9821 101.806 8.9821L100.604 1.15336C100.604 1.15336 110.93 0.0598441 111.664 2.42098V2.41554Z" fill="#FB2503"/>
<path d="M335.591 0.288204C335.591 0.288204 338.85 5.85373 339.601 5.9571C340.351 6.06047 349.557 2.27939 350.046 2.0781C350.53 1.8768 346.815 -0.29936 335.597 0.288204H335.591Z" fill="#FB2503"/>
<path d="M348.398 2.55157C348.398 2.55157 340.058 5.91374 339.829 5.9355C339.601 5.95726 338.224 4.92903 337.631 3.79198C337.038 2.65494 336.375 1.55054 336.375 1.55054C336.375 1.55054 337.914 4.30882 338.42 5.33162C338.926 6.35441 340.373 6.7842 340.373 6.7842L349.056 2.63862L348.398 2.55157Z" fill="#FCFACC"/>
<path d="M303.21 91.1538C303.21 91.1538 304.195 87.5958 309.602 87.6828C315.01 87.7645 315.353 91.5564 315.353 91.5564L303.21 91.1593V91.1538Z" fill="#B26510"/>
<path opacity="0.33" d="M310.435 88.2214C310.435 88.2214 307.616 89.0973 307.089 89.5815C306.556 90.0602 306.142 90.2942 305.288 90.1636C304.428 90.033 303.971 89.8372 303.971 89.8372C303.971 89.8372 305.99 87.6556 308.503 87.5957C311.017 87.5413 312.513 88.1996 312.513 88.1996L310.435 88.2214Z" fill="#6D3902"/>
<path d="M280.192 5.86462C280.192 5.86462 279.495 10.0429 273.315 10.6087C267.135 11.169 266.28 6.88742 266.28 6.88742L280.192 5.86462Z" fill="#F22302"/>
<path d="M270.442 8.41076C268.511 7.38796 268.179 7.21387 268.179 7.21387L266.487 7.48045C266.487 7.48045 267.058 9.81438 270.556 10.4999C274.055 11.1854 276.541 10.0538 277.515 9.33562C278.489 8.61205 272.374 9.43355 270.442 8.41076Z" fill="#A81902"/>
<path opacity="0.32" d="M336.88 93.2157C335.129 93.7489 333.366 94.059 331.598 94.3201C329.83 94.5649 328.062 94.7227 326.283 94.8152C324.509 94.9022 322.73 94.9185 320.946 94.8478C319.161 94.7608 317.377 94.6248 315.581 94.2603C317.333 93.7217 319.096 93.4116 320.864 93.1504C322.632 92.9056 324.4 92.7424 326.179 92.6608C327.953 92.5737 329.732 92.5629 331.516 92.6336C333.301 92.7206 335.085 92.8566 336.88 93.2157Z" fill="#6D3902"/>
<path d="M337.55 92.9817C337.55 92.9817 329.416 95.0762 324.041 94.8804C318.661 94.69 315.2 94.0262 315.2 94.0262C315.2 94.0262 320.38 95.6584 325.031 95.7889C329.683 95.9141 337.555 92.9817 337.555 92.9817H337.55Z" fill="#F7E494"/>
<path d="M332.017 93.749C332.017 93.749 324.694 93.6184 323.584 93.6401C322.474 93.6619 318.28 94.0427 318.28 94.0427C318.28 94.0427 325.967 95.6096 332.017 93.7435V93.749Z" fill="#6D3902"/>
<path d="M256.945 84.6852L258.425 87.1714L257.293 98.3351L259.012 98.1012L260.802 97.8945L263.12 96.4963L260.895 93.9828L260.851 87.6556L256.945 84.6852Z" fill="#6D3902"/>
<path d="M256.945 84.6852L260.807 87.4543L260.508 94.3038L262.374 95.4844L260.922 97.8292L267.613 97.8999C267.613 97.8999 264.175 96.7465 264.632 95.9033C265.095 95.06 262.978 94.3147 262.358 94.2222C261.732 94.1297 261.373 91.3442 261.58 91.0831C261.792 90.8165 262.146 87.0191 262.146 87.0191L256.945 84.6906V84.6852Z" fill="#FFFD98"/>
</g>
<defs>
<linearGradient id="paint0_linear_256_10483" x1="187.293" y1="8.86438" x2="187.293" y2="90.8349" gradientUnits="userSpaceOnUse">
<stop stop-color="#FF2502"/>
<stop offset="1" stop-color="#991601"/>
</linearGradient>
<clipPath id="clip0_256_10483">
<rect width="375.284" height="100" fill="white"/>
</clipPath>
</defs>
</svg>
