<svg width="409" height="346" viewBox="0 0 409 346" fill="none" xmlns="http://www.w3.org/2000/svg">
    <g clip-path="url(#clip0_30_255)">
        <path d="M98 154.388L32.6217 146.036L34.8685 133.05L98 154.388Z" fill="#D20C28" />
        <path d="M73.189 182.697L24.6008 202.972L21.1049 193.047L73.189 182.697Z" fill="#B7091D" />
        <path d="M98 171.786L0.876432 186.875L0 178.52L98 171.786Z" fill="#FFB81A" />
        <path d="M54.5921 215.998L17.2831 233.497L24.6379 243.642L54.5921 215.998Z" fill="#FFA131" />
        <path d="M49 116.742L17.6813 102.865L24.2819 95.5003L49 116.742Z" fill="#FFB81A" />
    </g>
    <g clip-path="url(#clip1_30_255)">
        <path d="M311 154.388L376.378 146.036L374.131 133.05L311 154.388Z" fill="#D20C28" />
        <path d="M335.811 182.697L384.399 202.972L387.895 193.047L335.811 182.697Z" fill="#B7091D" />
        <path d="M311 171.786L408.124 186.875L409 178.52L311 171.786Z" fill="#FFB81A" />
        <path d="M354.408 215.998L391.717 233.497L384.362 243.642L354.408 215.998Z" fill="#FFA131" />
        <path d="M360 116.742L391.319 102.865L384.718 95.5003L360 116.742Z" fill="#FFB81A" />
    </g>
    <path d="M185.076 171.538L90.6704 197.04L185.076 226.352L279.481 197.04L185.076 171.538Z" fill="#800C1E" />
    <path
        d="M218.297 228.842L171.361 240.13L138.113 205.11L151.796 158.78L198.732 147.492L231.985 182.533L218.297 228.842Z"
        fill="#FFE975" />
    <path
        d="M218.366 229.126L171.43 240.415C171.43 240.415 171.222 240.418 171.157 240.341L137.904 205.299C137.904 205.299 137.813 205.113 137.836 205.015L151.519 158.685C151.519 158.685 151.64 158.516 151.728 158.495L198.664 147.207C198.664 147.207 198.871 147.203 198.936 147.281L232.189 182.322C232.189 182.322 232.28 182.509 232.258 182.607L218.575 228.937C218.575 228.937 218.453 229.105 218.366 229.126ZM171.468 239.803L218.075 228.594L231.652 182.591L198.642 147.792L152.035 159.001L138.458 205.004L171.468 239.803Z"
        fill="#EBA820" />
    <path
        d="M215.282 225.742L172.528 236.025L142.229 204.12L154.702 161.905L197.456 151.623L227.76 183.55L215.282 225.742Z"
        fill="white" />
    <path
        d="M215.351 226.027L172.596 236.31C172.596 236.31 172.389 236.313 172.324 236.236L142.02 204.31C142.02 204.31 141.929 204.123 141.951 204.025L154.424 161.81C154.424 161.81 154.546 161.642 154.633 161.621L197.388 151.338C197.388 151.338 197.595 151.334 197.66 151.412L227.964 183.338C227.964 183.338 228.055 183.525 228.033 183.623L215.56 225.838C215.56 225.838 215.438 226.006 215.351 226.027ZM172.612 235.703L215.061 225.494L227.427 183.607L197.366 151.923L154.918 162.132L142.552 204.019L172.612 235.703Z"
        fill="#EBA820" />
    <g clip-path="url(#clip2_30_255)">
        <path
            d="M219.67 190.536L218.46 185.503C218.221 184.509 218.102 184.104 217.883 183.723C217.49 182.972 216.66 182.615 215.796 182.822C214.771 183.069 214.032 183.886 213.931 184.88C213.868 185.411 213.901 185.816 214.084 186.577L215.29 191.589L214.385 191.807L213.17 186.755C212.955 185.858 212.763 185.326 212.573 184.98C212.13 184.199 211.395 183.881 210.511 184.093C209.546 184.325 208.807 185.143 208.686 186.142C208.623 186.673 208.647 187.038 208.811 187.721L210.045 192.851L209.12 193.073L207.009 184.296L207.934 184.074L208.239 185.341C208.577 184.187 209.279 183.482 210.425 183.206C211.611 182.921 212.521 183.259 213.291 184.25C213.707 182.974 214.464 182.235 215.65 181.95C216.896 181.65 217.99 182.047 218.585 183.018C218.897 183.521 219.027 183.882 219.318 185.091L220.565 190.279L219.661 190.497L219.67 190.536Z"
            fill="#0A0355" />
        <path
            d="M159.464 205.015L154.14 201.262L152.44 203.919L153.074 206.552L152.21 206.76L150.028 197.691L150.892 197.483L152.159 202.749L156.62 196.105L157.805 195.82L154.633 200.483L160.489 204.769L159.464 205.015Z"
            fill="#0A0355" />
        <path
            d="M165.158 203.852C162.365 204.524 159.615 203.081 158.949 200.311C158.302 197.62 160.09 195.064 162.823 194.407C165.596 193.74 168.36 195.159 169.026 197.929C169.679 200.64 167.911 203.19 165.158 203.852ZM163.06 195.217C160.809 195.758 159.224 197.831 159.768 200.094C160.322 202.395 162.565 203.589 164.896 203.028C167.187 202.477 168.696 200.443 168.147 198.161C167.643 195.889 165.371 194.661 163.06 195.217Z"
            fill="#0A0355" />
        <path
            d="M170.738 202.304L169.472 202.609L174.662 192.633L168.512 194.112L169.019 193.123L175.148 191.649L176.474 191.33L171.21 201.262L177.962 199.638L177.49 200.68L170.738 202.304Z"
            fill="#0A0355" />
        <path
            d="M183.304 199.488C180.511 200.16 177.762 198.717 177.1 195.966C176.448 193.255 178.241 190.72 180.974 190.062C183.747 189.395 186.511 190.814 187.177 193.584C187.825 196.276 186.057 198.826 183.304 199.488ZM181.206 190.852C178.955 191.394 177.371 193.467 177.915 195.729C178.468 198.031 180.711 199.225 183.042 198.664C185.333 198.113 186.842 196.079 186.293 193.797C185.769 191.529 183.517 190.297 181.206 190.852Z"
            fill="#0A0355" />
        <path
            d="M200.926 185.076C198.193 185.734 196.405 188.289 197.053 190.98C197.057 191 197.062 191.019 197.067 191.039C197.616 193.321 196.107 195.355 193.816 195.906C191.464 196.472 189.242 195.273 188.688 192.971C188.144 190.709 189.709 188.641 191.979 188.095C193.567 187.713 195.126 188.184 196.125 189.243C196.145 188.888 196.191 188.547 196.277 188.196C195.071 187.248 193.41 186.884 191.722 187.29C188.989 187.947 187.202 190.502 187.849 193.194C188.515 195.964 191.26 197.387 194.053 196.716C196.103 196.223 197.608 194.705 197.964 192.825C199.156 194.333 201.207 194.995 203.277 194.497C206.03 193.835 207.802 191.304 207.145 188.574C206.464 185.828 203.719 184.405 200.926 185.076ZM203.019 193.693C200.668 194.258 198.446 193.059 197.892 190.758C197.348 188.495 198.912 186.427 201.183 185.881C203.494 185.325 205.746 186.558 206.291 188.821C206.839 191.103 205.33 193.137 203.019 193.693Z"
            fill="#888888" />
    </g>
    <path d="M185.076 345.5V226.352L90.6704 197.04L97.6261 310.561L185.076 345.5Z" fill="#D20C28" />
    <path
        d="M121.042 206.471L123.84 321.034L153.825 333.014L152.751 215.339L150.287 216.001L146.561 211.945L142.338 213.311L139.358 209.461L135.336 211.492L132.402 208.343L127.784 209.684L124.578 204.865L121.042 206.471Z"
        fill="#FFB81A" />
    <path d="M185.076 345.5V226.352L279.481 197.04L272.527 310.561L185.076 345.5Z" fill="#B7091D" />
    <path
        d="M249.11 206.471L246.312 321.034L216.327 333.014L217.401 215.339L219.865 216.001L223.897 212.11L228.12 213.436L230.852 210.371L235.986 210.785L238.719 207.804L242.444 209.047L245.574 204.865L249.11 206.471Z"
        fill="#FFA131" />
    <path d="M182.045 162.945L192.225 130.101L97.8926 69.7875L91.0495 103.327L182.045 162.945Z" fill="#D20C28" />
    <path
        d="M119.29 124.844L120.877 119L128.858 89.5853L160.886 110.064L150.547 143.42L146.839 143.279L144.195 138.146L138.871 137.637L134.677 132.278L131.399 132.403L129.335 128.211L124.322 128.306L123.323 124.698L119.29 124.844Z"
        fill="#FFB81A" />
    <path d="M182.045 162.945L192.225 130.101L304.133 133.711L290.808 165.241L182.045 162.945Z" fill="#B7091D" />
    <path
        d="M255.347 167.014L267.398 132.525L229.402 131.3L219.063 164.656L222.201 166.637L227.285 163.9L231.963 166.491L238.454 164.443L241.085 166.4L245.159 164.11L249.239 167.024L252.104 164.613L255.347 167.014Z"
        fill="#FFA131" />
    <path d="M97.8932 69.7877L209.57 74.1414L304.133 133.711L192.226 130.101L97.8932 69.7877Z" fill="#D20C28" />
    <path
        d="M200.454 91.0532C200.454 91.0532 259.474 102.844 282.543 101.413C305.612 99.9813 305.423 76.2576 305.423 76.2576C305.423 76.2576 322.841 98.0959 319.492 113.934C316.144 129.772 272.857 122.597 244.565 114.869C216.273 107.14 197.526 100.502 197.526 100.502L200.455 91.0546L200.454 91.0532Z"
        fill="#FFA131" />
    <path
        d="M203.167 92.4135C203.167 92.4135 272.185 50.0905 302.007 59.5934C331.829 69.0963 322.31 98.9703 319.493 113.932C319.493 113.932 320.96 97.455 303.181 92.7249C285.403 87.9948 260.854 90.0076 211.012 99.7852L203.169 92.4127L203.167 92.4135Z"
        fill="#FFB81A" />
    <path
        d="M207.054 93.0989C207.054 93.0989 151.711 69.4437 133.495 55.2161C115.28 40.9886 128.852 21.5302 128.852 21.5302C128.852 21.5302 102.138 29.6899 95.9416 44.6455C89.7457 59.6011 129.502 78.1644 157.206 87.7922C184.91 97.4189 204.124 102.547 204.124 102.547L207.052 93.0997L207.054 93.0989Z"
        fill="#FFA131" />
    <path
        d="M204.049 92.6866C204.049 92.6866 171.066 18.7486 141.097 9.7195C111.127 0.691512 102.084 30.7116 95.9436 44.6446C95.9436 44.6446 104.053 30.2265 121.39 36.3803C138.727 42.5342 157.834 58.078 193.409 94.3302L204.048 92.6862L204.049 92.6866Z"
        fill="#FFB81A" />
    <path d="M128.859 89.5855L188.442 91.3629L206.455 106.522L160.886 110.064L128.859 89.5855Z" fill="#FFA131" />
    <path d="M267.399 132.525L217.255 100.293L193.825 102.607L229.403 131.3L267.399 132.525Z" fill="#FFA131" />
    <path
        d="M198.973 108.408C182.765 103.384 178.697 94.0813 190.333 85.8401C201.969 77.599 216.183 84.9057 219.001 96.4298C221.819 107.953 215.569 113.551 198.973 108.408Z"
        fill="#FFB81A" />
    <path d="M120.876 119L122.191 114.152L159.175 115.583L157.724 120.264C157.724 120.264 143.349 122.403 120.876 119Z"
        fill="#FFA131" />
    <path
        d="M186.825 93.5928C158.918 102.711 116.714 81.1349 107.408 75.3118C107.408 75.3118 107.15 84.5853 113.882 96.1812C113.882 96.1812 109.297 101.539 99.3822 107.82C99.3822 107.82 108.747 111.578 122.194 114.151C135.151 116.631 151.899 118.01 167.712 113.866C199.931 105.42 201.771 96.9207 201.771 96.9207L186.828 93.5924L186.825 93.5928Z"
        fill="#FFB81A" />
    <path
        d="M255.347 167.014L257.345 161.297L267.398 132.525L229.402 131.3L219.063 164.656L222.201 166.637L227.285 163.9L231.963 166.491L238.454 164.443L241.085 166.4L245.159 164.11L249.239 167.024L252.104 164.613L255.347 167.014Z"
        fill="#FFB81A" />
    <path
        d="M257.348 161.298L259.004 156.556L227.694 136.819L226.243 141.501C226.243 141.501 236.889 151.395 257.348 161.298Z"
        fill="#FFA131" />
    <path
        d="M217.326 103.047C235.185 126.349 282.193 132.424 293.161 132.885C293.161 132.885 288.129 140.679 276.019 146.435C276.019 146.435 276.77 153.446 281.394 164.234C281.394 164.234 271.546 162.037 259.001 156.554C246.912 151.271 232.32 142.937 221.623 130.576C199.828 105.389 203.118 97.3386 203.118 97.3386L217.324 103.045L217.326 103.047Z"
        fill="#FFB81A" />
    <defs>
        <clipPath id="clip0_30_255">
            <rect width="98" height="148.142" fill="white" transform="translate(0 95.5003)" />
        </clipPath>
        <clipPath id="clip1_30_255">
            <rect width="98" height="148.142" fill="white" transform="matrix(-1 0 0 1 409 95.5003)" />
        </clipPath>
        <clipPath id="clip2_30_255">
            <rect width="70.2439" height="10.0537" fill="white" transform="translate(149.906 197.18) rotate(-13.523)" />
        </clipPath>
    </defs>
</svg>