<svg width="235" height="250" viewBox="0 0 235 250" fill="none" xmlns="http://www.w3.org/2000/svg">
    <path d="M117.134 76.0374L22.728 101.54L117.134 130.852L211.539 101.54L117.134 76.0374Z" fill="#800C1E" />
    <path d="M117.134 250V130.852L22.728 101.54L29.6837 215.06L117.134 250Z" fill="#D20C28" />
    <path
        d="M53.0991 110.97L55.898 225.534L85.8826 237.514L84.8085 119.839L82.3442 120.501L78.6189 116.444L74.3952 117.81L71.4152 113.961L67.3934 115.991L64.4596 112.843L59.8413 114.183L56.6352 109.364L53.0991 110.97Z"
        fill="#FFB81A" />
    <path d="M117.134 250V130.852L211.539 101.54L204.585 215.06L117.134 250Z" fill="#B7091D" />
    <path
        d="M181.168 110.97L178.369 225.534L148.384 237.514L149.458 119.839L151.923 120.501L155.955 116.609L160.177 117.935L162.909 114.871L168.043 115.285L170.776 112.304L174.502 113.546L177.632 109.364L181.168 110.97Z"
        fill="#FFA131" />
    <path d="M117.304 134.235V99.8486L9.34424 70.1663L12.7373 104.228L117.304 134.235Z" fill="#D20C28" />
    <path
        d="M46.0823 116.42L45.8677 110.368L44.7832 79.9092L81.4373 89.9879V124.909L77.8539 125.872L73.8091 121.753L68.5724 122.843L62.9805 118.965L59.8863 120.056L56.6732 116.663L51.9131 118.237L49.8906 115.087L46.0823 116.42Z"
        fill="#FFB81A" />
    <path d="M117.304 134.235V99.8486L225.263 70.1663L221.87 104.228L117.304 134.235Z" fill="#B7091D" />
    <path
        d="M188.525 116.42L189.825 79.9092L153.17 89.9879V124.909L156.753 125.872L160.799 121.753L166.035 122.843L171.628 118.965L174.721 120.056L177.934 116.663L182.694 118.237L184.717 115.087L188.525 116.42Z"
        fill="#FFA131" />
    <path d="M9.34424 70.1663L117.304 41.2627L225.263 70.1663L117.304 99.8486L9.34424 70.1663Z" fill="#D20C28" />
    <path
        d="M113.603 60.1153C113.603 60.1153 173.468 53.9049 195.079 45.7079C216.69 37.5109 209.486 14.9065 209.486 14.9065C209.486 14.9065 232.588 30.6095 234.079 46.7289C235.569 62.8484 192.099 68.8095 162.787 69.804C133.475 70.7974 113.604 70.0071 113.604 70.0071V60.1164L113.603 60.1153Z"
        fill="#FFA131" />
    <path
        d="M116.597 60.6114C116.597 60.6114 169.991 -0.247289 201.29 0.000756172C232.588 0.248801 232.34 31.6017 234.079 46.7267C234.079 46.7267 230.602 30.5541 212.22 31.2994C193.838 32.0447 170.985 41.2351 126.273 65.33L116.598 60.6102L116.597 60.6114Z"
        fill="#FFB81A" />
    <path
        d="M120.513 60.1153C120.513 60.1153 60.648 53.9049 39.0369 45.7079C17.4259 37.5109 24.6296 14.9065 24.6296 14.9065C24.6296 14.9065 1.52791 30.6095 0.0373364 46.7289C-1.45324 62.8484 42.0169 68.8095 71.3289 69.804C100.641 70.7974 120.512 70.0071 120.512 70.0071V60.1164L120.513 60.1153Z"
        fill="#FFA131" />
    <path
        d="M117.519 60.6114C117.519 60.6114 64.125 -0.247289 32.8263 0.000756172C1.52768 0.249955 1.77689 31.6017 0.0371094 46.7278C0.0371094 46.7278 3.51435 30.5553 21.8962 31.3006C40.2781 32.0459 63.1305 41.2362 107.843 65.3312L117.518 60.6114H117.519Z"
        fill="#FFB81A" />
    <path d="M44.7832 79.9093L102.221 63.9675L123.915 73.114L81.4373 89.988L44.7832 79.9093Z" fill="#FFA131" />
    <path d="M189.825 79.9093L132.386 63.9675L110.692 73.114L153.17 89.988L189.825 79.9093Z" fill="#FFA131" />
    <path
        d="M117.327 77.13C100.358 77.13 93.7185 69.4487 102.393 58.132C111.068 46.8154 126.808 49.5866 132.911 59.7599C139.014 69.9321 134.701 77.13 117.327 77.13Z"
        fill="#FFB81A" />
    <path d="M45.8683 110.368L45.6895 105.348L81.4391 95.7656V100.667C81.4391 100.667 68.3411 106.966 45.8683 110.368Z"
        fill="#FFA131" />
    <path
        d="M101.338 66.5761C77.3811 83.547 30.6817 75.433 20.0688 72.6261C20.0688 72.6261 22.5678 81.5603 32.4307 90.6433C32.4307 90.6433 29.6376 97.1179 22.0267 106.053C22.0267 106.053 32.0846 106.87 45.6902 105.347C58.8008 103.88 75.2064 100.239 89.083 91.5986C117.358 73.9932 116.599 65.3301 116.599 65.3301L101.34 66.5749L101.338 66.5761Z"
        fill="#FFB81A" />
    <path
        d="M188.525 116.42L188.741 110.368L189.825 79.9092L153.17 89.9879V124.909L156.753 125.872L160.799 121.753L166.035 122.843L171.628 118.965L174.721 120.056L177.934 116.663L182.694 118.237L184.717 115.087L188.525 116.42Z"
        fill="#FFB81A" />
    <path d="M188.741 110.368L188.92 105.348L153.17 95.7656V100.667C153.17 100.667 166.268 106.966 188.741 110.368Z"
        fill="#FFA131" />
    <path
        d="M133.27 66.5761C157.226 83.547 203.926 75.433 214.539 72.6261C214.539 72.6261 212.04 81.5603 202.177 90.6433C202.177 90.6433 204.97 97.1179 212.581 106.053C212.581 106.053 202.523 106.87 188.917 105.347C175.807 103.88 159.401 100.239 145.524 91.5986C117.25 73.9932 118.009 65.3301 118.009 65.3301L133.268 66.5749L133.27 66.5761Z"
        fill="#FFB81A" />
</svg>